<?xml version="1.0" encoding="UTF-8"?><svg id="Layer_1" xmlns="http://www.w3.org/2000/svg" width="316.41" height="248.57" viewBox="0 0 316.41 248.57"><defs><style>.cls-1{fill:#e6c5be;}.cls-2{fill:#b4bfc5;}.cls-3{fill:#cf7042;}.cls-4{fill:#e1a55d;}.cls-5{fill:#95aa99;}.cls-6{fill:#29aae1;}.cls-7{fill:#5d718a;}</style></defs><g id="airclay"><g><path class="cls-5" d="m172.71,146c-.33,0-.67-.02-1.01-.07-4.1-.55-6.98-4.33-6.43-8.44.06-.48,6.23-49.15-17.09-76.23-10.1-11.72-24.63-17.82-43.2-18.12-18.01-.31-32.31,5.21-42.52,16.37-24.34,26.59-19.41,76.49-19.36,77,.43,4.12-2.56,7.81-6.68,8.24-4.12.45-7.81-2.56-8.24-6.68-.24-2.32-5.63-57.18,23.21-88.69,13.23-14.46,31.37-21.6,53.82-21.24,23.06.37,41.35,8.24,54.36,23.38,27.71,32.24,20.86,85.72,20.55,87.98-.51,3.76-3.73,6.5-7.42,6.5Z"/><path class="cls-4" d="m185.93,145c-.35,0-.71-.03-1.07-.08-4.1-.59-6.95-4.39-6.36-8.49.07-.53,7.26-53.93-19.31-85-12.43-14.53-30.66-22.08-54.2-22.44-22.87-.37-40.85,6.51-53.46,20.4-27.8,30.59-22.07,85.37-22.01,85.92.46,4.12-2.51,7.83-6.62,8.28-4.12.46-7.83-2.51-8.28-6.62-.28-2.52-6.49-62.12,25.81-97.67,15.64-17.21,37.45-25.71,64.79-25.3,28.06.43,50.07,9.76,65.42,27.75,12.93,15.14,20.94,36.74,23.18,62.45,1.66,19.1-.39,33.75-.47,34.36-.54,3.74-3.74,6.44-7.41,6.44Z"/><path class="cls-3" d="m199.74,144.87c-.37,0-.74-.03-1.12-.08-4.1-.61-6.92-4.43-6.31-8.53.08-.58,8.33-59.16-21.61-94.37-14.81-17.42-36.87-26.46-65.56-26.88-27.91-.4-49.64,7.83-64.72,24.49-31.34,34.62-24.86,94.89-24.79,95.49.47,4.11-2.48,7.83-6.59,8.31-4.12.48-7.83-2.47-8.31-6.58-.08-.69-1.92-17.03.56-38.28,3.33-28.55,13-52.39,27.96-68.95C47.35,9.46,73-.45,105.37.02c33.24.49,59.08,11.33,76.82,32.22,34.34,40.46,25.36,103.58,24.96,106.24-.56,3.72-3.76,6.39-7.41,6.39Z"/><path class="cls-2" d="m159.86,145.29c-.31,0-.63-.02-.95-.06-4.11-.52-7.02-4.27-6.5-8.38.05-.42,5.13-43.22-14.48-65.81-7.85-9.05-18.47-13.56-32.47-13.81-13.5-.24-23.93,3.81-31.83,12.35-20.35,22.02-16.37,66.01-16.33,66.45.4,4.12-2.62,7.79-6.74,8.19-4.12.41-7.79-2.61-8.19-6.73-.2-2.07-4.71-51.05,20.2-78.06,10.81-11.73,25.34-17.53,43.14-17.21,18.26.32,32.92,6.71,43.57,19.01,23.99,27.7,18.25,75.47,18,77.49-.48,3.79-3.71,6.56-7.43,6.56Z"/><path class="cls-7" d="m145.56,145.36c-.28,0-.56-.02-.85-.05-4.12-.46-7.08-4.17-6.62-8.29,0-.09,1.07-9.92-.02-21.95-.95-10.55-3.78-25.05-11.84-34.22-5.31-6.05-12.23-9.07-21.17-9.24-.25,0-.5,0-.76,0-8.22,0-14.72,2.67-19.84,8.14-6.57,7.02-10.96,18.84-12.68,34.19-1.38,12.23-.54,22.33-.53,22.43.35,4.12-2.7,7.76-6.83,8.11-4.12.34-7.76-2.69-8.12-6.82-.16-1.86-3.73-45.76,17.18-68.14,8.24-8.82,18.94-13.16,31.87-12.91,13.21.26,24.04,5.09,32.17,14.38,20.22,23.07,15.67,65.91,15.46,67.72-.43,3.83-3.68,6.66-7.44,6.66Z"/></g><path class="cls-6" d="m29.09,191.47c-.02.36-.03.73-.03,1.09s.01.73.03,1.09c-.07-.36-.1-.72-.1-1.09s.03-.73.1-1.09Z"/><path class="cls-6" d="m246.9,193.56c.03-.33.03-.67.03-1s0-.67-.03-1c.06.33.09.66.09,1s-.03.67-.09,1Z"/><g><path class="cls-1" d="m245.66,190.02c0,.33,0,.67-.03,1-.71,25.61-29.05,47.42-68.89,56.33-3.76.84-7.61,1.22-11.46,1.22h-57.16c-3.85,0-7.7-.38-11.46-1.22-39.77-8.9-68.07-30.67-68.85-56.24-.02-.36-.03-.73-.03-1.09s.01-.73.03-1.09c2.32-14.31,50.19-25.73,108.9-25.73s106.78,11.47,108.91,25.82c.03.33.03.67.03,1Z"/><ellipse class="cls-3" cx="137.1" cy="189.7" rx="98.09" ry="20.52"/></g><path class="cls-6" d="m249.9,173.32c-1.36-.19-2.65-.75-3.79-1.61,1.1.57,2.37,1.11,3.79,1.61Z"/><g><path class="cls-1" d="m316.41,94.43v66.23c0,4.73-1.97,8.86-4.91,11.05-1.1.57-2.37,1.11-3.79,1.61-6.88,2.43-17.23,3.98-28.8,3.98s-21.92-1.55-28.8-3.98c-1.42-.5-2.69-1.04-3.79-1.61-2.94-2.19-4.91-6.32-4.91-11.05v-66.23c0-.2,0-.41.02-.62.01-.43.05-.85.11-1.27,1.6-5.69,17.72-10.14,37.37-10.14s35.77,4.45,37.37,10.14c.06.42.1.84.11,1.27.02.21.02.42.02.62Z"/><path class="cls-3" d="m311.41,94.18c0,.1,0,.19-.02.28-.54,4.78-14.88,8.61-32.48,8.61s-31.95-3.83-32.48-8.61c0-.09-.02-.18-.02-.28,0-.25.03-.5.11-.75,1.39-4.57,15.36-8.15,32.39-8.15s31,3.58,32.39,8.15c.08.24.11.49.11.75Z"/><path class="cls-6" d="m311.29,171.71c-1.14.86-2.43,1.42-3.79,1.61,1.42-.5,2.69-1.04,3.79-1.61Z"/></g></g></svg>