<?xml version="1.0" encoding="UTF-8"?><svg id="Layer_1" xmlns="http://www.w3.org/2000/svg" width="380" height="425" viewBox="0 0 380 425"><defs><style>.cls-1{fill:#e6c5be;}.cls-2{fill:#b4bfc5;}.cls-3{fill:#cf7042;}.cls-4{fill:#e1a55d;}.cls-5{fill:#95aa99;}.cls-6{fill:#29aae1;}.cls-7{fill:#5d718a;}</style></defs><g id="airclay"><g><path class="cls-5" d="m206.92,237.84c-.39,0-.79-.03-1.18-.08-4.79-.65-8.15-5.05-7.5-9.84.08-.56,7.27-57.34-19.94-88.93-11.78-13.68-28.74-20.79-50.4-21.14-21.01-.36-37.69,6.08-49.6,19.1-28.39,31.02-22.65,89.25-22.59,89.83.5,4.81-2.98,9.11-7.79,9.61-4.81.52-9.11-2.98-9.61-7.79-.28-2.71-6.57-66.71,27.08-103.47,15.44-16.87,36.59-25.2,62.8-24.78,26.9.44,48.24,9.61,63.43,27.27,32.33,37.61,24.33,100,23.98,102.64-.59,4.39-4.35,7.58-8.66,7.58Z"/><path class="cls-4" d="m222.35,236.67c-.41,0-.83-.03-1.25-.09-4.78-.68-8.11-5.12-7.42-9.9.09-.62,8.47-62.92-22.53-99.17-14.5-16.95-35.77-25.76-63.23-26.18-26.68-.43-47.66,7.6-62.38,23.8-32.43,35.69-25.75,99.6-25.67,100.24.53,4.8-2.93,9.13-7.73,9.66-4.8.54-9.13-2.93-9.66-7.73-.33-2.94-7.57-72.47,30.12-113.95,18.25-20.08,43.7-29.99,75.59-29.52,32.74.5,58.42,11.39,76.32,32.37,15.08,17.67,24.43,42.86,27.05,72.86,1.94,22.28-.45,39.37-.55,40.09-.62,4.36-4.37,7.51-8.65,7.51Z"/><path class="cls-3" d="m238.46,236.52c-.43,0-.87-.03-1.31-.1-4.78-.71-8.07-5.17-7.36-9.95.1-.68,9.72-69.02-25.21-110.1-17.28-20.32-43.01-30.87-76.49-31.36-32.56-.47-57.92,9.14-75.51,28.57-36.57,40.39-29,110.71-28.92,111.41.55,4.8-2.89,9.14-7.69,9.69-4.8.56-9.14-2.88-9.69-7.68-.09-.8-2.24-19.87.65-44.66,3.88-33.31,15.16-61.12,32.62-80.44,21.12-23.37,51.04-34.93,88.8-34.39,38.78.57,68.93,13.22,89.63,37.59,40.07,47.2,29.59,120.84,29.13,123.95-.65,4.34-4.38,7.46-8.64,7.46Z"/><path class="cls-2" d="m191.94,237.01c-.37,0-.74-.02-1.11-.07-4.79-.61-8.19-4.99-7.58-9.78.06-.49,5.98-50.42-16.9-76.78-9.16-10.56-21.55-15.83-37.88-16.11-15.75-.28-27.92,4.44-37.13,14.41-23.75,25.69-19.1,77.02-19.05,77.53.46,4.81-3.05,9.09-7.86,9.55-4.8.48-9.08-3.04-9.56-7.85-.24-2.42-5.49-59.56,23.57-91.07,12.62-13.68,29.57-20.45,50.33-20.07,21.3.37,38.41,7.83,50.84,22.18,27.99,32.32,21.29,88.05,21,90.4-.56,4.42-4.33,7.65-8.67,7.65Z"/><path class="cls-7" d="m175.25,237.1c-.33,0-.66-.02-.99-.06-4.8-.54-8.26-4.87-7.72-9.67.01-.11,1.25-11.57-.02-25.61-1.11-12.3-4.41-29.22-13.81-39.93-6.19-7.05-14.27-10.58-24.69-10.78-.3,0-.59,0-.88,0-9.59,0-17.17,3.11-23.15,9.5-7.66,8.19-12.78,21.98-14.8,39.89-1.61,14.27-.63,26.05-.62,26.17.41,4.81-3.15,9.05-7.96,9.47-4.81.4-9.05-3.14-9.47-7.95-.19-2.17-4.35-53.39,20.05-79.5,9.61-10.28,22.09-15.35,37.18-15.06,15.42.3,28.04,5.94,37.53,16.77,23.59,26.92,18.28,76.89,18.04,79.01-.5,4.47-4.29,7.77-8.68,7.77Z"/></g><path class="cls-6" d="m39.36,290.89c-.02.42-.04.85-.04,1.27s.01.85.04,1.27c-.08-.42-.12-.84-.12-1.27s.03-.85.12-1.27Z"/><path class="cls-6" d="m293.48,293.33c.04-.39.04-.78.04-1.17s0-.78-.04-1.17c.07.38.1.77.1,1.17s-.04.78-.1,1.17Z"/><g><path class="cls-1" d="m292.03,289.19c0,.38,0,.78-.04,1.17-.82,29.88-33.89,55.33-80.37,65.72-4.38.98-8.87,1.42-13.37,1.42h-66.68c-4.49,0-8.98-.44-13.37-1.42-46.4-10.38-79.41-35.78-80.32-65.61-.02-.42-.04-.85-.04-1.27s.01-.85.04-1.27c2.71-16.7,58.56-30.02,127.05-30.02s124.58,13.38,127.06,30.12c.04.38.04.78.04,1.17Z"/><ellipse class="cls-3" cx="165.38" cy="288.83" rx="114.44" ry="23.94"/></g><path class="cls-6" d="m296.98,269.71c-1.59-.22-3.09-.88-4.42-1.88,1.28.67,2.77,1.3,4.42,1.88Z"/><g><path class="cls-1" d="m374.57,177.67v77.27c0,5.52-2.3,10.34-5.73,12.89-1.28.67-2.76,1.3-4.42,1.88-8.03,2.84-20.1,4.64-33.6,4.64s-25.57-1.81-33.6-4.64c-1.66-.58-3.14-1.21-4.42-1.88-3.43-2.56-5.73-7.37-5.73-12.89v-77.27c0-.23,0-.48.02-.72.01-.5.06-.99.13-1.48,1.87-6.64,20.67-11.83,43.6-11.83s41.73,5.19,43.6,11.83c.07.49.12.98.13,1.48.02.24.02.49.02.72Z"/><path class="cls-3" d="m368.74,177.37c0,.11-.01.22-.02.32-.63,5.58-17.36,10.05-37.9,10.05s-37.27-4.47-37.9-10.05c-.01-.1-.02-.21-.02-.32,0-.29.04-.59.13-.87,1.62-5.33,17.92-9.5,37.79-9.5s36.17,4.18,37.79,9.5c.09.28.13.58.13.87Z"/><path class="cls-6" d="m368.61,267.83c-1.33,1-2.83,1.66-4.42,1.88,1.66-.58,3.14-1.21,4.42-1.88Z"/></g></g></svg>