<?xml version="1.0" encoding="UTF-8"?><svg id="Layer_1" xmlns="http://www.w3.org/2000/svg" width="572.65" height="292.49" viewBox="0 0 572.65 292.49"><defs><style>.cls-1{fill:#fac158;}.cls-2{fill:#e6c5be;}.cls-3{fill:#cf7042;}.cls-4{fill:#a47d50;}.cls-5{fill:#e1a55d;}.cls-6{fill:#95aa99;}.cls-7{fill:#5d718a;}</style></defs><g id="Akrylmaling"><g><path class="cls-4" d="m416.25,147.23c-7-69-75-116-137-125s-76,11-76,11c-17,21,6,48,6,48,0,0,17,19-4,30s-45-13-45-13c0,0-61-21-91,15s15,139,150,156,157-9,175-20,29-33,22-102Zm-132-65s-11.06,9-26.03,0c-14.97-9-6.97-22-4.97-24s14-6,26,5,5,19,5,19Z"/><path class="cls-7" d="m330.75,118.73s-6-40,12-40,15,26,20,32,24,22,20,34-22,28-34,22-12-8-22-8-16,11-25,7-6-26,8-33,24-7,21-14Z"/><path class="cls-5" d="m223.22,147.37s9.53-26.64,20.53-24.64,22,12,22,26,18,12,19,25-7,24-24,24-18-5-24-8-18,0-24,4-19-4-17-21,8-18,14-20,13.94-1.71,13.47-5.36Z"/><path class="cls-6" d="m303.75,203.73c2-6,15.26-23.61,27-15,15,11,31.85,5.85,37,11s5,9-6,15-13,19-15,25-6,14-27,14-41-8-43-27,25-17,27-23Z"/><path class="cls-2" d="m210.75,217.73c4-5,11-11,18-9s22,6,20,18-23,17-32,17-44.78,4.61-45.39-17.7,35.39-3.3,39.39-8.3Z"/><path class="cls-1" d="m171.35,141.93c-2.6,7.8-7.6,7.8-8.6,12.8s4,27-14,38-44-23-44-23c0,0-12-17-3-32s12-18,18-18,12,13,19,12,16-7,24-5,11.2,7.41,8.6,15.2Z"/></g><g><path class="cls-2" d="m467.75,218.73l17.36-109.98c.32-2.05,2.48-3.25,4.39-2.44l56.86,23.99c1.79.75,2.49,2.92,1.49,4.58l-57.1,94.85-23-11Z"/><path class="cls-3" d="m467.75,218.73l-3.08,7.98c-.66,1.7.11,3.62,1.76,4.39l15.47,7.28c1.61.76,3.54.17,4.46-1.36l4.38-7.31-23-11Z"/><polygon class="cls-3" points="481.65 130.72 536.63 153.52 501.85 211.3 470.89 198.87 481.65 130.72"/></g><g><path class="cls-6" d="m454.26,65.38L544.81.6c1.68-1.21,4.05-.51,4.82,1.42l22.8,57.34c.72,1.8-.33,3.83-2.22,4.28l-107.65,25.85-8.3-24.11Z"/><path class="cls-3" d="m454.26,65.38l-7.85,3.41c-1.67.73-2.5,2.62-1.9,4.34l5.66,16.14c.59,1.68,2.36,2.65,4.1,2.23l8.28-2-8.3-24.11Z"/><polygon class="cls-3" points="526.73 13.53 549.05 68.71 483.48 84.46 470.61 53.68 526.73 13.53"/></g><g><path class="cls-1" d="m108.16,287.74L2.21,253.52c-1.97-.64-2.82-2.95-1.73-4.71l32.52-52.44c1.02-1.65,3.27-2.01,4.76-.76l84.84,71.13-14.44,21.01Z"/><path class="cls-3" d="m108.16,287.74l7.41,4.28c1.58.91,3.59.45,4.61-1.06l9.6-14.15c1-1.48.72-3.47-.65-4.62l-6.54-5.46-14.44,21.01Z"/><polygon class="cls-3" points="23.37 260.35 54.43 209.58 106.11 252.9 89.02 281.56 23.37 260.35"/></g></g></svg>