<?xml version="1.0" encoding="UTF-8"?><svg id="Layer_1" xmlns="http://www.w3.org/2000/svg" width="380" height="425" viewBox="0 0 380 425"><defs><style>.cls-1{fill:#fac158;}.cls-2{fill:#e6c5be;}.cls-3{fill:#cf7042;}.cls-4{fill:#a47d50;}.cls-5{fill:#e1a55d;}.cls-6{fill:#95aa99;}.cls-7{fill:#5d718a;}</style></defs><g id="Akrylmaling"><g><path class="cls-4" d="m368.57,238.99c-6.65-66.68-71.21-112.11-130.07-120.81s-72.16,10.63-72.16,10.63c-16.14,20.3,5.7,46.39,5.7,46.39,0,0,16.14,18.36-3.8,28.99-19.94,10.63-28.34-6.36-42.72-12.56s-57.91-20.3-86.4,14.5c-28.48,34.79,14.24,134.34,142.41,150.77,128.17,16.43,149.06-8.7,166.15-19.33,17.09-10.63,27.53-31.89,20.89-98.58Zm-125.32-62.82s-10.5,8.7-24.72,0c-14.21-8.7-6.62-21.26-4.72-23.19s13.29-5.8,24.68,4.83,4.75,18.36,4.75,18.36Z"/><path class="cls-7" d="m287.4,211.44s-5.7-38.66,11.39-38.66c17.09,0,14.24,25.13,18.99,30.93s22.79,21.26,18.99,32.86-20.89,27.06-32.28,21.26c-11.39-5.8-11.39-7.73-20.89-7.73-9.49,0-15.19,10.63-23.74,6.77-8.54-3.87-5.7-25.13,7.6-31.89s22.79-6.77,19.94-13.53Z"/><path class="cls-5" d="m185.31,239.12s9.05-25.75,19.49-23.82,20.89,11.6,20.89,25.13,17.09,11.6,18.04,24.16c.95,12.56-6.65,23.19-22.79,23.19s-17.09-4.83-22.79-7.73c-5.7-2.9-17.09,0-22.79,3.87-5.7,3.87-18.04-3.87-16.14-20.3,1.9-16.43,7.6-17.4,13.29-19.33s13.24-1.66,12.79-5.18Z"/><path class="cls-6" d="m261.77,293.59c1.9-5.8,14.49-22.82,25.63-14.5,14.24,10.63,30.24,5.66,35.13,10.63,4.75,4.83,4.75,8.7-5.7,14.5-10.44,5.8-12.34,18.36-14.24,24.16s-5.7,13.53-25.63,13.53-38.93-7.73-40.82-26.09,23.74-16.43,25.63-22.23Z"/><path class="cls-2" d="m173.47,307.12c3.8-4.83,10.44-10.63,17.09-8.7,6.65,1.93,20.89,5.8,18.99,17.4-1.9,11.6-21.84,16.43-30.38,16.43s-42.52,4.45-43.1-17.1c-.58-21.55,33.6-3.19,37.4-8.02Z"/><path class="cls-1" d="m136.06,233.87c-2.47,7.54-7.22,7.54-8.17,12.37s3.8,26.09-13.29,36.72c-17.09,10.63-41.77-22.23-41.77-22.23,0,0-11.39-16.43-2.85-30.93,8.54-14.5,11.39-17.4,17.09-17.4s11.39,12.56,18.04,11.6,15.19-6.77,22.79-4.83c7.6,1.93,10.63,7.16,8.17,14.69Z"/></g><g><path class="cls-2" d="m58.12,122.97L75.49,12.99c.32-2.05,2.48-3.25,4.39-2.44l56.86,23.99c1.79.75,2.49,2.92,1.49,4.58l-57.1,94.85-23-11Z"/><path class="cls-3" d="m58.12,122.97l-3.08,7.98c-.66,1.7.11,3.62,1.76,4.39l15.47,7.28c1.61.76,3.54.17,4.46-1.36l4.38-7.31-23-11Z"/><polygon class="cls-3" points="72.02 34.95 127 57.76 92.22 115.53 61.26 103.11 72.02 34.95"/></g><g><path class="cls-6" d="m141.99,77.66L232.54,12.87c1.68-1.21,4.05-.51,4.82,1.42l22.8,57.34c.72,1.8-.33,3.83-2.22,4.28l-107.65,25.85-8.3-24.11Z"/><path class="cls-3" d="m141.99,77.66l-7.85,3.41c-1.67.73-2.5,2.62-1.9,4.34l5.66,16.14c.59,1.68,2.36,2.65,4.1,2.23l8.28-2-8.3-24.11Z"/><polygon class="cls-3" points="214.46 25.81 236.78 80.99 171.21 96.74 158.34 65.96 214.46 25.81"/></g><g><path class="cls-1" d="m130.11,406.41l-108.74-23.91c-2.02-.44-3.09-2.67-2.17-4.53l27.34-55.32c.86-1.74,3.06-2.31,4.66-1.22l91.26,62.67-12.36,22.3Z"/><path class="cls-3" d="m130.11,406.41l7.78,3.55c1.66.76,3.62.1,4.49-1.5l8.2-15.01c.86-1.57.39-3.53-1.09-4.53l-7.03-4.81-12.36,22.3Z"/><polygon class="cls-3" points="43.08 387.28 69.14 333.76 124.73 371.93 110.47 402.09 43.08 387.28"/></g></g></svg>