<?xml version="1.0" encoding="UTF-8"?><svg id="Layer_1" xmlns="http://www.w3.org/2000/svg" width="380" height="425" viewBox="0 0 380 425"><defs><style>.cls-1{fill:#f1f1f1;}.cls-2{fill:#e6c5be;}.cls-3{fill:#b4bfc5;}.cls-4{fill:#cf7042;}.cls-5{fill:#a47d50;}.cls-6{fill:#cbcbcb;}.cls-7{fill:#c49d6a;}.cls-8{fill:#e1a55d;}.cls-9{fill:#95aa99;}.cls-10{fill:#5d718a;}</style></defs><g><rect class="cls-1" x="50.49" y="103.17" width="131.38" height="195.99" rx="13.92" ry="13.92" transform="translate(-34.19 24.1) rotate(-10.33)"/><g><circle class="cls-8" cx="74.42" cy="147.27" r="22.81"/><circle class="cls-4" cx="85.28" cy="206.8" r="22.81"/><circle class="cls-2" cx="96.13" cy="266.33" r="22.81"/><circle class="cls-10" cx="136.23" cy="136" r="22.81"/><circle class="cls-3" cx="147.09" cy="195.53" r="22.81"/><circle class="cls-9" cx="157.94" cy="255.07" r="22.81"/></g></g><g><path class="cls-1" d="m193.89,169.86l.11.66c-.07-.22-.11-.44-.11-.66Z"/><path class="cls-1" d="m267.33,169.86c0,.22-.04.44-.11.66l.11-.66Z"/><path class="cls-1" d="m304.96,206.74c-2.49-.29-5.06-.55-7.69-.76,2.63.21,5.2.46,7.69.76Z"/><path class="cls-1" d="m345.65,223.82c0-.4-.04-.79-.14-1.18.08.39.13.79.13,1.19v.09-.1Zm-39.33,16.94c-6.86.86-14.33,1.4-22.18,1.57-1.69.03-3.39.05-5.1.05s-3.27-.02-4.88-.05c-.5-.01-1-.02-1.5-.04-1.83-.04-3.63-.11-5.41-.2-.55-.03-1.09-.06-1.63-.09-.54-.03-1.08-.06-1.62-.1-.8-.05-1.59-.1-2.37-.16-.5-.04-1-.08-1.5-.12s-1-.08-1.49-.13c-.1-.01-.19-.01-.28-.02-.75-.07-1.49-.14-2.22-.22-1.02-.1-2.03-.21-3.02-.33-.1-.01-.2-.02-.29-.03-.9-.11-1.79-.22-2.66-.34-.98-.13-1.93-.27-2.88-.41-1.25-.19-2.48-.39-3.69-.6-1.6-.28-3.15-.58-4.65-.89-.57-.12-1.12-.24-1.67-.37-.05,0-.1-.02-.14-.03-.4-.08-.79-.18-1.17-.27-.22-.05-.44-.1-.66-.15-.36-.09-.71-.18-1.06-.27-2.43-.61-4.71-1.28-6.8-1.99-.27-.1-.54-.19-.81-.29-.99-.35-1.94-.71-2.84-1.08-.3-.12-.59-.25-.87-.37-.29-.12-.58-.25-.85-.38-.51-.23-.99-.46-1.46-.7-.05-.03-.1-.05-.15-.08-.44-.22-.87-.45-1.27-.68-.18-.1-.34-.2-.51-.3-.27-.16-.53-.32-.78-.48-.08-.05-.16-.1-.24-.16-.13-.08-.25-.16-.37-.24-.19-.14-.38-.27-.56-.4-.19-.14-.37-.28-.54-.41-.1-.09-.21-.17-.3-.25-.43-.35-.81-.7-1.16-1.06-.11-.12-.22-.24-.33-.36-.12-.13-.23-.25-.33-.38-.03-.03-.06-.07-.08-.1l-.12-.15c-.05-.08-.11-.15-.16-.22-.1-.15-.2-.29-.29-.44-.1-.15-.19-.3-.26-.44-.08-.14-.14-.27-.2-.4,0-.01-.01-.02-.01-.03h-.01c-.03-.07-.05-.13-.07-.19-.1-.23-.18-.45-.24-.67l21.45,151.86c0,6.84,20.13,12.37,44.95,12.37s44.96-5.53,44.96-12.37l21.46-151.9c-1.91,6.92-17.44,12.78-39.14,15.49Zm28.29,34.09l-.07.54s0,.05-.02.05c-1.41,5.8-20.8,10.53-45.99,11.49-3.08.12-6.25.18-9.49.18-2.51,0-4.99-.04-7.41-.11-24.69-.73-44.24-5.07-47.63-10.54l-.36-2.65v-.02c2.22-6.32,25.87-11.31,54.83-11.38.84-3,1.71-6.1,2.61-9.29l18.48,5.33c-.61,1.58-1.21,3.14-1.81,4.68,21.48,1.71,36.86,6.28,36.86,11.63v.09Zm10.51-53.38c.17.38.31.77.4,1.16-.08-.39-.22-.77-.4-1.16Zm-3.29-3.86c.5.4.96.8,1.37,1.2-.41-.41-.87-.81-1.37-1.2Zm-16.51-2.67c-2.67-.75-5.53-1.42-8.55-2.01-3,8.07-5.93,15.89-8.71,23.24,6.32-.87,12.14-2.02,17.26-3.45,13.73-3.82,16.7-8.05,16.7-8.89s-2.97-5.06-16.7-8.89Zm-3.15-5.24c.64.15,1.28.3,1.89.46-.62-.16-1.25-.31-1.89-.46Zm-3.87-.86c-2.38-.49-4.89-.93-7.5-1.32,2.61.4,5.12.84,7.5,1.33.65.13,1.3.27,1.93.41.66.14,1.3.29,1.94.44-1.25-.3-2.53-.59-3.87-.86Zm5.76,1.32c1.22.31,2.4.64,3.53.97-1.13-.34-2.31-.66-3.53-.97Zm-45.02-.54c-17.52,0-33.96,1.89-46.27,5.32-13.74,3.83-16.71,8.05-16.71,8.89s2.97,5.07,16.71,8.89c12.31,3.43,28.75,5.32,46.27,5.32,2.13,0,4.25-.03,6.35-.09,2.48-8.62,5.23-18.05,8.14-27.88-4.7-.3-9.55-.45-14.49-.45Zm-57.53,4.85c1.12-.53,2.32-1.04,3.61-1.54-1.29.49-2.49,1-3.61,1.54Zm-1.6.81c.51-.28,1.04-.55,1.59-.81-.55.27-1.09.54-1.59.81Z"/><g><path class="cls-3" d="m334.51,275.44l-12.43,92.2c0,6.84-19.21,12.37-42.9,12.37s-42.89-5.53-42.89-12.37l-12.3-91.18c3.39,5.47,22.94,9.81,47.63,10.54,2.42.07,4.9.11,7.41.11,3.24,0,6.41-.06,9.49-.18,25.19-.96,44.58-5.69,45.99-11.49Z"/><path class="cls-10" d="m334.6,274.76v.09l-.07.54s0,.05-.02.05c-1.41,5.8-20.8,10.53-45.99,11.49-3.08.12-6.25.18-9.49.18-2.51,0-4.99-.04-7.41-.11-24.69-.73-44.24-5.07-47.63-10.54l-.36-2.65v-.02c2.22-6.32,25.87-11.31,54.83-11.38-1.29,4.6-2.5,8.96-3.63,13.01-.21.75-.41,1.48-.61,2.2,1.3,1.07,4.86,1.83,9.06,1.83,3.92,0,7.3-.67,8.78-1.63.21-.54.42-1.08.63-1.62,1.59-4.11,3.29-8.48,5.05-13.07,21.48,1.71,36.86,6.28,36.86,11.63Z"/><path class="cls-10" d="m223.99,276.46c-.34-.55-.53-1.13-.53-1.7,0-.32.06-.63.17-.95l.36,2.65Z"/></g><g><path class="cls-7" d="m361.24,83.3c-4.03-13.15-13.18-14.5-23.4-8.09-3.72,2.2-25.78,72.37-43.05,130.59h-.01c-.42,1.43-.84,2.86-1.26,4.27-2.91,9.83-5.66,19.26-8.14,27.88,7.97-.2,15.63-.81,22.67-1.78,2.78-7.35,5.71-15.17,8.71-23.24.51-1.35,1.02-2.71,1.53-4.08-2.38-.49-4.89-.93-7.5-1.33,2.61.39,5.12.83,7.5,1.32,20.73-55.79,44.15-121.56,42.95-125.54Z"/><path class="cls-7" d="m304.96,206.74c-2.49-.29-5.06-.55-7.69-.76,2.63.21,5.2.46,7.69.76Z"/><path class="cls-7" d="m306.31,240.76c-2.41,6.36-4.68,12.31-6.76,17.69l-18.48-5.33c.95-3.39,1.97-7,3.06-10.79,7.85-.17,15.32-.71,22.18-1.57Z"/><path class="cls-7" d="m318.29,208.84h0c-2.38-.48-4.89-.92-7.5-1.32,2.61.39,5.12.83,7.5,1.32Z"/><path class="cls-5" d="m266.58,305.32s-30.19,17.49-22.44,38.75c4.05,11.11-2.07,13.18-1.55,16.55.26,1.7,2.19,2.55,3.7,1.64,5.75-3.44,19.98-6.87,27.28-15,10.05-11.18,6.06-37.6,6.06-37.6l-13.05-4.35Z"/><path class="cls-6" d="m299.55,258.45c-.61,1.58-1.21,3.14-1.81,4.68-1.76,4.59-3.46,8.96-5.05,13.07-.21.54-.42,1.08-.63,1.62-1.48.96-4.86,1.63-8.78,1.63-4.2,0-7.76-.76-9.06-1.83.2-.72.4-1.45.61-2.2,1.13-4.05,2.34-8.41,3.63-13.01.84-3,1.71-6.1,2.61-9.29l18.48,5.33Z"/><path class="cls-6" d="m288.52,286.93c-5.3,13.6-8.75,22.36-8.9,22.73h0s-13.05-4.34-13.05-4.34h.01c.08-.34,1.97-7.26,5.04-18.32,2.42.07,4.9.11,7.41.11,3.24,0,6.41-.06,9.49-.18Z"/></g><path class="cls-6" d="m345.45,225.25c.12-.44.18-.88.19-1.33l-.19,1.33Zm-132.49.95c.06.13.12.26.2.4-.08-.14-.15-.28-.21-.43,0,.01,0,.02.01.03Zm-.09-.22c.02.06.04.12.07.18h.01c-.03-.06-.06-.12-.08-.18Zm-.25-.73l-.2-1.42c0,.48.07.95.2,1.42Z"/><path class="cls-6" d="m345.64,223.83v.09l-.19,1.33s-.01.01,0,.02c-1.91,6.92-17.44,12.78-39.14,15.49-6.86.86-14.33,1.4-22.18,1.57-1.69.03-3.39.05-5.1.05s-3.27-.02-4.88-.05c-.5-.01-1-.02-1.5-.04-1.83-.04-3.63-.11-5.41-.2-.55-.03-1.09-.06-1.63-.09-.54-.03-1.08-.06-1.62-.1-.8-.05-1.59-.1-2.37-.16-.5-.04-1-.08-1.5-.12s-1-.08-1.49-.13c-.1-.01-.19-.01-.28-.02-.75-.07-1.49-.14-2.22-.22-1.02-.1-2.03-.21-3.02-.33-.1-.01-.2-.02-.29-.03-.9-.11-1.79-.22-2.66-.34-.98-.13-1.93-.27-2.88-.41-1.25-.19-2.48-.39-3.69-.6-1.6-.28-3.15-.58-4.65-.89-.57-.12-1.12-.24-1.67-.37-.05,0-.1-.02-.14-.03-.4-.08-.79-.18-1.17-.27-.22-.05-.44-.1-.66-.15-.36-.09-.71-.18-1.06-.27-2.43-.61-4.71-1.28-6.8-1.99-.27-.1-.54-.19-.81-.29-.99-.35-1.94-.71-2.84-1.08-.3-.12-.59-.25-.87-.37-.29-.12-.58-.25-.85-.38-.51-.23-.99-.46-1.46-.7-.05-.03-.1-.05-.15-.08-.44-.22-.87-.45-1.27-.68-.18-.1-.34-.2-.51-.3-.27-.16-.53-.32-.78-.48-.08-.05-.16-.1-.24-.16-.13-.08-.25-.16-.37-.24-.19-.14-.38-.27-.56-.4-.19-.14-.37-.28-.54-.41-.1-.09-.21-.17-.3-.25-.43-.35-.81-.7-1.16-1.06-.11-.12-.22-.24-.33-.36-.12-.13-.23-.25-.33-.38-.03-.03-.06-.07-.08-.1l-.12-.15c-.05-.08-.11-.15-.16-.22-.1-.15-.2-.29-.29-.44-.1-.15-.19-.3-.26-.44-.08-.14-.15-.28-.21-.43h0c-.03-.07-.06-.13-.08-.19-.1-.23-.18-.45-.24-.67,0-.01-.01-.03-.01-.04v-.02l-.2-1.42c0-.64.12-1.28.34-1.91.12-.3.26-.61.43-.91.17-.31.37-.62.58-.93.23-.3.48-.59.75-.88.13-.15.28-.3.43-.45.77-.76,1.71-1.49,2.81-2.21.65-.42,1.36-.84,2.13-1.26,0,0,0,.01.01,0,.5-.27,1.04-.54,1.59-.81,0,0,.01.01.01,0,1.12-.53,2.32-1.04,3.61-1.54,2.27-.86,4.8-1.67,7.57-2.42,1.18-.32,2.41-.63,3.67-.92.85-.2,1.71-.39,2.59-.57.87-.19,1.77-.37,2.68-.54,1.82-.34,3.71-.66,5.66-.96,1.89-.29,3.83-.55,5.83-.78,1.18-.14,2.39-.27,3.61-.39,1.34-.14,2.7-.26,4.07-.37.53-.04,1.06-.08,1.6-.12,1.06-.07,2.13-.14,3.21-.2,4.34-.25,8.83-.38,13.43-.38s9.09.13,13.43.38c.78.04,1.55.09,2.32.14-.42,1.43-.84,2.86-1.26,4.27-4.7-.3-9.55-.45-14.49-.45-17.52,0-33.96,1.89-46.27,5.32-13.74,3.83-16.71,8.05-16.71,8.89s2.97,5.07,16.71,8.89c12.31,3.43,28.75,5.32,46.27,5.32,2.13,0,4.25-.03,6.35-.09,7.97-.2,15.63-.81,22.67-1.78,6.32-.87,12.14-2.02,17.26-3.45,13.73-3.82,16.7-8.05,16.7-8.89s-2.97-5.06-16.7-8.89c-2.67-.75-5.53-1.42-8.55-2.01.51-1.35,1.02-2.71,1.53-4.08,10.71,2.18,18.99,5.22,23.53,8.76.5.4.96.8,1.37,1.2.27.27.52.55.75.82h0c.12.16.24.31.35.46.33.45.6.91.82,1.37h0c.17.39.31.78.4,1.17h0c.08.4.13.8.13,1.2Z"/></g></svg>