<?xml version="1.0" encoding="UTF-8"?><svg id="Layer_1" xmlns="http://www.w3.org/2000/svg" width="380" height="425" viewBox="0 0 380 425"><defs><style>.cls-1{fill:#f1f1f1;}.cls-2{fill:#e6c5be;}.cls-3{fill:#b85800;}.cls-4{fill:#b4bfc5;}.cls-5{fill:#cf7042;}.cls-6{fill:#a47d50;}.cls-7{fill:#95aa99;}</style></defs><g id="Brodering"><g><polygon class="cls-2" points="87.69 358.88 95.79 342.44 160.08 373.79 153.48 391.27 87.69 358.88"/><path class="cls-5" d="m244.69,401.85h.01c1.21,1.09,2.26,2.21,3.12,3.33h0c.71.95,1.3,1.91,1.74,2.89.05.1.09.21.13.3.26.62.44,1.22.52,1.77.12.71.09,1.36-.06,1.96-.2.79-.63,1.47-1.26,2.06-11.44,10.78-89.45-8.98-95.44-22.9l.92-2.45.67-1.76,1.1-2.92.65-1.7,1.12-2.96.66-1.74,1.49-3.95s64.56,10.26,84.61,28.06Z"/><path class="cls-7" d="m8.84,189.48l35.82,104.26c12.85,13.32,16.15-4.24,16.15-4.24,0,0-46.69-99.67-48.93-101.22s-3.04,1.2-3.04,1.2Zm37.36,78.44l9.29,17.76c.09.17.16.33.22.51.38,1.11,1.31,4.83-2.77,6.67-4.82,2.17-6.47-3.39-6.47-3.39l-6.39-18.68c-.46-1.33-.19-2.84.77-3.87.69-.74,1.68-1.28,3.03-.94,1.01.26,1.83,1,2.31,1.93Z"/><path class="cls-5" d="m55.39,291.71c2.15,5.9,8.35,22.46,12.96,29.12,4.23,6.12,17.26,17.32,22.66,21.83.58.49,1.07.9,1.46,1.22.47-.05.91-.14,1.3-.28.79-.23,1.48-.62,2.02-1.17l-.82,1.66-.8,1.64-1.45,2.95-.8,1.61h0s-2.23,4.54-2.23,4.54l-.83,1.69-1.16,2.36s-69.3-10.71-73.63-30.76c-.2-.91-.26-1.84-.18-2.78,0-.01,0-.03,0-.04.16-1.82.55-3.38,1.16-4.69.25-.59.55-1.12.88-1.61.84-1.27,1.9-2.25,3.15-2.99.72-.44,1.51-.79,2.35-1.08,11.14-3.76,30.9,5.67,33.96,9.4,2.42,2.96,13.19,10.96,23.23,15.78l.02.02c1.64.8,3.27,1.5,4.84,2.08-.42-.37-.85-.73-1.28-1.12-6.24-5.45-14.24-12.87-17.58-17.7-4.96-7.17-11.32-24.16-13.49-30.15-.42-1.17.19-2.46,1.35-2.89,1.18-.44,2.48.16,2.91,1.34Z"/><g><path class="cls-3" d="m13.9,325.31s0,.03,0,.04c-.08.95-.02,1.87.18,2.78,4.76,4.67,13.9,12.05,27.62,16.45,16.86,5.42,39.45,10.33,47.17,11.95l.83-1.69c-7.22-1.5-30.32-6.48-47.45-11.98-14.81-4.76-24.3-13.28-28.35-17.54Z"/><path class="cls-3" d="m46.84,336.13c-8.17-2.16-24.96-13.12-30.91-17.12-.34.48-.63,1.02-.88,1.61,6.14,4.13,22.84,15.03,31.33,17.27,2.45.64,6.05,1.52,10.21,2.52,11.79,2.84,29.14,7.01,35.33,9.9h0s.8-1.62.8-1.62c-6.38-2.98-23.17-7.02-35.7-10.04-4.16-1-7.74-1.86-10.18-2.5Z"/><path class="cls-3" d="m83.47,343.13c2.25.04,6.72.88,10.7,2.61l.8-1.64c-.4-.18-.8-.34-1.2-.49-.93-.37-1.86-.68-2.76-.95-3.08-.92-5.91-1.32-7.51-1.34-.25,0-.68-.08-1.3-.21-.88-.19-2.09-.53-3.56-.96l-.02-.02c-7.08-2.11-19.77-6.76-26.33-11.31s-23.23-11.06-30.86-13.87l-2.35,1.08c6.47,2.36,24.99,9.3,32.17,14.28,8.92,6.19,29.24,12.77,32.21,12.82Z"/><path class="cls-3" d="m226.76,411.33c-13.43-1.82-28.1-4.92-37.37-7.21-14.05-3.48-27.78-12.38-34.32-17.05l-.67,1.76c6.81,4.82,20.51,13.59,34.56,17.06,12.78,3.16,46.8,10.29,59.95,8.29l1.26-2.06c-2.84.75-9.2,1.15-23.42-.78Z"/><path class="cls-3" d="m158.59,377.74l-.66,1.74c20.74,2.6,74.03,17.92,89.89,25.7-.86-1.13-1.91-2.24-3.12-3.32h-.01c-19.56-8.19-66.4-21.5-86.1-24.12Z"/><path class="cls-3" d="m156.82,382.44l-.65,1.7c7.88,3.22,33.06,13.23,43.52,13.76,9.93.51,40.31,9.24,50.54,12.24-.09-.56-.26-1.15-.52-1.77-.04-.1-.08-.2-.13-.3-11.26-3.31-39.89-11.47-49.79-11.97-10.06-.52-35.22-10.48-42.97-13.65Z"/></g></g><g><path class="cls-1" d="m288.69,59.55c-33.08-20.89-97.1-21.03-101.98-21-34.25,4.73-113.97,28.44-122.49,145.95-2.54,35,10.09,60.09,27.57,94.81l2.5,4.97c8.14,16.21,22.49,30.17,41.52,40.38,16.84,9.04,37.24,15.04,57.46,16.89,16.04,1.47,40.73-4.18,71.39-16.34,27.76-11.01,52.66-24.18,62.08-29.33,17.28-9.46,22.88-26.83,26.22-37.21,1.18-3.67,2.04-6.35,3.25-8.21,1.05-2.42,3.41-16.7,4.5-41.06,1.12-24.97.24-48.08-2.41-63.41-5.49-31.67-28.91-60.75-69.59-86.44Z"/><path class="cls-6" d="m368.11,144.28c-5.99-34.57-30.92-65.91-74.09-93.17-36.75-23.2-104.85-22.57-107.73-22.54l-.61.04c-47.66,6.47-83.4,29.65-106.22,68.88-18.82,32.34-23.86,67.94-25.19,86.28-2.74,37.75,11.09,65.23,28.6,100.01l2.5,4.96c9.06,18.05,24.87,33.5,45.71,44.69,17.99,9.66,39.75,16.06,61.26,18.03,1.99.18,4.07.27,6.25.27,17.38,0,40.79-5.79,69.73-17.27,28.27-11.21,53.61-24.61,63.19-29.85,20.77-11.36,27.38-31.88,30.93-42.91.74-2.29,1.65-5.13,2.13-5.84,3.99-5.9,5.72-38.21,6.03-44.62.74-15.4,1.39-44.59-2.49-66.97Zm-11.91,106.16c-1.21,1.86-2.07,4.54-3.25,8.21-3.34,10.38-8.94,27.76-26.22,37.21-9.42,5.15-34.32,18.33-62.08,29.33-30.66,12.16-55.35,17.81-71.39,16.34-20.21-1.85-40.62-7.85-57.46-16.89-19.02-10.21-33.38-24.17-41.52-40.38l-2.5-4.97c-17.48-34.72-30.1-59.8-27.57-94.81,8.52-117.52,88.24-141.22,122.49-145.95,4.89-.02,68.9.12,101.98,21,40.69,25.69,64.1,54.77,69.59,86.44,2.66,15.33,3.54,38.44,2.41,63.41-1.1,24.36-3.45,38.63-4.5,41.06Z"/></g><g><path class="cls-4" d="m216.98,7.74h0c.51.02.91.44.89.95l-.63,20.05s-.08,1.68-2.8,1.59c-2.72-.09-28.49-1.35-28.49-1.35l.05-1.61c.01-.32.27-.57.59-.56l27.75.79c.6.02,1.11-.46,1.12-1.06l.57-17.92c.02-.51.44-.91.95-.89Z"/><path class="cls-4" d="m224.6,8.65h0c-.51-.05-.96.32-1,.83l-1.89,19.97s-.13,1.67,2.58,1.93c2.71.26,28.43,4.06,28.43,4.06l.15-1.6c.03-.32-.2-.6-.52-.63l-27.63-4.51c-.6-.06-1.04-.59-.98-1.19l1.69-17.85c.05-.51-.32-.96-.83-1Z"/></g><path class="cls-4" d="m239.46,15.42l-9.38-.94c-2.04-.2-3.87,1.23-4.21,3.22l-10.85-1.08.2-2.01c.09-.88-.56-1.67-1.44-1.76l-1.31-.13c-.88-.09-1.67.56-1.76,1.44l-.2,2.01-9.02-.9c-.99-.1-1.88.63-1.98,1.62s.63,1.88,1.62,1.98l9.02.9-.2,2.01c-.09.88.56,1.67,1.44,1.76l1.31.13c.88.09,1.67-.56,1.76-1.44l.2-2.01,10.85,1.08c-.06,2.02,1.45,3.79,3.49,3.99l9.38.94c2.13.21,4.05-1.36,4.26-3.49l.31-3.07c.21-2.13-1.36-4.05-3.49-4.26Z"/><path class="cls-5" d="m203.36,277.04h-.02c-1.94,0-3.87-.11-5.76-.33-.99-.12-1.71-1.01-1.59-2.01.11-.99,1.02-1.71,2.01-1.59,1.75.2,3.55.3,5.35.3h.02c1.95,0,3.96-.12,5.97-.36,1-.11,1.9.59,2.01,1.59.12.99-.59,1.9-1.59,2.01-2.15.25-4.3.38-6.39.38Zm15.93-2.37c-.79,0-1.51-.52-1.74-1.31-.28-.96.28-1.97,1.24-2.24,3.52-1.01,7.14-2.37,10.76-4.05.91-.42,1.99-.02,2.41.89.42.91.02,1.99-.88,2.41-3.79,1.75-7.58,3.18-11.28,4.24-.17.05-.34.07-.5.07Zm-31.21-.15c-.2,0-.4-.03-.59-.1-3.79-1.31-7.46-3.14-10.93-5.42-.84-.55-1.07-1.68-.51-2.51.55-.84,1.68-1.07,2.51-.51,3.21,2.12,6.61,3.81,10.12,5.02.95.33,1.45,1.36,1.12,2.31-.26.75-.96,1.22-1.71,1.22Zm51.03-8.65c-.62,0-1.22-.32-1.56-.89-.51-.86-.23-1.97.63-2.48,3.2-1.9,6.44-4.06,9.65-6.43.81-.59,1.94-.42,2.53.38.59.81.42,1.94-.38,2.53-3.3,2.44-6.65,4.67-9.95,6.63-.29.17-.61.25-.92.25Zm-69.31-2.8c-.45,0-.9-.17-1.25-.51-2.77-2.66-5.44-5.72-7.93-9.1-.59-.81-.42-1.94.38-2.53.81-.59,1.94-.42,2.53.38,2.37,3.21,4.9,6.12,7.52,8.64.72.69.75,1.84.05,2.56-.36.37-.83.56-1.31.56Zm86.91-9.93c-.51,0-1.02-.22-1.38-.64-.65-.76-.56-1.91.2-2.56,2.87-2.45,5.76-5.1,8.58-7.88.71-.7,1.86-.69,2.56.02.7.71.69,1.86-.02,2.56-2.89,2.84-5.84,5.55-8.77,8.05-.34.29-.76.43-1.18.43Zm-100.07-7.29c-.63,0-1.24-.32-1.57-.91-1.9-3.3-3.72-6.89-5.4-10.67-.41-.91,0-1.99.92-2.39.91-.41,1.99,0,2.39.92,1.64,3.67,3.4,7.15,5.23,10.34.5.87.2,1.98-.67,2.48-.29.16-.6.24-.9.24Zm115.65-7.87c-.43,0-.87-.15-1.22-.47-.74-.67-.8-1.82-.13-2.56,2.63-2.9,5.15-5.9,7.49-8.91.61-.79,1.75-.93,2.54-.32.79.62.93,1.75.32,2.54-2.4,3.08-4.98,6.15-7.66,9.12-.36.4-.85.6-1.34.6Zm13.43-17.08c-.35,0-.7-.1-1.01-.31-.83-.56-1.05-1.69-.49-2.52,2.19-3.25,4.23-6.58,6.08-9.91.49-.87,1.59-1.19,2.46-.71.88.49,1.19,1.59.71,2.46-1.89,3.42-3.99,6.84-6.24,10.17-.35.52-.92.8-1.5.8Zm-62.88-16.57c-.06,0-.13,0-.19,0-2.72-.29-5.24-1.18-7.1-2.51-1.25-.89-2.63-2.38-3.88-4.19-.57-.82-.36-1.95.46-2.52.82-.57,1.95-.36,2.52.46,1,1.45,2.1,2.66,3,3.3,1.36.97,3.27,1.63,5.37,1.85,1,.11,1.72,1,1.61,1.99-.1.93-.88,1.62-1.8,1.62Zm9.66-1.82c-.66,0-1.29-.36-1.61-.98-.46-.89-.11-1.98.78-2.44,3.05-1.58,5.47-4.13,7.19-7.58.45-.89,1.54-1.26,2.43-.81.9.45,1.26,1.53.81,2.43-2.07,4.15-5.02,7.24-8.77,9.19-.27.14-.55.2-.83.2Zm63.86-.55c-.25,0-.5-.05-.75-.16-.91-.41-1.32-1.49-.9-2.4,1.62-3.58,3.04-7.21,4.23-10.79.32-.95,1.34-1.47,2.29-1.15.95.32,1.47,1.34,1.15,2.29-1.23,3.7-2.7,7.45-4.37,11.14-.3.67-.96,1.07-1.65,1.07Zm-87.28-12.6c-.8,0-1.54-.54-1.75-1.35-.68-2.61-1.03-5.28-1.03-7.94,0-1.49.11-2.99.32-4.47.14-.99,1.06-1.67,2.06-1.53.99.15,1.68,1.07,1.53,2.06-.19,1.3-.29,2.63-.29,3.94,0,2.35.3,4.71.91,7.02.25.97-.33,1.96-1.29,2.21-.15.04-.31.06-.46.06Zm34.09-4.78s-.08,0-.11,0c-1-.06-1.76-.92-1.7-1.92.02-.31.03-.62.03-.92,0-3.2-1.05-6.16-3.13-8.81-.62-.79-.48-1.93.3-2.55.79-.62,1.93-.48,2.55.3,2.56,3.25,3.91,7.07,3.91,11.05,0,.38-.01.76-.04,1.15-.06.96-.86,1.7-1.81,1.7Zm60.16-3.19c-.13,0-.26-.01-.4-.04-.98-.22-1.59-1.19-1.37-2.16.87-3.88,1.45-7.71,1.74-11.39.08-1,.95-1.74,1.95-1.67,1,.08,1.74.95,1.67,1.95-.3,3.84-.91,7.84-1.81,11.89-.19.84-.94,1.42-1.77,1.42Zm-145.24-2.18c-1,0-1.81-.81-1.81-1.81,0-1,.81-1.81,1.81-1.81,3.4,0,7.16-.55,11.16-1.63.96-.26,1.96.31,2.22,1.28.26.97-.31,1.96-1.28,2.22-4.31,1.16-8.37,1.75-12.09,1.75h0Zm-9.77-1.65c-.21,0-.42-.04-.63-.11-3.92-1.45-7.39-3.83-10.33-7.07-.67-.74-.62-1.89.12-2.56.74-.67,1.89-.62,2.56.12,2.55,2.81,5.54,4.86,8.91,6.11.94.35,1.42,1.39,1.07,2.33-.27.73-.96,1.18-1.7,1.18Zm30.81-3.31c-.71,0-1.38-.42-1.67-1.11-.39-.92.05-1.99.97-2.37,2.28-.96,4.68-2.07,7.12-3.32,1.16-.59,2.34-1.15,3.5-1.67.91-.41,1.99,0,2.39.92s0,1.99-.92,2.39c-1.11.49-2.23,1.03-3.33,1.59-2.52,1.29-5,2.44-7.37,3.43-.23.1-.47.14-.7.14Zm32.3-6.04c-.27,0-.55-.06-.81-.19-.9-.45-1.26-1.54-.81-2.43.3-.59.61-1.18.94-1.77-3.64.27-7.37.93-11.1,1.97-.96.27-1.96-.29-2.23-1.26-.27-.96.29-1.96,1.26-2.23,4-1.12,8.02-1.82,11.94-2.1.75-.05,1.44.37,1.76,1.01,1.3-1.93,2.8-3.81,4.49-5.63.68-.73,1.83-.78,2.56-.1.73.68.78,1.83.1,2.56-2.72,2.94-4.9,6.02-6.47,9.17-.32.64-.96,1-1.62,1Zm20.5-.73c-.27,0-.55-.06-.82-.19-3.11-1.57-6.7-2.64-10.67-3.19-.99-.14-1.68-1.05-1.55-2.04.14-.99,1.05-1.69,2.04-1.55,4.37.6,8.34,1.79,11.8,3.54.89.45,1.25,1.54.8,2.43-.32.63-.96,1-1.62,1Zm-98.69-4.81c-.66,0-1.3-.37-1.62-1-1.5-3.11-2.25-6.85-2.25-11.17,0-.39,0-.79.02-1.19.03-1,.85-1.81,1.87-1.76,1,.03,1.79.87,1.75,1.87-.01.36-.02.72-.02,1.08,0,3.71.65,7.02,1.88,9.57.43.9.06,1.98-.83,2.42-.26.13-.53.19-.8.19Zm171.91-2.88c-.94,0-1.73-.72-1.8-1.67-.33-4.19-1.16-7.96-2.4-10.9-.39-.92.05-1.99.97-2.37.93-.39,1.99.05,2.37.97,1.4,3.34,2.3,7.38,2.67,12.02.08,1-.67,1.87-1.66,1.95-.05,0-.1,0-.15,0Zm-79.56-7.84c-.54,0-1.08-.24-1.44-.71-.61-.79-.46-1.93.33-2.54,1.48-1.14,3.07-2.27,4.73-3.36,1.75-1.15,3.52-2.26,5.26-3.28.86-.51,1.97-.22,2.48.64.51.86.22,1.97-.64,2.48-1.69,1-3.41,2.07-5.11,3.19-1.59,1.04-3.1,2.12-4.52,3.21-.33.25-.72.38-1.1.38Zm-92.89-10.61c-.15,0-.31-.02-.47-.06-.97-.26-1.54-1.25-1.29-2.22,1.05-3.94,2.55-7.75,4.45-11.34.47-.88,1.57-1.22,2.45-.75.88.47,1.22,1.57.75,2.45-1.78,3.34-3.17,6.89-4.15,10.56-.22.81-.95,1.35-1.75,1.35Zm111.5-.58c-.68,0-1.33-.38-1.64-1.04-.43-.91-.04-1.99.87-2.41,3.75-1.77,7.51-3.26,11.17-4.42.95-.3,1.97.22,2.28,1.18.3.95-.22,1.97-1.18,2.28-3.51,1.12-7.12,2.54-10.72,4.25-.25.12-.51.17-.77.17Zm52.51-.34c-.41,0-.83-.14-1.17-.43-2.66-2.24-5.92-3.96-9.71-5.11-.96-.29-1.5-1.3-1.21-2.26.29-.96,1.3-1.5,2.26-1.21,4.26,1.29,7.96,3.25,10.99,5.8.77.65.86,1.79.22,2.55-.36.42-.87.64-1.39.64Zm-31.89-6.36c-.87,0-1.64-.63-1.79-1.51-.17-.99.5-1.92,1.49-2.09,3.28-.55,6.51-.83,9.6-.83.84-.04,1.69.02,2.52.06,1,.05,1.77.9,1.72,1.9-.05,1-.9,1.74-1.9,1.72-.76-.04-1.54-.06-2.33-.06h-.01c-2.89,0-5.91.26-9,.78-.1.02-.2.02-.3.02Zm-75.39-5.33c-.6,0-1.19-.3-1.54-.85-.03-.05-2.7-4.25-7.59-8.18-.78-.63-.9-1.77-.28-2.55.63-.78,1.77-.9,2.55-.28,5.4,4.34,8.27,8.89,8.39,9.08.53.85.27,1.97-.58,2.5-.3.19-.63.28-.96.28Zm-46.83-6.56c-.42,0-.85-.15-1.19-.45-.76-.66-.83-1.8-.18-2.56,2.98-3.43,6.27-6.02,9.76-7.7.9-.44,1.98-.06,2.42.84.44.9.06,1.99-.84,2.42-3.05,1.47-5.94,3.77-8.6,6.82-.36.41-.86.62-1.37.62Zm30.3-7.17c-.23,0-.46-.04-.69-.14-3.37-1.38-6.89-2.09-10.46-2.09h-.32s0,0-.02,0c-.99,0-1.8-.8-1.81-1.8,0-1,.8-1.82,1.8-1.83h.34s0,0,0,0c4.05,0,8.03.79,11.84,2.36.93.38,1.37,1.44.99,2.37-.29.7-.96,1.12-1.68,1.12Z"/></g></svg>