<?xml version="1.0" encoding="UTF-8"?><svg id="Layer_1" xmlns="http://www.w3.org/2000/svg" width="446.95" height="379.54" viewBox="0 0 446.95 379.54"><defs><style>.cls-1{fill:#f1f1f1;}.cls-2{fill:#e6c5be;}.cls-3{fill:#b85800;}.cls-4{fill:#b4bfc5;}.cls-5{fill:#cf7042;}.cls-6{fill:#a47d50;}.cls-7{fill:#95aa99;}</style></defs><g id="Brodering"><g><polygon class="cls-2" points="22.45 178.48 42.45 175.48 54.45 253.48 34.45 258.48 22.45 178.48"/><path class="cls-5" d="m82.21,347.83v.02c-.22,1.78-.57,3.43-1.05,4.92h0c-.41,1.25-.91,2.38-1.52,3.4-.06.11-.13.21-.19.31-.4.63-.83,1.16-1.28,1.59-.57.56-1.18.94-1.81,1.18-.84.31-1.73.35-2.66.15-16.97-3.59-48.1-86.75-39.25-100.92l2.8-.7,2.01-.5,3.34-.84,1.95-.48,3.39-.85,1.99-.5,4.52-1.13s31.29,64.98,27.76,94.35Z"/><path class="cls-7" d="m126.45.48L54.45,98.5c-4,20.02,14,11.98,14,11.98,0,0,61-105,61-108s-3-2-3-2Zm-47.63,83.19l-10.26,19.59c-.1.18-.2.36-.32.52-.77,1.05-3.56,4.22-7.79,1.69-5-3-1-8-1-8l12.92-17.53c.92-1.25,2.45-1.96,3.99-1.73,1.1.16,2.22.72,2.76,2.15.4,1.08.24,2.29-.29,3.31Z"/><path class="cls-5" d="m63.04,106.95c-4,5.66-15.11,21.69-18.25,30.06-2.89,7.68-4.85,26.54-5.55,34.27-.08.84-.14,1.54-.19,2.09.34.39.7.73,1.07,1.01.71.57,1.49.95,2.33,1.1l-2.02.3-1.99.3-3.58.54-1.96.29h-.01l-5.51.83-2.06.31-2.87.43S-11.41,108.92,4.04,92.39c.7-.75,1.5-1.39,2.41-1.91.01-.01.03-.02.04-.02,1.75-1,3.41-1.62,4.98-1.9.69-.14,1.36-.21,2.01-.21,1.68-.04,3.24.31,4.69.98.85.38,1.67.87,2.45,1.45,10.41,7.74,14.29,31.58,12.83,36.7-1.16,4.06-1.64,18.85.3,30.98v.03c.31,1.99.7,3.91,1.16,5.7.07-.61.13-1.23.21-1.87,1.02-9.09,2.71-21,4.99-27.07,3.38-9.01,14.79-25.45,18.85-31.19.8-1.12,2.35-1.38,3.47-.59,1.14.79,1.41,2.35.61,3.48Z"/><g><path class="cls-3" d="m6.49,90.46s-.03.01-.04.02c-.91.52-1.71,1.16-2.41,1.91-1.24,7.25-2.18,20.18,2.45,35.38,5.69,18.69,15.44,42.26,18.83,50.28l2.06-.31c-3.18-7.49-13.19-31.56-18.97-50.55-5-16.42-3.24-30.38-1.92-36.73Z"/><path class="cls-3" d="m17.39,127.14c-3.18-8.77-3.8-30.88-3.91-38.79-.65,0-1.32.07-2.01.21.12,8.16.73,30.16,4.04,39.26.96,2.63,2.43,6.44,4.14,10.84,4.84,12.48,11.97,30.83,13.24,38.25h.01l1.96-.29c-1.31-7.66-8.2-25.42-13.34-38.68-1.71-4.4-3.18-8.19-4.13-10.8Z"/><path class="cls-3" d="m34.08,164.74c1.38,2.07,3.43,6.64,4.36,11.34l1.99-.3c-.09-.47-.19-.94-.31-1.4-.25-1.07-.55-2.11-.88-3.1-1.1-3.37-2.52-6.19-3.5-7.65-.15-.23-.36-.67-.62-1.31-.38-.92-.84-2.23-1.37-3.83v-.03c-2.54-7.75-6.3-22.17-6.3-30.98s-4.58-28.01-6.83-36.7l-2.45-1.45c1.93,7.35,7.28,28.5,7.28,38.15,0,11.98,6.81,34.54,8.63,37.26Z"/><path class="cls-3" d="m62.34,337.53c-6.79-13.32-13.21-28.57-16.96-38.41-5.68-14.92-6.25-32.97-6.12-41.84l-2.01.5c-.09,9.2.58,27.14,6.27,42.06,5.17,13.58,20.1,48.9,30.18,59.56l2.66-.15c-2.47-2.1-6.83-7.62-14.02-21.72Z"/><path class="cls-3" d="m49.93,254.61l-1.99.5c10.68,20.44,30.3,78.39,33.22,97.66.48-1.49.83-3.14,1.05-4.92v-.02c-4.88-22.88-22.27-73.71-32.28-93.22Z"/><path class="cls-3" d="m44.55,255.96l-1.95.48c2.03,9.17,8.79,38.29,14.89,48.11,5.78,9.32,16.97,42.35,20.68,53.52.45-.43.88-.96,1.28-1.59.06-.1.13-.2.19-.31-4.08-12.29-14.68-43.38-20.45-52.67-5.86-9.45-12.64-38.52-14.64-47.54Z"/></g></g><g><path class="cls-1" d="m355.97,57.16c-36.5-23.04-107.13-23.2-112.52-23.17-37.79,5.22-125.74,31.38-135.15,161.03-2.8,38.62,11.13,66.3,30.41,104.6l2.76,5.48c8.98,17.88,24.82,33.29,45.8,44.55,18.58,9.97,41.09,16.59,63.39,18.63,17.7,1.62,44.94-4.61,78.77-18.02,30.62-12.14,58.1-26.68,68.49-32.36,19.07-10.43,25.24-29.6,28.93-41.06,1.3-4.05,2.26-7,3.59-9.06,1.16-2.67,3.76-18.42,4.97-45.3,1.24-27.55.27-53.05-2.66-69.96-6.06-34.94-31.89-67.03-76.78-95.37Z"/><path class="cls-6" d="m443.59,150.64c-6.61-38.14-34.12-72.72-81.75-102.79-40.55-25.6-115.68-24.91-118.86-24.87l-.67.05c-52.58,7.14-92.01,32.71-117.2,75.99-20.76,35.68-26.32,74.95-27.79,95.19-3.02,41.65,12.24,71.96,31.56,110.34l2.75,5.47c10,19.92,27.44,36.97,50.43,49.31,19.85,10.65,43.85,17.72,67.59,19.89,2.19.2,4.49.3,6.89.3,19.18,0,45.01-6.39,76.94-19.06,31.19-12.37,59.15-27.16,69.72-32.94,22.92-12.54,30.21-35.18,34.12-47.34.81-2.52,1.82-5.66,2.35-6.45,4.4-6.51,6.32-42.15,6.66-49.23.81-17,1.54-49.19-2.74-73.88Zm-13.14,117.13c-1.33,2.05-2.28,5.01-3.59,9.06-3.69,11.46-9.86,30.63-28.93,41.06-10.39,5.69-37.87,20.22-68.49,32.36-33.83,13.41-61.07,19.65-78.77,18.02-22.3-2.04-44.82-8.66-63.39-18.63-20.99-11.27-36.83-26.67-45.8-44.55l-2.76-5.48c-19.28-38.31-33.21-65.98-30.41-104.6C117.71,65.36,205.66,39.2,243.45,33.98c5.39-.02,76.02.13,112.52,23.17,44.89,28.34,70.73,60.43,76.78,95.37,2.93,16.91,3.9,42.41,2.66,69.96-1.21,26.87-3.81,42.62-4.97,45.3Z"/></g><g><path class="cls-4" d="m276.85,0h0c.56.02,1,.49.98,1.05l-.7,22.12s-.09,1.85-3.09,1.76-31.43-1.49-31.43-1.49l.06-1.77c.01-.35.3-.63.65-.62l30.61.88c.66.02,1.22-.5,1.24-1.17l.62-19.77c.02-.56.49-1,1.05-.98Z"/><path class="cls-4" d="m285.25,1.01h0c-.56-.05-1.05.36-1.11.92l-2.09,22.03s-.14,1.85,2.84,2.13,31.37,4.48,31.37,4.48l.17-1.77c.03-.35-.22-.66-.57-.69l-30.48-4.98c-.66-.06-1.15-.65-1.08-1.32l1.87-19.69c.05-.56-.36-1.05-.92-1.11Z"/></g><path class="cls-4" d="m301.65,8.47l-10.35-1.03c-2.25-.22-4.27,1.36-4.65,3.56l-11.97-1.2.22-2.22c.1-.97-.62-1.84-1.59-1.94l-1.45-.14c-.97-.1-1.84.62-1.94,1.59l-.22,2.22-9.95-.99c-1.09-.11-2.08.7-2.19,1.79s.7,2.08,1.79,2.19l9.95.99-.22,2.22c-.1.97.62,1.84,1.59,1.94l1.45.14c.97.1,1.84-.62,1.94-1.59l.22-2.22,11.97,1.2c-.06,2.23,1.6,4.18,3.85,4.4l10.35,1.03c2.35.24,4.47-1.5,4.7-3.85l.34-3.39c.24-2.35-1.5-4.47-3.85-4.7Z"/><path class="cls-5" d="m261.82,297.12h-.02c-2.14,0-4.27-.12-6.36-.36-1.1-.13-1.88-1.12-1.76-2.22s1.12-1.88,2.22-1.76c1.93.22,3.91.34,5.9.34h.02c2.15,0,4.36-.13,6.58-.4,1.1-.12,2.09.65,2.22,1.75s-.65,2.09-1.75,2.22c-2.37.28-4.75.42-7.05.42Zm17.58-2.61c-.87,0-1.67-.57-1.92-1.45-.31-1.06.31-2.17,1.37-2.47,3.88-1.12,7.87-2.62,11.87-4.47,1-.47,2.19-.03,2.65.98.46,1,.03,2.19-.98,2.65-4.18,1.93-8.36,3.51-12.44,4.68-.19.05-.37.08-.55.08Zm-34.43-.17c-.22,0-.44-.04-.65-.11-4.18-1.45-8.23-3.46-12.05-5.98-.92-.61-1.18-1.85-.57-2.77.61-.92,1.85-1.18,2.77-.57,3.54,2.34,7.3,4.2,11.16,5.54,1.04.36,1.6,1.5,1.23,2.54-.29.83-1.06,1.35-1.89,1.35Zm56.31-9.55c-.68,0-1.35-.35-1.72-.98-.56-.95-.25-2.18.7-2.74,3.53-2.1,7.11-4.48,10.65-7.1.89-.66,2.14-.47,2.8.42.66.89.47,2.14-.42,2.8-3.65,2.69-7.34,5.15-10.98,7.32-.32.19-.67.28-1.02.28Zm-76.47-3.09c-.5,0-1-.18-1.38-.56-3.06-2.94-6.01-6.32-8.75-10.04-.66-.89-.47-2.14.42-2.8.89-.65,2.14-.46,2.8.42,2.61,3.54,5.4,6.75,8.3,9.53.8.76.82,2.03.06,2.83-.39.41-.92.62-1.44.62Zm95.89-10.96c-.57,0-1.13-.24-1.52-.7-.72-.84-.62-2.1.22-2.82,3.17-2.7,6.35-5.63,9.47-8.69.79-.77,2.05-.76,2.83.02.77.79.76,2.05-.02,2.83-3.18,3.13-6.44,6.12-9.68,8.89-.38.32-.84.48-1.3.48Zm-110.41-8.04c-.69,0-1.36-.36-1.73-1-2.1-3.64-4.1-7.6-5.96-11.77-.45-1.01,0-2.19,1.01-2.64,1.01-.45,2.19,0,2.64,1.01,1.8,4.05,3.75,7.88,5.77,11.4.55.96.22,2.18-.73,2.73-.31.18-.66.27-1,.27Zm127.59-8.69c-.48,0-.96-.17-1.34-.52-.82-.74-.88-2.01-.14-2.82,2.9-3.2,5.68-6.51,8.26-9.83.68-.87,1.93-1.03,2.81-.35.87.68,1.03,1.94.35,2.81-2.65,3.4-5.49,6.79-8.46,10.06-.4.44-.94.66-1.48.66Zm14.81-18.85c-.38,0-.77-.11-1.12-.34-.92-.62-1.16-1.86-.54-2.78,2.41-3.58,4.67-7.26,6.7-10.93.54-.96,1.75-1.32,2.72-.78.97.54,1.32,1.75.78,2.72-2.09,3.77-4.41,7.55-6.89,11.23-.39.57-1.02.88-1.66.88Zm-69.37-18.28c-.07,0-.14,0-.21-.01-3-.32-5.78-1.3-7.83-2.76-1.38-.99-2.9-2.63-4.28-4.63-.63-.91-.4-2.16.51-2.78.91-.63,2.16-.4,2.78.51,1.11,1.6,2.31,2.93,3.31,3.64,1.5,1.07,3.6,1.8,5.92,2.04,1.1.12,1.9,1.1,1.78,2.2-.11,1.03-.98,1.79-1.99,1.79Zm10.66-2.01c-.72,0-1.42-.39-1.78-1.08-.51-.98-.12-2.19.86-2.7,3.37-1.75,6.04-4.56,7.94-8.37.49-.99,1.69-1.39,2.68-.9.99.49,1.39,1.69.9,2.68-2.28,4.58-5.54,7.99-9.68,10.14-.29.15-.61.22-.92.22Zm70.45-.61c-.28,0-.56-.06-.82-.18-1.01-.46-1.45-1.64-1-2.65,1.79-3.95,3.36-7.95,4.67-11.9.35-1.05,1.48-1.62,2.53-1.27,1.05.35,1.62,1.48,1.27,2.53-1.35,4.08-2.98,8.22-4.82,12.29-.33.74-1.06,1.18-1.82,1.18Zm-96.3-13.9c-.89,0-1.7-.59-1.93-1.49-.75-2.88-1.13-5.82-1.13-8.76,0-1.64.12-3.3.36-4.93.16-1.09,1.17-1.84,2.27-1.69,1.09.16,1.85,1.18,1.69,2.27-.21,1.44-.32,2.9-.32,4.35,0,2.6.34,5.2,1,7.75.28,1.07-.36,2.16-1.43,2.44-.17.04-.34.07-.51.07Zm37.62-5.27s-.08,0-.13,0c-1.1-.07-1.94-1.02-1.87-2.12.02-.34.03-.68.03-1.02,0-3.53-1.16-6.8-3.46-9.72-.68-.87-.53-2.12.33-2.81.87-.68,2.13-.53,2.81.33,2.82,3.59,4.32,7.8,4.32,12.19,0,.42-.01.84-.04,1.26-.07,1.06-.95,1.88-1.99,1.88Zm66.37-3.52c-.14,0-.29-.02-.44-.05-1.08-.24-1.76-1.31-1.52-2.39.96-4.28,1.6-8.51,1.92-12.56.09-1.1,1.05-1.92,2.15-1.84,1.1.09,1.92,1.05,1.84,2.15-.33,4.24-1.01,8.65-2,13.12-.21.93-1.03,1.56-1.95,1.56Zm-160.24-2.4c-1.1,0-2-.89-2-2,0-1.1.89-2,2-2,3.75,0,7.9-.61,12.31-1.8,1.06-.29,2.16.35,2.45,1.41s-.34,2.16-1.41,2.45c-4.75,1.28-9.24,1.93-13.34,1.93h0Zm-10.78-1.82c-.23,0-.47-.04-.7-.13-4.32-1.6-8.16-4.23-11.4-7.8-.74-.82-.68-2.08.14-2.83.82-.74,2.08-.68,2.82.14,2.81,3.1,6.12,5.37,9.83,6.74,1.04.38,1.56,1.54,1.18,2.57-.3.81-1.06,1.31-1.88,1.31Zm33.99-3.66c-.78,0-1.52-.46-1.85-1.23-.43-1.02.05-2.19,1.07-2.62,2.52-1.05,5.16-2.29,7.86-3.66,1.28-.65,2.58-1.27,3.86-1.84,1.01-.45,2.19,0,2.64,1.01s0,2.19-1.01,2.64c-1.22.55-2.46,1.14-3.68,1.76-2.79,1.42-5.52,2.69-8.13,3.78-.25.11-.51.16-.77.16Zm35.63-6.66c-.3,0-.6-.07-.89-.21-.99-.49-1.39-1.69-.9-2.68.33-.65.67-1.3,1.04-1.95-4.02.29-8.14,1.02-12.25,2.17-1.06.3-2.17-.33-2.46-1.39-.3-1.06.33-2.17,1.39-2.46,4.42-1.23,8.85-2.01,13.18-2.32.83-.05,1.59.41,1.94,1.11,1.43-2.12,3.09-4.2,4.96-6.21.75-.81,2.02-.86,2.83-.11.81.75.86,2.02.1,2.83-3.01,3.24-5.41,6.64-7.14,10.12-.35.7-1.06,1.11-1.79,1.11Zm22.62-.81c-.3,0-.61-.07-.9-.21-3.43-1.73-7.39-2.92-11.77-3.52-1.09-.15-1.86-1.16-1.71-2.25.15-1.09,1.16-1.86,2.25-1.71,4.82.66,9.2,1.98,13.02,3.91.99.5,1.38,1.7.88,2.69-.35.7-1.06,1.1-1.79,1.1Zm-108.89-5.31c-.73,0-1.44-.4-1.79-1.1-1.65-3.43-2.49-7.56-2.49-12.33,0-.43,0-.87.02-1.31.03-1.1.94-1.99,2.06-1.94,1.1.04,1.97.96,1.94,2.06-.01.4-.02.79-.02,1.19,0,4.09.72,7.75,2.07,10.56.48.99.07,2.18-.92,2.67-.28.14-.58.21-.88.21Zm189.67-3.18c-1.03,0-1.91-.79-1.99-1.84-.37-4.62-1.28-8.78-2.64-12.03-.43-1.02.05-2.19,1.07-2.62,1.02-.43,2.19.05,2.62,1.07,1.55,3.68,2.54,8.14,2.94,13.26.09,1.1-.73,2.06-1.84,2.15-.05,0-.11,0-.16,0Zm-87.78-8.64c-.6,0-1.19-.27-1.59-.78-.67-.88-.51-2.13.37-2.8,1.63-1.25,3.39-2.5,5.22-3.71,1.93-1.27,3.88-2.49,5.8-3.62.95-.56,2.18-.25,2.74.71.56.95.24,2.18-.71,2.74-1.86,1.1-3.76,2.28-5.64,3.52-1.75,1.15-3.43,2.34-4.98,3.54-.36.28-.79.41-1.22.41Zm-102.49-11.7c-.17,0-.34-.02-.52-.07-1.07-.28-1.7-1.38-1.42-2.45,1.15-4.34,2.81-8.55,4.91-12.51.52-.97,1.73-1.34,2.71-.83s1.34,1.73.83,2.71c-1.96,3.68-3.5,7.6-4.58,11.65-.24.9-1.05,1.49-1.93,1.49Zm123.02-.64c-.75,0-1.47-.42-1.81-1.15-.47-1-.04-2.19.96-2.66,4.14-1.95,8.28-3.59,12.32-4.88,1.05-.33,2.18.25,2.51,1.3.33,1.05-.25,2.18-1.3,2.51-3.87,1.23-7.85,2.81-11.83,4.68-.28.13-.57.19-.85.19Zm57.94-.37c-.46,0-.91-.15-1.29-.47-2.93-2.47-6.53-4.37-10.71-5.64-1.06-.32-1.65-1.44-1.33-2.5.32-1.06,1.44-1.65,2.5-1.33,4.7,1.43,8.78,3.58,12.13,6.4.84.71.95,1.97.24,2.82-.4.47-.96.71-1.53.71Zm-35.19-7.02c-.96,0-1.81-.69-1.97-1.67-.18-1.09.55-2.12,1.64-2.3,3.62-.61,7.19-.92,10.59-.92.93-.04,1.86.02,2.79.07,1.1.05,1.95.99,1.9,2.1-.05,1.1-.99,1.92-2.1,1.9-.84-.04-1.7-.06-2.57-.06h-.02c-3.18,0-6.52.29-9.93.86-.11.02-.22.03-.33.03Zm-83.18-5.88c-.67,0-1.32-.33-1.7-.94-.04-.06-2.98-4.69-8.38-9.03-.86-.69-1-1.95-.31-2.81.69-.86,1.95-1,2.81-.31,5.95,4.78,9.13,9.81,9.26,10.02.59.94.3,2.17-.64,2.76-.33.21-.7.3-1.06.3Zm-51.67-7.24c-.47,0-.93-.16-1.31-.49-.83-.72-.92-1.99-.19-2.82,3.29-3.78,6.91-6.64,10.76-8.5.99-.48,2.19-.06,2.67.93.48.99.06,2.19-.93,2.67-3.36,1.62-6.55,4.15-9.49,7.52-.4.45-.95.69-1.51.69Zm33.43-7.91c-.25,0-.51-.05-.76-.15-3.72-1.53-7.6-2.3-11.55-2.3h-.35s-.01,0-.02,0c-1.1,0-1.99-.88-2-1.98,0-1.1.88-2.01,1.98-2.02h.37s0,0,0,0c4.47,0,8.86.88,13.07,2.6,1.02.42,1.51,1.59,1.09,2.61-.32.77-1.06,1.24-1.85,1.24Z"/></g></svg>