<?xml version="1.0" encoding="utf-8"?>
<!-- Generator: Adobe Illustrator 27.2.0, SVG Export Plug-In . SVG Version: 6.00 Build 0)  -->
<svg version="1.1" id="Layer_1" xmlns="http://www.w3.org/2000/svg" xmlns:xlink="http://www.w3.org/1999/xlink" x="0px" y="0px"
	 viewBox="0 0 380 425" style="enable-background:new 0 0 380 425;" xml:space="preserve">
<style type="text/css">
	.st0{fill:#C49D6A;}
	.st1{fill:#5D718A;}
	.st2{fill:#95AA99;}
	.st3{fill:#CF7042;}
	.st4{fill:#E6C5BE;}
	.st5{fill:#FFFFFF;}
	.st6{fill:#E5E5E5;}
	.st7{fill:#F1F1F1;}
	.st8{fill:#FAC158;}
</style>
<g id="Farvelægning">
	<g>
		<path class="st0" d="M235.5,316.9L235.5,316.9l-0.1-0.1c-2.1,0.5-4.2-0.5-4.6-2.2s1-3.5,3.2-4c-2.1,0.5-4.2-0.5-4.6-2.2
			s1-3.5,3.2-4c-2.1,0.5-4.2-0.5-4.6-2.1c-0.3-1.3,0.4-2.7,1.8-3.5l0.5-0.1l19.5,1.3l6.1,0.4c0.7,0,1.2,0.4,1.5,0.9
			c0.4,0.7,0.3,1.8-0.5,2.3l-5.3,3.3L235.5,316.9L235.5,316.9z"/>
		<g>
			<path class="st1" d="M235.4,316.8c-2.1,0.5-4.2-0.5-4.6-2.2s1-3.5,3.2-4c-2.1,0.5-4.2-0.5-4.6-2.2s1-3.5,3.2-4
				c-2.1,0.5-4.2-0.5-4.6-2.1c-0.3-1.3,0.4-2.7,1.8-3.5L98.1,329.9c-1.5,0.4-2.5,1.6-2.6,3.1c-0.1,4,0.2,11.7,3.8,16.6
				c0.8,1.1,2.2,1.6,3.5,1.2l132.6-34.1L235.4,316.8L235.4,316.8z"/>
			<path class="st1" d="M248.8,303.8c0.3,1.4,1.3,2.5,2.6,3.1l5.3-3.3c0.8-0.6,1-1.6,0.5-2.3c-0.3-0.5-0.8-0.9-1.5-0.9l-6.1-0.4
				C248.8,301,248.4,302.4,248.8,303.8L248.8,303.8z"/>
		</g>
	</g>
	<g>
		<path class="st0" d="M234,371.4L234,371.4l0-0.1c-2.2,0.1-4.1-1.2-4.2-2.9s1.6-3.3,3.8-3.4c-2.2,0.1-4.1-1.2-4.2-2.9
			s1.6-3.3,3.8-3.4c-2.2,0.1-4.1-1.2-4.2-2.9c-0.1-1.3,0.9-2.5,2.4-3.1l0.6,0l18.9,4.6l5.9,1.4c0.7,0.1,1.1,0.6,1.3,1.1
			c0.3,0.8,0,1.8-0.9,2.2l-5.8,2.4L234,371.4L234,371.4z"/>
		<g>
			<path class="st2" d="M97.5,382.1L234,371.4v-0.1c-2.2,0.1-4.1-1.2-4.2-2.9c-0.1-1.8,1.6-3.3,3.8-3.4c-2.2,0.1-4.1-1.2-4.2-2.9
				s1.6-3.3,3.8-3.4c-2.2,0.1-4.1-1.2-4.2-2.9c-0.1-1.3,0.9-2.5,2.4-3.1l-134.9,8c-1.5,0.1-2.8,1.2-3.1,2.6
				c-0.8,3.9-1.8,11.5,0.9,17C94.9,381.5,96.2,382.2,97.5,382.1L97.5,382.1z"/>
			<path class="st2" d="M249.4,360.8c0.1,1.5,0.9,2.7,2,3.5l5.8-2.4c0.9-0.4,1.2-1.4,0.9-2.2c-0.2-0.5-0.6-1-1.3-1.1l-5.9-1.4
				C249.9,358,249.3,359.4,249.4,360.8L249.4,360.8z"/>
		</g>
	</g>
	<g>
		<path class="st0" d="M305.3,388.9L305.3,388.9l-0.1-0.1c-2.2,0.4-4.2-0.7-4.5-2.4s1.2-3.4,3.4-3.8c-2.2,0.4-4.2-0.7-4.5-2.4
			s1.2-3.4,3.4-3.9c-2.2,0.4-4.2-0.7-4.5-2.4c-0.2-1.3,0.6-2.6,2-3.4l0.5-0.1l19.4,2.2l6,0.7c0.7,0.1,1.2,0.4,1.4,1
			c0.4,0.8,0.2,1.8-0.7,2.3l-5.5,3.1L305.3,388.9L305.3,388.9z"/>
		<g>
			<path class="st3" d="M171.2,416.3l134.1-27.4l0-0.1c-2.2,0.4-4.2-0.7-4.5-2.4s1.2-3.4,3.4-3.8c-2.2,0.4-4.2-0.7-4.5-2.4
				s1.2-3.4,3.4-3.9c-2.2,0.4-4.2-0.7-4.5-2.4c-0.2-1.3,0.6-2.6,2-3.4L167.5,395c-1.5,0.3-2.6,1.5-2.7,3c-0.3,4-0.4,11.7,3,16.8
				C168.5,416,169.8,416.5,171.2,416.3L171.2,416.3z"/>
			<path class="st3" d="M319.2,376.5c0.3,1.5,1.2,2.6,2.4,3.2l5.5-3.1c0.9-0.5,1-1.5,0.7-2.3c-0.3-0.5-0.8-0.9-1.4-1l-6-0.7
				C319.4,373.6,319,375,319.2,376.5L319.2,376.5z"/>
		</g>
	</g>
	<g>
		<path class="st4" d="M37.5,343.9c-4.2-4.4-5.6-12-6.1-15.9c-0.2-1.5,0.7-2.9,2.1-3.5L159.2,275c-1.2,1-1.8,2.4-1.3,3.7
			c0.6,1.6,2.8,2.3,4.9,1.5c-2.1,0.8-3.2,2.8-2.6,4.4s2.8,2.3,4.9,1.5c-2.1,0.8-3.2,2.8-2.6,4.4s2.8,2.3,4.9,1.5l0.1,0.1L41.1,344.7
			C39.8,345.2,38.4,344.9,37.5,343.9L37.5,343.9z"/>
		<path class="st0" d="M167.5,292.1L167.5,292.1l-0.1-0.1c-2.1,0.8-4.2,0.1-4.9-1.5s0.5-3.6,2.6-4.4c-2.1,0.8-4.2,0.1-4.9-1.5
			s0.5-3.6,2.6-4.4c-2.1,0.8-4.2,0.2-4.9-1.5c-0.5-1.2,0.1-2.7,1.3-3.7l0.5-0.2l19.4-1.5l6.1-0.5c0.7-0.1,1.2,0.2,1.6,0.7
			c0.5,0.7,0.5,1.7-0.2,2.4l-4.8,4L167.5,292.1L167.5,292.1z"/>
		<path class="st4" d="M181.8,279.9c-1.3-0.4-2.5-1.3-3-2.7s-0.4-2.8,0.3-3.9l6.1-0.5c0.7-0.1,1.2,0.2,1.6,0.7
			c0.5,0.7,0.5,1.7-0.2,2.4L181.8,279.9L181.8,279.9z"/>
	</g>
	<g>
		<path class="st5" d="M227,135.6c6.5-1.4,13.3-2,19.9-1.5c4.4,0.3,9.6,1.7,11.1,6.4c1.7,5.2-2.9,9.8-5.6,13.7
			c-3,4.4-5.3,9.3-6.8,14.4c-0.8,2.5-1.3,5.1-1.7,7.8c-0.2,1.2-0.5,2.7-0.2,3.9c0.3,1.2,1.5,1.6,2.6,1.8c4.1,1,8.4-0.4,12.4-1.2
			c3.9-0.9,8.1-1.6,11.9,0c4,1.7,6.1,5.5,6.4,9.7c0.3,4.5-1.3,8.8-3.3,12.8c-2.1,4.1-4.8,8.3-5.4,13c3.6,0.1,7-1.9,9.5-4.2
			c3.2-3,5.3-6.8,7.3-10.6c1.9-3.4,3.7-6.8,6.2-9.9c2.3-2.8,4.9-5.3,7.9-7.4c5.9-4.2,14.4-8.2,21.6-5.3c3,1.2,5.6,3.6,6.6,6.7
			c1,2.8,0.3,5.8-0.9,8.4c-1.2,2.6-2.8,4.9-4.2,7.3c-1,1.9-1.8,3.9-1.3,6c3.8,0.1,7.4-0.9,10.7-2.9c1.6-1,3.2,1.6,1.5,2.6
			c-4,2.4-8.6,3.6-13.3,3.3c-0.7-0.1-1.2-0.4-1.5-1.1c-2.5-6,3-11.4,5.4-16.5c1.1-2.5,1.5-5.2,0-7.6c-1.8-2.9-5.3-4.2-8.6-4.1
			c-3.9,0.1-7.6,1.7-11,3.6c-3.1,1.8-5.9,3.9-8.4,6.5c-5.4,5.5-7.9,12.7-12.2,18.9c-4,5.6-10.1,10.2-17.3,9.2
			c-0.6-0.1-1.1-0.9-1.1-1.4c0.1-5.7,3.1-10.6,5.7-15.5c2.1-4,4-8.9,2.8-13.5c-2.5-9.2-13.7-4.7-20-3.7c-3.6,0.6-9.4,1.2-12-2.1
			c-1.5-2-0.9-4.8-0.6-7.1c0.4-2.5,0.9-4.9,1.6-7.4c1.4-4.9,3.5-9.6,6.1-13.9c1.4-2.2,3-4.2,4.4-6.3c1.3-1.9,2.8-4.3,2.1-6.6
			c-1.1-3.9-6.7-4.3-10.1-4.5c-5.8-0.3-11.7,0.2-17.4,1.5C225.9,138.9,225.1,136,227,135.6L227,135.6z"/>
		<path class="st5" d="M244.6,100.9c-1.6-2.5-2-5.7-1.5-8.7l4.2-2.3c-0.1,0.3-0.3,0.5-0.4,0.8c-1.4,3.2-1.1,8.5,2.4,10.2
			c2.5,1.2,5.3-0.4,7.5-1.6c2.8-1.5,5.5-3.1,8.3-4.6c9.9-5.3,23.3-10.4,33.6-3.2c4.1,2.8,7,7.3,7.6,12.3c0.7,5.6-2.4,10.2-6.2,13.9
			c-4.4,4.3-8.8,8.5-12.7,13.2c-2,2.4-4,4.9-5.8,7.5c-1.7,2.5-3.6,5-4.5,7.9c-0.8,2.5-0.8,5.1,0.7,7.4c1.2,1.9,3.2,3.2,5.3,3.9
			c5.2,1.7,10.4-0.4,14.6-3.6c9-6.9,14.8-20,27.2-21.5c5.2-0.6,10.6,2,12.6,7.1c1.8,4.7-0.8,8.7-3.9,12c-2,2.2-6.5,6-3.8,9.2
			c1.2,1.4,3.3,1.6,5.1,1.6c2.1,0,4.2-0.5,6.3-1.1s2.9,2.5,0.9,3.2c-2.1,0.7-4.3,1.1-6.5,1.2c-4,0.2-8.6-1.2-9.6-5.6
			c-1-4.4,2.4-7.6,5.1-10.5c1.4-1.4,2.8-3,3.5-4.8c0.9-2.3,0-4.7-1.6-6.4c-4.2-4.4-10.8-2.4-15.2,0.6c-9.5,6.6-14.6,19.1-26.6,22.1
			c-4.8,1.2-9.9,0.2-13.7-2.9c-4.2-3.5-5-9-3-13.9c1.1-2.8,2.9-5.3,4.7-7.8c1.9-2.6,3.8-5.1,5.9-7.6c4-4.8,8.4-9.1,12.9-13.4
			c1.9-1.9,3.9-4,4.8-6.6c0.8-2.3,0.7-4.7,0-6.9c-1.6-5.1-6-8.6-11-9.9C279,89,267.8,97.7,257.2,103c-2.5,1.2-5.2,2.2-8,1.5
			C247.3,104,245.7,102.6,244.6,100.9L244.6,100.9z"/>
		<path class="st3" d="M373.1,30.8v210.7c0,2.9-2.2,5.3-5.1,5.5l-160.8,10.4c-7.6,8.8-16.2,0-16.2,0L14.3,235.2
			c-2.8-0.4-4.8-2.7-4.8-5.4V19.5c0-3,2.5-5.5,5.5-5.5v214.9c36.6-17.5,182.9,25.4,182.9,25.4C338,227.3,367,243.2,367,243.2V25.3
			C370.2,25,373.1,27.5,373.1,30.8z"/>
		<path class="st6" d="M199.5,41.3l-0.6,74.9l-1,138.1c0,0-146.3-42.9-183-25.4V7.7C15,7.7,68.1-6.5,199.5,41.3L199.5,41.3z"/>
		<path class="st7" d="M199.5,41.3l-0.6,74.9l-1,138.1C338,227.3,367,243.2,367,243.2V19C330.9,3,199.5,41.3,199.5,41.3z
			 M333.4,206.9c-4,2.4-8.6,3.6-13.3,3.3c-0.7-0.1-1.2-0.4-1.5-1.1c-2.5-6,3-11.4,5.4-16.5c1.1-2.5,1.5-5.2,0-7.6
			c-1.8-2.9-5.3-4.2-8.6-4.1c-3.9,0.1-7.6,1.7-11,3.6c-3.1,1.8-5.9,3.9-8.4,6.5c-5.4,5.5-7.9,12.7-12.2,18.9
			c-4,5.6-10.1,10.2-17.3,9.2c-0.6-0.1-1.1-0.9-1.1-1.4c0.1-5.7,3.1-10.6,5.7-15.5c2.1-4,4-8.9,2.8-13.5c-2.5-9.2-13.7-4.7-20-3.7
			c-3.6,0.6-9.4,1.2-12-2.1c-1.5-2-0.9-4.8-0.6-7.1c0.4-2.5,0.9-4.9,1.6-7.4c1.4-4.9,3.5-9.6,6.1-13.9c1.4-2.2,3-4.2,4.4-6.3
			c1.3-1.9,2.8-4.3,2.1-6.6c-1.1-3.9-6.7-4.3-10.1-4.5c-5.8-0.3-11.7,0.2-17.4,1.5c-1.9,0.4-2.7-2.5-0.8-2.9
			c6.5-1.4,13.3-2,19.9-1.5c4.4,0.3,9.6,1.7,11.1,6.4c1.7,5.2-2.9,9.8-5.6,13.7c-3,4.4-5.3,9.3-6.8,14.4c-0.8,2.5-1.3,5.1-1.7,7.8
			c-0.2,1.2-0.5,2.7-0.2,3.9c0.3,1.2,1.5,1.6,2.6,1.8c4.1,1,8.4-0.4,12.4-1.2c3.9-0.9,8.1-1.6,11.9,0c4,1.7,6.1,5.5,6.4,9.7
			c0.3,4.5-1.3,8.8-3.3,12.8c-2.1,4.1-4.8,8.3-5.4,13c3.6,0.1,7-1.9,9.5-4.2c3.2-3,5.3-6.8,7.3-10.6c1.9-3.4,3.7-6.8,6.2-9.9
			c2.3-2.8,4.9-5.3,7.9-7.4c5.9-4.2,14.4-8.2,21.6-5.3c3,1.2,5.6,3.6,6.6,6.7c1,2.8,0.3,5.8-0.9,8.4c-1.2,2.6-2.8,4.9-4.2,7.3
			c-1,1.9-1.8,3.9-1.3,6c3.8,0.1,7.4-0.9,10.7-2.9C333.5,203.3,335,205.9,333.4,206.9L333.4,206.9z M342.1,164.6
			c-2.1,0.7-4.3,1.1-6.5,1.2c-4,0.2-8.6-1.2-9.6-5.6c-1-4.4,2.4-7.6,5.1-10.5c1.4-1.4,2.8-3,3.5-4.8c0.9-2.3,0-4.7-1.6-6.4
			c-4.2-4.4-10.8-2.4-15.2,0.6c-9.5,6.6-14.6,19.1-26.6,22.1c-4.8,1.2-9.9,0.2-13.7-2.9c-4.2-3.5-5-9-3-13.9
			c1.1-2.8,2.9-5.3,4.7-7.8c1.9-2.6,3.8-5.1,5.9-7.6c4-4.8,8.4-9.1,12.9-13.4c1.9-1.9,3.9-4,4.8-6.6c0.8-2.3,0.7-4.7,0-6.9
			c-1.6-5.1-6-8.6-11-9.9C279,89,267.8,97.7,257.2,103c-2.5,1.2-5.2,2.2-8,1.5c-1.9-0.5-3.5-1.9-4.6-3.6c-1.6-2.5-2-5.7-1.5-8.7
			c0.2-1.3,0.7-2.6,1.3-3.7c2.6-5,7.6-8,11.7-11.7c3.5-3.2,7.7-8.8,5.1-13.8c-2.1-4.1-7.6-5-11.7-4.5c-6.1,0.7-11.6,3.8-17.7,4.4
			c-2.1,0.2-2.1-3.1,0-3.3c3.1-0.3,6-1.3,9-2.3c5-1.6,10.2-3.1,15.5-1.7c4.6,1.2,8.4,4.6,8.9,9.5c0.6,5.5-3.1,10.6-7,14.1
			c-3.6,3.2-8.5,6.1-10.9,10.6c-0.1,0.3-0.3,0.5-0.4,0.8c-1.4,3.2-1.1,8.5,2.4,10.2c2.5,1.2,5.3-0.4,7.5-1.6
			c2.8-1.5,5.5-3.1,8.3-4.6c9.9-5.3,23.3-10.4,33.6-3.2c4.1,2.8,7,7.3,7.6,12.3c0.7,5.6-2.4,10.2-6.2,13.9
			c-4.4,4.3-8.8,8.5-12.7,13.2c-2,2.4-4,4.9-5.8,7.5c-1.7,2.5-3.6,5-4.5,7.9c-0.8,2.5-0.8,5.1,0.7,7.4c1.2,1.9,3.2,3.2,5.3,3.9
			c5.2,1.7,10.4-0.4,14.6-3.6c9-6.9,14.8-20,27.2-21.5c5.2-0.6,10.6,2,12.6,7.1c1.8,4.7-0.8,8.7-3.9,12c-2,2.2-6.5,6-3.8,9.2
			c1.2,1.4,3.3,1.6,5.1,1.6c2.1,0,4.2-0.5,6.3-1.1S344.1,164,342.1,164.6L342.1,164.6z"/>
		<path class="st5" d="M333.4,206.9c-4,2.4-8.6,3.6-13.3,3.3c-0.7-0.1-1.2-0.4-1.5-1.1c-2.5-6,3-11.4,5.4-16.5
			c1.1-2.5,1.5-5.2,0-7.6c-1.8-2.9-5.3-4.2-8.6-4.1c-3.9,0.1-7.6,1.7-11,3.6c-3.1,1.8-5.9,3.9-8.4,6.5c-5.4,5.5-7.9,12.7-12.2,18.9
			c-4,5.6-10.1,10.2-17.3,9.2c-0.6-0.1-1.1-0.9-1.1-1.4c0.1-5.7,3.1-10.6,5.7-15.5c2.1-4,4-8.9,2.8-13.5c-2.5-9.2-13.7-4.7-20-3.7
			c-3.6,0.6-9.4,1.2-12-2.1c-1.5-2-0.9-4.8-0.6-7.1c0.4-2.5,0.9-4.9,1.6-7.4c1.4-4.9,3.5-9.6,6.1-13.9c1.4-2.2,3-4.2,4.4-6.3
			c1.3-1.9,2.8-4.3,2.1-6.6c-1.1-3.9-6.7-4.3-10.1-4.5c-5.8-0.3-11.7,0.2-17.4,1.5c-1.9,0.4-2.7-2.5-0.8-2.9
			c6.5-1.4,13.3-2,19.9-1.5c4.4,0.3,9.6,1.7,11.1,6.4c1.7,5.2-2.9,9.8-5.6,13.7c-3,4.4-5.3,9.3-6.8,14.4c-0.8,2.5-1.3,5.1-1.7,7.8
			c-0.2,1.2-0.5,2.7-0.2,3.9c0.3,1.2,1.5,1.6,2.6,1.8c4.1,1,8.4-0.4,12.4-1.2c3.9-0.9,8.1-1.6,11.9,0c4,1.7,6.1,5.5,6.4,9.7
			c0.3,4.5-1.3,8.8-3.3,12.8c-2.1,4.1-4.8,8.3-5.4,13c3.6,0.1,7-1.9,9.5-4.2c3.2-3,5.3-6.8,7.3-10.6c1.9-3.4,3.7-6.8,6.2-9.9
			c2.3-2.8,4.9-5.3,7.9-7.4c5.9-4.2,14.4-8.2,21.6-5.3c3,1.2,5.6,3.6,6.6,6.7c1,2.8,0.3,5.8-0.9,8.4c-1.2,2.6-2.8,4.9-4.2,7.3
			c-1,1.9-1.8,3.9-1.3,6c3.8,0.1,7.4-0.9,10.7-2.9C333.5,203.3,335,205.9,333.4,206.9L333.4,206.9z"/>
		<path class="st5" d="M342.1,164.6c-2.1,0.7-4.3,1.1-6.5,1.2c-4,0.2-8.6-1.2-9.6-5.6c-1-4.4,2.4-7.6,5.1-10.5
			c1.4-1.4,2.8-3,3.5-4.8c0.9-2.3,0-4.7-1.6-6.4c-4.2-4.4-10.8-2.4-15.2,0.6c-9.5,6.6-14.6,19.1-26.6,22.1
			c-4.8,1.2-9.9,0.2-13.7-2.9c-4.2-3.5-5-9-3-13.9c1.1-2.8,2.9-5.3,4.7-7.8c1.9-2.6,3.8-5.1,5.9-7.6c4-4.8,8.4-9.1,12.9-13.4
			c1.9-1.9,3.9-4,4.8-6.6c0.8-2.3,0.7-4.7,0-6.9c-1.6-5.1-6-8.6-11-9.9C279,89,267.8,97.7,257.2,103c-2.5,1.2-5.2,2.2-8,1.5
			c-1.9-0.5-3.5-1.9-4.6-3.6c-1.6-2.5-2-5.7-1.5-8.7c0.2-1.3,0.7-2.6,1.3-3.7c2.6-5,7.6-8,11.7-11.7c3.5-3.2,7.7-8.8,5.1-13.8
			c-2.1-4.1-7.6-5-11.7-4.5c-6.1,0.7-11.6,3.8-17.7,4.4c-2.1,0.2-2.1-3.1,0-3.3c3.1-0.3,6-1.3,9-2.3c5-1.6,10.2-3.1,15.5-1.7
			c4.6,1.2,8.4,4.6,8.9,9.5c0.6,5.5-3.1,10.6-7,14.1c-3.6,3.2-8.5,6.1-10.9,10.6c-0.1,0.3-0.3,0.5-0.4,0.8
			c-1.4,3.2-1.1,8.5,2.4,10.2c2.5,1.2,5.3-0.4,7.5-1.6c2.8-1.5,5.5-3.1,8.3-4.6c9.9-5.3,23.3-10.4,33.6-3.2c4.1,2.8,7,7.3,7.6,12.3
			c0.7,5.6-2.4,10.2-6.2,13.9c-4.4,4.3-8.8,8.5-12.7,13.2c-2,2.4-4,4.9-5.8,7.5c-1.7,2.5-3.6,5-4.5,7.9c-0.8,2.5-0.8,5.1,0.7,7.4
			c1.2,1.9,3.2,3.2,5.3,3.9c5.2,1.7,10.4-0.4,14.6-3.6c9-6.9,14.8-20,27.2-21.5c5.2-0.6,10.6,2,12.6,7.1c1.8,4.7-0.8,8.7-3.9,12
			c-2,2.2-6.5,6-3.8,9.2c1.2,1.4,3.3,1.6,5.1,1.6c2.1,0,4.2-0.5,6.3-1.1S344.1,164,342.1,164.6L342.1,164.6z"/>
		<path class="st8" d="M342.1,164.6c-2.1,0.7-4.3,1.1-6.5,1.2c-4,0.2-8.6-1.2-9.6-5.6c-1-4.4,2.4-7.6,5.1-10.5
			c1.4-1.4,2.8-3,3.5-4.8c0.9-2.3,0-4.7-1.6-6.4c-4.2-4.4-10.8-2.4-15.2,0.6c-9.5,6.6-14.6,19.1-26.6,22.1
			c-4.8,1.2-9.9,0.2-13.7-2.9c-4.2-3.5-5-9-3-13.9c1.1-2.8,2.9-5.3,4.7-7.8c1.9-2.6,3.8-5.1,5.9-7.6c4-4.8,8.4-9.1,12.9-13.4
			c1.9-1.9,3.9-4,4.8-6.6c0.8-2.3,0.7-4.7,0-6.9c-1.6-5.1-6-8.6-11-9.9C279,89,267.8,97.7,257.2,103c-2.5,1.2-5.2,2.2-8,1.5
			c-1.9-0.5-3.5-1.9-4.6-3.6c-1.6-2.5-2-5.7-1.5-8.7c0.2-1.3,0.7-2.6,1.3-3.7c2.6-5,7.6-8,11.7-11.7c3.5-3.2,7.7-8.8,5.1-13.8
			c-2.1-4.1-7.6-5-11.7-4.5c-6.1,0.7-11.6,3.8-17.7,4.4c-2.1,0.2-2.1-3.1,0-3.3c3.1-0.3,6-1.3,9-2.3c5-1.6,10.2-3.1,15.5-1.7
			c4.6,1.2,8.4,4.6,8.9,9.5c0.6,5.5-3.1,10.6-7,14.1c-3.6,3.2-8.5,6.1-10.9,10.6c-0.1,0.3-0.3,0.5-0.4,0.8
			c-1.4,3.2-1.1,8.5,2.4,10.2c2.5,1.2,5.3-0.4,7.5-1.6c2.8-1.5,5.5-3.1,8.3-4.6c9.9-5.3,23.3-10.4,33.6-3.2c4.1,2.8,7,7.3,7.6,12.3
			c0.7,5.6-2.4,10.2-6.2,13.9c-4.4,4.3-8.8,8.5-12.7,13.2c-2,2.4-4,4.9-5.8,7.5c-1.7,2.5-3.6,5-4.5,7.9c-0.8,2.5-0.8,5.1,0.7,7.4
			c1.2,1.9,3.2,3.2,5.3,3.9c5.2,1.7,10.4-0.4,14.6-3.6c9-6.9,14.8-20,27.2-21.5c5.2-0.6,10.6,2,12.6,7.1c1.8,4.7-0.8,8.7-3.9,12
			c-2,2.2-6.5,6-3.8,9.2c1.2,1.4,3.3,1.6,5.1,1.6c2.1,0,4.2-0.5,6.3-1.1S344.1,164,342.1,164.6L342.1,164.6z"/>
		<path class="st2" d="M333.4,206.9c-4,2.4-8.6,3.6-13.3,3.3c-0.7-0.1-1.2-0.4-1.5-1.1c-2.5-6,3-11.4,5.4-16.5
			c1.1-2.5,1.5-5.2,0-7.6c-1.8-2.9-5.3-4.2-8.6-4.1c-3.9,0.1-7.6,1.7-11,3.6c-3.1,1.8-5.9,3.9-8.4,6.5c-5.4,5.5-7.9,12.7-12.2,18.9
			c-4,5.6-10.1,10.2-17.3,9.2c-0.6-0.1-1.1-0.9-1.1-1.4c0.1-5.7,3.1-10.6,5.7-15.5c2.1-4,4-8.9,2.8-13.5c-2.5-9.2-13.7-4.7-20-3.7
			c-3.6,0.6-9.4,1.2-12-2.1c-1.5-2-0.9-4.8-0.6-7.1c0.4-2.5,0.9-4.9,1.6-7.4c1.4-4.9,3.5-9.6,6.1-13.9c1.4-2.2,3-4.2,4.4-6.3
			c1.3-1.9,2.8-4.3,2.1-6.6c-1.1-3.9-6.7-4.3-10.1-4.5c-5.8-0.3-11.7,0.2-17.4,1.5c-1.9,0.4-2.7-2.5-0.8-2.9
			c6.5-1.4,13.3-2,19.9-1.5c4.4,0.3,9.6,1.7,11.1,6.4c1.7,5.2-2.9,9.8-5.6,13.7c-3,4.4-5.3,9.3-6.8,14.4c-0.8,2.5-1.3,5.1-1.7,7.8
			c-0.2,1.2-0.5,2.7-0.2,3.9c0.3,1.2,1.5,1.6,2.6,1.8c4.1,1,8.4-0.4,12.4-1.2c3.9-0.9,8.1-1.6,11.9,0c4,1.7,6.1,5.5,6.4,9.7
			c0.3,4.5-1.3,8.8-3.3,12.8c-2.1,4.1-4.8,8.3-5.4,13c3.6,0.1,7-1.9,9.5-4.2c3.2-3,5.3-6.8,7.3-10.6c1.9-3.4,3.7-6.8,6.2-9.9
			c2.3-2.8,4.9-5.3,7.9-7.4c5.9-4.2,14.4-8.2,21.6-5.3c3,1.2,5.6,3.6,6.6,6.7c1,2.8,0.3,5.8-0.9,8.4c-1.2,2.6-2.8,4.9-4.2,7.3
			c-1,1.9-1.8,3.9-1.3,6c3.8,0.1,7.4-0.9,10.7-2.9C333.5,203.3,335,205.9,333.4,206.9L333.4,206.9z"/>
	</g>
</g>
</svg>
