<?xml version="1.0" encoding="UTF-8"?><svg id="Layer_1" xmlns="http://www.w3.org/2000/svg" width="540.32" height="267.94" viewBox="0 0 540.32 267.94"><defs><style>.cls-1{fill:#fac158;}.cls-2{fill:#fff;}.cls-3{fill:#f1f1f1;}.cls-4{fill:#e5e5e5;}.cls-5{fill:#e6c5be;}.cls-6{fill:#cf7042;}.cls-7{fill:#c49d6a;}.cls-8{fill:#95aa99;}.cls-9{fill:#5d718a;}</style></defs><g id="Farvelægning"><path class="cls-7" d="m72.74,128.82v.04s-.15-.02-.15-.02c-.31,2.19-1.97,3.76-3.71,3.51s-2.87-2.22-2.56-4.41c-.31,2.19-1.97,3.76-3.71,3.51s-2.88-2.22-2.57-4.41c-.31,2.19-1.96,3.76-3.7,3.51-1.33-.19-2.32-1.39-2.56-2.94l.08-.54,8.32-17.64,2.6-5.51c.27-.63.8-.98,1.36-1.06.84-.11,1.74.37,1.97,1.36l1.16,6.15,3.46,18.45Z"/><g><path class="cls-9" d="m72.59,128.84c-.31,2.19-1.97,3.76-3.71,3.51-1.73-.25-2.87-2.22-2.56-4.41-.31,2.19-1.97,3.76-3.71,3.51-1.73-.25-2.88-2.22-2.57-4.41-.31,2.19-1.96,3.76-3.7,3.51-1.33-.19-2.32-1.39-2.56-2.94l-19.34,133.77c-.22,1.49.6,2.93,1.99,3.52,3.67,1.55,10.96,4.07,16.88,2.58,1.31-.33,2.27-1.45,2.43-2.79l16.99-135.83-.15-.02Z"/><path class="cls-9" d="m65.46,111.65c1.47.21,2.86-.31,3.82-1.28l-1.16-6.15c-.22-.99-1.12-1.47-1.97-1.36-.57.08-1.09.43-1.36,1.06l-2.6,5.51c.66,1.17,1.83,2.02,3.27,2.23Z"/></g><g><path class="cls-7" d="m108.72,91.02v.04s-.14.02-.14.02c.3,2.19-.86,4.16-2.59,4.4s-3.38-1.34-3.68-3.53c.3,2.19-.86,4.16-2.59,4.4s-3.39-1.34-3.69-3.53c.3,2.19-.85,4.16-2.58,4.4-1.33.18-2.61-.7-3.27-2.12l-.08-.54,3.12-19.25.97-6.01c.09-.68.5-1.16,1.02-1.39.78-.34,1.78-.13,2.27.77l2.81,5.59,8.43,16.77Z"/><g><path class="cls-8" d="m129.97,226.29l-21.25-135.23-.15.02c.3,2.19-.86,4.16-2.59,4.4-1.73.24-3.38-1.34-3.68-3.53.3,2.19-.86,4.16-2.59,4.4s-3.39-1.34-3.69-3.53c.3,2.19-.85,4.16-2.58,4.4-1.33.18-2.61-.7-3.27-2.12l18.42,133.9c.21,1.49,1.39,2.65,2.88,2.83,3.95.48,11.66.89,16.93-2.18,1.17-.68,1.78-2.02,1.57-3.36Z"/><path class="cls-8" d="m96.97,76.54c1.47-.2,2.67-1.09,3.32-2.29l-2.81-5.59c-.49-.89-1.49-1.11-2.27-.77-.52.23-.93.71-1.02,1.39l-.97,6.01c.96.94,2.32,1.44,3.76,1.24Z"/></g></g><g><path class="cls-7" d="m140.59,68.1v.04s-.15.02-.15.02c.22,2.2-1.01,4.12-2.75,4.3s-3.32-1.46-3.55-3.66c.22,2.2-1.01,4.12-2.75,4.3s-3.33-1.46-3.56-3.66c.22,2.2-1,4.12-2.74,4.3-1.33.14-2.58-.79-3.19-2.24l-.06-.55,3.82-19.12,1.19-5.97c.11-.67.54-1.14,1.07-1.35.79-.31,1.78-.06,2.24.85l2.61,5.69,7.82,17.07Z"/><g><path class="cls-5" d="m156.91,204.05l-16.32-135.91-.15.02c.22,2.2-1.01,4.12-2.75,4.3-1.74.18-3.33-1.46-3.55-3.66.22,2.2-1.01,4.12-2.75,4.3s-3.33-1.46-3.56-3.66c.22,2.2-1,4.12-2.74,4.3-1.33.14-2.58-.79-3.19-2.24l13.54,134.48c.15,1.5,1.29,2.7,2.78,2.94,3.93.62,11.62,1.31,17-1.57,1.19-.64,1.85-1.96,1.69-3.3Z"/><path class="cls-5" d="m129.38,53.2c1.47-.15,2.7-.99,3.4-2.16l-2.61-5.69c-.45-.91-1.44-1.16-2.24-.85-.53.21-.96.68-1.07,1.36l-1.19,5.97c.92.97,2.27,1.52,3.71,1.37Z"/></g></g><g><path class="cls-1" d="m19.54,219.61c-5.65,2.32-13.22.86-17.07-.16C1.01,219.07,0,217.76,0,216.25L.13,81.09c.46,1.5,1.61,2.55,2.95,2.55,1.75,0,3.16-1.79,3.16-4,0,2.21,1.42,4,3.17,4s3.17-1.79,3.17-4c0,2.21,1.41,4,3.16,4s3.17-1.79,3.17-4h.15s2.49,136.87,2.49,136.87c.02,1.35-.76,2.6-2.01,3.11Z"/><path class="cls-7" d="m19.06,79.6v.04h-.15c0,2.21-1.42,4-3.17,4s-3.16-1.79-3.16-4c0,2.21-1.42,4-3.17,4s-3.17-1.79-3.17-4c0,2.21-1.41,4-3.16,4-1.34,0-2.49-1.05-2.95-2.55v-.55s5.73-18.64,5.73-18.64l1.79-5.82c.18-.66.65-1.08,1.2-1.24.82-.23,1.78.12,2.14,1.07l2.02,5.92,6.05,17.77Z"/><path class="cls-1" d="m13.01,61.83c-.81,1.1-2.12,1.81-3.6,1.81s-2.73-.68-3.55-1.74l1.79-5.82c.18-.66.65-1.08,1.2-1.24.82-.23,1.78.12,2.14,1.07l2.02,5.92Z"/></g><g><path class="cls-2" d="m394.24,129.94c6.52-1.4,13.28-1.99,19.93-1.47,4.35.33,9.63,1.73,11.15,6.38,1.69,5.2-2.95,9.76-5.58,13.68-2.97,4.42-5.27,9.27-6.8,14.38-.75,2.54-1.34,5.14-1.71,7.77-.17,1.2-.53,2.73-.24,3.94.28,1.2,1.49,1.55,2.57,1.8,4.09.97,8.42-.36,12.41-1.23,3.89-.85,8.13-1.63,11.93-.01,3.95,1.69,6.08,5.49,6.39,9.66.34,4.49-1.26,8.83-3.3,12.75-2.14,4.13-4.82,8.27-5.36,12.96,3.58.08,6.99-1.85,9.55-4.25,3.18-2.96,5.26-6.83,7.29-10.62,1.85-3.44,3.74-6.83,6.2-9.89,2.27-2.82,4.94-5.29,7.88-7.41,5.86-4.22,14.39-8.24,21.61-5.26,3,1.24,5.57,3.6,6.64,6.72.97,2.83.27,5.81-.94,8.45-1.17,2.56-2.84,4.85-4.16,7.33-1.02,1.91-1.75,3.88-1.3,5.96,3.77.06,7.41-.93,10.66-2.93,1.65-1.01,3.16,1.58,1.52,2.59-3.98,2.45-8.64,3.61-13.3,3.29-.73-.06-1.18-.44-1.45-1.11-2.47-6.01,3.03-11.45,5.38-16.51,1.15-2.48,1.54-5.22.01-7.64-1.84-2.9-5.31-4.19-8.62-4.13-3.88.07-7.65,1.67-10.98,3.55-3.11,1.76-5.94,3.95-8.43,6.51-5.37,5.52-7.88,12.74-12.24,18.95-3.95,5.62-10.12,10.25-17.33,9.2-.62-.09-1.11-.85-1.1-1.44.14-5.7,3.12-10.56,5.69-15.46,2.12-4.04,4-8.87,2.76-13.49-2.47-9.17-13.74-4.7-20.04-3.66-3.63.6-9.45,1.2-12.01-2.15-1.53-2-.94-4.76-.61-7.06.35-2.49.87-4.95,1.56-7.36,1.4-4.87,3.46-9.58,6.12-13.9,1.35-2.2,2.96-4.21,4.41-6.34,1.29-1.89,2.76-4.27,2.08-6.65-1.13-3.94-6.74-4.33-10.08-4.47-5.83-.26-11.66.24-17.37,1.46-1.88.41-2.68-2.49-.79-2.89Z"/><path class="cls-2" d="m411.82,95.24c-1.57-2.52-2.01-5.7-1.48-8.65l4.23-2.29c-.15.27-.28.54-.4.82-1.38,3.15-1.05,8.54,2.42,10.25,2.48,1.23,5.3-.37,7.48-1.55,2.77-1.49,5.49-3.08,8.26-4.58,9.85-5.35,23.31-10.4,33.64-3.24,4.07,2.83,7.04,7.28,7.64,12.26.67,5.62-2.39,10.18-6.21,13.94-4.38,4.3-8.76,8.5-12.7,13.22-2.03,2.43-3.96,4.94-5.79,7.52-1.74,2.46-3.6,5.02-4.53,7.92-.81,2.51-.78,5.14.71,7.37,1.23,1.86,3.23,3.18,5.31,3.87,5.19,1.74,10.41-.43,14.57-3.6,9.05-6.91,14.81-20.02,27.23-21.53,5.23-.63,10.58,1.98,12.58,7.06,1.83,4.66-.81,8.68-3.88,11.98-2.03,2.18-6.55,5.96-3.83,9.25,1.18,1.43,3.34,1.64,5.06,1.63,2.14-.01,4.24-.47,6.27-1.13,2.03-.66,2.88,2.54.88,3.2-2.09.67-4.28,1.12-6.47,1.23-4.01.19-8.65-1.2-9.65-5.64-.98-4.36,2.35-7.63,5.06-10.51,1.35-1.44,2.82-2.96,3.53-4.84.87-2.3.02-4.71-1.62-6.42-4.24-4.44-10.78-2.43-15.19.63-9.52,6.59-14.63,19.06-26.59,22.12-4.77,1.22-9.88.24-13.7-2.93-4.24-3.5-4.98-8.99-2.95-13.94,1.15-2.82,2.9-5.33,4.66-7.8,1.86-2.6,3.81-5.13,5.85-7.59,3.99-4.8,8.42-9.05,12.86-13.41,1.93-1.9,3.86-4,4.78-6.61.79-2.27.71-4.67-.01-6.95-1.61-5.08-6.01-8.62-11.04-9.86-12.59-3.11-23.78,5.58-34.35,10.92-2.47,1.25-5.25,2.25-8.03,1.47-1.94-.54-3.54-1.89-4.6-3.59Z"/><path class="cls-6" d="m540.32,25.12v210.68c0,2.9-2.25,5.3-5.14,5.48l-160.79,10.42c-7.55,8.82-16.17,0-16.17,0l-176.7-22.22c-2.75-.35-4.81-2.68-4.81-5.45V13.86c0-3.04,2.46-5.5,5.49-5.5v214.86c36.64-17.47,182.95,25.43,182.95,25.43,140.11-27.01,169.08-11.12,169.08-11.12V19.65c3.21-.35,6.09,2.16,6.09,5.47Z"/><path class="cls-4" d="m366.74,35.59l-.56,74.95-1.03,138.11s-146.31-42.9-182.95-25.43V1.97s53.16-14.18,184.54,33.62Z"/><path class="cls-3" d="m366.74,35.59l-.56,74.95-1.03,138.11c140.11-27.01,169.08-11.12,169.08-11.12V13.36c-36.12-16.01-167.49,22.23-167.49,22.23Zm133.84,165.65c-3.98,2.45-8.64,3.61-13.3,3.29-.73-.06-1.18-.44-1.45-1.11-2.47-6.01,3.03-11.45,5.38-16.51,1.15-2.48,1.54-5.22.01-7.64-1.84-2.9-5.31-4.19-8.62-4.13-3.88.07-7.65,1.67-10.98,3.55-3.11,1.76-5.94,3.95-8.43,6.51-5.37,5.52-7.88,12.74-12.24,18.95-3.95,5.62-10.12,10.25-17.33,9.2-.62-.09-1.11-.85-1.1-1.44.14-5.7,3.12-10.56,5.69-15.46,2.12-4.04,4-8.87,2.76-13.49-2.47-9.17-13.74-4.7-20.04-3.66-3.63.6-9.45,1.2-12.01-2.15-1.53-2-.94-4.76-.61-7.06.35-2.49.87-4.95,1.56-7.36,1.4-4.87,3.46-9.58,6.12-13.9,1.35-2.2,2.96-4.21,4.41-6.34,1.29-1.89,2.76-4.27,2.08-6.65-1.13-3.94-6.74-4.33-10.08-4.47-5.83-.26-11.66.24-17.37,1.46-1.88.41-2.68-2.49-.79-2.89,6.52-1.4,13.28-1.99,19.93-1.47,4.35.33,9.63,1.73,11.15,6.38,1.69,5.2-2.95,9.76-5.58,13.68-2.97,4.42-5.27,9.27-6.8,14.38-.75,2.54-1.34,5.14-1.71,7.77-.17,1.2-.53,2.73-.24,3.94.28,1.2,1.49,1.55,2.57,1.8,4.09.97,8.42-.36,12.41-1.23,3.89-.85,8.13-1.63,11.93-.01,3.95,1.69,6.08,5.49,6.39,9.66.34,4.49-1.26,8.83-3.3,12.75-2.14,4.13-4.82,8.27-5.36,12.96,3.58.08,6.99-1.85,9.55-4.25,3.18-2.96,5.26-6.83,7.29-10.62,1.85-3.44,3.74-6.83,6.2-9.89,2.27-2.82,4.94-5.29,7.88-7.41,5.86-4.22,14.39-8.24,21.61-5.26,3,1.24,5.57,3.6,6.64,6.72.97,2.83.27,5.81-.94,8.45-1.17,2.56-2.84,4.85-4.16,7.33-1.02,1.91-1.75,3.88-1.3,5.96,3.77.06,7.41-.93,10.66-2.93,1.65-1.01,3.16,1.58,1.52,2.59Zm8.7-42.28c-2.09.67-4.28,1.12-6.47,1.23-4.01.19-8.65-1.2-9.65-5.64-.98-4.36,2.35-7.63,5.06-10.51,1.35-1.44,2.82-2.96,3.53-4.84.87-2.3.02-4.71-1.62-6.42-4.24-4.44-10.78-2.43-15.19.63-9.52,6.59-14.63,19.06-26.59,22.12-4.77,1.22-9.88.24-13.7-2.93-4.24-3.5-4.98-8.99-2.95-13.94,1.15-2.82,2.9-5.33,4.66-7.8,1.86-2.6,3.81-5.13,5.85-7.59,3.99-4.8,8.42-9.05,12.86-13.41,1.93-1.9,3.86-4,4.78-6.61.79-2.27.71-4.67-.01-6.95-1.61-5.08-6.01-8.62-11.04-9.86-12.59-3.11-23.78,5.58-34.35,10.92-2.47,1.25-5.25,2.25-8.03,1.47-1.94-.54-3.54-1.89-4.6-3.59-1.57-2.52-2.01-5.7-1.48-8.65.24-1.31.67-2.57,1.27-3.71,2.65-4.99,7.6-8.01,11.68-11.68,3.54-3.19,7.73-8.8,5.15-13.78-2.11-4.09-7.55-4.99-11.69-4.51-6.06.7-11.57,3.8-17.68,4.44-2.11.22-2.09-3.09,0-3.31,3.08-.33,6.04-1.33,8.97-2.28,5.04-1.64,10.19-3.06,15.47-1.68,4.59,1.2,8.42,4.58,8.92,9.51.56,5.5-3.09,10.64-6.98,14.1-3.65,3.25-8.53,6.14-10.88,10.61-.15.27-.28.54-.4.82-1.38,3.15-1.05,8.54,2.42,10.25,2.48,1.23,5.3-.37,7.48-1.55,2.77-1.49,5.49-3.08,8.26-4.58,9.85-5.35,23.31-10.4,33.64-3.24,4.07,2.83,7.04,7.28,7.64,12.26.67,5.62-2.39,10.18-6.21,13.94-4.38,4.3-8.76,8.5-12.7,13.22-2.03,2.43-3.96,4.94-5.79,7.52-1.74,2.46-3.6,5.02-4.53,7.92-.81,2.51-.78,5.14.71,7.37,1.23,1.86,3.23,3.18,5.31,3.87,5.19,1.74,10.41-.43,14.57-3.6,9.05-6.91,14.81-20.02,27.23-21.53,5.23-.63,10.58,1.98,12.58,7.06,1.83,4.66-.81,8.68-3.88,11.98-2.03,2.18-6.55,5.96-3.83,9.25,1.18,1.43,3.34,1.64,5.06,1.63,2.14-.01,4.24-.47,6.27-1.13,2.03-.66,2.88,2.54.88,3.2Z"/><path class="cls-2" d="m500.58,201.24c-3.98,2.45-8.64,3.61-13.3,3.29-.73-.06-1.18-.44-1.45-1.11-2.47-6.01,3.03-11.45,5.38-16.51,1.15-2.48,1.54-5.22.01-7.64-1.84-2.9-5.31-4.19-8.62-4.13-3.88.07-7.65,1.67-10.98,3.55-3.11,1.76-5.94,3.95-8.43,6.51-5.37,5.52-7.88,12.74-12.24,18.95-3.95,5.62-10.12,10.25-17.33,9.2-.62-.09-1.11-.85-1.1-1.44.14-5.7,3.12-10.56,5.69-15.46,2.12-4.04,4-8.87,2.76-13.49-2.47-9.17-13.74-4.7-20.04-3.66-3.63.6-9.45,1.2-12.01-2.15-1.53-2-.94-4.76-.61-7.06.35-2.49.87-4.95,1.56-7.36,1.4-4.87,3.46-9.58,6.12-13.9,1.35-2.2,2.96-4.21,4.41-6.34,1.29-1.89,2.76-4.27,2.08-6.65-1.13-3.94-6.74-4.33-10.08-4.47-5.83-.26-11.66.24-17.37,1.46-1.88.41-2.68-2.49-.79-2.89,6.52-1.4,13.28-1.99,19.93-1.47,4.35.33,9.63,1.73,11.15,6.38,1.69,5.2-2.95,9.76-5.58,13.68-2.97,4.42-5.27,9.27-6.8,14.38-.75,2.54-1.34,5.14-1.71,7.77-.17,1.2-.53,2.73-.24,3.94.28,1.2,1.49,1.55,2.57,1.8,4.09.97,8.42-.36,12.41-1.23,3.89-.85,8.13-1.63,11.93-.01,3.95,1.69,6.08,5.49,6.39,9.66.34,4.49-1.26,8.83-3.3,12.75-2.14,4.13-4.82,8.27-5.36,12.96,3.58.08,6.99-1.85,9.55-4.25,3.18-2.96,5.26-6.83,7.29-10.62,1.85-3.44,3.74-6.83,6.2-9.89,2.27-2.82,4.94-5.29,7.88-7.41,5.86-4.22,14.39-8.24,21.61-5.26,3,1.24,5.57,3.6,6.64,6.72.97,2.83.27,5.81-.94,8.45-1.17,2.56-2.84,4.85-4.16,7.33-1.02,1.91-1.75,3.88-1.3,5.96,3.77.06,7.41-.93,10.66-2.93,1.65-1.01,3.16,1.58,1.52,2.59Z"/><path class="cls-2" d="m509.28,158.96c-2.09.67-4.28,1.12-6.47,1.23-4.01.19-8.65-1.2-9.65-5.64-.98-4.36,2.35-7.63,5.06-10.51,1.35-1.44,2.82-2.96,3.53-4.84.87-2.3.02-4.71-1.62-6.42-4.24-4.44-10.78-2.43-15.19.63-9.52,6.59-14.63,19.06-26.59,22.12-4.77,1.22-9.88.24-13.7-2.93-4.24-3.5-4.98-8.99-2.95-13.94,1.15-2.82,2.9-5.33,4.66-7.8,1.86-2.6,3.81-5.13,5.85-7.59,3.99-4.8,8.42-9.05,12.86-13.41,1.93-1.9,3.86-4,4.78-6.61.79-2.27.71-4.67-.01-6.95-1.61-5.08-6.01-8.62-11.04-9.86-12.59-3.11-23.78,5.58-34.35,10.92-2.47,1.25-5.25,2.25-8.03,1.47-1.94-.54-3.54-1.89-4.6-3.59-1.57-2.52-2.01-5.7-1.48-8.65.24-1.31.67-2.57,1.27-3.71,2.65-4.99,7.6-8.01,11.68-11.68,3.54-3.19,7.73-8.8,5.15-13.78-2.11-4.09-7.55-4.99-11.69-4.51-6.06.7-11.57,3.8-17.68,4.44-2.11.22-2.09-3.09,0-3.31,3.08-.33,6.04-1.33,8.97-2.28,5.04-1.64,10.19-3.06,15.47-1.68,4.59,1.2,8.42,4.58,8.92,9.51.56,5.5-3.09,10.64-6.98,14.1-3.65,3.25-8.53,6.14-10.88,10.61-.15.27-.28.54-.4.82-1.38,3.15-1.05,8.54,2.42,10.25,2.48,1.23,5.3-.37,7.48-1.55,2.77-1.49,5.49-3.08,8.26-4.58,9.85-5.35,23.31-10.4,33.64-3.24,4.07,2.83,7.04,7.28,7.64,12.26.67,5.62-2.39,10.18-6.21,13.94-4.38,4.3-8.76,8.5-12.7,13.22-2.03,2.43-3.96,4.94-5.79,7.52-1.74,2.46-3.6,5.02-4.53,7.92-.81,2.51-.78,5.14.71,7.37,1.23,1.86,3.23,3.18,5.31,3.87,5.19,1.74,10.41-.43,14.57-3.6,9.05-6.91,14.81-20.02,27.23-21.53,5.23-.63,10.58,1.98,12.58,7.06,1.83,4.66-.81,8.68-3.88,11.98-2.03,2.18-6.55,5.96-3.83,9.25,1.18,1.43,3.34,1.64,5.06,1.63,2.14-.01,4.24-.47,6.27-1.13,2.03-.66,2.88,2.54.88,3.2Z"/><path class="cls-1" d="m509.28,158.96c-2.09.67-4.28,1.12-6.47,1.23-4.01.19-8.65-1.2-9.65-5.64-.98-4.36,2.35-7.63,5.06-10.51,1.35-1.44,2.82-2.96,3.53-4.84.87-2.3.02-4.71-1.62-6.42-4.24-4.44-10.78-2.43-15.19.63-9.52,6.59-14.63,19.06-26.59,22.12-4.77,1.22-9.88.24-13.7-2.93-4.24-3.5-4.98-8.99-2.95-13.94,1.15-2.82,2.9-5.33,4.66-7.8,1.86-2.6,3.81-5.13,5.85-7.59,3.99-4.8,8.42-9.05,12.86-13.41,1.93-1.9,3.86-4,4.78-6.61.79-2.27.71-4.67-.01-6.95-1.61-5.08-6.01-8.62-11.04-9.86-12.59-3.11-23.78,5.58-34.35,10.92-2.47,1.25-5.25,2.25-8.03,1.47-1.94-.54-3.54-1.89-4.6-3.59-1.57-2.52-2.01-5.7-1.48-8.65.24-1.31.67-2.57,1.27-3.71,2.65-4.99,7.6-8.01,11.68-11.68,3.54-3.19,7.73-8.8,5.15-13.78-2.11-4.09-7.55-4.99-11.69-4.51-6.06.7-11.57,3.8-17.68,4.44-2.11.22-2.09-3.09,0-3.31,3.08-.33,6.04-1.33,8.97-2.28,5.04-1.64,10.19-3.06,15.47-1.68,4.59,1.2,8.42,4.58,8.92,9.51.56,5.5-3.09,10.64-6.98,14.1-3.65,3.25-8.53,6.14-10.88,10.61-.15.27-.28.54-.4.82-1.38,3.15-1.05,8.54,2.42,10.25,2.48,1.23,5.3-.37,7.48-1.55,2.77-1.49,5.49-3.08,8.26-4.58,9.85-5.35,23.31-10.4,33.64-3.24,4.07,2.83,7.04,7.28,7.64,12.26.67,5.62-2.39,10.18-6.21,13.94-4.38,4.3-8.76,8.5-12.7,13.22-2.03,2.43-3.96,4.94-5.79,7.52-1.74,2.46-3.6,5.02-4.53,7.92-.81,2.51-.78,5.14.71,7.37,1.23,1.86,3.23,3.18,5.31,3.87,5.19,1.74,10.41-.43,14.57-3.6,9.05-6.91,14.81-20.02,27.23-21.53,5.23-.63,10.58,1.98,12.58,7.06,1.83,4.66-.81,8.68-3.88,11.98-2.03,2.18-6.55,5.96-3.83,9.25,1.18,1.43,3.34,1.64,5.06,1.63,2.14-.01,4.24-.47,6.27-1.13,2.03-.66,2.88,2.54.88,3.2Z"/><path class="cls-8" d="m500.58,201.24c-3.98,2.45-8.64,3.61-13.3,3.29-.73-.06-1.18-.44-1.45-1.11-2.47-6.01,3.03-11.45,5.38-16.51,1.15-2.48,1.54-5.22.01-7.64-1.84-2.9-5.31-4.19-8.62-4.13-3.88.07-7.65,1.67-10.98,3.55-3.11,1.76-5.94,3.95-8.43,6.51-5.37,5.52-7.88,12.74-12.24,18.95-3.95,5.62-10.12,10.25-17.33,9.2-.62-.09-1.11-.85-1.1-1.44.14-5.7,3.12-10.56,5.69-15.46,2.12-4.04,4-8.87,2.76-13.49-2.47-9.17-13.74-4.7-20.04-3.66-3.63.6-9.45,1.2-12.01-2.15-1.53-2-.94-4.76-.61-7.06.35-2.49.87-4.95,1.56-7.36,1.4-4.87,3.46-9.58,6.12-13.9,1.35-2.2,2.96-4.21,4.41-6.34,1.29-1.89,2.76-4.27,2.08-6.65-1.13-3.94-6.74-4.33-10.08-4.47-5.83-.26-11.66.24-17.37,1.46-1.88.41-2.68-2.49-.79-2.89,6.52-1.4,13.28-1.99,19.93-1.47,4.35.33,9.63,1.73,11.15,6.38,1.69,5.2-2.95,9.76-5.58,13.68-2.97,4.42-5.27,9.27-6.8,14.38-.75,2.54-1.34,5.14-1.71,7.77-.17,1.2-.53,2.73-.24,3.94.28,1.2,1.49,1.55,2.57,1.8,4.09.97,8.42-.36,12.41-1.23,3.89-.85,8.13-1.63,11.93-.01,3.95,1.69,6.08,5.49,6.39,9.66.34,4.49-1.26,8.83-3.3,12.75-2.14,4.13-4.82,8.27-5.36,12.96,3.58.08,6.99-1.85,9.55-4.25,3.18-2.96,5.26-6.83,7.29-10.62,1.85-3.44,3.74-6.83,6.2-9.89,2.27-2.82,4.94-5.29,7.88-7.41,5.86-4.22,14.39-8.24,21.61-5.26,3,1.24,5.57,3.6,6.64,6.72.97,2.83.27,5.81-.94,8.45-1.17,2.56-2.84,4.85-4.16,7.33-1.02,1.91-1.75,3.88-1.3,5.96,3.77.06,7.41-.93,10.66-2.93,1.65-1.01,3.16,1.58,1.52,2.59Z"/></g></g></svg>