<svg xmlns="http://www.w3.org/2000/svg" width="256" height="256" viewBox="0 0 100 100"><rect width="100" height="100" rx="20" fill="#95aa99"></rect><path fill="#ffffff" d="M50 82.40Q42.71 82.40 38.84 78.26Q34.97 74.12 34.97 66.56L34.97 66.56L34.97 33.44Q34.97 25.88 38.84 21.74Q42.71 17.60 50 17.60L50 17.60Q57.29 17.60 61.16 21.74Q65.03 25.88 65.03 33.44L65.03 33.44L65.03 66.56Q65.03 74.12 61.16 78.26Q57.29 82.40 50 82.40L50 82.40ZM50 73.40Q55.13 73.40 55.13 67.19L55.13 67.19L55.13 32.81Q55.13 26.60 50 26.60L50 26.60Q44.87 26.60 44.87 32.81L44.87 32.81L44.87 67.19Q44.87 73.40 50 73.40L50 73.40Z"></path></svg>