<?xml version="1.0" encoding="utf-8"?>
<!-- Generator: Adobe Illustrator 27.2.0, SVG Export Plug-In . SVG Version: 6.00 Build 0)  -->
<svg version="1.1" id="Layer_1" xmlns="http://www.w3.org/2000/svg" xmlns:xlink="http://www.w3.org/1999/xlink" x="0px" y="0px"
	 viewBox="0 0 1920 1080" style="enable-background:new 0 0 1920 1080;" xml:space="preserve">
<style type="text/css">
	.st0{fill:#C49D6A;}
	.st1{fill:#B4BFC5;}
	.st2{fill:#0071BB;}
	.st3{fill:#5D718A;}
	.st4{fill:#95AA99;}
	.st5{fill:#E6C5BE;}
	.st6{fill:#FAC158;}
	.st7{fill:#E1A55D;}
	.st8{fill:#A47D50;}
	.st9{fill:#F05A24;}
	.st10{fill:#EC1C24;}
	.st11{fill:#CF7042;}
	.st12{fill:#F1F1F1;}
	.st13{fill:#CBCBCB;}
	.st14{fill:none;stroke:#E6C5BE;stroke-width:6;stroke-miterlimit:10;}
	.st15{fill:#B85800;}
</style>
<g>
	<g>
		<path class="st0" d="M1795.7,831.3l-25.7,41.5l-0.3,0.5c0,0-73.9-44-69-51c0,0,0,0,0,0l33-42
			C1733.7,780.3,1756.7,816.3,1795.7,831.3z"/>
		<g>
			<path class="st1" d="M1849.7,785.3c-1.6,2.6-3.1,5.3-4.4,8.1l0,0c-1.1,2.2-2.1,4.5-3.1,6.8c-5.5,12.1-10.7,23.5-23.4,26.7
				c-14.3,3.6-14.1,4.9-18.5,4.8c-1.1,0-2.5-0.1-4.6-0.3c-0.1,0-0.2-0.1-0.3-0.1c-5.5-2.1-10.6-4.7-15.4-7.4c0,0,0,0-0.1,0
				c-4.4-2.5-8.5-5.3-12.3-8.1c-3.9-2.9-7.6-6-10.8-8.9h0c-2.5-2.3-4.7-4.5-6.8-6.6c0,0,0,0,0,0c-10.5-10.8-16.2-19.7-16.2-19.7
				s3.5-22.8,13.2-35.8c0,0,0,0,0,0c1.2-1.5,2.4-3,3.8-4.2c0.7-0.7,1.4-1.3,2-2h0c8.1-8.4,11.8-18.7,22.2-22.6
				c1.6-0.6,3.4-1.1,5.5-1.4h0c0.1,0,0.2,0,0.3,0c4-0.5,9.3,0.4,15,2c1.3,0.4,2.6,0.8,3.9,1.2c16.1,5.5,34,15.9,36.1,18.7
				c0.8,1.1,2.9,3.9,5.3,7.8c0.7,1.1,1.4,2.2,2.1,3.4c2.9,5,5.9,11.1,7.7,17.3c0.4,1.5,0.8,2.9,1,4.4
				C1852.9,775.1,1852.6,780.7,1849.7,785.3L1849.7,785.3z"/>
			<path class="st1" d="M1767.7,906.3c-3.6,3.6-7.4,7.5-11.8,11c-1.4,1.1-2.8,2.2-4.3,3.2c-4.6,3.2-9.8,5.8-15.8,7.4
				c-1.3,0.4-2.7,0.7-4.2,0.9c-1.6,0.3-3.2,0.4-4.9,0.5c-3.2,0.2-6.4,0.2-9.3,0.2c-1.4,0-2.7-0.1-4-0.2c-12.2-0.8-21.2-4-25.7-10
				c-2.5-3.4-9.3-8.9-16.2-15c-1-0.9-2-1.8-3-2.7c-2.8-2.6-5.4-5.2-7.8-7.8c-1-1.1-1.8-2.2-2.7-3.2c-3.1-4.1-5-8-4.4-11.3
				c0.2-1.2,0.3-2.5,0.4-3.8c0.2-2.4,0.3-5,0.4-7.5l0,0c0.2-5.1,0.6-10.3,2.4-15.4l0,0c1.6-4.3,4.2-8.5,8.7-12.3
				c2.4-2,4.4-3.9,6.3-5.6c0,0,0,0,0,0c9-8.1,13.7-12.2,28.7-12.4c-0.3,0.4-0.3,1,0,1.7c0.4,1,1.3,2.2,2.7,3.7
				c2.2,2.3,5.6,5.2,9.6,8.3h0c1.5,1.1,3.1,2.3,4.7,3.5c4.3,3.1,9,6.4,13.9,9.6c2.4,1.6,4.8,3.2,7.1,4.7c6.2,4,12.2,7.8,17.3,11
				c3.3,2.1,6.2,3.8,8.5,5.2h0c3.3,2,5.3,3.2,5.3,3.2l0.3-0.5l0.7,0.5C1770.7,873.3,1777.7,896.3,1767.7,906.3L1767.7,906.3z"/>
		</g>
		<g>
			<polygon class="st2" points="1780.4,714.3 1780.4,714.3 1780.4,714.3 			"/>
			<path class="st2" d="M1752.8,738.3L1752.8,738.3L1752.8,738.3L1752.8,738.3z"/>
			<g>
				<path class="st3" d="M1775,715.7c-13.2,22.9-23.8,52.2-16.2,80.2c2.2,8.2,5.6,14.7,8.8,19.6c3.8,2.8,7.9,5.6,12.3,8.1
					c-0.8-0.7-12.3-10.3-17.3-29c-6.2-23.1,0-50.7,17.8-80.3L1775,715.7L1775,715.7z"/>
				<path class="st3" d="M1749.9,800C1749.9,800,1749.9,800,1749.9,800c2.1,2.2,4.4,4.4,6.8,6.6c-5-11.8-13.3-38-4-68.3l-5.8,6.2
					c0,0,0,0,0,0c-3.6,15.9-2.8,30.1-0.8,40.7C1747.2,790.8,1748.5,795.8,1749.9,800L1749.9,800z"/>
				<path class="st3" d="M1787.5,800.1c-0.6-2.3-1.1-4.8-1.5-7.4c-0.5-3.4-0.9-6.7-1.2-10.1c3.3,0.5,9.6,1.2,17.4,1.2
					c2.3,0,4.7-0.1,7.1-0.2c17.6-1,32.1-6,42.3-14.4c-0.3-1.5-0.6-2.9-1-4.4c-21.3,19.2-58.1,14.9-66.1,13.7
					c-0.2-7.6,0.3-15.1,1.6-22.7c3.1,0.6,10.2,1.8,19.1,1.8c0.8,0,1.6,0,2.5,0c14-0.4,26-3.8,35.3-10.1l-2.1-3.4
					c-19.7,13.5-47.5,9.1-54,7.8c2.4-11.5,6.6-23,12.6-34.4l-3.9-1.2c-13.2,25.4-17.8,51.3-13.6,77.1c2.8,17.1,8.8,30.1,13.2,37.7
					c0.1,0,0.2,0.1,0.3,0.1c2.1,0.2,3.5,0.3,4.6,0.3c-3.3-5.3-8.2-14.6-11.7-27.1c4.6,1,12.8,2.4,22.1,2.4h0.7
					c12.1,0,22.5-2.3,30.8-6.8c1-2.2,2-4.5,3.1-6.7C1826.3,807.9,1795.4,802,1787.5,800.1L1787.5,800.1z"/>
				<path class="st3" d="M1755.9,864.9c-31.5-3.2-53.9,7.4-67.6,17.4c-9.3,6.8-15.8,14.1-19.7,19.3c1,0.9,2,1.8,3,2.7
					c3.7-4.9,10-12.1,19.1-18.8c2.7-2,5.8-4,9.3-5.9c3.7,4.9,16.2,23.8,13.4,49.7c1.3,0.1,2.6,0.1,4,0.2
					c2.8-26.6-9.4-45.7-13.8-51.8c4.2-2.1,8.9-4,14.1-5.5c1.7,1.6,5.9,6,9.4,13.8c3.9,8.4,7.6,22.5,4.6,42.8
					c1.4-0.2,2.8-0.5,4.2-0.9c4.5-33.1-7.9-50.7-13.7-56.9c4.5-1.1,9.4-1.9,14.6-2.3h0c2.7,1,19.3,9.3,14.9,51.9
					c1.5-1,2.9-2.1,4.3-3.2c2.4-30.5-5.9-43.5-12.2-48.9c6.4-0.1,13.3,0.5,20.7,1.8C1762.2,868.7,1759.3,866.9,1755.9,864.9z"/>
				<path class="st3" d="M1682.5,870.5c17.7-14.1,36.6-19.7,56.1-16.6c-2.4-1.5-4.8-3.1-7.1-4.7c-18-0.8-35.6,5.4-51.6,18.2
					c-10.6,8.4-17.9,17.7-21.8,23.1c0.8,1,1.7,2.1,2.7,3.2C1664.4,888.7,1671.8,879,1682.5,870.5L1682.5,870.5z"/>
				<path class="st3" d="M1717.7,839.6c-1.7-1.2-3.2-2.4-4.7-3.5h0c-24.8,3.2-40.9,14-50.3,22.9c-3.3,3.1-5.9,6.2-8.1,9l0,0
					c-0.1,2.6-0.2,5.1-0.4,7.5C1661.3,864.4,1679.8,842.9,1717.7,839.6L1717.7,839.6z"/>
				<path class="st3" d="M1703.3,827.7c-1.4-1.5-2.3-2.7-2.7-3.7c-11.4,1.7-21,5.9-28.6,10.7c0,0,0,0,0,0c-1.9,1.7-3.9,3.5-6.3,5.6
					c-4.5,3.9-7.1,8-8.7,12.3C1662.2,846.7,1678.7,830.5,1703.3,827.7L1703.3,827.7z"/>
			</g>
		</g>
	</g>
	<path class="st1" d="M1623.2,963.3c-1.4,0-2.8-0.1-4.1-0.2c-14.8-1.4-27.1-10.5-36.6-27c-1.6-2.8-3.2-5.6-4.6-8.2
		c-11,3.4-23.4,5.2-35.8,5.1c-27.2-0.2-48.1-8.8-54.5-22.6c-8.9-19,1.8-36.2,10.3-50.1c5.4-8.7,10-16.2,7.9-21.2
		c-1-2.3-2.3-3.5-4.1-3.9c-6-1.2-15.9,6.6-19.2,9.8l-3.4-3.6c1.4-1.3,14-13,23.7-11c2.4,0.5,5.7,2.1,7.7,6.9
		c3.1,7.3-2.2,15.8-8.3,25.7c-8.3,13.5-17.8,28.7-10,45.3c5.5,11.8,25.1,19.5,50,19.7c10.9,0.1,22.6-1.4,33.4-4.7
		c-11-21.7-14.7-37.7-11.2-48.8c3.1-9.7,10.9-13.4,16.2-15.8c1.1-0.5,2.1-1,2.9-1.4c6.3-3.5,24.3-4.7,33.8,4.3
		c5.6,5.3,10.3,15.9,0.3,36.4c-5.5,11.4-16.3,20.7-31.1,26.9c-1.2,0.5-2.5,1-3.7,1.5c1.3,2.4,2.7,4.8,4.1,7.3
		c8.7,15,19.7,23.2,32.8,24.5c33.1,3.1,69.5-38.6,69.8-39l3.8,3.3c-0.4,0.5-9.6,11.1-23.3,21.5
		C1652.9,956.8,1637.2,963.3,1623.2,963.3L1623.2,963.3z M1596.6,859.7c-4.7,0-8.8,0.9-10.8,2c-1,0.5-2.1,1.1-3.2,1.6
		c-4.9,2.3-11.1,5.2-13.5,12.8c-3.1,9.8,0.7,25.1,11.2,45.7c14.4-5.2,26.8-13.7,32.7-26c8.6-17.8,5.2-26.4,0.7-30.6
		C1609.3,861.1,1602.5,859.7,1596.6,859.7L1596.6,859.7z"/>
</g>
<g>
	<path class="st0" d="M314.7,919.7L314.7,919.7l-0.1-0.1c-2.1,0.5-4.2-0.5-4.6-2.2s1-3.5,3.2-4c-2.1,0.5-4.2-0.5-4.6-2.2
		s1-3.5,3.2-4c-2.1,0.5-4.2-0.5-4.6-2.2c-0.3-1.3,0.5-2.7,1.8-3.5l0.5-0.1l19.5,1.3l6.1,0.4c0.7,0,1.2,0.4,1.5,0.9
		c0.4,0.7,0.3,1.8-0.5,2.3l-5.3,3.3L314.7,919.7L314.7,919.7z"/>
	<g>
		<path class="st4" d="M314.6,919.6c-2.1,0.5-4.2-0.5-4.6-2.2c-0.4-1.7,1-3.5,3.2-4c-2.1,0.5-4.2-0.5-4.6-2.2c-0.4-1.7,1-3.5,3.2-4
			c-2.1,0.5-4.2-0.5-4.6-2.2c-0.3-1.3,0.5-2.7,1.8-3.5l-131.5,31.1c-1.5,0.3-2.5,1.6-2.6,3.1c-0.1,4,0.2,11.7,3.8,16.7
			c0.8,1.1,2.2,1.6,3.5,1.2l132.6-34.1L314.6,919.6L314.6,919.6z"/>
		<path class="st4" d="M328,906.7c0.3,1.4,1.3,2.5,2.6,3.1l5.3-3.3c0.8-0.6,1-1.6,0.5-2.3c-0.3-0.5-0.8-0.9-1.5-0.9l-6.1-0.4
			C328,903.8,327.6,905.2,328,906.7L328,906.7z"/>
	</g>
</g>
<g>
	<path class="st0" d="M1169.9,150.9L1169.9,150.9l0,0.2c2,1,2.9,3.1,2.1,4.6s-3,2-5,1c2,1,2.9,3.1,2.1,4.6s-3,2-5,1
		c2,1,2.9,3.1,2.1,4.6c-0.6,1.2-2.1,1.8-3.6,1.5l-0.5-0.2l-14.1-13.5l-4.4-4.2c-0.5-0.5-0.7-1.1-0.6-1.6c0.2-0.8,0.9-1.5,1.9-1.4
		l6.2,0.9L1169.9,150.9L1169.9,150.9z"/>
	<g>
		<path class="st3" d="M1293.2,210.4l-123.3-59.6l-0.1,0.1c2,1,2.9,3.1,2.1,4.6s-3,2-5,1c2,1,2.9,3.1,2.1,4.6s-3,2-5,1
			c2,1,2.9,3.1,2.1,4.6c-0.6,1.2-2.1,1.8-3.6,1.5l120.6,61.1c1.3,0.7,3,0.4,4-0.8c2.6-3,7.4-9.1,7.8-15.2
			C1295.2,212.3,1294.4,211,1293.2,210.4L1293.2,210.4z"/>
		<path class="st3" d="M1151.3,152.3c0.7-1.3,0.6-2.8,0-4l-6.2-0.9c-1-0.1-1.8,0.6-1.9,1.4c-0.1,0.6,0.1,1.2,0.6,1.6l4.4,4.2
			C1149.5,154.4,1150.6,153.6,1151.3,152.3L1151.3,152.3z"/>
	</g>
</g>
<g>
	<path class="st0" d="M1117.1,99.8L1117.1,99.8l0,0.2c2.1,0.8,3.3,2.7,2.7,4.3s-2.8,2.4-4.8,1.6c2.1,0.8,3.3,2.7,2.7,4.3
		s-2.8,2.4-4.8,1.6c2.1,0.8,3.3,2.7,2.7,4.3c-0.4,1.3-1.8,2-3.4,1.9l-0.5-0.2l-15.6-11.7l-4.9-3.7c-0.6-0.4-0.8-1-0.8-1.6
		c0.1-0.8,0.7-1.6,1.7-1.7l6.2,0.1L1117.1,99.8L1117.1,99.8z"/>
	<g>
		<path class="st5" d="M1246.8,143.8l-129.7-43.9l-0.1,0.1c2.1,0.8,3.3,2.7,2.7,4.3c-0.6,1.7-2.8,2.4-4.8,1.6
			c2.1,0.8,3.3,2.7,2.7,4.3s-2.8,2.4-4.8,1.6c2.1,0.8,3.3,2.7,2.7,4.3c-0.4,1.3-1.8,2-3.4,1.9l127.2,45.8c1.4,0.5,3,0,3.8-1.2
			c2.3-3.3,6.2-9.9,5.9-16C1249,145.4,1248.1,144.2,1246.8,143.8L1246.8,143.8z"/>
		<path class="st5" d="M1098.8,103.5c0.5-1.4,0.3-2.9-0.5-4l-6.2-0.1c-1,0-1.7,0.8-1.7,1.7c0,0.6,0.2,1.2,0.8,1.6l4.9,3.7
			C1097.3,105.9,1098.3,104.9,1098.8,103.5z"/>
	</g>
</g>
<g>
	<path class="st6" d="M315.7,976.8c-1.8,5.8-7.8,10.8-11,13.1c-1.2,0.9-2.9,0.8-4-0.1l-104.2-86c1.4,0.6,3,0.4,3.8-0.7
		c1.1-1.3,0.6-3.6-1.1-5c1.7,1.4,4,1.5,5.1,0.1s0.6-3.6-1.1-5c1.7,1.4,4,1.5,5.1,0.1s0.6-3.6-1.1-5l0.1-0.1l107.2,85.1
		C315.6,974.1,316.1,975.5,315.7,976.8L315.7,976.8z"/>
	<path class="st0" d="M207.3,888.1L207.3,888.1l-0.1,0.2c1.7,1.4,2.2,3.6,1.1,5s-3.4,1.3-5.1-0.1c1.7,1.4,2.2,3.6,1.1,5
		s-3.4,1.3-5.1-0.1c1.7,1.4,2.2,3.6,1.1,5c-0.9,1-2.4,1.2-3.8,0.7l-0.4-0.3l-10.7-16.3l-3.4-5.1c-0.4-0.6-0.4-1.2-0.2-1.7
		c0.3-0.8,1.2-1.3,2.2-1l5.9,2.2L207.3,888.1L207.3,888.1z"/>
	<path class="st6" d="M189.7,881.5c0.3,1.3,0.1,2.8-0.9,3.9s-2.3,1.7-3.6,1.6l-3.4-5.1c-0.4-0.6-0.4-1.2-0.2-1.7
		c0.3-0.8,1.2-1.3,2.2-1L189.7,881.5L189.7,881.5z"/>
</g>
<g>
	<g>
		<ellipse class="st0" cx="865.8" cy="175.4" rx="29.1" ry="8.5"/>
		<path class="st6" d="M883.3,94.3v78.3c0,2.4-1.9,4.4-4.3,4.4H853c-1.6,0-3-0.9-3.7-2.2c-0.3-0.5-0.5-1.1-0.5-1.7
			c0-0.2,0-0.3,0-0.5V94.3c0-2.4,1.9-4.4,4.3-4.4H879c0.6,0,1.2,0.1,1.8,0.4c0.6,0.2,1.1,0.7,1.5,1.1
			C883,92.2,883.3,93.2,883.3,94.3L883.3,94.3z"/>
		<g>
			<path class="st7" d="M848.7,116.9v1.8c17.8-2.7,28.8-9.3,34.6-14.1v-2.3C878,106.9,867,114.1,848.7,116.9L848.7,116.9z"/>
			<path class="st7" d="M880.8,90.3c-6,4.4-16.4,10.2-32.1,12.6v1.8c16.8-2.5,27.5-8.6,33.6-13.3C881.9,90.9,881.4,90.5,880.8,90.3z
				"/>
			<path class="st7" d="M848.7,132.8c17.8-2.7,28.8-9.3,34.6-14.1v-2.3c-5.3,4.5-16.4,11.8-34.6,14.6V132.8L848.7,132.8z"/>
			<path class="st7" d="M848.7,146.8c17.8-2.7,28.8-9.4,34.6-14.1v-2.3c-5.3,4.5-16.4,11.8-34.6,14.6V146.8L848.7,146.8z"/>
			<path class="st7" d="M848.7,160.8c17.8-2.7,28.8-9.4,34.6-14.1v-2.3c-5.3,4.5-16.4,11.8-34.6,14.6V160.8L848.7,160.8z"/>
			<path class="st7" d="M849.3,174.8c17.4-2.8,28.3-9.3,34.1-14v-2.3c-5.3,4.5-16.4,11.7-34.6,14.6
				C848.8,173.7,849,174.2,849.3,174.8L849.3,174.8z"/>
		</g>
		<g>
			<ellipse class="st0" cx="865" cy="87.8" rx="28" ry="9.5"/>
			<ellipse class="st8" cx="864.9" cy="87.4" rx="16.6" ry="3.8"/>
		</g>
	</g>
	<path class="st4" d="M799.9,195.8c1.1-0.1,2.9-0.3,5-0.8c-1,2-3,4.3-6.7,7.1l-106,33.6c0,0-2.2-0.8-0.2-3
		c1.6-1.7,65.3-28.8,93.8-40.8c1.2-0.5,2.4-1,3.5-1.5c6.2-2.6,10-4.2,10-4.2s5.5,1.3,6.2,5.1c-2.7,0.7-4.9,0.9-6.1,1
		c-1.1-2.1-3.8-1.5-4.7-1.2c-0.2,0.1-0.4,0.1-0.5,0.2l-1.4,0.6l-4.4,2l-13.3,6.2c-1,0.5-1.9,1.2-2.5,2.2c-0.7,1.3-0.5,2.3-0.1,3
		c0.6,1,1.9,1.3,3.3,0.8l19-6C794.9,200.3,799.1,199.2,799.9,195.8L799.9,195.8z"/>
	<g>
		<path class="st6" d="M789.3,190.4c-1.1,0.5-2.2,0.9-3.5,1.5c-0.2-0.2-0.3-0.4-0.5-0.7c-2.7-3.6-2.5-9,0.4-15.9
			c3.4-8.2,7.3-12.4,11.5-12.8c4.2-0.3,7,3.5,7.6,4.3c0.3,0.4,2.1,2.1,4.1,1.8c2.1-0.4,4.1-2.9,5.8-7.3c0.4-0.9,1.4-1.3,2.2-1
			c0.9,0.4,1.3,1.4,1,2.3c-2.2,5.7-5.1,8.9-8.5,9.5c-4.1,0.7-7.2-2.9-7.3-3.1l-0.2-0.2c0,0-1.9-3.1-4.5-2.8c-2.7,0.2-5.8,4-8.6,10.7
			c-2.4,5.7-2.7,9.9-0.8,12.4C788.4,189.7,788.8,190.1,789.3,190.4L789.3,190.4z"/>
		<path class="st6" d="M860.5,166.6c-0.3,0.9-1.2,1.5-2.1,1.2c-0.3-0.1-26.6-7.6-31.9,8.8c-4.1,12.6-14.6,16.9-21.5,18.5
			c-2.1,0.5-3.9,0.7-5,0.8c-0.6,0.1-1,0.1-1.2,0.1c-0.2,0-0.9,0.1-1.8,0.1c-2.1,0-5.5-0.3-8.4-1.9l4.4-2c2.8,0.7,5.5,0.4,5.5,0.4
			l0.2,0c0.1,0,0.4,0,1,0c1.2-0.1,3.4-0.3,6.1-1c6-1.6,14.2-5.6,17.5-15.9c2.7-8.2,9.8-12.7,20.8-13c7.9-0.2,15,1.9,15.3,1.9
			C860.2,164.7,860.7,165.7,860.5,166.6L860.5,166.6z"/>
	</g>
</g>
<g>
	<path class="st5" d="M1848.7,73.6c-7.9,3.2-51.9,19.8-147.7,36.7l-4.2-22l112-11.1l39.7-3.9h0C1848.8,73.2,1848.9,73.5,1848.7,73.6
		L1848.7,73.6z"/>
	<polygon class="st9" points="1808.8,77.1 1696.8,88.2 1696.8,88.2 1696.9,88.2 	"/>
	<polygon class="st10" points="1696.8,88.2 1696.8,88.2 1696.6,88.2 	"/>
	<path class="st11" d="M1848.5,73.2l-39.7,3.9l-112,11.1l0.1,0l132.9-21.4c2.9-0.5,5.9-0.1,8.7,1.2L1848.5,73.2L1848.5,73.2z"/>
	<polygon class="st3" points="1701,110.2 1652.5,119.3 1638.6,108.6 1648,96.8 1696.6,88.2 	"/>
	
		<ellipse transform="matrix(0.9822 -0.1877 0.1877 0.9822 10.5779 317.0658)" class="st1" cx="1679.3" cy="102.7" rx="9.2" ry="9.2"/>
	<path class="st3" d="M1537.3,93c24.6,9.8,45.4-2,45.4-2c35.2-2.9,55.9,17.6,55.9,17.6l9.4-11.8c-6.3-11.3-49.5-17.3-51.6-21.1
		c-3-5.7-4.8-25.6-27-35.5c-26-11.5-47.2,6.5-50.2,13.3C1516.3,60.3,1512.7,83.3,1537.3,93L1537.3,93z M1530.2,56.4
		c1.9-5.1,17.8-15.5,36.4-8.7c17.4,6.3,21.8,19.2,18.8,28.9c-2.8,8.9-18,15-37.3,9.6C1530.8,81.3,1525.4,69.2,1530.2,56.4
		L1530.2,56.4z"/>
	<path class="st3" d="M1504.8,130.1c0.4,2,18.2,26,59.3,21.2c41.1-4.8,53.8-35.1,53.8-35.1l11.8,6.7l22.8-3.6l-11.9-9.2
		c-5.4-3.6-43.4-19.1-63.5-14.5s-30.2,0.5-36.1,1.2c-5.9,0.7-23-6.6-33.3,7.6S1504.4,128.2,1504.8,130.1L1504.8,130.1z M1510.8,121
		c-0.2-7.4,1-11.9,9.8-14.7s24.2,0.5,26.6,0.3c2.4-0.2,26.2-0.8,33.1-2.6s22.4,1,24.7,12.4c0,0,2.1,20.7-35.8,26.4
		C1531.4,148.6,1511,128.4,1510.8,121z"/>
</g>
<g>
	<g>
		<path class="st1" d="M556.4,791.5c1.2,2.3,2.5,5,2.7,7.7c0.1,3.3-0.9,7.2-2.5,10.5c-1.5,3.1-4.1,5.5-7.2,6.4
			c-2,0.6-3.4,1.1-5.3,0.5c-3.9-1.1-7.8-2.4-10.7-5.3c-11.4-11.7,3.4-30.4,17.5-23.8C552.9,788.5,555.3,789.5,556.4,791.5
			L556.4,791.5z"/>
		<path class="st3" d="M556.4,791.5c1.2,2.3,2.5,5,2.7,7.7c0.1,3.3-0.9,7.2-2.5,10.5c-1.5,3.1-4.1,5.5-7.2,6.4
			c-2,0.6-3.4,1.1-5.3,0.5c-3.9-1.1-7.8-2.4-10.7-5.3c-11.4-11.7,3.4-30.4,17.5-23.8C552.9,788.5,555.3,789.5,556.4,791.5
			L556.4,791.5z"/>
		<ellipse transform="matrix(0.5314 -0.8471 0.8471 0.5314 -423.6373 836.1729)" class="st1" cx="544" cy="801" rx="7.4" ry="7.6"/>
		<g>
			<path class="st1" d="M588.1,801.6c-3.6-0.1-7.1-1.1-10.4-2.2c-9.5-3.1-17.3-6.8-24-11.5c-3-2.1-5.9-4.5-8.7-6.8
				c-2.1-1.7-4.2-3.5-6.5-5.2c-9.7-7.3-20.7-12.7-31.3-17.9c-5.9-2.9-12.7-6.2-20.1-6.5l-2.6-0.1l44.3,38.4
				c-8.6-2-16.6-6.3-24.3-10.4c-9.4-5-19.1-10.1-30-11.5l-2.1-0.2l1.3,1.7c5.9,7.8,13.7,14,22.5,18c-0.6,0.8-0.9,1.9-0.9,2.9l0,0.5
				l0.4,0.2c13.4,9.8,28,18.1,43.4,24.6l1,0.4c5.1,2.2,10.4,4.4,13.8,8.6c3,3.7,4.4,8.7,5.7,13.6l0.4,1.4c0.2,0.9,0.7,2.6,1,3.5
				c0-0.1,0-0.2,0-0.3c0-0.2-0.1-0.3-0.1-0.5c-0.8-4.8,5.9-7.4,10.2-8.6c-3.9-8.2-8.4-16.2-13.5-23.7c5.3-5.7,14.2-3.6,16.8-2.7
				c0.6,0.2,1.2,0.4,1.8,0.6c0.3,0.1,0.6,0.2,0.9,0.3c0.3,0.1,0.6,0.2,0.9,0.3c0.3,0.1,0.6,0.2,1,0.3c3.7,1.4,7.6,2.8,11.7,2.9
				c-0.8-2.7-0.1-6.4,4.5-10.8c0,0,0.1-0.1,0.1-0.1C592.9,801.4,590.5,801.7,588.1,801.6L588.1,801.6z M556.4,791.5
				c1.2,2.3,2.5,5,2.7,7.7c0.1,3.3-0.9,7.2-2.5,10.5c-1.5,3.1-4.1,5.5-7.2,6.4c-2,0.6-3.4,1.1-5.3,0.5c-3.9-1.1-7.8-2.4-10.7-5.3
				c-11.4-11.7,3.4-30.4,17.5-23.8C552.9,788.5,555.3,789.5,556.4,791.5L556.4,791.5z"/>
			<path class="st1" d="M594.9,817.4L594.9,817.4c-1.4,0.1-2.8,0.2-4.2,0.2l-0.9,0l-12.6,2.4l-0.8,10.8l-0.2,2.3
				c-0.3,0-0.6-0.1-0.9,0c-0.3,0-0.6,0-0.9,0.1l0.1-1.8l1.8-23.3c0.3,0.1,0.6,0.2,0.9,0.3c0.3,0.1,0.6,0.2,0.9,0.3l-0.7,9.5
				l12.7-2.4l1.1-2.6C592.4,815.9,594.9,817.4,594.9,817.4L594.9,817.4z"/>
		</g>
	</g>
	<path class="st3" d="M583,837.7c1.6,2.9,2,6.2,2.4,9.5c0.1,0.8,0.2,1.5,0.3,2.3c0.1,0.7,0.2,1.3,0.3,1.9c1.4,6.9,5.1,12.6,9.1,18.5
		c1.9,2.9,3.8,5.8,5.5,8.9c1.9,3.5,3.4,7.3,4.9,10.9c1.4,3.4,2.8,7,4.5,10.2c4.9,9.4,12.3,17,21.5,22.1c1.4,0.8,3.3,1.4,5.3,2
		c3,0.9,6.1,1.9,8,3.7c1.6,1.5,2.2,3.8,1.8,6.2c-0.5,2.5-2.1,4.6-4.4,5.6c-2.1,0.9-4.3,0.9-6.3,0.4c-2.1-0.5-4.1-1.4-6-2.3
		c-12.6-6.2-26.9-13.2-37-24.7c-9.7-10.9-15.1-24.9-20.5-38.5c-3.6-9.3-7.4-18.8-10.4-28.6c-0.3-1-0.6-1.9-0.9-2.8
		c0-0.2-0.1-0.3-0.1-0.5c-0.8-4.8,5.9-7.4,10.2-8.6c1.7-0.5,2.9-0.7,3.2-0.7c0.3,0,0.6-0.1,0.9-0.1c0.3,0,0.6,0,0.9,0c0,0,0,0,0,0
		C578.9,833.4,581.6,835.2,583,837.7L583,837.7z"/>
	<path class="st3" d="M704.3,817.3c2.7,1.7,5.3,3.7,6.9,6.8c1.3,2.6,1.5,6.3-0.3,9.1c-0.3,0.4-0.6,0.8-1,1.2
		c-3.1,3.2-8.4,3-14.1-0.6c-2.6-1.6-5.2-3.5-7.7-5.2c-6.6-4.7-13.4-9.5-21.3-11.4c-5-1.2-10.1-1.3-16.2-1.3c-14.4,0-29,0.3-43.5,0.9
		c-4.1,0.2-8.2,0.3-12.3,0.6h0c0,0-2.5-1.5-3.8-4.2c-0.2-0.4-0.3-0.8-0.5-1.3c-0.8-2.7-0.1-6.4,4.5-10.8c0,0,0.1-0.1,0.1-0.1
		c1.7-0.3,3.4-0.7,5-1.1l2.1-0.5c1.3-0.3,2.5-0.5,3.8-0.8C640.9,792.1,676.4,798.8,704.3,817.3L704.3,817.3z"/>
</g>
<g>
	<path class="st4" d="M1238.1,955.7c-9.7-7.5-20.4-3.2-20.4-3.2s-11.5,5.4-18.3,1.4s0.4-13.3,0-18.6c-0.4-5.4-15.8-9.9-10.2-21.5
		c5.3-11,20.7-14.7,22-15l2.5,7c-5.1,2.9-3.8,8.3-2,11.6c2.9,5.5,14.3,3.2,19,0.7s24.4,0.4,27.9,5.7c3.6,5.4-4.3,8.2-9.3,13.3
		c-5,5,24.4,4.3,25.4,13.3C1275.8,959.2,1247.8,963.2,1238.1,955.7L1238.1,955.7z"/>
	<g>
		<path class="st1" d="M1224.4,904.4l-7.9,2.8c-1.2,0.4-2.5-0.2-2.9-1.4l-2.5-7l-0.4-1.1c-0.4-1.2,0.2-2.5,1.4-2.9l7.4-2.6
			c0.1,0.2,0.1,0.5,0.2,0.7l2.9,8.5C1223.1,902.5,1223.7,903.5,1224.4,904.4L1224.4,904.4z"/>
		<path class="st1" d="M1246.6,904.9l-12.1,2.9c-3.8,0.9-7.7-0.5-10.1-3.4c-0.7-0.9-1.3-1.9-1.7-3l-2.9-8.5
			c-0.1-0.2-0.2-0.5-0.2-0.7c-1.1-4,0.4-8.2,3.8-10.7l10.3-7.4L1246.6,904.9L1246.6,904.9z"/>
		<path class="st1" d="M1333.3,884l-21.2,5.1l-65.6,15.8l-12.9-30.8l56.1-40.2l18.1-12.9c1.7-1.2,4.1-0.5,4.8,1.4l22.8,57.3
			C1336.3,881.6,1335.2,883.6,1333.3,884z"/>
		<polygon class="st4" points="1312.2,889.1 1246.6,904.9 1233.7,874.1 1289.9,833.9 		"/>
	</g>
</g>
<g>
	<path class="st0" d="M558.2,561.2l-8.8,9.9c-31.7-25-96.7-78.2-97.6-81.9c-2.3-9.3,2.5-13.5,10.7-13.4
		C466.3,475.8,528.9,533.1,558.2,561.2z"/>
	<path class="st8" d="M585.1,587c0,0,23.7-0.6,26.7,14.9c1.6,8.1,5.9,7.1,6.8,9.3c0.5,1.1-0.4,2.3-1.6,2.3c-4.5,0-14,3.2-21.1,1
		c-9.8-3-16.8-20.2-16.8-20.2L585.1,587L585.1,587z"/>
	<path class="st1" d="M585.1,587l-6,7.3c0,0-12.8-10-29.6-23.3l8.8-9.9C573.6,575.9,585.1,587,585.1,587z"/>
</g>
<g>
	<path class="st12" d="M1707.3,328.8l0.1,0.6C1707.3,329.1,1707.3,328.9,1707.3,328.8z"/>
	<path class="st12" d="M1766,328.8c0,0.2,0,0.4-0.1,0.6L1766,328.8z"/>
	<path class="st12" d="M1796.1,360.8c-2-0.2-4.1-0.5-6.2-0.7C1792,360.3,1794.1,360.5,1796.1,360.8z"/>
	<path class="st12" d="M1828.6,375.6c0-0.4,0-0.7-0.1-1C1828.6,374.9,1828.6,375.3,1828.6,375.6L1828.6,375.6L1828.6,375.6
		L1828.6,375.6z M1797.2,390.3c-5.5,0.8-11.5,1.2-17.7,1.4c-1.3,0-2.7,0-4.1,0s-2.6,0-3.9,0c-0.4,0-0.8,0-1.2,0
		c-1.5,0-2.9-0.1-4.3-0.2c-0.4,0-0.9,0-1.3-0.1s-0.9,0-1.3-0.1c-0.6,0-1.3-0.1-1.9-0.1c-0.4,0-0.8-0.1-1.2-0.1s-0.8-0.1-1.2-0.1
		c-0.1,0-0.2,0-0.2,0c-0.6-0.1-1.2-0.1-1.8-0.2c-0.8-0.1-1.6-0.2-2.4-0.3c-0.1,0-0.2,0-0.2,0c-0.7-0.1-1.4-0.2-2.1-0.3
		c-0.8-0.1-1.5-0.2-2.3-0.4c-1-0.2-2-0.3-2.9-0.5c-1.3-0.2-2.5-0.5-3.7-0.8c-0.5-0.1-0.9-0.2-1.3-0.3c0,0-0.1,0-0.1,0
		c-0.3-0.1-0.6-0.2-0.9-0.2c-0.2,0-0.3-0.1-0.5-0.1c-0.3-0.1-0.6-0.2-0.8-0.2c-1.9-0.5-3.8-1.1-5.4-1.7c-0.2-0.1-0.4-0.2-0.7-0.2
		c-0.8-0.3-1.6-0.6-2.3-0.9c-0.2-0.1-0.5-0.2-0.7-0.3s-0.5-0.2-0.7-0.3c-0.4-0.2-0.8-0.4-1.2-0.6c0,0-0.1,0-0.1-0.1
		c-0.3-0.2-0.7-0.4-1-0.6c-0.1-0.1-0.3-0.2-0.4-0.3c-0.2-0.1-0.4-0.3-0.6-0.4c-0.1,0-0.1-0.1-0.2-0.1c-0.1-0.1-0.2-0.1-0.3-0.2
		c-0.2-0.1-0.3-0.2-0.4-0.4c-0.2-0.1-0.3-0.2-0.4-0.4c-0.1-0.1-0.2-0.1-0.2-0.2c-0.3-0.3-0.7-0.6-0.9-0.9c-0.1-0.1-0.2-0.2-0.3-0.3
		c-0.1-0.1-0.2-0.2-0.3-0.3c0,0-0.1-0.1-0.1-0.1l-0.1-0.1c0-0.1-0.1-0.1-0.1-0.2c-0.1-0.1-0.2-0.2-0.2-0.4c-0.1-0.1-0.2-0.3-0.2-0.4
		c-0.1-0.1-0.1-0.2-0.2-0.4c0,0,0,0,0,0l0,0c0-0.1,0-0.1-0.1-0.2c-0.1-0.2-0.1-0.4-0.2-0.6l17.2,131.9c0,5.9,16.1,10.7,35.9,10.7
		s35.9-4.8,35.9-10.7l17.2-131.9C1826.9,382.9,1814.5,387.9,1797.2,390.3L1797.2,390.3z M1819.8,419.9l-0.1,0.5c0,0,0,0,0,0
		c-1.1,5-16.6,9.1-36.8,10c-2.5,0.1-5,0.2-7.6,0.2c-2,0-4,0-5.9-0.1c-19.7-0.6-35.4-4.4-38.1-9.1l-0.3-2.3v0
		c1.8-5.5,20.7-9.8,43.8-9.9c0.7-2.6,1.4-5.3,2.1-8.1l14.8,4.6c-0.5,1.4-1,2.7-1.4,4.1C1807.5,411.2,1819.8,415.2,1819.8,419.9
		L1819.8,419.9L1819.8,419.9z M1828.2,373.6c0.1,0.3,0.2,0.7,0.3,1C1828.4,374.2,1828.3,373.9,1828.2,373.6z M1825.6,370.2
		c0.4,0.4,0.8,0.7,1.1,1C1826.3,370.9,1826,370.6,1825.6,370.2z M1812.4,367.9c-2.1-0.6-4.4-1.2-6.8-1.8c-2.4,7-4.7,13.8-7,20.2
		c5.1-0.8,9.7-1.8,13.8-3c11-3.3,13.3-7,13.3-7.7S1823.3,371.2,1812.4,367.9L1812.4,367.9z M1809.8,363.4c0.5,0.1,1,0.3,1.5,0.4
		C1810.9,363.6,1810.4,363.5,1809.8,363.4z M1806.8,362.6c-1.9-0.4-3.9-0.8-6-1.1C1802.8,361.8,1804.8,362.2,1806.8,362.6
		c0.5,0.1,1,0.2,1.5,0.4c0.5,0.1,1,0.2,1.6,0.4C1808.8,363.1,1807.8,362.8,1806.8,362.6L1806.8,362.6z M1811.4,363.8
		c1,0.3,1.9,0.6,2.8,0.8C1813.3,364.3,1812.3,364,1811.4,363.8z M1775.4,363.3c-14,0-27.2,1.6-37,4.6c-11,3.3-13.4,7-13.4,7.7
		s2.4,4.4,13.4,7.7c9.8,3,23,4.6,37,4.6c1.7,0,3.4,0,5.1-0.1c2-7.5,4.2-15.7,6.5-24.2C1783.2,363.4,1779.3,363.3,1775.4,363.3z
		 M1729.4,367.5c0.9-0.5,1.8-0.9,2.9-1.3C1731.2,366.6,1730.3,367,1729.4,367.5z M1728.1,368.2c0.4-0.2,0.8-0.5,1.3-0.7
		C1728.9,367.7,1728.5,368,1728.1,368.2z"/>
	<g>
		<path class="st1" d="M1819.7,420.4l-9.9,80.1c0,5.9-15.4,10.7-34.3,10.7s-34.3-4.8-34.3-10.7l-9.8-79.2c2.7,4.8,18.3,8.5,38.1,9.1
			c1.9,0.1,3.9,0.1,5.9,0.1c2.6,0,5.1,0,7.6-0.2C1803.1,429.6,1818.6,425.5,1819.7,420.4z"/>
		<path class="st3" d="M1819.8,419.9L1819.8,419.9l-0.1,0.5c0,0,0,0,0,0c-1.1,5-16.6,9.1-36.8,10c-2.5,0.1-5,0.2-7.6,0.2
			c-2,0-4,0-5.9-0.1c-19.7-0.6-35.4-4.4-38.1-9.1l-0.3-2.3v0c1.8-5.5,20.7-9.8,43.8-9.9c-1,4-2,7.8-2.9,11.3
			c-0.2,0.6-0.3,1.3-0.5,1.9c1,0.9,3.9,1.6,7.2,1.6c3.1,0,5.8-0.6,7-1.4c0.2-0.5,0.3-0.9,0.5-1.4c1.3-3.6,2.6-7.4,4-11.4
			C1807.5,411.2,1819.8,415.2,1819.8,419.9L1819.8,419.9z"/>
		<path class="st3" d="M1731.3,421.3c-0.3-0.5-0.4-1-0.4-1.5c0-0.3,0.1-0.5,0.1-0.8L1731.3,421.3L1731.3,421.3z"/>
	</g>
	<g>
		<path class="st0" d="M1841.1,253.6c-3.2-11.4-10.5-12.6-18.7-7c-3,1.9-20.6,62.9-34.4,113.4l0,0c-0.3,1.2-0.7,2.5-1,3.7
			c-2.3,8.5-4.5,16.7-6.5,24.2c6.4-0.2,12.5-0.7,18.1-1.5c2.2-6.4,4.6-13.2,7-20.2c0.4-1.2,0.8-2.4,1.2-3.5c-1.9-0.4-3.9-0.8-6-1.2
			c2.1,0.3,4.1,0.7,6,1.1C1823.3,314.1,1842,257,1841.1,253.6L1841.1,253.6z"/>
		<path class="st0" d="M1796.1,360.8c-2-0.2-4.1-0.5-6.2-0.7C1792,360.3,1794.1,360.5,1796.1,360.8z"/>
		<path class="st0" d="M1797.2,390.3c-1.9,5.5-3.7,10.7-5.4,15.4l-14.8-4.6c0.8-2.9,1.6-6.1,2.4-9.4
			C1785.7,391.5,1791.7,391.1,1797.2,390.3L1797.2,390.3z"/>
		<path class="st0" d="M1806.7,362.6L1806.7,362.6c-1.9-0.4-3.9-0.8-6-1.1C1802.8,361.8,1804.8,362.2,1806.7,362.6z"/>
		<path class="st8" d="M1765.4,446.4c0,0-24.1,15.2-17.9,33.6c3.2,9.6-1.7,11.5-1.2,14.4c0.2,1.5,1.8,2.2,3,1.4c4.6-3,16-6,21.8-13
			c8-9.7,4.8-32.6,4.8-32.6L1765.4,446.4z"/>
		<path class="st13" d="M1791.8,405.7c-0.5,1.4-1,2.7-1.4,4.1c-1.4,4-2.8,7.8-4,11.4c-0.2,0.5-0.3,0.9-0.5,1.4
			c-1.2,0.8-3.9,1.4-7,1.4c-3.4,0-6.2-0.7-7.2-1.6c0.2-0.6,0.3-1.3,0.5-1.9c0.9-3.5,1.9-7.3,2.9-11.3c0.7-2.6,1.4-5.3,2.1-8.1
			L1791.8,405.7L1791.8,405.7z"/>
		<path class="st13" d="M1782.9,430.4c-4.2,11.8-7,19.4-7.1,19.7l0,0l-10.4-3.8l0,0c0.1-0.3,1.6-6.3,4-15.9c1.9,0.1,3.9,0.1,5.9,0.1
			C1777.9,430.6,1780.5,430.5,1782.9,430.4L1782.9,430.4z"/>
	</g>
	<path class="st13" d="M1828.5,376.9c0.1-0.4,0.1-0.8,0.2-1.2L1828.5,376.9z M1722.5,377.7c0.1,0.1,0.1,0.2,0.2,0.4
		C1722.6,377.9,1722.6,377.8,1722.5,377.7C1722.5,377.7,1722.5,377.7,1722.5,377.7L1722.5,377.7z M1722.5,377.5c0,0,0,0.1,0.1,0.2
		l0,0C1722.5,377.6,1722.5,377.5,1722.5,377.5z M1722.3,376.9l-0.2-1.2C1722.1,376,1722.2,376.5,1722.3,376.9z"/>
	<path class="st13" d="M1828.6,375.6L1828.6,375.6l-0.2,1.2c0,0,0,0,0,0c-1.5,6-13.9,11.1-31.3,13.5c-5.5,0.8-11.5,1.2-17.7,1.4
		c-1.3,0-2.7,0-4.1,0s-2.6,0-3.9,0c-0.4,0-0.8,0-1.2,0c-1.5,0-2.9-0.1-4.3-0.2c-0.4,0-0.9,0-1.3-0.1s-0.9,0-1.3-0.1
		c-0.6,0-1.3-0.1-1.9-0.1c-0.4,0-0.8-0.1-1.2-0.1s-0.8-0.1-1.2-0.1c-0.1,0-0.2,0-0.2,0c-0.6-0.1-1.2-0.1-1.8-0.2
		c-0.8-0.1-1.6-0.2-2.4-0.3c-0.1,0-0.2,0-0.2,0c-0.7-0.1-1.4-0.2-2.1-0.3c-0.8-0.1-1.5-0.2-2.3-0.4c-1-0.2-2-0.3-2.9-0.5
		c-1.3-0.2-2.5-0.5-3.7-0.8c-0.5-0.1-0.9-0.2-1.3-0.3c0,0-0.1,0-0.1,0c-0.3-0.1-0.6-0.2-0.9-0.2c-0.2,0-0.3-0.1-0.5-0.1
		c-0.3-0.1-0.6-0.2-0.8-0.2c-1.9-0.5-3.8-1.1-5.4-1.7c-0.2-0.1-0.4-0.2-0.7-0.2c-0.8-0.3-1.6-0.6-2.3-0.9c-0.2-0.1-0.5-0.2-0.7-0.3
		s-0.5-0.2-0.7-0.3c-0.4-0.2-0.8-0.4-1.2-0.6c0,0-0.1,0-0.1-0.1c-0.3-0.2-0.7-0.4-1-0.6c-0.1-0.1-0.3-0.2-0.4-0.3
		c-0.2-0.1-0.4-0.3-0.6-0.4c-0.1,0-0.1-0.1-0.2-0.1c-0.1-0.1-0.2-0.1-0.3-0.2c-0.2-0.1-0.3-0.2-0.4-0.4c-0.2-0.1-0.3-0.2-0.4-0.4
		c-0.1-0.1-0.2-0.1-0.2-0.2c-0.3-0.3-0.7-0.6-0.9-0.9c-0.1-0.1-0.2-0.2-0.3-0.3c-0.1-0.1-0.2-0.2-0.3-0.3c0,0-0.1-0.1-0.1-0.1
		l-0.1-0.1c0-0.1-0.1-0.1-0.1-0.2c-0.1-0.1-0.2-0.2-0.2-0.4c-0.1-0.1-0.2-0.3-0.2-0.4c-0.1-0.1-0.1-0.2-0.2-0.4l0,0
		c0-0.1-0.1-0.1-0.1-0.2c-0.1-0.2-0.1-0.4-0.2-0.6v0v0l-0.2-1.2c0-0.6,0.1-1.1,0.3-1.7c0.1-0.3,0.2-0.5,0.3-0.8
		c0.1-0.3,0.3-0.5,0.5-0.8c0.2-0.3,0.4-0.5,0.6-0.8c0.1-0.1,0.2-0.3,0.3-0.4c0.6-0.7,1.4-1.3,2.2-1.9c0.5-0.4,1.1-0.7,1.7-1.1l0,0
		c0.4-0.2,0.8-0.5,1.3-0.7l0,0c0.9-0.5,1.8-0.9,2.9-1.3c1.8-0.8,3.8-1.5,6.1-2.1c0.9-0.3,1.9-0.5,2.9-0.8c0.7-0.2,1.4-0.3,2.1-0.5
		c0.7-0.2,1.4-0.3,2.1-0.5c1.5-0.3,3-0.6,4.5-0.8c1.5-0.2,3.1-0.5,4.7-0.7c0.9-0.1,1.9-0.2,2.9-0.3c1.1-0.1,2.2-0.2,3.2-0.3
		c0.4,0,0.8-0.1,1.3-0.1c0.8-0.1,1.7-0.1,2.6-0.2c3.5-0.2,7.1-0.3,10.7-0.3s7.3,0.1,10.7,0.3c0.6,0,1.2,0.1,1.8,0.1
		c-0.3,1.2-0.7,2.5-1,3.7c-3.8-0.3-7.6-0.4-11.6-0.4c-14,0-27.2,1.6-37,4.6c-11,3.3-13.4,7-13.4,7.7s2.4,4.4,13.4,7.7
		c9.8,3,23,4.6,37,4.6c1.7,0,3.4,0,5.1-0.1c6.4-0.2,12.5-0.7,18.1-1.5c5.1-0.8,9.7-1.8,13.8-3c11-3.3,13.3-7,13.3-7.7
		s-2.4-4.4-13.3-7.7c-2.1-0.6-4.4-1.2-6.8-1.8c0.4-1.2,0.8-2.4,1.2-3.5c8.6,1.9,15.2,4.5,18.8,7.6c0.4,0.4,0.8,0.7,1.1,1
		c0.2,0.2,0.4,0.5,0.6,0.7l0,0c0.1,0.1,0.2,0.3,0.3,0.4c0.3,0.4,0.5,0.8,0.7,1.2l0,0c0.1,0.3,0.2,0.7,0.3,1l0,0
		C1828.5,374.9,1828.6,375.3,1828.6,375.6L1828.6,375.6z"/>
</g>
<g>
	<path class="st3" d="M189.7,702.3l-1.9,2.6c-0.1,0.1-0.1,0.1-0.1,0.2l-2.8-2.1c-1.9-1.4-4.9-0.7-6.6,1.6s-1.5,5.3,0.4,6.8
		l19.8,14.7c1.9,1.4,4.9,0.7,6.6-1.6c1.7-2.3,1.5-5.3-0.4-6.8l-2.8-2.1c0.1-0.1,0.1-0.1,0.1-0.2l1.9-2.6c1.5-2,1.4-4.8-0.4-6
		l-7.9-5.9C193.8,699.6,191.2,700.2,189.7,702.3L189.7,702.3z"/>
	<path class="st1" d="M189.1,687.8l46.5-115c0.9-2.3,3.8-3.1,5.8-1.7l59.7,43.2c1.9,1.4,2.1,4.1,0.5,5.7L217,707.3
		c-4.3,4.4-11.2,4.8-16,1l-8.4-6.7C188.6,698.3,187.1,692.7,189.1,687.8L189.1,687.8z"/>
	<polygon class="st11" points="225.6,597.4 283.4,638.7 227.4,696.6 194.7,673.8 	"/>
</g>
<g>
	<path class="st5" d="M387.7,198.2c0.9-0.1,1.7-0.3,2.5-0.4c0.8-0.1,1.6-0.4,2.6-0.6c3.1-0.8,7.2-2.2,11.8-4.2
		c1.5-0.7,3.1-1.4,4.8-2.3c3.4-1.7,6.9-3.8,10.3-6.3c1.5-1,2.9-2.1,4.3-3.3c2.5-2.1,4.9-4.4,7.1-6.9c1.3-1.5,2.6-3.1,3.7-4.8
		c3.3-4.9,5.8-10.4,7-16.7c0.4-1.8,0.6-3.8,0.7-5.7c0.3-4.5-0.1-9.2-1.3-14.4c-0.4-1.7-0.8-3.4-1.4-5.1c-1.4-4.5-3.5-9.2-6.2-14.2
		c-0.5-1-1.1-1.9-1.6-2.9c-0.9-1.6-1.8-3.1-2.8-4.6c-3.3-5.3-6.7-9.9-10.1-14c-2.3-2.7-2.3-2.7,0,0c-1.8-2.2-3.7-4.2-5.5-6
		c-3-3-5.9-5.5-8.8-7.8c-1.8-1.4-3.6-2.7-5.4-3.8c-4.3-2.7-8.5-4.8-12.4-6.2c-1.9-0.7-3.7-1.3-5.5-1.8c-6.5-1.8-11.9-2.2-15.7-2.1
		c-2.6,0-4.4,0.3-5.3,0.4c-0.3,0.1-0.5,0.1-0.5,0.1c-4.8,1.7-9.2,3.5-13.2,5.5c-1.9,0.9-3.7,1.8-5.4,2.8c-4.1,2.3-7.8,4.8-11.1,7.4
		c-1.9,1.4-3.6,2.9-5.2,4.5c-5.7,5.4-10,11.2-13.1,17.3c-0.8,1.6-1.6,3.2-2.2,4.9c-2.2,5.5-3.5,11.2-4,16.8
		c-0.2,1.8-0.2,3.6-0.2,5.4c0,4.5,0.5,8.9,1.3,13.2c0.4,1.9,0.8,3.7,1.3,5.5c1.7,5.9,4.1,11.5,7.1,16.4c0,0,0,0.1,0,0.1
		c3.1,5.1,6.7,9.6,10.6,13.2c1.7,1.5,3.3,2.9,4.9,4.2c3.9,3.1,7.8,5.8,11.5,7.9h0c3,1.7,6,3.2,8.9,4.4c6.5,2.7,12.7,4,18.4,4.6
		c2.3,0.2,4.4,0.3,6.5,0.3c2.3,0,4.5-0.1,6.5-0.3"/>
	<g>
		<path class="st11" d="M365.4,64.4c-2.6,0-4.4,0.3-5.3,0.4c-0.3,22.4,0.9,85.8,27,133.7c0,0,2-0.3,2.8-0.5c0.8-0.1,1.6-0.4,2.6-0.6
			C366.5,150.1,365.1,85.8,365.4,64.4L365.4,64.4z"/>
		<path class="st11" d="M346.4,70.4c-1.9,0.9-3.7,1.8-5.4,2.8c-0.5,9.2-0.7,21.7,0.4,36c-2.7-0.2-6.2-0.7-9.9-1.3
			c-0.7-6.4-1.7-17.6-1.6-27.2l-5.2,4.5c0.2,8.5,1,17,1.5,21.7c-5-1.1-10.2-2.5-14.5-4.4c-0.8,1.6-1.6,3.2-2.2,4.9
			c11.9,5.2,27.7,6.8,32.5,7.2c0.5,4.6,1,9.2,1.8,14.1c-12.3-0.6-26.3-2.1-38.4-4.5c-0.2,1.8-0.2,3.6-0.2,5.4
			c1.5,0.3,3.1,0.6,4.8,0.8c14.7,2.4,29.5,3.3,34.8,3.6c0.7,3.8,1.5,7.7,2.4,11.6c-6.9-0.2-23.7-1-40.7-2.8c0.4,1.9,0.8,3.7,1.3,5.5
			c1.4,0.1,2.8,0.3,4.1,0.4c-0.7,4.1,0.3,9.5,3,16c0,0,0,0.1,0,0.1l15.5,17.4c-1.7-2.6-4.6-7.1-7.3-12.3c-4.8-9.2-6.9-16.5-6-20.8
			c3.5,0.3,6.9,0.6,10.1,0.8c-0.7,11.2,7.5,27.9,14.7,40.2h0l8.9,4.4c-8.3-13-19.2-33.1-18.4-44.2c7.4,0.4,13.2,0.6,16,0.7
			c4.3,16.2,10.9,32.7,20.7,48.1c2.3,0.2,4.4,0.3,6.5,0.3C344.7,153.5,344.6,95.8,346.4,70.4L346.4,70.4z"/>
		<path class="st11" d="M442.1,147.2c-5.1,1.8-12.8,2.5-22.6,2c-9.4-0.5-18.3-1.9-22-2.5c-0.8-4.2-1.6-8.5-2.3-12.7
			c4.4,0.4,12.8,1.1,21.9,1.1c8,0,16.6-0.5,23.6-2.2c-0.4-1.7-0.8-3.4-1.4-5.1c-13.2,3-34.7,1.8-45,0.8c-0.8-4.9-1.5-9.7-2.2-14.4
			c3,0.2,7.6,0.6,12.9,0.6c2.4,0,4.9-0.1,7.5-0.2c7.8-0.5,14.2-1.7,19-3.8c-0.9-1.6-1.8-3.1-2.8-4.6c-2.4,0.9-5.1,1.6-7.9,2.1
			c-0.8-3.8-1.8-9.9-2.3-16c-0.3-4.1-0.3-4.1,0,0c-1.8-2.2-3.7-4.2-5.5-6c0,9.1,1.8,18.6,2.6,22.8c-1.2,0.1-2.3,0.2-3.4,0.3
			c-1.3,0.1-2.6,0.2-3.9,0.2c-2-10.7-3.5-22.4-4.1-31c-1.8-1.4-3.6-2.7-5.4-3.8c0,7,1,17.9,4.1,34.8c-5.1-0.1-9.4-0.4-11.7-0.6
			c-2.4-17.1-4-31.9-4.8-40.4c-1.9-0.7-3.7-1.3-5.5-1.8c1.8,19.8,9,88.7,23.1,126.6c1.5-0.7,3.1-1.4,4.8-2.3
			c-4-10.9-7.4-24.4-10.3-38.6c2.5,0.4,5.9,1,9.9,1.4c1.5,5.4,5.9,20.7,10.7,30.9c1.5-1,2.9-2.1,4.3-3.3c-3.3-7.5-6.9-18.6-9.3-27.1
			c3.3,0.3,6.8,0.4,10.3,0.5c1,4.4,3,12.9,6.1,19.7c1.3-1.5,2.6-3.1,3.7-4.8c-1.8-4.6-3.4-10.2-4.5-15c4.1-0.2,8-0.7,11.5-1.6
			C441.8,151,442,149.1,442.1,147.2L442.1,147.2z"/>
	</g>
	<path class="st14" d="M495.4,342c0,0,67.2,72.4,91.7-27.9c24.6-100.4-70.2-99.1-83.9-95c-13.7,4.1-28.8,10.7-11.9,24.5
		c17,13.8,70.3-5.4,65.3-36s-83-25.3-101.7-13c-18.6,12.3-40.7-9.2-40.7-9.2"/>
</g>
<g>
	<polygon class="st5" points="917.9,962.5 925.7,947.9 989.1,985 982.8,1000.7 	"/>
	<path class="st11" d="M1072.5,1021.3L1072.5,1021.3c1.2,1.2,2.2,2.3,3.1,3.5l0,0c0.7,1,1.3,2,1.7,2.9c0,0.1,0.1,0.2,0.1,0.3
		c0.3,0.6,0.4,1.2,0.5,1.7c0.1,0.7,0.1,1.3,0,1.8c-0.2,0.7-0.6,1.3-1.2,1.8c-11.2,8.8-87.9-18.9-93.9-32.7l0.9-2.2l0.6-1.6l1.1-2.6
		l0.6-1.5l1.1-2.7l0.6-1.6l1.4-3.5C989.1,985,1052.6,1002.2,1072.5,1021.3L1072.5,1021.3z"/>
	<path class="st4" d="M839.1,793.5l36,102.5c12.7,14.1,15.8-2.1,15.8-2.1s-46.7-99.4-48.9-101.2S839.1,793.5,839.1,793.5
		L839.1,793.5z M876.4,871.9l9.3,17.8c0.1,0.2,0.2,0.3,0.2,0.5c0.4,1.1,1.3,4.7-2.7,6c-4.7,1.5-6.4-4-6.4-4l-6.4-18.4
		c-0.5-1.3-0.2-2.7,0.7-3.6c0.7-0.6,1.6-1,3-0.5C875.1,870.2,876,871,876.4,871.9L876.4,871.9z"/>
	<path class="st11" d="M885.7,895.4c2.2,5.8,8.4,22.2,13,29c4.2,6.3,17.1,18.3,22.4,23.2c0.6,0.5,1.1,1,1.4,1.3c0.5,0,0.9,0,1.3-0.1
		c0.8-0.1,1.5-0.4,2-0.9l-0.8,1.5l-0.8,1.5l-1.4,2.6l-0.8,1.4l0,0l-2.2,4l-0.8,1.5l-1.1,2.1c0,0-68.1-18.2-72.6-37.6
		c-0.2-0.9-0.3-1.8-0.2-2.6c0,0,0,0,0,0c0.1-1.7,0.5-3.1,1.1-4.3c0.2-0.5,0.5-1,0.8-1.4c0.8-1.1,1.8-1.9,3.1-2.5
		c0.7-0.3,1.5-0.6,2.3-0.7c10.9-2.2,30.4,8.9,33.4,12.8c2.4,3.1,13,11.9,22.9,17.6l0,0c1.6,0.9,3.2,1.8,4.8,2.5
		c-0.4-0.4-0.8-0.8-1.3-1.2c-6.2-5.9-14.1-13.8-17.4-18.7c-4.9-7.3-11.3-24.1-13.5-30c-0.4-1.2,0.2-2.3,1.3-2.6
		C883.9,893.5,885.2,894.2,885.7,895.4L885.7,895.4z"/>
	<g>
		<path class="st15" d="M845.2,922.2C845.2,922.2,845.2,922.3,845.2,922.2c-0.1,0.9,0,1.8,0.2,2.7c4.7,5,13.8,13,27.2,18.7
			c16.6,7.1,38.8,14.3,46.4,16.8l0.8-1.5c-7.1-2.3-29.8-9.6-46.7-16.8C858.6,935.9,849.2,926.7,845.2,922.2L845.2,922.2z"/>
		<path class="st15" d="M877.6,936.3c-8-3-24.6-15.3-30.5-19.8c-0.3,0.4-0.6,0.9-0.8,1.4c6.1,4.6,22.5,16.8,30.9,19.9
			c2.4,0.9,6,2.1,10,3.6c11.6,4,28.7,10,34.8,13.4l0,0l0.8-1.4c-6.3-3.5-22.8-9.3-35.1-13.6C883.6,938.4,880,937.2,877.6,936.3
			L877.6,936.3z"/>
		<path class="st15" d="M913.7,947.2c2.2,0.3,6.6,1.6,10.5,3.7l0.8-1.5c-0.4-0.2-0.8-0.4-1.2-0.6c-0.9-0.5-1.8-0.9-2.7-1.2
			c-3-1.2-5.8-1.9-7.4-2.1c-0.2,0-0.7-0.2-1.3-0.3c-0.9-0.3-2.1-0.7-3.5-1.3l0,0c-7-2.8-19.5-8.7-26-13.7s-22.9-13.1-30.4-16.7
			l-2.3,0.7c6.4,3,24.6,11.7,31.7,17.2C890.7,938.2,910.8,946.8,913.7,947.2L913.7,947.2z"/>
		<path class="st15" d="M1054.9,1028.2c-13.2-3.3-27.6-7.9-36.8-11.2c-13.8-4.9-27.4-14.9-33.8-20.1l-0.6,1.6
			c6.7,5.3,20.3,15.2,34.1,20.1c12.6,4.5,46,15.2,58.9,14.8l1.2-1.8C1075.1,1032,1068.9,1031.6,1054.9,1028.2L1054.9,1028.2z"/>
		<path class="st15" d="M987.7,988.5l-0.6,1.6c20.4,4.9,72.8,25.5,88.5,34.7c-0.9-1.2-1.9-2.3-3.1-3.5h0
			C1053.2,1011.3,1007.1,993.3,987.7,988.5L987.7,988.5z"/>
		<path class="st15" d="M986,992.8l-0.6,1.5c7.8,4,32.6,16.3,42.8,18c9.8,1.6,39.7,13.4,49.7,17.4c-0.1-0.5-0.3-1.1-0.5-1.7
			c0-0.1-0.1-0.2-0.1-0.3c-11.1-4.4-39.3-15.5-49-17.1C1018.4,1009,993.6,996.7,986,992.8L986,992.8z"/>
	</g>
</g>
<g>
	<g>
		<path class="st12" d="M144.3,272l142.5,29.9c6.6,1.4,10.8,7.9,9.4,14.4l-29.9,142.5c-1.4,6.6-7.9,10.8-14.4,9.4l-142.5-29.9
			c-6.6-1.4-10.8-7.9-9.4-14.4l29.9-142.5C131.2,274.8,137.7,270.6,144.3,272z"/>
		<g>
			<circle class="st13" cx="144.9" cy="288.7" r="2.4"/>
			
				<ellipse transform="matrix(0.2057 -0.9786 0.9786 0.2057 -159.5041 386.4951)" class="st13" cx="158.3" cy="291.5" rx="2.5" ry="2.4"/>
			<circle class="st13" cx="171.8" cy="294.3" r="2.4"/>
			
				<ellipse transform="matrix(0.2057 -0.9786 0.9786 0.2057 -143.6635 417.3513)" class="st13" cx="185.3" cy="297.2" rx="2.5" ry="2.4"/>
			<circle class="st13" cx="198.7" cy="300" r="2.4"/>
			<circle class="st13" cx="212.2" cy="302.8" r="2.4"/>
			<circle class="st13" cx="225.7" cy="305.7" r="2.4"/>
			
				<ellipse transform="matrix(0.2057 -0.9786 0.9786 0.2057 -111.938 479.0631)" class="st13" cx="239.1" cy="308.5" rx="2.5" ry="2.4"/>
			<circle class="st13" cx="252.6" cy="311.3" r="2.4"/>
			<circle class="st13" cx="266.1" cy="314.1" r="2.4"/>
			<circle class="st13" cx="279.5" cy="317" r="2.4"/>
			<circle class="st13" cx="251.2" cy="451.6" r="2.4"/>
			
				<ellipse transform="matrix(0.2057 -0.9786 0.9786 0.2057 -226.9978 596.7053)" class="st13" cx="254.1" cy="438.2" rx="2.4" ry="2.5"/>
			<circle class="st13" cx="256.9" cy="424.7" r="2.4"/>
			
				<ellipse transform="matrix(0.2057 -0.9786 0.9786 0.2057 -196.1525 580.8381)" class="st13" cx="259.7" cy="411.3" rx="2.4" ry="2.5"/>
			<circle class="st13" cx="262.6" cy="397.8" r="2.4"/>
			<circle class="st13" cx="265.4" cy="384.3" r="2.4"/>
			<circle class="st13" cx="268.2" cy="370.8" r="2.4"/>
			
				<ellipse transform="matrix(0.2057 -0.9786 0.9786 0.2057 -134.4461 549.1296)" class="st13" cx="271.1" cy="357.4" rx="2.4" ry="2.5"/>
			<circle class="st13" cx="273.9" cy="343.9" r="2.4"/>
			<circle class="st13" cx="276.7" cy="330.4" r="2.4"/>
			<circle class="st13" cx="116.6" cy="423.3" r="2.4"/>
			
				<ellipse transform="matrix(0.2057 -0.9786 0.9786 0.2057 -306.2731 442.4246)" class="st13" cx="119.4" cy="409.9" rx="2.4" ry="2.5"/>
			<circle class="st13" cx="122.2" cy="396.4" r="2.4"/>
			
				<ellipse transform="matrix(0.2057 -0.9786 0.9786 0.2057 -275.4306 426.563)" class="st13" cx="125.1" cy="383" rx="2.4" ry="2.5"/>
			<circle class="st13" cx="127.9" cy="369.5" r="2.4"/>
			<circle class="st13" cx="130.7" cy="356" r="2.4"/>
			<circle class="st13" cx="133.6" cy="342.5" r="2.4"/>
			
				<ellipse transform="matrix(0.2057 -0.9786 0.9786 0.2057 -213.7221 394.8531)" class="st13" cx="136.4" cy="329.1" rx="2.4" ry="2.5"/>
			<circle class="st13" cx="139.2" cy="315.6" r="2.4"/>
			<circle class="st13" cx="142" cy="302.1" r="2.4"/>
			<circle class="st13" cx="130" cy="426.2" r="2.4"/>
			
				<ellipse transform="matrix(0.2057 -0.9786 0.9786 0.2057 -298.3625 457.8506)" class="st13" cx="132.9" cy="412.7" rx="2.4" ry="2.5"/>
			<circle class="st13" cx="135.7" cy="399.2" r="2.4"/>
			
				<ellipse transform="matrix(0.2057 -0.9786 0.9786 0.2057 -267.5022 441.9909)" class="st13" cx="138.5" cy="385.8" rx="2.4" ry="2.5"/>
			<circle class="st13" cx="141.4" cy="372.3" r="2.4"/>
			<circle class="st13" cx="144.2" cy="358.8" r="2.4"/>
			<circle class="st13" cx="147" cy="345.4" r="2.4"/>
			
				<ellipse transform="matrix(0.2057 -0.9786 0.9786 0.2057 -205.7825 410.2752)" class="st13" cx="149.8" cy="331.9" rx="2.4" ry="2.5"/>
			<circle class="st13" cx="152.7" cy="318.4" r="2.4"/>
			<circle class="st13" cx="155.5" cy="305" r="2.4"/>
			<circle class="st13" cx="143.5" cy="429" r="2.4"/>
			
				<ellipse transform="matrix(0.2057 -0.9786 0.9786 0.2057 -290.4326 473.2807)" class="st13" cx="146.3" cy="415.6" rx="2.4" ry="2.5"/>
			<circle class="st13" cx="149.2" cy="402.1" r="2.4"/>
			
				<ellipse transform="matrix(0.2057 -0.9786 0.9786 0.2057 -259.5724 457.4211)" class="st13" cx="152" cy="388.6" rx="2.4" ry="2.5"/>
			<circle class="st13" cx="154.8" cy="375.1" r="2.4"/>
			<circle class="st13" cx="157.6" cy="361.7" r="2.4"/>
			<circle class="st13" cx="160.5" cy="348.2" r="2.4"/>
			
				<ellipse transform="matrix(0.2057 -0.9786 0.9786 0.2057 -197.866 425.7125)" class="st13" cx="163.3" cy="334.7" rx="2.4" ry="2.5"/>
			<circle class="st13" cx="166.1" cy="321.3" r="2.4"/>
			<circle class="st13" cx="169" cy="307.8" r="2.4"/>
			<circle class="st13" cx="157" cy="431.8" r="2.4"/>
			
				<ellipse transform="matrix(0.2057 -0.9786 0.9786 0.2057 -282.493 488.7029)" class="st13" cx="159.8" cy="418.4" rx="2.4" ry="2.5"/>
			<circle class="st13" cx="162.6" cy="404.9" r="2.4"/>
			
				<ellipse transform="matrix(0.2057 -0.9786 0.9786 0.2057 -251.6505 472.8414)" class="st13" cx="165.5" cy="391.4" rx="2.4" ry="2.5"/>
			<circle class="st13" cx="168.3" cy="378" r="2.4"/>
			<circle class="st13" cx="171.1" cy="364.5" r="2.4"/>
			<circle class="st13" cx="173.9" cy="351" r="2.4"/>
			
				<ellipse transform="matrix(0.2057 -0.9786 0.9786 0.2057 -189.9362 441.1427)" class="st13" cx="176.8" cy="337.6" rx="2.4" ry="2.5"/>
			<circle class="st13" cx="179.6" cy="324.1" r="2.4"/>
			<circle class="st13" cx="182.4" cy="310.6" r="2.4"/>
			<circle class="st13" cx="170.4" cy="434.7" r="2.4"/>
			
				<ellipse transform="matrix(0.2057 -0.9786 0.9786 0.2057 -274.5744 504.1388)" class="st13" cx="173.3" cy="421.2" rx="2.4" ry="2.5"/>
			<circle class="st13" cx="176.1" cy="407.7" r="2.4"/>
			
				<ellipse transform="matrix(0.2057 -0.9786 0.9786 0.2057 -243.7319 488.2773)" class="st13" cx="178.9" cy="394.3" rx="2.4" ry="2.5"/>
			<circle class="st13" cx="181.8" cy="380.8" r="2.4"/>
			<circle class="st13" cx="184.6" cy="367.3" r="2.4"/>
			<circle class="st13" cx="187.4" cy="353.9" r="2.4"/>
			
				<ellipse transform="matrix(0.2057 -0.9786 0.9786 0.2057 -182.0064 456.5728)" class="st13" cx="190.3" cy="340.4" rx="2.4" ry="2.5"/>
			<circle class="st13" cx="193.1" cy="326.9" r="2.4"/>
			<circle class="st13" cx="195.9" cy="313.5" r="2.4"/>
			<circle class="st13" cx="183.9" cy="437.5" r="2.4"/>
			
				<ellipse transform="matrix(0.2057 -0.9786 0.9786 0.2057 -266.6525 519.5591)" class="st13" cx="186.7" cy="424" rx="2.4" ry="2.5"/>
			<circle class="st13" cx="189.6" cy="410.6" r="2.4"/>
			
				<ellipse transform="matrix(0.2057 -0.9786 0.9786 0.2057 -235.7923 503.6995)" class="st13" cx="192.4" cy="397.1" rx="2.4" ry="2.5"/>
			<circle class="st13" cx="195.2" cy="383.6" r="2.4"/>
			<circle class="st13" cx="198.1" cy="370.2" r="2.4"/>
			<circle class="st13" cx="200.9" cy="356.7" r="2.4"/>
			
				<ellipse transform="matrix(0.2057 -0.9786 0.9786 0.2057 -174.0779 472.0007)" class="st13" cx="203.7" cy="343.2" rx="2.4" ry="2.5"/>
			<circle class="st13" cx="206.5" cy="329.8" r="2.4"/>
			<circle class="st13" cx="209.4" cy="316.3" r="2.4"/>
			<circle class="st13" cx="197.4" cy="440.3" r="2.4"/>
			
				<ellipse transform="matrix(0.2057 -0.9786 0.9786 0.2057 -258.7129 534.9813)" class="st13" cx="200.2" cy="426.9" rx="2.4" ry="2.5"/>
			<circle class="st13" cx="203" cy="413.4" r="2.4"/>
			
				<ellipse transform="matrix(0.2057 -0.9786 0.9786 0.2057 -227.8624 519.1296)" class="st13" cx="205.9" cy="399.9" rx="2.4" ry="2.5"/>
			<circle class="st13" cx="208.7" cy="386.5" r="2.4"/>
			<circle class="st13" cx="211.5" cy="373" r="2.4"/>
			<circle class="st13" cx="214.4" cy="359.5" r="2.4"/>
			
				<ellipse transform="matrix(0.2057 -0.9786 0.9786 0.2057 -166.1561 487.4211)" class="st13" cx="217.2" cy="346.1" rx="2.4" ry="2.5"/>
			<circle class="st13" cx="220" cy="332.6" r="2.4"/>
			<circle class="st13" cx="222.8" cy="319.1" r="2.4"/>
			<circle class="st13" cx="210.8" cy="443.1" r="2.4"/>
			
				<ellipse transform="matrix(0.2057 -0.9786 0.9786 0.2057 -250.783 550.4114)" class="st13" cx="213.7" cy="429.7" rx="2.4" ry="2.5"/>
			<circle class="st13" cx="216.5" cy="416.2" r="2.4"/>
			
				<ellipse transform="matrix(0.2057 -0.9786 0.9786 0.2057 -219.9405 534.5499)" class="st13" cx="219.3" cy="402.8" rx="2.4" ry="2.5"/>
			<circle class="st13" cx="222.2" cy="389.3" r="2.4"/>
			<circle class="st13" cx="225" cy="375.8" r="2.4"/>
			<circle class="st13" cx="227.8" cy="362.4" r="2.4"/>
			
				<ellipse transform="matrix(0.2057 -0.9786 0.9786 0.2057 -158.2262 502.8512)" class="st13" cx="230.7" cy="348.9" rx="2.4" ry="2.5"/>
			<circle class="st13" cx="233.5" cy="335.4" r="2.4"/>
			<circle class="st13" cx="236.3" cy="322" r="2.4"/>
			<circle class="st13" cx="224.3" cy="446" r="2.4"/>
			
				<ellipse transform="matrix(0.2057 -0.9786 0.9786 0.2057 -242.8644 565.8474)" class="st13" cx="227.1" cy="432.5" rx="2.4" ry="2.5"/>
			<circle class="st13" cx="230" cy="419" r="2.4"/>
			
				<ellipse transform="matrix(0.2057 -0.9786 0.9786 0.2057 -212.0121 549.9778)" class="st13" cx="232.8" cy="405.6" rx="2.4" ry="2.5"/>
			<circle class="st13" cx="235.6" cy="392.1" r="2.4"/>
			<circle class="st13" cx="238.4" cy="378.6" r="2.4"/>
			<circle class="st13" cx="241.3" cy="365.2" r="2.4"/>
			
				<ellipse transform="matrix(0.2057 -0.9786 0.9786 0.2057 -150.2978 518.2792)" class="st13" cx="244.1" cy="351.7" rx="2.4" ry="2.5"/>
			<circle class="st13" cx="246.9" cy="338.2" r="2.4"/>
			<circle class="st13" cx="249.8" cy="324.8" r="2.4"/>
			<circle class="st13" cx="237.8" cy="448.8" r="2.4"/>
			
				<ellipse transform="matrix(0.2057 -0.9786 0.9786 0.2057 -234.9425 581.2677)" class="st13" cx="240.6" cy="435.4" rx="2.4" ry="2.5"/>
			<circle class="st13" cx="243.4" cy="421.9" r="2.4"/>
			
				<ellipse transform="matrix(0.2057 -0.9786 0.9786 0.2057 -204.0823 565.408)" class="st13" cx="246.3" cy="408.4" rx="2.4" ry="2.5"/>
			<circle class="st13" cx="249.1" cy="395" r="2.4"/>
			<circle class="st13" cx="251.9" cy="381.5" r="2.4"/>
			<circle class="st13" cx="254.8" cy="368" r="2.4"/>
			
				<ellipse transform="matrix(0.2057 -0.9786 0.9786 0.2057 -142.3623 533.7221)" class="st13" cx="257.6" cy="354.6" rx="2.4" ry="2.5"/>
			<circle class="st13" cx="260.4" cy="341.1" r="2.4"/>
			<circle class="st13" cx="263.2" cy="327.6" r="2.4"/>
		</g>
	</g>
	<g>
		<path class="st7" d="M299.3,302.1c0.1-0.7,0.5-1.5,1.1-2.2c0.5-0.6,1.1-1.1,1.8-1.5c0.1-0.1,0.3-0.2,0.4-0.2
			c1.5-0.9,3.4-1.3,5-1.1c0.5,0,1,0.2,1.5,0.4c0.6,0.2,1,0.5,1.4,0.9c1.5,1.4,1.5,3.6-0.1,5.5c-2,2.5-6,3.6-8.7,2.5
			c-0.9-0.3-1.5-0.8-1.9-1.4C299.2,304.1,299.1,303.1,299.3,302.1L299.3,302.1z M303.6,303.9c1.3,0.5,3.3-0.1,4.3-1.2
			c1-1.2,0.7-2.5-0.6-2.9c-0.3-0.1-0.7-0.2-1-0.2c-1.2,0-2.5,0.5-3.2,1.4c-0.2,0.3-0.4,0.6-0.5,0.9
			C302.2,302.7,302.6,303.5,303.6,303.9L303.6,303.9z"/>
		<path class="st6" d="M295.1,298.2c0,0,0,0.1,0.1,0.1l0.8,0.9l3.8,5.6c-0.5-0.8-0.7-1.7-0.5-2.7c0.1-0.7,0.5-1.5,1.1-2.2
			c0.5-0.6,1.1-1.1,1.8-1.5c0.1-0.1,0.3-0.2,0.4-0.2c1.5-0.9,3.4-1.3,5-1.1c0.5,0,1,0.2,1.5,0.4c0.6,0.2,1,0.5,1.4,0.9l-4-5.7l0,0
			c-0.4-0.6-1-1.1-1.9-1.4c-2.8-1.1-6.7,0.1-8.7,2.5C294.6,295.2,294.4,296.9,295.1,298.2L295.1,298.2z"/>
	</g>
	<g>
		<path class="st7" d="M322.3,299.1c-0.3-0.7-0.4-1.5-0.4-2.5c0-0.8,0.2-1.5,0.5-2.3c0.1-0.1,0.1-0.3,0.2-0.5c0.8-1.6,2-3,3.5-3.8
			c0.5-0.3,0.9-0.5,1.4-0.6c0.6-0.1,1.1-0.2,1.6-0.1c2,0.2,3.4,2,3.2,4.5c-0.2,3.2-2.8,6.4-5.6,7.1c-0.9,0.2-1.7,0.2-2.4,0
			C323.4,300.7,322.7,300,322.3,299.1L322.3,299.1z M326.9,298c1.4-0.4,2.6-2,2.8-3.5c0.1-1.5-0.8-2.4-2.2-2
			c-0.3,0.1-0.6,0.2-0.9,0.5c-1,0.7-1.7,1.9-1.8,3c0,0.4,0,0.7,0.1,1C325,297.9,325.8,298.3,326.9,298L326.9,298z"/>
		<path class="st6" d="M316.7,298.4c0,0,0.1,0,0.1,0l1.2,0.3l6.4,2.3c-0.9-0.3-1.6-1-2-1.9c-0.3-0.7-0.4-1.5-0.4-2.5
			c0-0.8,0.2-1.5,0.5-2.3c0.1-0.1,0.1-0.3,0.2-0.5c0.8-1.6,2-3,3.5-3.8c0.5-0.3,0.9-0.5,1.4-0.6c0.6-0.1,1.1-0.2,1.6-0.1l-6.6-2.3
			l-0.1,0c-0.7-0.2-1.5-0.2-2.3,0c-2.9,0.8-5.4,4-5.6,7.1C314.5,296.2,315.3,297.8,316.7,298.4L316.7,298.4z"/>
	</g>
	<g>
		<path class="st7" d="M307.9,314.1c0.7-0.2,1.5-0.2,2.4,0c0.7,0.1,1.4,0.4,2.1,0.8c0.1,0.1,0.3,0.1,0.4,0.2
			c1.4,0.9,2.5,2.2,2.9,3.6c0.2,0.5,0.2,0.9,0.3,1.4c0,0.5,0,1-0.2,1.5c-0.6,1.8-2.6,2.8-5,2.3c-3-0.6-5.5-3.2-5.7-5.9
			c0-0.8,0.2-1.6,0.5-2.2C306.1,314.9,306.9,314.3,307.9,314.1L307.9,314.1z M308,318.3c0.1,1.3,1.3,2.6,2.8,2.9
			c1.4,0.3,2.5-0.5,2.4-1.8c0-0.3-0.1-0.6-0.2-0.9c-0.5-1-1.4-1.8-2.5-2c-0.4-0.1-0.7-0.1-1,0C308.5,316.6,307.9,317.3,308,318.3
			L308,318.3z"/>
		<path class="st6" d="M309.8,309c0,0-0.1,0.1-0.1,0.1l-0.5,1l-3.5,5.5c0.5-0.8,1.3-1.4,2.3-1.6c0.7-0.2,1.5-0.2,2.4,0
			c0.7,0.1,1.4,0.4,2.1,0.8c0.1,0.1,0.3,0.1,0.4,0.2c1.4,0.9,2.5,2.2,2.9,3.6c0.2,0.5,0.2,0.9,0.3,1.4c0,0.5,0,1-0.2,1.5l3.6-5.7
			l0,0c0.4-0.6,0.5-1.3,0.5-2.1c-0.1-2.7-2.6-5.4-5.7-5.9C312.3,307.3,310.7,307.9,309.8,309z"/>
	</g>
</g>
<g>
	<g>
		<path class="st5" d="M1453.7,586.1l35.2-46.6c4-5.3,11.5-6.3,16.8-2.4l10.4,7.8c5.3,4,6.3,11.5,2.4,16.8l-35.2,46.6
			c-4,5.3-11.5,6.3-16.8,2.4l-10.4-7.8C1450.7,598.9,1449.7,591.4,1453.7,586.1z"/>
		
			<rect x="1464.2" y="555.2" transform="matrix(0.6021 -0.7984 0.7984 0.6021 133.3033 1414.8732)" class="st11" width="44" height="37"/>
	</g>
	<g>
		<path class="st6" d="M1453.5,548.2c-5.9,1.5-13.2-1-16.9-2.6c-1.4-0.6-2.2-2-2-3.5l19.3-133.8c0.2,1.5,1.2,2.8,2.6,2.9
			c1.7,0.2,3.4-1.3,3.7-3.5c-0.3,2.2,0.8,4.2,2.6,4.4s3.4-1.3,3.7-3.5c-0.3,2.2,0.8,4.2,2.6,4.4s3.4-1.3,3.7-3.5l0.2,0l-17,135.8
			C1455.7,546.8,1454.8,547.9,1453.5,548.2L1453.5,548.2z"/>
		<path class="st0" d="M1472.9,409.6L1472.9,409.6l-0.2,0c-0.3,2.2-2,3.8-3.7,3.5s-2.9-2.2-2.6-4.4c-0.3,2.2-2,3.8-3.7,3.5
			s-2.9-2.2-2.6-4.4c-0.3,2.2-2,3.8-3.7,3.5c-1.3-0.2-2.3-1.4-2.6-2.9l0.1-0.5l8.3-17.6l2.6-5.5c0.3-0.6,0.8-1,1.4-1.1
			c0.8-0.1,1.7,0.4,2,1.4l1.2,6.1L1472.9,409.6L1472.9,409.6z"/>
		<path class="st3" d="M1469.4,391.1c-1,1-2.4,1.5-3.8,1.3s-2.6-1.1-3.3-2.2l2.6-5.5c0.3-0.6,0.8-1,1.4-1.1c0.8-0.1,1.7,0.4,2,1.4
			L1469.4,391.1L1469.4,391.1z"/>
	</g>
	<g>
		<path class="st6" d="M1497,478.8c-6.1,0.6-12.9-3-16.3-5.1c-1.3-0.8-1.9-2.3-1.4-3.8l39.5-129.3c0,1.6,0.8,2.9,2.1,3.3
			c1.7,0.5,3.5-0.8,4.2-2.9c-0.6,2.1,0.2,4.2,1.9,4.8s3.6-0.8,4.2-2.9c-0.6,2.1,0.2,4.2,1.9,4.8s3.6-0.8,4.2-2.9l0.1,0l-37.5,131.7
			C1499.4,477.7,1498.3,478.7,1497,478.8L1497,478.8z"/>
		<path class="st0" d="M1537.3,344.7L1537.3,344.7h-0.2c-0.6,2.1-2.5,3.4-4.2,2.9s-2.5-2.6-1.9-4.8c-0.6,2.1-2.5,3.4-4.2,2.9
			s-2.5-2.6-1.9-4.8c-0.6,2.1-2.5,3.4-4.2,2.9c-1.3-0.4-2.1-1.7-2.1-3.3l0.2-0.5l10.9-16.2l3.4-5c0.4-0.6,0.9-0.8,1.5-0.8
			c0.8,0,1.7,0.6,1.7,1.6l0.2,6.2L1537.3,344.7L1537.3,344.7z"/>
		<path class="st3" d="M1536.7,326c-1.1,0.8-2.6,1.1-4,0.7s-2.4-1.5-2.9-2.7l3.4-5c0.4-0.6,0.9-0.8,1.5-0.8c0.8,0,1.7,0.6,1.7,1.6
			L1536.7,326L1536.7,326z"/>
	</g>
</g>
</svg>
