<?xml version="1.0" encoding="UTF-8"?><svg id="Layer_1" xmlns="http://www.w3.org/2000/svg" width="380" height="425" viewBox="0 0 380 425"><defs><style>.cls-1{fill:#fac158;}.cls-2{fill:#0071bb;}.cls-3{fill:#e6c5be;}.cls-4{fill:#b4bfc5;}.cls-5{fill:#cf7042;}.cls-6{fill:#a47d50;}.cls-7{fill:#c49d6a;}.cls-8{fill:#95aa99;}.cls-9{fill:#5d718a;}</style></defs><g id="haekle"><g><path class="cls-6" d="m352.89,62.32l-86.03,80.57c-2.06,1.93-4.69,2.89-7.33,2.89-2.2,0-4.4-.67-6.25-2-.56-.39-1.09-.86-1.58-1.38-.56-.6-1.04-1.24-1.43-1.92-2.46-4.22-1.78-9.76,1.93-13.24l86.03-80.58c2.06-1.93,4.69-2.89,7.32-2.89,2.87,0,5.74,1.14,7.84,3.39,4.03,4.3,3.81,11.13-.5,15.16Z"/><path class="cls-4" d="m253.28,143.78l-35.75,33.48s-8.88,8.11-14.24,1.85c-5.36-6.26,1.79-14.31,1.79-14.31,0,0,6.26-5.36,8.05-3.58s-5.28,8.26-2.19,9.94c3.08,1.68,16.46-9.27,16.46-9.27l22.87-21.41c.39.68.87,1.32,1.43,1.92.49.52,1.02.98,1.58,1.38Z"/></g><path class="cls-5" d="m221.17,133.5s.89.89,4.47-1.79c3.58-2.68,80.47-126.07,97.46-118.92,16.99,7.15-92.09,127.86-97.46,129.65-5.36,1.79-12.85,7.69-15.81-1.97-2.96-9.66,11.34-20.39,11.34-20.39,0,0,3.43-1.81,2.68,2.68-.89,5.36-4.47,8.94-2.68,10.73Z"/><g><g><path class="cls-7" d="m303.43,294.45l-22.97,37.1-.28.46s-66.1-39.31-61.7-45.59c0,0,0,0,0,0l29.51-37.55s20.56,32.19,55.44,45.6Z"/><g><path class="cls-4" d="m351.71,253.32c-1.45,2.32-2.74,4.76-3.93,7.23h0c-.97,2.01-1.9,4.03-2.8,6.04-4.89,10.79-9.52,20.99-20.93,23.84-12.83,3.2-12.64,4.42-16.51,4.33-.99-.02-2.27-.12-4.1-.3-.11-.04-.21-.08-.31-.13-4.88-1.9-9.49-4.17-13.79-6.65,0,0-.02,0-.04-.04-3.92-2.26-7.58-4.72-10.99-7.26-3.52-2.62-6.76-5.33-9.7-7.99h0c-2.21-2.03-4.24-4.01-6.11-5.92,0,0,0,0,0,0-9.4-9.66-14.48-17.61-14.48-17.61,0,0,3.15-20.36,11.83-32,0,0,0-.02,0-.03,1.05-1.39,2.16-2.66,3.36-3.74.64-.58,1.24-1.17,1.82-1.78h0c7.2-7.5,10.6-16.69,19.84-20.21,1.47-.56,3.08-.98,4.88-1.22h0c.09,0,.17-.03.26-.04,3.59-.45,8.32.34,13.41,1.83,1.14.33,2.3.7,3.47,1.1,14.41,4.89,30.4,14.21,32.3,16.74.72.96,2.58,3.51,4.77,7.02.6.95,1.22,1.98,1.84,3.07,2.58,4.48,5.28,9.95,6.87,15.47.38,1.31.7,2.62.93,3.92.96,5.2.67,10.25-1.89,14.34Z"/><path class="cls-4" d="m278.39,361.5c-3.21,3.21-6.66,6.66-10.54,9.8-1.23,1-2.52,1.97-3.86,2.9-4.14,2.84-8.78,5.23-14.11,6.61-1.21.32-2.45.59-3.73.79-1.42.23-2.9.39-4.42.47-2.91.15-5.69.21-8.32.14-1.22-.03-2.42-.08-3.59-.15-10.93-.72-18.96-3.57-22.97-8.93-2.26-3.01-8.33-7.93-14.47-13.42-.89-.8-1.79-1.61-2.67-2.42-2.48-2.3-4.87-4.66-6.94-6.98-.86-.97-1.65-1.92-2.37-2.86-2.78-3.65-4.44-7.14-3.95-10.08.19-1.11.31-2.24.4-3.4.18-2.17.24-4.43.34-6.73h0c.18-4.52.52-9.2,2.19-13.73h0c1.41-3.84,3.77-7.56,7.8-11.01,2.13-1.82,3.97-3.49,5.64-5,0,0,0,0,0,0,8.02-7.22,12.25-10.93,25.63-11.08-.28.39-.28.91-.04,1.54.33.89,1.16,2.01,2.39,3.31,1.97,2.1,4.97,4.66,8.6,7.46h0c1.32,1.02,2.74,2.07,4.21,3.15,3.82,2.78,8.06,5.72,12.4,8.62,2.11,1.41,4.25,2.82,6.36,4.2,5.52,3.59,10.9,6.98,15.43,9.79,2.97,1.85,5.58,3.44,7.62,4.68h0c2.94,1.8,4.71,2.85,4.71,2.85l.28-.46.62.46s6.26,20.56-2.68,29.51Z"/></g><g><polygon class="cls-2" points="289.75 189.87 289.75 189.87 289.76 189.87 289.75 189.87"/><path class="cls-2" d="m265.02,211.3s0,0,0,0h0,0Z"/><g><path class="cls-9" d="m284.87,191.09c-11.77,20.46-21.29,46.64-14.47,71.74,1.99,7.33,4.99,13.15,7.89,17.53,3.41,2.54,7.07,5,10.99,7.26-.73-.59-11.01-9.19-15.49-25.96-5.53-20.69-.02-45.36,15.96-71.8l-4.88,1.22Z"/><path class="cls-9" d="m262.47,266.45s0,0,0,0c1.87,1.91,3.9,3.89,6.11,5.91-4.5-10.54-11.91-34.02-3.57-61.07l-5.19,5.52s0,.02,0,.03c-3.23,14.22-2.46,26.93-.72,36.43.91,4.99,2.12,9.42,3.37,13.18Z"/><path class="cls-9" d="m296.11,266.59c-.5-2.1-.94-4.3-1.31-6.58-.48-3.01-.83-6.03-1.05-9.05,2.96.43,8.61,1.08,15.6,1.08,2.03,0,4.17-.05,6.38-.19,15.7-.92,28.67-5.36,37.86-12.88-.23-1.3-.55-2.61-.93-3.92-19.08,17.14-51.97,13.32-59.1,12.26-.22-6.76.25-13.53,1.41-20.28,2.74.55,9.13,1.64,17.08,1.64.72,0,1.47,0,2.22-.03,12.5-.33,23.25-3.43,31.53-9.06l-1.84-3.07c-17.58,12.11-42.47,8.15-48.31,6.99,2.15-10.3,5.89-20.56,11.25-30.75l-3.47-1.1c-11.8,22.72-15.9,45.87-12.16,68.92,2.48,15.25,7.9,26.88,11.85,33.73.11.04.21.08.31.13,1.83.19,3.11.29,4.1.3-2.92-4.7-7.35-13.02-10.44-24.26,4.13.88,11.41,2.12,19.79,2.18h.58c10.83,0,20.13-2.07,27.52-6.09.9-2,1.82-4.02,2.8-6.03-17.02,12.98-44.66,7.66-51.67,6.04Z"/><path class="cls-9" d="m267.84,324.47c-28.16-2.83-48.21,6.63-60.47,15.58-8.36,6.12-14.16,12.64-17.65,17.23.89.81,1.78,1.63,2.67,2.42,3.31-4.38,8.95-10.82,17.09-16.76,2.45-1.79,5.22-3.59,8.32-5.31,3.32,4.41,14.53,21.31,12.03,44.43,1.16.07,2.36.13,3.59.15,2.54-23.75-8.37-40.87-12.38-46.28,3.76-1.87,7.95-3.57,12.56-4.94,1.54,1.44,5.3,5.41,8.45,12.29,3.46,7.55,6.8,20.15,4.1,38.3,1.28-.2,2.52-.46,3.73-.79,4.05-29.56-7.06-45.3-12.28-50.89,4.06-.99,8.4-1.72,13.06-2.09h0c2.41.94,17.25,8.32,13.31,46.38,1.34-.93,2.63-1.9,3.86-2.9,2.18-27.23-5.27-38.89-10.9-43.76,5.75-.06,11.92.42,18.51,1.6-2.04-1.23-4.65-2.83-7.62-4.68Z"/><path class="cls-9" d="m202.22,329.5c15.83-12.63,32.68-17.6,50.2-14.82-2.11-1.39-4.25-2.79-6.36-4.2-16.06-.71-31.79,4.81-46.15,16.31-9.43,7.55-16.02,15.8-19.48,20.65.72.94,1.51,1.9,2.37,2.86,3.17-4.53,9.84-13.14,19.43-20.8Z"/><path class="cls-9" d="m233.65,301.86c-1.48-1.08-2.89-2.13-4.21-3.15h0c-22.17,2.85-36.54,12.48-44.97,20.48-2.92,2.78-5.32,5.53-7.26,8.03h0c-.1,2.31-.16,4.57-.34,6.74,6.35-9.89,22.88-29.1,56.79-32.11Z"/><path class="cls-9" d="m220.83,291.25c-1.22-1.3-2.06-2.41-2.39-3.31-10.22,1.48-18.81,5.3-25.6,9.54,0,0,0,0,0,0-1.67,1.51-3.51,3.17-5.64,5-4.02,3.45-6.38,7.17-7.8,11,4.68-5.23,19.43-19.7,41.43-22.24Z"/></g></g></g><path class="cls-4" d="m149.15,412.5c-1.25,0-2.48-.06-3.69-.17-13.22-1.25-24.24-9.36-32.75-24.11-1.45-2.52-2.82-4.97-4.09-7.34-9.87,3.06-20.96,4.66-32.04,4.59-24.32-.17-42.99-7.91-48.72-20.19-7.95-17.04,1.56-32.42,9.2-44.77,4.81-7.77,8.96-14.48,7.09-18.91-.85-2.03-2.06-3.18-3.68-3.51-5.38-1.12-14.21,5.92-17.16,8.72l-3.08-3.24c1.26-1.2,12.54-11.65,21.15-9.86,2.15.45,5.08,1.88,6.89,6.15,2.76,6.55-1.95,14.17-7.41,23-7.45,12.04-15.88,25.68-8.96,40.53,4.92,10.54,22.47,17.45,44.7,17.61,9.71.05,20.19-1.28,29.88-4.2-9.83-19.4-13.1-33.75-9.98-43.65,2.75-8.71,9.78-11.99,14.44-14.16,1.01-.47,1.89-.88,2.59-1.28,5.6-3.18,21.72-4.16,30.24,3.82,5.04,4.72,9.19,14.2.31,32.54-4.93,10.17-14.55,18.49-27.83,24.05-1.09.46-2.21.89-3.34,1.31,1.15,2.13,2.37,4.32,3.66,6.56,7.74,13.42,17.6,20.79,29.29,21.9,29.55,2.79,62.11-34.49,62.43-34.87l3.39,2.92c-.35.4-8.61,9.93-20.85,19.24-15.15,11.52-29.15,17.33-41.69,17.33Zm-23.79-92.69c-4.17,0-7.85.78-9.61,1.78-.86.49-1.85.95-2.9,1.44-4.41,2.06-9.91,4.62-12.06,11.45-2.76,8.74.61,22.46,10.01,40.88,12.91-4.65,23.95-12.28,29.27-23.26,7.69-15.89,4.61-23.63.66-27.33-3.95-3.7-10.06-4.97-15.37-4.97Z"/></g><g><g><path class="cls-1" d="m108.11,162.87c-.33-3.18-3.21-5.51-6.39-5.17-3.18.33-5.51,3.21-5.17,6.39l.75,7.11c.33,3.18,3.21,5.51,6.39,5.17,3.18-.33,5.51-3.21,5.17-6.39l-.75-7.11Z"/><path class="cls-1" d="m129.57,157.51c-.33-3.18-3.21-5.51-6.39-5.17-3.18.33-5.51,3.21-5.17,6.39l.75,7.11c.33,3.18,3.21,5.51,6.39,5.17,3.18-.33,5.51-3.21,5.17-6.39l-.75-7.11Z"/><path class="cls-1" d="m152.67,161.94l-.75-7.11c-.33-3.18-3.21-5.51-6.39-5.17-3.18.33-5.51,3.21-5.17,6.39l.75,7.11c.33,3.18,3.21,5.51,6.39,5.17,3.18-.33,5.51-3.21,5.17-6.39Z"/><path class="cls-1" d="m93.76,250.63c-1.7,0-3.24.75-4.3,1.92.21-.67.31-1.39.26-2.12-.22-3.19-3.01-5.62-6.2-5.4l-7.14.49c-3.19.22-5.62,3.01-5.4,6.2.22,3.19,3.01,5.62,6.2,5.4l7.14-.49c1.55-.11,2.92-.82,3.89-1.9-.17.54-.26,1.11-.26,1.71v7.15c0,3.2,2.62,5.81,5.81,5.81s5.81-2.62,5.81-5.81v-7.15c0-3.2-2.62-5.81-5.81-5.81Z"/><path class="cls-1" d="m121.52,255.86c-.33-3.18-3.21-5.51-6.39-5.17-3.18.33-5.51,3.21-5.17,6.39l.75,7.11c.33,3.18,3.21,5.51,6.39,5.17,3.18-.33,5.51-3.21,5.17-6.39l-.75-7.11Z"/><path class="cls-1" d="m143.87,253.18c-.33-3.18-3.21-5.51-6.39-5.17-3.18.33-5.51,3.21-5.17,6.39l.75,7.11c.33,3.18,3.21,5.51,6.39,5.17,3.18-.33,5.51-3.21,5.17-6.39l-.75-7.11Z"/><path class="cls-1" d="m166.23,246.92c-.33-3.18-3.21-5.51-6.39-5.17-3.18.33-5.51,3.21-5.17,6.39l.75,7.11c.33,3.18,3.21,5.51,6.39,5.17,3.18-.33,5.51-3.21,5.17-6.39l-.75-7.11Z"/><path class="cls-1" d="m174.15,231.36l-7.06,1.14c-3.16.51-5.32,3.51-4.81,6.66h0c.51,3.16,3.51,5.32,6.66,4.81l7.06-1.14c3.16-.51,5.32-3.51,4.81-6.66-.51-3.16-3.51-5.32-6.66-4.81Z"/><path class="cls-1" d="m158.75,176.22l6.94-1.73c3.1-.77,5.01-3.94,4.23-7.04-.77-3.1-3.94-5.01-7.04-4.23l-6.94,1.73c-3.1.77-5.01,3.94-4.23,7.04.77,3.1,3.94,5.01,7.04,4.23Z"/><path class="cls-1" d="m162.2,186.4c-3.1.77-5.01,3.94-4.23,7.04.77,3.1,3.94,5.01,7.04,4.23l6.94-1.73c3.1-.77,5.01-3.94,4.23-7.04-.77-3.1-3.94-5.01-7.04-4.23l-6.94,1.73Z"/><path class="cls-1" d="m174.71,208.38l-7.14.49c-3.19.22-5.62,3.01-5.4,6.2.22,3.19,3.01,5.62,6.2,5.4l7.14-.49c3.19-.22,5.62-3.01,5.4-6.2-.22-3.19-3.01-5.62-6.2-5.4Z"/><path class="cls-1" d="m73.6,235.67l7.14-.49c3.19-.22,5.62-3.01,5.4-6.2-.22-3.19-3.01-5.62-6.2-5.4l-7.14.49c-3.19.22-5.62,3.01-5.4,6.2.22,3.19,3.01,5.62,6.2,5.4Z"/><path class="cls-1" d="m70.03,190.96l7.14-.49c3.19-.22,5.62-3.01,5.4-6.2-.04-.57-.16-1.11-.35-1.62.3.02.6.02.91-.02,3.18-.33,5.51-3.21,5.17-6.39l-.75-7.11c-.33-3.18-3.21-5.51-6.39-5.17-3.18.33-5.51,3.21-5.17,6.39l.75,7.11c.05.5.17.97.34,1.41-.23-.01-.47-.02-.71,0l-7.14.49c-3.19.22-5.62,3.01-5.4,6.2.22,3.19,3.01,5.62,6.2,5.4Z"/><path class="cls-1" d="m70.03,216l7.14-.49c3.19-.22,5.62-3.01,5.4-6.2-.22-3.19-3.01-5.62-6.2-5.4l-7.14.49c-3.19.22-5.62,3.01-5.4,6.2.22,3.19,3.01,5.62,6.2,5.4Z"/></g><g><g><path class="cls-9" d="m132.99,190.55l-.75-7.11c-.33-3.18-3.21-5.51-6.39-5.17-3.18.33-5.51,3.21-5.17,6.39l.75,7.11c.33,3.18,3.21,5.51,6.39,5.17,3.18-.33,5.51-3.21,5.17-6.39Z"/><path class="cls-9" d="m118.84,230.82c-.33-3.18-3.21-5.51-6.39-5.17-3.18.33-5.51,3.21-5.17,6.39l.75,7.11c.33,3.18,3.21,5.51,6.39,5.17,3.18-.33,5.51-3.21,5.17-6.39l-.75-7.11Z"/><path class="cls-9" d="m101.76,195.34c.33,3.18,3.21,5.51,6.39,5.17,3.18-.33,5.51-3.21,5.17-6.39l-.75-7.11c-.33-3.18-3.21-5.51-6.39-5.17-3.18.33-5.51,3.21-5.17,6.39l.75,7.11Z"/><path class="cls-9" d="m153.99,217.4c-.51-3.16-3.51-5.32-6.66-4.81l-7.06,1.14c-3.16.51-5.32,3.51-4.81,6.66h0c.2,1.24.79,2.32,1.61,3.15-.95-.47-2.03-.69-3.16-.57-3.18.33-5.51,3.21-5.17,6.39l.75,7.11c.33,3.18,3.21,5.51,6.39,5.17,3.18-.33,5.51-3.21,5.17-6.39l-.75-7.11c-.14-1.36-.75-2.56-1.65-3.47,1.04.51,2.24.72,3.47.52l7.06-1.14c3.16-.51,5.32-3.51,4.81-6.66Z"/><path class="cls-9" d="m108.86,222.88c-1.08-3.01-4.42-4.59-7.43-3.51l-6.74,2.41c-3.01,1.08-4.59,4.42-3.51,7.43,1.08,3.01,4.42,4.59,7.43,3.51l6.74-2.41c3.01-1.08,4.59-4.42,3.51-7.43Z"/><path class="cls-9" d="m93.84,211.79l7.06-1.14c3.16-.51,5.32-3.51,4.81-6.66-.51-3.16-3.51-5.32-6.66-4.81l-7.06,1.14c-3.16.51-5.32,3.51-4.81,6.66h0c.51,3.16,3.51,5.32,6.66,4.81Z"/><path class="cls-9" d="m132.77,198.93h0c.51,3.16,3.51,5.32,6.66,4.81l7.06-1.14c3.16-.51,5.32-3.51,4.81-6.66-.51-3.16-3.51-5.32-6.66-4.81l-7.06,1.14c-3.16.51-5.32,3.51-4.81,6.66Z"/></g><path class="cls-3" d="m142.37,208.46c-.51-3.16-3.51-5.32-6.66-4.81l-7.06,1.14c-3.16.51-5.32,3.51-4.81,6.66h0c.11.68.34,1.31.66,1.88-.7-.2-1.44-.28-2.21-.2-1.25.13-2.37.66-3.25,1.45.17-.65.23-1.33.15-2.03-.17-1.61-.99-3-2.18-3.94,1.06.66,2.33.99,3.66.85,3.18-.33,5.51-3.21,5.17-6.39l-.75-7.11c-.33-3.18-3.21-5.51-6.39-5.17-3.18.33-5.51,3.21-5.17,6.39l.75,7.11c.17,1.61.99,3,2.18,3.94-1.06-.66-2.33-.99-3.66-.85l-7.11.75c-3.18.33-5.51,3.21-5.17,6.39h0c.33,3.18,3.21,5.51,6.39,5.17l7.11-.75c1.25-.13,2.37-.66,3.25-1.45-.17.65-.23,1.33-.15,2.03l.75,7.11c.33,3.18,3.21,5.51,6.39,5.17,3.18-.33,5.51-3.21,5.17-6.39l-.75-7.11c-.08-.8-.33-1.54-.7-2.21.8.23,1.65.3,2.52.16l7.06-1.14c3.16-.51,5.32-3.51,4.81-6.66Z"/></g><g><path class="cls-5" d="m90,186.2c.22,3.19,3.01,5.62,6.2,5.4h0c3.19-.22,5.62-3.01,5.4-6.2l-.49-7.14c-.22-3.19-3.01-5.62-6.2-5.4h0c-3.19.22-5.62,3.01-5.4,6.2l.49,7.14Z"/><path class="cls-5" d="m121.26,180.93l-.49-7.14c-.22-3.19-3.01-5.62-6.2-5.4h0c-3.19.22-5.62,3.01-5.4,6.2l.49,7.14c.22,3.19,3.01,5.62,6.2,5.4h0c3.19-.22,5.62-3.01,5.4-6.2Z"/><path class="cls-5" d="m109.15,244.43c-.22-3.19-3.01-5.62-6.2-5.4h0c-3.19.22-5.62,3.01-5.4,6.2l.49,7.14c.22,3.19,3.01,5.62,6.2,5.4h0c3.19-.22,5.62-3.01,5.4-6.2l-.49-7.14Z"/><path class="cls-5" d="m131.5,242.64c-.22-3.19-3.01-5.62-6.2-5.4h0c-3.19.22-5.62,3.01-5.4,6.2l.49,7.14c.22,3.19,3.01,5.62,6.2,5.4h0c3.19-.22,5.62-3.01,5.4-6.2l-.49-7.14Z"/><path class="cls-5" d="m88.39,203.25c3.2,0,5.81-2.62,5.81-5.81s-2.62-5.81-5.81-5.81h-7.15c-3.2,0-5.81,2.62-5.81,5.81s2.62,5.81,5.81,5.81h7.15Z"/><path class="cls-5" d="m90.18,224.7c3.2,0,5.81-2.62,5.81-5.81s-2.62-5.81-5.81-5.81h-7.15c-3.2,0-5.81,2.62-5.81,5.81s2.62,5.81,5.81,5.81h7.15Z"/><path class="cls-5" d="m146.23,191.42l6.94-1.73c3.1-.77,5.01-3.94,4.23-7.04-.77-3.1-3.94-5.01-7.04-4.23l-6.94,1.73c-.26.07-.51.15-.76.25.06-.41.08-.82.05-1.25l-.49-7.14c-.22-3.19-3.01-5.62-6.2-5.4h0c-3.19.22-5.62,3.01-5.4,6.2l.49,7.14c.22,3.19,3.01,5.62,6.2,5.4h0c.62-.04,1.21-.19,1.76-.41-.11.73-.08,1.49.11,2.25h0c.77,3.1,3.94,5.01,7.04,4.23Z"/><path class="cls-5" d="m150.58,200.71c-3.1.77-5.01,3.94-4.23,7.04h0c.77,3.1,3.94,5.01,7.04,4.23l6.94-1.73c3.1-.77,5.01-3.94,4.23-7.04-.77-3.1-3.94-5.01-7.04-4.23l-6.94,1.73Z"/><path class="cls-5" d="m167.4,227.23c-.51-3.16-3.51-5.32-6.66-4.81l-7.06,1.14c-3.16.51-5.32,3.51-4.81,6.66h0c.51,3.16,3.51,5.32,6.66,4.81l7.06-1.14c3.16-.51,5.32-3.51,4.81-6.66Z"/><path class="cls-5" d="m98.4,237.19c-.77-3.1-3.94-5.01-7.04-4.23l-6.94,1.73c-3.1.77-5.01,3.94-4.23,7.04h0c.77,3.1,3.94,5.01,7.04,4.23l6.94-1.73c3.1-.77,5.01-3.94,4.23-7.04Z"/><path class="cls-5" d="m152.96,238.17c-.22-3.19-3.01-5.62-6.2-5.4h0c-3.19.22-5.62,3.01-5.4,6.2l.49,7.14c.22,3.19,3.01,5.62,6.2,5.4h0c3.19-.22,5.62-3.01,5.4-6.2l-.49-7.14Z"/></g><path class="cls-8" d="m185.41,199.67c0-3.69-5.49-43.99-8.41-58.91-.6-3.06-3.54-5.07-6.61-4.49-20.25,3.81-94.07,17.65-118.47,21.43-3.24.5-5.37,3.63-4.67,6.83,2.72,12.31,8.71,39.88,9.4,46.77.89,8.94,1.12,30.92,2.68,37.55,3.58,15.2,7.27,23.35,9.18,33.63.58,3.1,3.58,5.13,6.68,4.51,21.78-4.33,98.55-18.49,118.15-22.1,2.51-.46,4.15-2.9,3.63-5.4-2.92-14.07-11.57-56.1-11.57-59.82Zm-55.06,57.39c-1.07.64-2.3,1.06-3.59,1.14-.95.06-1.88-.04-2.77-.3l.51,4.84c.22,2.13-.4,4.23-1.76,5.9-1.35,1.67-3.27,2.72-5.4,2.94s-4.23-.4-5.9-1.76c-1.67-1.35-2.72-3.27-2.94-5.4l-.58-5.52c-1.06.63-2.25,1-3.5,1.09-.88.06-1.73-.02-2.57-.24h-.03s0,3.56,0,3.56c0,4.28-3.22,8.03-7.49,8.32-4.68.32-8.6-3.41-8.6-8.03v-4.92c-.4.09-.82.15-1.24.18l-7.14.49c-2.14.15-4.21-.55-5.84-1.96-1.62-1.41-2.59-3.37-2.74-5.51-.14-2.14.55-4.21,1.97-5.84,1.41-1.63,3.37-2.6,5.51-2.74l2.07-.14c-.12-.3-.21-.59-.28-.89-.4-1.6-.29-3.22.24-4.68l-4.5.3c-2.14.15-4.21-.55-5.84-1.96-1.62-1.41-2.59-3.37-2.74-5.51-.14-2.14.55-4.21,1.97-5.84,1.41-1.63,3.37-2.6,5.51-2.74l2.83-.2c-.32-.88-.49-1.81-.49-2.75,0-.34.02-.67.06-1l-4.86.33c-2.14.15-4.21-.55-5.84-1.96-1.62-1.41-2.59-3.37-2.74-5.51-.14-2.14.55-4.21,1.97-5.84,1.41-1.63,3.37-2.6,5.51-2.74l5.41-.38c-.84-1.29-1.29-2.79-1.29-4.36,0-.82.13-1.62.37-2.4l-.42-2.05-2.96.2c-2.14.15-4.21-.55-5.84-1.96-1.62-1.41-2.59-3.37-2.74-5.51-.14-2.14.55-4.21,1.97-5.84,1.41-1.63,3.37-2.6,5.51-2.74l5.34-.38-.65-6.19c-.22-2.13.4-4.23,1.76-5.9,1.35-1.67,3.27-2.72,5.4-2.94s4.23.4,5.9,1.76c1.67,1.35,2.72,3.27,2.94,5.4l.38,3.59c1.27-1.06,2.86-1.73,4.6-1.85.08,0,.16,0,.24,0l-.66-6.31c-.22-2.13.4-4.23,1.76-5.9,1.35-1.67,3.27-2.72,5.4-2.94,2.14-.22,4.23.4,5.9,1.76,1.67,1.35,2.72,3.27,2.94,5.4l.49,4.67c1.07-.65,2.3-1.05,3.59-1.14.73-.04,1.44,0,2.15.14,0-.08-.02-.16-.03-.24l-.75-7.12c-.22-2.13.4-4.23,1.76-5.9,1.35-1.67,3.27-2.72,5.4-2.94,2.14-.22,4.23.4,5.9,1.76,1.67,1.35,2.72,3.27,2.94,5.4l.75,7.12c.04.32.04.64.04.97,1.01-.55,2.13-.89,3.3-.97.68-.04,1.36,0,2.02.12l.92-1.78-.68-6.45c-.22-2.13.4-4.23,1.76-5.9,1.35-1.67,3.27-2.72,5.4-2.94,2.14-.22,4.23.4,5.9,1.76,1.67,1.35,2.72,3.27,2.94,5.4l.75,7.12c.04.4.05.8.04,1.2.15-.04.31-.09.47-.13l6.95-1.73c4.3-1.08,8.67,1.56,9.75,5.87.52,2.07.2,4.24-.91,6.09-1.11,1.84-2.87,3.15-4.94,3.67l-6.95,1.73c-.27.07-.55.12-.82.16l.15,1.29c.44.71.76,1.47.97,2.27.23.95.3,1.91.18,2.86.59-.32,1.22-.57,1.9-.74l6.95-1.73c4.3-1.07,8.67,1.56,9.75,5.87.52,2.07.2,4.24-.91,6.09-1.11,1.84-2.87,3.15-4.94,3.67l-6.95,1.73-.05.15c.57.8.99,1.7,1.23,2.68.34,1.35.32,2.74-.04,4.05.25-.04.49-.06.74-.08l7.14-.49c2.14-.15,4.21.55,5.84,1.96,1.62,1.41,2.59,3.37,2.74,5.51.14,2.14-.55,4.21-1.97,5.84-1.41,1.63-3.37,2.6-5.51,2.74l-7.05.49.07,1.56c.46.81.78,1.7.92,2.63.07.44.11.87.11,1.3,0,.56-.06,1.13-.18,1.67l4.26-.69c4.38-.72,8.51,2.28,9.22,6.66.71,4.38-2.28,8.52-6.66,9.23l-7.06,1.14c-.3.05-.6.08-.9.09.03.14.04.28.05.41l.75,7.12c.22,2.13-.4,4.23-1.76,5.9-1.35,1.67-3.27,2.72-5.4,2.94-4.43.46-8.39-2.75-8.84-7.16l-.38-3.6c-1.29,1.09-2.89,1.74-4.6,1.86-.7.04-1.38,0-2.05-.12l.68,6.44c.22,2.13-.4,4.23-1.76,5.9-1.35,1.67-3.27,2.72-5.4,2.94s-4.23-.4-5.9-1.76c-1.67-1.35-2.72-3.27-2.94-5.4l-.49-4.68Z"/></g></g></svg>