<?xml version="1.0" encoding="UTF-8"?><svg id="Layer_1" xmlns="http://www.w3.org/2000/svg" width="379.72" height="447.37" viewBox="0 0 379.72 447.37"><defs><style>.cls-1{fill:#fac158;}.cls-2{fill:#0071bb;}.cls-3{fill:#e6c5be;}.cls-4{fill:#b4bfc5;}.cls-5{fill:#cf7042;}.cls-6{fill:#a47d50;}.cls-7{fill:#c49d6a;}.cls-8{fill:#95aa99;}.cls-9{fill:#5d718a;}</style></defs><g id="haekle"><g><path class="cls-6" d="m372.04,55.72l-96.22,90.11c-2.3,2.16-5.25,3.23-8.2,3.23-2.46,0-4.92-.75-6.99-2.24-.63-.44-1.22-.96-1.77-1.54-.63-.67-1.16-1.39-1.6-2.15-2.75-4.72-1.99-10.92,2.16-14.81l96.22-90.12c2.3-2.16,5.25-3.23,8.19-3.23,3.21,0,6.42,1.28,8.77,3.79,4.51,4.81,4.26,12.45-.56,16.96Z"/><path class="cls-4" d="m260.63,146.82l-39.98,37.44s-9.93,9.07-15.93,2.07,2-16,2-16c0,0,7-6,9-4s-5.91,9.24-2.45,11.12c3.45,1.88,18.41-10.37,18.41-10.37l25.58-23.95c.44.76.97,1.48,1.6,2.15.55.58,1.14,1.1,1.77,1.54Z"/></g><path class="cls-5" d="m224.72,135.33s1,1,5-2S319.72-7.67,338.72.33s-103,143-109,145-14.37,8.6-17.69-2.2,12.69-22.8,12.69-22.8c0,0,3.84-2.03,3,3-1,6-5,10-3,12Z"/><g><g><path class="cls-7" d="m316.72,315.33l-25.69,41.49-.31.51s-73.93-43.96-69.01-50.99c.01,0,.01-.01.01-.01l33-42s23,36,62,51Z"/><g><path class="cls-4" d="m370.72,269.33c-1.62,2.6-3.06,5.32-4.4,8.09h0c-1.09,2.25-2.12,4.51-3.13,6.75-5.47,12.07-10.65,23.48-23.41,26.66-14.35,3.58-14.14,4.94-18.47,4.84-1.11-.02-2.54-.13-4.59-.34-.12-.05-.23-.09-.35-.14-5.46-2.12-10.61-4.66-15.42-7.44,0,0-.02-.01-.05-.04-4.38-2.53-8.48-5.28-12.29-8.12-3.94-2.93-7.56-5.96-10.85-8.94h-.01c-2.47-2.27-4.74-4.48-6.83-6.62-.01,0-.01-.01-.01-.01-10.51-10.8-16.19-19.69-16.19-19.69,0,0,3.52-22.77,13.23-35.79,0,0,0-.02.01-.03,1.18-1.55,2.42-2.97,3.76-4.18.72-.65,1.39-1.31,2.04-1.99h.01c8.05-8.39,11.85-18.67,22.19-22.6,1.64-.63,3.45-1.1,5.46-1.37h.01c.1-.01.19-.03.29-.04,4.02-.5,9.3.38,15,2.05,1.28.37,2.57.78,3.88,1.23,16.12,5.47,34,15.89,36.12,18.72.8,1.07,2.89,3.93,5.33,7.85.67,1.06,1.36,2.21,2.06,3.43,2.89,5.01,5.9,11.13,7.68,17.3.43,1.46.78,2.93,1.04,4.38,1.07,5.82.75,11.46-2.11,16.04Z"/><path class="cls-4" d="m288.72,390.33c-3.59,3.59-7.45,7.45-11.79,10.96-1.38,1.12-2.82,2.2-4.32,3.24-4.63,3.18-9.82,5.85-15.78,7.39-1.35.36-2.74.66-4.17.88-1.59.26-3.24.44-4.94.53-3.25.17-6.36.23-9.3.16-1.37-.03-2.71-.09-4.01-.17-12.22-.81-21.2-3.99-25.69-9.99-2.53-3.37-9.32-8.87-16.18-15.01-1-.89-2-1.8-2.99-2.71-2.77-2.57-5.45-5.21-7.76-7.81-.96-1.08-1.85-2.15-2.65-3.2-3.11-4.08-4.97-7.98-4.42-11.27.21-1.24.35-2.5.45-3.8.2-2.43.27-4.96.38-7.53h0c.2-5.06.58-10.29,2.45-15.36h0c1.58-4.29,4.22-8.45,8.72-12.31,2.38-2.04,4.44-3.9,6.31-5.59.01,0,.01-.01.01-.01,8.97-8.08,13.7-12.22,28.67-12.39-.31.44-.31,1.02-.04,1.72.37,1,1.3,2.25,2.67,3.7,2.2,2.35,5.56,5.21,9.62,8.34h.01c1.48,1.14,3.06,2.31,4.71,3.52,4.27,3.11,9.02,6.4,13.87,9.64,2.36,1.58,4.75,3.15,7.11,4.7,6.17,4.01,12.19,7.81,17.26,10.95,3.32,2.07,6.24,3.85,8.52,5.23h.01c3.29,2.01,5.27,3.19,5.27,3.19l.31-.51.69.51s7,23-3,33Z"/></g><g><polygon class="cls-2" points="301.42 198.37 301.42 198.38 301.43 198.37 301.42 198.37"/><path class="cls-2" d="m273.76,222.34s0,0,0,0h.01-.01Z"/><g><path class="cls-9" d="m295.96,199.74c-13.16,22.88-23.81,52.16-16.18,80.24,2.23,8.2,5.58,14.71,8.83,19.61,3.81,2.84,7.91,5.59,12.29,8.12-.82-.66-12.31-10.28-17.33-29.03-6.19-23.14-.02-50.73,17.85-80.31l-5.46,1.37Z"/><path class="cls-9" d="m270.91,284.02s0,.01.01.01c2.09,2.14,4.36,4.35,6.83,6.61-5.03-11.79-13.32-38.05-3.99-68.3l-5.8,6.17s-.01.02-.01.03c-3.61,15.9-2.75,30.12-.81,40.74,1.02,5.58,2.37,10.54,3.77,14.74Z"/><path class="cls-9" d="m308.53,284.18c-.56-2.35-1.05-4.81-1.46-7.36-.54-3.37-.93-6.74-1.17-10.12,3.31.48,9.63,1.21,17.45,1.21,2.27,0,4.66-.06,7.14-.21,17.56-1.03,32.07-5.99,42.34-14.41-.26-1.45-.61-2.92-1.04-4.38-21.34,19.17-58.13,14.9-66.1,13.71-.25-7.56.28-15.13,1.58-22.68,3.06.62,10.21,1.83,19.1,1.83.81,0,1.64-.01,2.48-.03,13.98-.37,26-3.84,35.26-10.13l-2.06-3.43c-19.66,13.54-47.5,9.11-54.03,7.82,2.4-11.52,6.59-23,12.58-34.39l-3.88-1.23c-13.2,25.41-17.78,51.3-13.6,77.08,2.77,17.06,8.84,30.06,13.25,37.73.12.05.23.09.35.14,2.05.21,3.48.32,4.59.34-3.27-5.26-8.22-14.56-11.68-27.13,4.62.98,12.76,2.37,22.13,2.44h.65c12.11,0,22.51-2.32,30.78-6.81,1.01-2.24,2.04-4.5,3.13-6.74-19.04,14.52-49.95,8.57-57.79,6.75Z"/><path class="cls-9" d="m276.92,348.91c-31.49-3.17-53.92,7.41-67.63,17.43-9.35,6.84-15.84,14.14-19.74,19.27.99.91,1.99,1.82,2.99,2.71,3.7-4.9,10.01-12.1,19.11-18.75,2.74-2,5.84-4.02,9.31-5.94,3.71,4.93,16.25,23.83,13.45,49.69,1.3.08,2.64.14,4.01.17,2.84-26.56-9.36-45.71-13.85-51.76,4.21-2.09,8.89-3.99,14.05-5.52,1.72,1.61,5.93,6.05,9.45,13.75,3.87,8.44,7.61,22.54,4.59,42.84,1.43-.22,2.82-.52,4.17-.88,4.53-33.06-7.9-50.67-13.73-56.92,4.54-1.11,9.4-1.92,14.61-2.34h.01c2.69,1.05,19.29,9.31,14.89,51.87,1.5-1.04,2.94-2.12,4.32-3.24,2.44-30.46-5.89-43.5-12.19-48.94,6.43-.07,13.33.47,20.7,1.79-2.28-1.38-5.2-3.16-8.52-5.23Z"/><path class="cls-9" d="m203.52,354.54c17.7-14.13,36.55-19.68,56.14-16.58-2.36-1.55-4.75-3.12-7.11-4.7-17.96-.79-35.55,5.38-51.62,18.24-10.55,8.44-17.92,17.67-21.79,23.1.8,1.05,1.69,2.12,2.65,3.2,3.55-5.07,11.01-14.7,21.73-23.26Z"/><path class="cls-9" d="m238.68,323.62c-1.65-1.21-3.23-2.38-4.71-3.52h-.01c-24.79,3.19-40.87,13.96-50.29,22.91-3.27,3.11-5.95,6.18-8.12,8.98h0c-.11,2.58-.18,5.11-.38,7.54,7.1-11.06,25.59-32.55,63.51-35.91Z"/><path class="cls-9" d="m224.34,311.76c-1.37-1.45-2.3-2.7-2.67-3.7-11.43,1.65-21.04,5.93-28.63,10.67,0,0,0,.01-.01.01-1.87,1.69-3.93,3.55-6.31,5.59-4.5,3.86-7.14,8.02-8.72,12.3,5.23-5.85,21.73-22.03,46.34-24.87Z"/></g></g></g><path class="cls-4" d="m144.17,447.37c-1.39,0-2.77-.06-4.13-.19-14.78-1.4-27.11-10.47-36.62-26.97-1.63-2.82-3.15-5.56-4.57-8.21-11.04,3.42-23.44,5.22-35.83,5.13-27.2-.19-48.08-8.85-54.49-22.58-8.89-19.05,1.75-36.25,10.29-50.08,5.38-8.69,10.02-16.2,7.93-21.15-.96-2.27-2.3-3.55-4.11-3.93-6.02-1.25-15.89,6.62-19.2,9.76L0,325.52c1.41-1.34,14.03-13.02,23.66-11.03,2.4.5,5.69,2.1,7.7,6.88,3.09,7.33-2.18,15.85-8.29,25.72-8.33,13.46-17.77,28.72-10.02,45.33,5.5,11.79,25.13,19.52,50,19.7,10.86.06,22.58-1.44,33.42-4.7-11-21.7-14.65-37.74-11.16-48.82,3.07-9.74,10.94-13.41,16.15-15.84,1.13-.53,2.11-.98,2.89-1.43,6.26-3.55,24.3-4.65,33.82,4.27,5.64,5.28,10.27,15.88.34,36.39-5.51,11.38-16.27,20.68-31.12,26.9-1.22.51-2.47,1-3.74,1.47,1.28,2.38,2.65,4.83,4.09,7.34,8.66,15.01,19.68,23.25,32.76,24.49,33.05,3.12,69.46-38.58,69.83-39l3.79,3.27c-.39.45-9.63,11.1-23.32,21.51-16.94,12.88-32.6,19.39-46.62,19.39Zm-26.61-103.66c-4.67,0-8.78.88-10.75,1.99-.96.54-2.07,1.06-3.25,1.61-4.94,2.3-11.08,5.17-13.49,12.81-3.08,9.77.68,25.12,11.2,45.72,14.44-5.2,26.79-13.73,32.73-26.01,8.61-17.77,5.15-26.43.74-30.56-4.42-4.14-11.25-5.56-17.19-5.56Z"/></g><g><g><path class="cls-1" d="m98.27,168.18c-.37-3.56-3.59-6.16-7.14-5.79-3.56.37-6.16,3.59-5.79,7.14l.83,7.96c.37,3.56,3.59,6.16,7.14,5.79,3.56-.37,6.16-3.59,5.79-7.14l-.83-7.96Z"/><path class="cls-1" d="m122.27,162.18c-.37-3.56-3.59-6.16-7.14-5.79-3.56.37-6.16,3.59-5.79,7.14l.83,7.96c.37,3.56,3.59,6.16,7.14,5.79,3.56-.37,6.16-3.59,5.79-7.14l-.83-7.96Z"/><path class="cls-1" d="m148.11,167.13l-.83-7.96c-.37-3.56-3.59-6.16-7.14-5.79-3.56.37-6.16,3.59-5.79,7.14l.83,7.96c.37,3.56,3.59,6.16,7.14,5.79,3.56-.37,6.16-3.59,5.79-7.14Z"/><path class="cls-1" d="m82.22,266.33c-1.9,0-3.62.84-4.81,2.15.24-.75.34-1.55.29-2.38-.25-3.57-3.37-6.28-6.93-6.04l-7.98.55c-3.57.25-6.28,3.37-6.04,6.93s3.37,6.28,6.93,6.04l7.98-.55c1.73-.12,3.26-.92,4.35-2.12-.19.6-.29,1.25-.29,1.91v8c0,3.57,2.93,6.5,6.5,6.5s6.5-2.93,6.5-6.5v-8c0-3.57-2.93-6.5-6.5-6.5Z"/><path class="cls-1" d="m113.27,272.18c-.37-3.56-3.59-6.16-7.14-5.79-3.56.37-6.16,3.59-5.79,7.14l.83,7.96c.37,3.56,3.59,6.16,7.14,5.79,3.56-.37,6.16-3.59,5.79-7.14l-.83-7.96Z"/><path class="cls-1" d="m138.27,269.18c-.37-3.56-3.59-6.16-7.14-5.79-3.56.37-6.16,3.59-5.79,7.14l.83,7.96c.37,3.56,3.59,6.16,7.14,5.79,3.56-.37,6.16-3.59,5.79-7.14l-.83-7.96Z"/><path class="cls-1" d="m163.27,262.18c-.37-3.56-3.59-6.16-7.14-5.79-3.56.37-6.16,3.59-5.79,7.14l.83,7.96c.37,3.56,3.59,6.16,7.14,5.79,3.56-.37,6.16-3.59,5.79-7.14l-.83-7.96Z"/><path class="cls-1" d="m172.14,244.78l-7.9,1.27c-3.53.57-5.95,3.92-5.38,7.45h0c.57,3.53,3.92,5.95,7.45,5.38l7.9-1.27c3.53-.57,5.95-3.92,5.38-7.45-.57-3.53-3.92-5.95-7.45-5.38Z"/><path class="cls-1" d="m154.91,183.11l7.76-1.93c3.47-.86,5.6-4.41,4.74-7.88-.86-3.47-4.41-5.6-7.88-4.74l-7.76,1.93c-3.47.86-5.6,4.41-4.74,7.88.86,3.47,4.41,5.6,7.88,4.74Z"/><path class="cls-1" d="m158.77,194.49c-3.47.86-5.6,4.41-4.74,7.88.86,3.47,4.41,5.6,7.88,4.74l7.76-1.93c3.47-.86,5.6-4.41,4.74-7.88-.86-3.47-4.41-5.6-7.88-4.74l-7.76,1.93Z"/><path class="cls-1" d="m172.77,219.07l-7.98.55c-3.57.25-6.28,3.37-6.04,6.93s3.37,6.28,6.93,6.04l7.98-.55c3.57-.25,6.28-3.37,6.04-6.93-.25-3.57-3.37-6.28-6.93-6.04Z"/><path class="cls-1" d="m59.68,249.6l7.98-.55c3.57-.25,6.28-3.37,6.04-6.93-.25-3.57-3.37-6.28-6.93-6.04l-7.98.55c-3.57.25-6.28,3.37-6.04,6.93s3.37,6.28,6.93,6.04Z"/><path class="cls-1" d="m55.68,199.6l7.98-.55c3.57-.25,6.28-3.37,6.04-6.93-.04-.64-.18-1.24-.4-1.81.33.02.67.02,1.02-.02,3.56-.37,6.16-3.59,5.79-7.14l-.83-7.96c-.37-3.56-3.59-6.16-7.14-5.79-3.56.37-6.16,3.59-5.79,7.14l.83,7.96c.06.55.19,1.08.38,1.58-.26-.01-.52-.02-.79,0l-7.98.55c-3.57.25-6.28,3.37-6.04,6.93s3.37,6.28,6.93,6.04Z"/><path class="cls-1" d="m55.68,227.6l7.98-.55c3.57-.25,6.28-3.37,6.04-6.93-.25-3.57-3.37-6.28-6.93-6.04l-7.98.55c-3.57.25-6.28,3.37-6.04,6.93s3.37,6.28,6.93,6.04Z"/></g><g><g><path class="cls-9" d="m126.11,199.13l-.83-7.96c-.37-3.56-3.59-6.16-7.14-5.79-3.56.37-6.16,3.59-5.79,7.14l.83,7.96c.37,3.56,3.59,6.16,7.14,5.79,3.56-.37,6.16-3.59,5.79-7.14Z"/><path class="cls-9" d="m110.27,244.18c-.37-3.56-3.59-6.16-7.14-5.79-3.56.37-6.16,3.59-5.79,7.14l.83,7.96c.37,3.56,3.59,6.16,7.14,5.79,3.56-.37,6.16-3.59,5.79-7.14l-.83-7.96Z"/><path class="cls-9" d="m91.18,204.49c.37,3.56,3.59,6.16,7.14,5.79,3.56-.37,6.16-3.59,5.79-7.14l-.83-7.96c-.37-3.56-3.59-6.16-7.14-5.79-3.56.37-6.16,3.59-5.79,7.14l.83,7.96Z"/><path class="cls-9" d="m149.59,229.16c-.57-3.53-3.92-5.95-7.45-5.38l-7.9,1.27c-3.53.57-5.95,3.92-5.38,7.45h0c.22,1.38.88,2.59,1.8,3.52-1.06-.52-2.27-.77-3.53-.64-3.56.37-6.16,3.59-5.79,7.14l.83,7.96c.37,3.56,3.59,6.16,7.14,5.79,3.56-.37,6.16-3.59,5.79-7.14l-.83-7.96c-.16-1.52-.84-2.86-1.84-3.88,1.17.57,2.51.81,3.88.59l7.9-1.27c3.53-.57,5.95-3.92,5.38-7.45Z"/><path class="cls-9" d="m99.11,235.3c-1.2-3.37-4.94-5.13-8.31-3.93l-7.53,2.69c-3.37,1.2-5.13,4.94-3.93,8.31,1.2,3.37,4.94,5.13,8.31,3.93l7.53-2.69c3.37-1.2,5.13-4.94,3.93-8.31Z"/><path class="cls-9" d="m82.31,222.89l7.9-1.27c3.53-.57,5.95-3.92,5.38-7.45-.57-3.53-3.92-5.95-7.45-5.38l-7.9,1.27c-3.53.57-5.95,3.92-5.38,7.45h0c.57,3.53,3.92,5.95,7.45,5.38Z"/><path class="cls-9" d="m125.86,208.51h0c.57,3.53,3.92,5.95,7.45,5.38l7.9-1.27c3.53-.57,5.95-3.92,5.38-7.45-.57-3.53-3.92-5.95-7.45-5.38l-7.9,1.27c-3.53.57-5.95,3.92-5.38,7.45Z"/></g><path class="cls-3" d="m136.59,219.16c-.57-3.53-3.92-5.95-7.45-5.38l-7.9,1.27c-3.53.57-5.95,3.92-5.38,7.45h0c.12.76.38,1.47.74,2.11-.78-.23-1.61-.31-2.47-.22-1.4.15-2.65.74-3.63,1.62.19-.72.26-1.49.17-2.27-.19-1.8-1.11-3.36-2.44-4.41,1.18.73,2.6,1.1,4.09.95,3.56-.37,6.16-3.59,5.79-7.14l-.83-7.96c-.37-3.56-3.59-6.16-7.14-5.79-3.56.37-6.16,3.59-5.79,7.14l.83,7.96c.19,1.8,1.11,3.36,2.44,4.41-1.18-.73-2.6-1.1-4.09-.95l-7.96.83c-3.56.37-6.16,3.59-5.79,7.14h0c.37,3.56,3.59,6.16,7.14,5.79l7.96-.83c1.4-.15,2.65-.74,3.63-1.62-.19.72-.26,1.49-.17,2.27l.83,7.96c.37,3.56,3.59,6.16,7.14,5.79,3.56-.37,6.16-3.59,5.79-7.14l-.83-7.96c-.09-.89-.37-1.73-.78-2.47.89.26,1.85.33,2.82.18l7.9-1.27c3.53-.57,5.95-3.92,5.38-7.45Z"/></g><g><path class="cls-5" d="m78.02,194.27c.25,3.57,3.37,6.28,6.93,6.04h0c3.57-.25,6.28-3.37,6.04-6.93l-.55-7.98c-.25-3.57-3.37-6.28-6.93-6.04h0c-3.57.25-6.28,3.37-6.04,6.93l.55,7.98Z"/><path class="cls-5" d="m112.98,188.38l-.55-7.98c-.25-3.57-3.37-6.28-6.93-6.04h0c-3.57.25-6.28,3.37-6.04,6.93l.55,7.98c.25,3.57,3.37,6.28,6.93,6.04h0c3.57-.25,6.28-3.37,6.04-6.93Z"/><path class="cls-5" d="m99.43,259.4c-.25-3.57-3.37-6.28-6.93-6.04h0c-3.57.25-6.28,3.37-6.04,6.93l.55,7.98c.25,3.57,3.37,6.28,6.93,6.04h0c3.57-.25,6.28-3.37,6.04-6.93l-.55-7.98Z"/><path class="cls-5" d="m124.43,257.4c-.25-3.57-3.37-6.28-6.93-6.04h0c-3.57.25-6.28,3.37-6.04,6.93l.55,7.98c.25,3.57,3.37,6.28,6.93,6.04h0c3.57-.25,6.28-3.37,6.04-6.93l-.55-7.98Z"/><path class="cls-5" d="m76.22,213.33c3.57,0,6.5-2.93,6.5-6.5s-2.93-6.5-6.5-6.5h-8c-3.57,0-6.5,2.93-6.5,6.5s2.93,6.5,6.5,6.5h8Z"/><path class="cls-5" d="m78.22,237.33c3.57,0,6.5-2.93,6.5-6.5s-2.93-6.5-6.5-6.5h-8c-3.57,0-6.5,2.93-6.5,6.5s2.93,6.5,6.5,6.5h8Z"/><path class="cls-5" d="m140.91,200.11l7.76-1.93c3.47-.86,5.6-4.41,4.74-7.88-.86-3.47-4.41-5.6-7.88-4.74l-7.76,1.93c-.29.07-.57.17-.85.28.07-.45.09-.92.06-1.4l-.55-7.98c-.25-3.57-3.37-6.28-6.93-6.04h0c-3.57.25-6.28,3.37-6.04,6.93l.55,7.98c.25,3.57,3.37,6.28,6.93,6.04h0c.69-.05,1.35-.21,1.97-.46-.12.82-.09,1.67.12,2.52h0c.86,3.47,4.41,5.6,7.88,4.74Z"/><path class="cls-5" d="m145.77,210.49c-3.47.86-5.6,4.41-4.74,7.88h0c.86,3.47,4.41,5.6,7.88,4.74l7.76-1.93c3.47-.86,5.6-4.41,4.74-7.88-.86-3.47-4.41-5.6-7.88-4.74l-7.76,1.93Z"/><path class="cls-5" d="m164.59,240.16c-.57-3.53-3.92-5.95-7.45-5.38l-7.9,1.27c-3.53.57-5.95,3.92-5.38,7.45h0c.57,3.53,3.92,5.95,7.45,5.38l7.9-1.27c3.53-.57,5.95-3.92,5.38-7.45Z"/><path class="cls-5" d="m87.41,251.3c-.86-3.47-4.41-5.6-7.88-4.74l-7.76,1.93c-3.47.86-5.6,4.41-4.74,7.88h0c.86,3.47,4.41,5.6,7.88,4.74l7.76-1.93c3.47-.86,5.6-4.41,4.74-7.88Z"/><path class="cls-5" d="m148.43,252.4c-.25-3.57-3.37-6.28-6.93-6.04h0c-3.57.25-6.28,3.37-6.04,6.93l.55,7.98c.25,3.57,3.37,6.28,6.93,6.04h0c3.57-.25,6.28-3.37,6.04-6.93l-.55-7.98Z"/></g><path class="cls-8" d="m184.72,209.33c0-4.13-6.14-49.2-9.4-65.88-.67-3.43-3.96-5.67-7.39-5.03-22.64,4.26-105.21,19.73-132.5,23.96-3.62.56-6.01,4.06-5.22,7.64,3.04,13.77,9.74,44.6,10.51,52.31,1,10,1.26,34.59,3,42,4,17,8.13,26.12,10.27,37.61.65,3.47,4.01,5.74,7.47,5.05,24.36-4.85,110.23-20.68,132.14-24.71,2.81-.52,4.64-3.24,4.06-6.04-3.26-15.74-12.94-62.75-12.94-66.9Zm-61.58,64.19c-1.2.72-2.57,1.18-4.02,1.28-1.06.07-2.1-.05-3.1-.34l.57,5.41c.25,2.38-.45,4.73-1.97,6.6-1.51,1.87-3.66,3.04-6.04,3.29s-4.73-.45-6.6-1.97c-1.87-1.51-3.04-3.66-3.29-6.04l-.65-6.17c-1.19.71-2.52,1.12-3.92,1.22-.98.07-1.94-.02-2.87-.27h-.03s0,3.98,0,3.98c0,4.79-3.6,8.98-8.38,9.3-5.24.35-9.62-3.81-9.62-8.98v-5.5c-.45.1-.92.17-1.39.2l-7.98.55c-2.39.17-4.71-.61-6.53-2.19-1.81-1.58-2.9-3.77-3.07-6.16-.16-2.39.62-4.71,2.2-6.53,1.58-1.82,3.77-2.91,6.16-3.07l2.31-.16c-.13-.33-.23-.66-.31-1-.45-1.79-.32-3.6.27-5.23l-5.03.34c-2.39.17-4.71-.61-6.53-2.19-1.81-1.58-2.9-3.77-3.07-6.16-.16-2.39.62-4.71,2.2-6.53,1.58-1.82,3.77-2.91,6.16-3.07l3.16-.22c-.36-.98-.55-2.02-.55-3.08,0-.38.02-.75.07-1.12l-5.44.37c-2.39.17-4.71-.61-6.53-2.19-1.81-1.58-2.9-3.77-3.07-6.16-.16-2.39.62-4.71,2.2-6.53,1.58-1.82,3.77-2.91,6.16-3.07l6.05-.42c-.94-1.44-1.44-3.12-1.44-4.88,0-.92.14-1.81.41-2.68l-.47-2.29-3.31.22c-2.39.17-4.71-.61-6.53-2.19-1.81-1.58-2.9-3.77-3.07-6.16-.16-2.39.62-4.71,2.2-6.53,1.58-1.82,3.77-2.91,6.16-3.07l5.97-.42-.73-6.92c-.25-2.38.45-4.73,1.97-6.6,1.51-1.87,3.66-3.04,6.04-3.29s4.73.45,6.6,1.97c1.87,1.51,3.04,3.66,3.29,6.04l.43,4.02c1.42-1.18,3.2-1.93,5.14-2.07.09,0,.18-.01.27-.01l-.74-7.06c-.25-2.38.45-4.73,1.97-6.6,1.51-1.87,3.66-3.04,6.04-3.29,2.39-.25,4.73.45,6.6,1.97,1.87,1.51,3.04,3.66,3.29,6.04l.55,5.22c1.2-.73,2.57-1.17,4.02-1.27.82-.05,1.61,0,2.4.16-.01-.09-.02-.18-.03-.27l-.84-7.96c-.25-2.38.45-4.73,1.97-6.6,1.51-1.87,3.66-3.04,6.04-3.29,2.39-.25,4.73.45,6.6,1.97,1.87,1.51,3.04,3.66,3.29,6.04l.84,7.96c.04.36.05.72.04,1.08,1.13-.62,2.38-1,3.69-1.09.76-.05,1.52-.01,2.26.13l1.03-1.99-.76-7.21c-.25-2.38.45-4.73,1.97-6.6,1.51-1.87,3.66-3.04,6.04-3.29,2.39-.25,4.73.45,6.6,1.97,1.87,1.51,3.04,3.66,3.29,6.04l.84,7.96c.05.45.06.9.04,1.34.17-.05.35-.1.53-.15l7.77-1.93c4.81-1.21,9.7,1.74,10.9,6.56.58,2.32.22,4.74-1.02,6.81-1.24,2.06-3.21,3.52-5.53,4.1l-7.77,1.93c-.3.08-.61.13-.92.18l.17,1.44c.49.79.85,1.64,1.08,2.54.26,1.06.33,2.14.2,3.2.66-.36,1.37-.64,2.12-.83l7.77-1.93c4.81-1.2,9.7,1.74,10.9,6.56.58,2.32.22,4.74-1.02,6.81-1.24,2.06-3.21,3.52-5.53,4.1l-7.77,1.93-.06.16c.64.89,1.11,1.91,1.38,3,.38,1.51.36,3.07-.05,4.53.28-.04.55-.07.83-.09l7.98-.55c2.39-.17,4.71.61,6.53,2.19,1.81,1.58,2.9,3.77,3.07,6.16.16,2.39-.62,4.71-2.2,6.53-1.58,1.82-3.77,2.91-6.16,3.07l-7.89.55.08,1.74c.52.91.87,1.9,1.03,2.94.08.49.12.97.12,1.45,0,.63-.07,1.26-.2,1.87l4.77-.77c4.9-.8,9.52,2.55,10.31,7.45.79,4.9-2.55,9.53-7.45,10.32l-7.9,1.27c-.33.06-.67.09-1.01.1.03.16.05.31.06.46l.84,7.96c.25,2.38-.45,4.73-1.97,6.6-1.51,1.87-3.66,3.04-6.04,3.29-4.96.52-9.38-3.08-9.89-8.01l-.43-4.03c-1.44,1.22-3.23,1.95-5.14,2.08-.78.05-1.54.01-2.29-.13l.76,7.2c.25,2.38-.45,4.73-1.97,6.6-1.51,1.87-3.66,3.04-6.04,3.29s-4.73-.45-6.6-1.97c-1.87-1.51-3.04-3.66-3.29-6.04l-.55-5.23Z"/></g></g></svg>