<?xml version="1.0" encoding="UTF-8"?><svg id="Layer_1" xmlns="http://www.w3.org/2000/svg" width="240" height="88" viewBox="0 0 240 88"><defs><style>.cls-1{fill:#f3e2df;}.cls-2{fill:#707070;}.cls-3{stroke:#172026;stroke-linecap:round;stroke-linejoin:round;stroke-width:2px;}.cls-3,.cls-4{fill:none;}.cls-4{stroke:#000;}</style></defs><g id="Group_173240"><path id="Path_39868" class="cls-3" d="m185.58,45.9c-.84,5.59,1.95,11.09,6.95,13.72,4.96,2.56,11.02,1.56,14.9-2.45,3.94-4.07,4.9-10.17,2.4-15.26-2.43-5.05-7.86-7.93-13.4-7.12-5.67.91-10.08,5.42-10.85,11.11Z"/><g id="Ellipse_723"><circle class="cls-1" cx="218.25" cy="27.48" r="7"/><circle class="cls-4" cx="218.25" cy="27.48" r="6.5"/></g><rect id="Rectangle_161097" class="cls-3" x="163.25" y="13.48" width="70" height="63" rx="18" ry="18"/><path id="facebook" class="cls-3" d="m144.5,17.33h-9.41c-8.66,0-15.68,6.19-15.68,13.83v8.3h-9.41v11.06h9.41v22.12h12.55v-22.12h9.41l3.14-11.06h-12.55v-8.3c.11-1.63,1.51-2.86,3.14-2.77h9.41v-11.06Z"/><path id="ic_mail_outline_24px" class="cls-2" d="m85.79,12.93H26.12c-4.1,0-7.42,3.68-7.42,8.19l-.04,49.12c0,4.5,3.36,8.19,7.46,8.19h59.68c4.1,0,7.46-3.68,7.46-8.19V21.11c0-4.5-3.36-8.19-7.46-8.19Zm0,57.31H26.12V29.3l29.84,20.47,29.84-20.47v40.94Zm-29.84-28.66l-29.84-20.47h59.68l-29.84,20.47Z"/></g></svg>