<?xml version="1.0" encoding="UTF-8"?><svg id="Layer_1" xmlns="http://www.w3.org/2000/svg" width="380" height="425" viewBox="0 0 380 425"><defs><style>.cls-1{fill:#e6c5be;}.cls-2{fill:#b4bfc5;}.cls-3{fill:#cf7042;}.cls-4{fill:#95aa99;}.cls-5{fill:#5d718a;}.cls-6{fill:none;stroke:#5d718a;stroke-miterlimit:10;stroke-width:2px;}</style></defs><g id="keramik"><g><path class="cls-2" d="m267.28,160.27s0,.07-.01.1c-.03,1.69-1.28,3.33-3.57,4.89-2.99,2.06-7.77,3.99-14.05,5.74-19.78,5.56-54.41,9.5-94.87,10.3-5.03.1-10.16.15-15.35.15s-10.3-.05-15.32-.15c-40.46-.8-75.11-4.73-94.89-10.3-6.28-1.76-11.06-3.69-14.05-5.74-2.29-1.57-3.54-3.21-3.57-4.89-.01-.03-.01-.07-.01-.1,0-11.7,57.24-21.18,127.85-21.18s127.85,9.49,127.85,21.18Z"/><path class="cls-6" d="m244.75,160.2s0,.05,0,.07c-.03,1.17-1.04,2.31-2.91,3.41-2.44,1.43-6.34,2.78-11.47,4-16.14,3.87-44.39,6.61-77.39,7.17-4.1.07-8.29.11-12.52.11s-8.4-.03-12.5-.11c-33.01-.56-61.28-3.29-77.41-7.17-5.13-1.22-9.03-2.56-11.47-4-1.87-1.09-2.89-2.23-2.91-3.41,0-.02,0-.05,0-.07,0-8.14,46.7-14.74,104.3-14.74s104.3,6.6,104.3,14.74Z"/><path class="cls-5" d="m267.43,170.74c0,11.53-48.51,21.07-111.33,22.51-5.46.13-11.02.2-16.67.2s-11.2-.07-16.65-.2c-62.82-1.44-111.35-10.98-111.35-22.51,0-.37.05-.74.15-1.12v-9.24h.01c.03,1.69,1.28,3.33,3.57,4.89,2.99,2.06,7.77,3.99,14.05,5.74,19.78,5.57,54.43,9.5,94.89,10.3,5.03.1,10.13.15,15.32.15s10.32-.05,15.35-.15c40.45-.8,75.09-4.74,94.87-10.3,6.28-1.76,11.06-3.69,14.05-5.74,2.29-1.57,3.54-3.21,3.57-4.89h.01v9.24c.1.37.15.74.15,1.12Z"/><path class="cls-5" d="m147.52,332.31c-.56.08-1.12.14-1.71.15-1.95.05-4.1.06-6.36.05-2.27.01-4.41,0-6.38-.05-.58-.01-1.15-.07-1.7-.15-39.34-1.52-104.75-11.93-93.2-40.92,13.15-32.96,34.39-30.73,52.84-42.18,18.45-11.46,17.89-26.54,19.29-31.02,1.33-4.24,11.46-5.46,12.48-5.57v-19.37c5.44.13,11.01.2,16.65.2s11.22-.07,16.67-.2v19.37c1.02.1,11.15,1.33,12.47,5.57,1.41,4.48.84,19.56,19.29,31.02,18.46,11.45,39.71,9.22,52.84,42.18,11.56,29-53.87,39.4-93.19,40.92Z"/><path class="cls-6" d="m215.08,160.79s0,.02,0,.03c-.02.54-.73,1.07-2.04,1.58-1.71.66-4.45,1.29-8.04,1.86-11.32,1.79-31.14,3.07-54.29,3.33-2.88.03-5.81.05-8.78.05s-5.89-.02-8.77-.05c-23.16-.26-42.98-1.53-54.3-3.33-3.6-.57-6.33-1.19-8.04-1.86-1.31-.51-2.02-1.04-2.04-1.58,0-.01,0-.02,0-.03,0-3.78,32.76-6.84,73.16-6.84s73.16,3.06,73.16,6.84Z"/></g><path class="cls-1" d="m170.59,97.53s-7.69-8.46,6.01-39.91c.44-.5.68-1.02.68-1.55,0-4.4-15.85-7.96-35.41-7.96s-35.41,3.56-35.41,7.96c0,.74.46,1.46,1.3,2.14,3.85,6.57,14.49,26.82,7.14,38.56-8.85,14.15-30.23,62.49,10.62,65.47,30.03,2.19,17.3,2.57,31.57,1.03,20.64-2.7,44.18-20.43,13.5-65.74Z"/><ellipse class="cls-3" cx="142.42" cy="56.34" rx="29.26" ry="5.42"/></g><g><path class="cls-4" d="m308.14,222.7c-4.44,4.75-15.33,20.62-6.45,38.57,7.03,14.21-15.13,7.78-16.59,42.1-1.4,32.81,22.5,34.53,29.09,36.45s27.79,1.67,31.89-.65c4.99-2.83,23.58-11.52,22.44-37.15-1.21-27.14-21.55-28.99-16.49-39.1,6.11-12.21,4.08-29.2-9.27-40.85-5.7-4.98-30.89-3.34-34.62.65Z"/><ellipse class="cls-5" cx="326.59" cy="224.63" rx="15.53" ry="3.8"/></g><g><path class="cls-4" d="m211.16,340.22c-2.87,4.11-.7,21.71,14.04,30.39,14.74,8.68,44.8,7.58,57.49,1.47,10.16-4.94,21.12-23.18,15.5-30.77-5.61-7.6-80.75-10.07-87.03-1.09Z"/><path class="cls-5" d="m295.27,342.17c0,2.57-16.83,4.43-39.74,4.43s-41.36-2.93-41.36-5.49,17.02-3.83,39.93-3.83,41.17,2.34,41.17,4.9Z"/></g></svg>