<?xml version="1.0" encoding="UTF-8"?><svg id="Layer_1" xmlns="http://www.w3.org/2000/svg" width="256" height="286.48" viewBox="0 0 256 286.48"><defs><style>.cls-1{fill:#b4bfc5;}.cls-2{fill:#cf7042;}.cls-3{fill:#95aa99;}.cls-4{fill:#5d718a;}</style></defs><g id="keramik"><g><path class="cls-1" d="m255.85,114.25s0,.07-.01.1c-.03,1.69-1.28,3.33-3.57,4.89-2.99,2.06-7.77,3.99-14.05,5.74-19.78,5.56-54.41,9.5-94.87,10.3-5.03.1-10.16.15-15.35.15s-10.3-.05-15.32-.15c-40.46-.8-75.11-4.73-94.89-10.3-6.28-1.76-11.06-3.69-14.05-5.74-2.29-1.57-3.54-3.21-3.57-4.89-.01-.03-.01-.07-.01-.1,0-11.7,57.24-21.18,127.85-21.18s127.85,9.49,127.85,21.18Z"/><path class="cls-4" d="m256,124.71c0,11.53-48.51,21.07-111.33,22.51-5.46.13-11.02.2-16.67.2s-11.2-.07-16.65-.2C48.53,145.77,0,136.24,0,124.71c0-.37.05-.74.15-1.12v-9.24h.01c.03,1.69,1.28,3.33,3.57,4.89,2.99,2.06,7.77,3.99,14.05,5.74,19.78,5.57,54.43,9.5,94.89,10.3,5.03.1,10.13.15,15.32.15s10.32-.05,15.35-.15c40.45-.8,75.09-4.74,94.87-10.3,6.28-1.76,11.06-3.69,14.05-5.74,2.29-1.57,3.54-3.21,3.57-4.89h.01v9.24c.1.37.15.74.15,1.12Z"/><path class="cls-2" d="m136.09,286.28c-.56.08-1.12.14-1.71.15-1.95.05-4.1.06-6.36.05-2.27.01-4.41,0-6.38-.05-.58-.01-1.15-.07-1.7-.15-39.34-1.52-104.75-11.93-93.2-40.92,13.15-32.96,34.39-30.73,52.84-42.18,18.45-11.46,17.89-26.54,19.29-31.02,1.33-4.24,11.46-5.46,12.48-5.57v-19.37c5.44.13,11.01.2,16.65.2s11.22-.07,16.67-.2v19.37c1.02.1,11.15,1.33,12.47,5.57,1.41,4.48.84,19.56,19.29,31.02,18.46,11.45,39.71,9.22,52.84,42.18,11.56,29-53.87,39.4-93.19,40.92Z"/></g><path class="cls-3" d="m156.73,49.42s-7.69-8.46,6.01-39.91c.44-.5.68-1.02.68-1.55C163.41,3.56,147.56,0,128,0s-35.41,3.56-35.41,7.96c0,.74.46,1.46,1.3,2.14,3.85,6.57,14.49,26.82,7.14,38.56-8.85,14.15-30.23,62.49,10.62,65.47,30.03,2.19,17.3,2.57,31.57,1.03,20.64-2.7,44.18-20.43,13.5-65.74Z"/><ellipse class="cls-4" cx="128" cy="8.72" rx="31.99" ry="7.19"/></g></svg>