<?xml version="1.0" encoding="UTF-8"?><svg id="Layer_1" xmlns="http://www.w3.org/2000/svg" width="238.26" height="302.1" viewBox="0 0 238.26 302.1"><defs><style>.cls-1{fill:#fac158;}.cls-2{fill:#0071bb;}.cls-3{fill:#b4bfc5;}.cls-4{fill:#cf7042;}.cls-5{fill:#a47d50;}.cls-6{fill:#c0272d;}.cls-7{fill:#c49d6a;}.cls-8{fill:#e1a55d;}.cls-9{fill:#95aa99;}.cls-10{fill:#5d718a;}</style></defs><path class="cls-3" d="m191.83,89.56c-.1.52-.22,1.15-.35,1.9-.13.73-.27,1.56-.44,2.49-.86,4.97-2.14,12.7-3.69,21.77-.13.84-.28,1.69-.42,2.55-.46,2.72-.95,5.55-1.45,8.44-.3,1.65-.59,3.33-.87,5.01-.54,3.05-1.09,6.15-1.65,9.28-.15.86-.31,1.73-.46,2.59-1.99,10.91-4.08,21.92-6.12,31.45-.18.86-.36,1.72-.55,2.55-1.62,7.42-3.18,13.8-4.59,18.37-.42,1.35-.55,2.97-.91,4.79h0c-.15.82-.36,1.68-.65,2.57-1.87,5.63-7.4,12.63-28.32,19.4-1.15.37-2.36.75-3.62,1.11-7.04,2.09-15.62,4.16-26.11,6.14-.67.13-1.32.25-1.98.37-1.1.21-2.18.41-3.24.59-4.68.82-9,1.49-12.98,2.03-1.51.21-2.96.39-4.37.56-2.77.33-5.35.58-7.76.77-1.09.09-2.14.17-3.17.22-12.61.79-20.14-.29-24.62-1.92-2.57-.93-4.14-2.06-5.09-3.14-.44-.48-.74-.97-.96-1.43-.04-.08-.08-.16-.1-.24l-.32-2.4v-.04c-.04-.09-.15-.5-.35-1.15-.71-2.47-2.5-8.71-4.96-17.32-.32-1.13-.65-2.3-1-3.52-.55-1.95-1.14-4.01-1.74-6.14-.3-1.03-.59-2.08-.9-3.16-1.64-5.83-3.44-12.19-5.31-18.85-.29-1.06-.59-2.13-.9-3.22-.17-.62-.35-1.22-.51-1.85-.32-1.13-.63-2.25-.95-3.4-1.64-5.88-3.31-11.91-4.96-17.95-.29-1.06-.58-2.11-.87-3.17-.92-3.38-1.85-6.76-2.74-10.08-.3-1.1-.59-2.2-.88-3.29-1.3-4.8-2.55-9.5-3.75-14.05-.28-1.07-.56-2.13-.83-3.18-1.17-4.46-2.27-8.75-3.28-12.75-.28-1.13-.55-2.23-.82-3.31-1.95-7.84-3.48-14.47-4.4-19.18-.23-1.24-.44-2.34-.58-3.3-.18-1.11-.29-2.04-.33-2.75-.18-2.93-.22-6.47.1-10.38.06-.93.17-1.89.28-2.87.95-7.74,3.35-16.57,8.64-24.81.46-.73.95-1.45,1.47-2.17,4.35-6.07,10.4-11.73,18.74-16.22.92-.5,1.87-.98,2.85-1.45,5.07-2.42,10.9-4.44,17.61-5.92,6.14-1.35,11.85-1.77,17.11-1.45,1.31.07,2.58.18,3.82.35,9.54,1.22,17.53,4.8,24.06,9.26.73.5,1.44.99,2.13,1.52,7.68,5.72,13.15,12.52,16.53,17.53.5.75.95,1.45,1.36,2.11,1.91,3.05,2.85,5.05,2.85,5.05,0,0,2,5.85,4.69,14.03.32.98.65,2,1,3.05.13.41.27.82.41,1.24.37,1.14.74,2.3,1.13,3.48,2.05,6.35,4.25,13.31,6.17,19.74.31,1.03.62,2.06.91,3.05.6,2.09,1.18,4.1,1.69,5.98.32,1.17.63,2.29.9,3.35.5,1.91.91,3.63,1.22,5.11.36,1.7.59,3.09.65,4.06.03.48.01.86-.05,1.14.12-.34.28-.88.53-1.58.04-.12.08-.25.13-.39.5-1.49,1.24-3.63,2.17-6.14.28-.79.6-1.62.92-2.49,2.26-5.93,5.34-13.38,8.81-20.02.41-.77.82-1.54,1.23-2.29,4.9-8.82,10.47-15.62,15.58-14.41,8.21,1.94,14.36,6.52,17.48,12.88.4.81.74,1.65,1.03,2.53,1.32,3.85,1.62,8.21.73,12.95Z"/><path class="cls-2" d="m47.34,227.79s-.05-.08-.06-.12c-.46-1.22-.29-2.15-.26-2.28l.32,2.4Z"/><path class="cls-4" d="m169.67,203.32c-1.87,5.63-7.4,12.63-28.32,19.4-1.15.37-2.36.75-3.62,1.11-7.04,2.09-15.62,4.16-26.11,6.14-.67.13-1.32.25-1.98.37-1.1.21-2.18.41-3.24.59-4.68.82-9,1.49-12.98,2.03-1.51.21-2.96.39-4.37.56-2.77.33-5.35.58-7.76.77-1.09.09-2.14.17-3.17.22-12.61.79-20.14-.29-24.62-1.92-2.57-.93-4.14-2.06-5.09-3.14-.44-.48-.74-.97-.96-1.43-.04-.08-.08-.16-.1-.24l.05.45c-4.82,2.09-19.21,8.89-25.32,17.5-1.83,2.58-3.63,4.75-5.21,6.68-4.35,5.28-8.09,9.83-4.28,15.13,3.91,5.45,8.48,8.2,13.59,8.2.63,0,1.26-.05,1.9-.13,6.59-.84,14.79-8.93,18.24-25.11,2.1-9.9,6.84-11.86,8.95-12.25,7.96,2.23,24.71,3.09,59.83-4.02,48.6-9.83,54.46-21.38,54.94-22.61s-.37-8.3-.37-8.3Zm-128.37,46.07c-3.09,14.52-9.98,20.54-13.86,21.03-4.01.51-7.41-1.37-10.71-5.97-1.22-1.69-.6-2.98,4.07-8.67,1.64-1.99,3.5-4.24,5.44-6.98,4.86-6.83,16.54-12.73,21.88-15.17v.1s.17.67,1.12,1.56c-3.07,2.16-6.26,6.28-7.93,14.1Z"/><path class="cls-10" d="m191.05,93.94c.17-.93.31-1.75.44-2.49-2.78-1.15-6.05-2.57-9.82-4.25,3.55-4.23,6.68-7.72,9.44-10.59-.28-.88-.63-1.72-1.03-2.53-3.26,3.31-6.86,7.33-10.81,12.03-6.22-2.83-13.63-6.34-22.25-10.5-.41.75-.82,1.52-1.23,2.29,8.43,4.06,15.67,7.46,21.8,10.24-4.22,5.11-8.81,10.96-13.76,17.56-4.98-2.24-10.58-4.83-16.85-7.78-.32.86-.64,1.7-.92,2.49,5.71,2.68,11.13,5.18,16.15,7.46-4.77,6.4-9.88,13.46-15.3,21.2-5.19-1.92-10.34-3.94-15.42-6,6.1-6.95,8.61-12.53,11.8-15.68.15-.16.31-.3.47-.45.05-.05.1-.1.15-.14l-.03-.25-.41-4.03c-.28.24-.56.51-.85.81-3.49,3.67-7.35,11.47-13.7,18.71-5.23-2.15-10.39-4.33-15.44-6.55,7.03-6.72,14.2-14.2,20.28-20.92,2.59,1.24,5.14,2.46,7.64,3.65-.27-1.06-.58-2.19-.9-3.35-1.59-.76-3.23-1.54-4.91-2.34,1.12-1.26,2.19-2.47,3.22-3.64-.29-.99-.6-2.02-.91-3.05-1.49,1.72-3.12,3.55-4.85,5.49-6.05-2.91-12.59-6.07-19.65-9.52,5.25-5.62,10.34-11.91,14.62-17.56,1.26.63,2.49,1.24,3.71,1.85-.38-1.18-.76-2.34-1.13-3.48-.32-.16-.65-.33-.97-.48.19-.26.38-.51.56-.76-.35-1.05-.68-2.07-1-3.05-.62.85-1.27,1.72-1.94,2.62-6.23-3.13-12.85-6.45-19.84-10,6.46-6.18,11.02-9.74,14.24-11.7-.41-.65-.86-1.36-1.36-2.11-4.25,2.61-9.45,7.02-15.26,12.61-7.02-3.55-14.39-7.32-22.14-11.29,8.31-8.77,15.62-15.58,20.87-18.85-.69-.52-1.4-1.02-2.13-1.52-5.68,3.8-13.02,10.67-21.08,19.17-7.22-3.69-14.74-7.57-22.57-11.61,7.55-7.32,14.42-13.34,19.6-16.81-1.24-.17-2.51-.29-3.82-.35-5.27,3.84-11.57,9.44-18.25,15.89-5.32-2.75-10.79-5.58-16.39-8.48-.03-.01-.05-.03-.08-.04-.97.47-1.92.96-2.85,1.45.58.3,1.15.6,1.76.92,5.35,2.76,10.53,5.46,15.6,8.06-5.48,5.38-11.16,11.26-16.7,17.18-6.26-3.19-12.72-6.49-19.39-9.94-.53.72-1.01,1.44-1.47,2.17,5.14,2.64,11.62,5.96,19.02,9.74-6.63,7.14-13,14.24-18.51,20.48-3.67-2.13-6.75-3.95-9.16-5.41-.12.98-.22,1.94-.28,2.87,2.13,1.28,4.71,2.8,7.68,4.54-2.77,3.17-5.28,6.07-7.45,8.59.14.96.35,2.06.58,3.3,2.77-3.22,5.86-6.78,9.18-10.55,6.59,3.82,14.85,8.51,24.36,13.68-6.39,7.97-12.3,15.53-17.22,21.92-4.57-2.24-8.58-4.23-11.91-5.87.27,1.09.54,2.19.82,3.31,2.78,1.37,5.95,2.93,9.47,4.66-2.33,3.04-4.41,5.76-6.18,8.09.27,1.05.55,2.11.83,3.18,2.35-3.1,4.94-6.51,7.71-10.11,6.13,3.01,13.16,6.45,20.8,10.16-5.48,6.94-10.44,13.35-14.58,18.76-3.46-1.62-6.86-3.21-10.18-4.77.29,1.09.59,2.19.88,3.29,2.15,1.01,4.73,2.23,7.68,3.6-1.85,2.41-3.5,4.6-4.94,6.48.3,1.06.58,2.11.87,3.17,1.74-2.32,3.94-5.2,6.48-8.52,4.96,2.32,10.79,5.04,17.21,8.04-5.72,7.68-10.9,14.82-14.93,20.42-1.37-.72-2.64-1.39-3.8-1.99.32,1.15.63,2.28.95,3.4.44.24.87.47,1.33.71-.28.39-.55.77-.82,1.14.31,1.09.6,2.16.9,3.22.69-.97,1.44-2.02,2.24-3.14,4,2.09,8.79,4.58,14.1,7.34-4.28,5.59-8.09,10.68-11.03,14.65.31,1.07.6,2.12.9,3.16,3.12-4.23,7.49-10.07,12.48-16.59,6.37,3.31,13.44,6.96,20.84,10.76-5.9,7.49-11.4,14.52-16.13,20.61-6.44-3.64-11.48-6.47-15.44-8.64.35,1.22.68,2.4,1,3.52,3.91,2.16,8.3,4.63,12.83,7.2-2.99,3.84-5.64,7.27-7.86,10.12.19.65.31,1.06.33,1.15v.04c-.03.13-.19,1.06.27,2.28,2.51-3.25,5.76-7.44,9.54-12.29,1.69.96,3.39,1.91,5.09,2.88,6.86,3.9,13.38,7.58,19.47,10.98-1.21,1.94-2.3,3.69-3.26,5.28,1.03-.05,2.08-.13,3.17-.22.72-1.18,1.5-2.44,2.33-3.78,1.85,1.03,3.66,2.04,5.43,3.01,1.41-.17,2.86-.35,4.37-.56-2.78-1.53-5.6-3.1-8.41-4.66,3.95-6.36,8.89-14.26,14.49-23.09,5.9,2.96,11.74,5.87,17.34,8.61-4.37,6.53-7.86,12.24-10.44,17.11,1.06-.18,2.14-.38,3.24-.59,2.58-4.63,5.82-9.83,9.55-15.37,6.63,3.25,12.9,6.24,18.53,8.86,1.26-.37,2.46-.75,3.62-1.11-6.08-2.83-13.12-6.22-20.69-9.92,5.1-7.46,10.98-15.47,17.15-23.59,14.86,6.72,24.97,11.18,31.86,14.11.29-.89.5-1.74.65-2.55h0c-7.81-3.35-18.47-8.09-30.87-13.69,4.75-6.19,9.64-12.4,14.48-18.42,9.14,3.91,16.29,6.81,21.89,8.94.19-.84.37-1.69.55-2.55-5.34-2.04-12.13-4.8-20.75-8.5,7.27-9.02,14.34-17.53,20.47-24.82,2.14.64,4.27,1.27,6.4,1.87.15-.86.31-1.73.46-2.59-1.68-.47-3.35-.96-5.03-1.45,2.4-2.84,4.64-5.47,6.68-7.83.28-1.69.58-3.36.87-5.01-2.89,3.35-6.37,7.42-10.26,12.02-8.61-2.62-17.26-5.58-25.84-8.73,5.55-7.89,10.61-14.89,15.2-21.05,9.18,4.11,16.88,7.36,22.35,9.32.14-.86.29-1.72.42-2.55-4.72-1.77-11.68-4.7-21.15-8.94,5.16-6.86,9.72-12.66,13.76-17.56,4.28,1.91,7.98,3.5,11.08,4.73Zm-61.39,31.21c5.17,2.09,10.41,4.15,15.69,6.13-4.9,7-10.04,14.52-15.45,22.57-.23.34-.45.67-.67,1.01-5.45-2.47-11.35-5.18-17.72-8.14,6.49-7.89,12.68-15.27,18.16-21.56Zm-43.8-22.36c-6.13-2.95-11.95-5.83-17.4-8.6,7.16-8.64,13.48-16.01,19.05-22.28,7.16,3.56,14.39,7.15,21.56,10.67-4.09,4.16-8.18,7.75-11.95,10.08-2.9,1.79-6.78,5.38-11.25,10.13Zm22.98,13.51c-5.49,5.13-10.82,9.65-15.38,12.74-1.98,1.35-4.35,3.39-6.98,5.93-5.9-2.8-11.75-5.59-17.46-8.33,6.14-7.74,12.16-14.96,17.4-20.67,7.12,3.4,14.63,6.87,22.41,10.33Zm-42.76-23.32c-7.35-3.74-14.29-7.41-20.7-10.88,5.99-7.42,12.2-14.96,18.31-22.13,6.91,3.48,14.11,7.1,21.43,10.74-6.28,7.07-12.74,14.66-19.05,22.27Zm.67,3.27c5.4,2.74,11.17,5.6,17.25,8.54-5.31,5.81-11.3,13.03-17.38,20.69-5.82-2.8-11.48-5.52-16.87-8.14,5.34-6.76,11.11-13.92,16.99-21.08Zm.63,32.48c5.59,2.68,11.34,5.43,17.15,8.2-4.75,4.8-10.18,11-15.74,17.67-5.25-2.44-10.48-4.87-15.66-7.29,4.58-6.1,9.43-12.46,14.25-18.58Zm19.62,9.36c2.48,1.18,4.96,2.36,7.45,3.52,4.49,2.12,8.77,4.12,12.88,6.04-4.78,5.84-9.71,11.93-14.62,18.03-7.08-3.27-14.27-6.6-21.47-9.94,5.63-6.76,11.09-12.96,15.76-17.65Zm22.78,10.7c6.46,3,12.44,5.75,17.97,8.26-4.27,6.39-8.48,12.75-12.54,18.98-6.49-2.97-13.21-6.06-20.05-9.22,4.91-6.13,9.84-12.2,14.62-18.03Zm17.34-24.69c-5.49,6.32-11.65,13.65-18.07,21.47-4.42-2.06-9.05-4.22-13.93-6.52-2.04-.97-4.09-1.92-6.12-2.89,2.21-2.11,4.19-3.8,5.89-4.94,4.77-3.23,10.56-8.17,16.54-13.79,5.13,2.25,10.36,4.48,15.69,6.66Zm4.12-30.75c-6.09,6.72-13.29,14.28-20.34,21-7.84-3.46-15.42-6.95-22.6-10.38,4.04-4.25,7.53-7.46,10.14-9.07,4.16-2.57,8.64-6.55,13.08-11.11,6.69,3.27,13.3,6.49,19.71,9.57Zm-25.8-40.48c7.16,3.63,13.89,7.03,20.23,10.19-4.35,5.69-9.48,12.01-14.71,17.56-6.76-3.31-13.98-6.87-21.66-10.7,6.32-7.06,11.66-12.65,16.15-17.05Zm-24.39-12.44c7.73,3.95,15.07,7.7,22.01,11.23-5.05,4.99-10.52,10.79-16.13,17.06-6.81-3.39-13.97-6.98-21.48-10.77,5.37-6.26,10.65-12.2,15.61-17.52Zm-25.04-12.88c7.9,4.08,15.47,7.97,22.68,11.66-5.04,5.39-10.34,11.35-15.65,17.53-7.54-3.8-15.44-7.82-23.73-12.04,5.64-6.01,11.32-11.87,16.7-17.15Zm-37.21,39.69c5.8-6.55,12.18-13.63,18.66-20.57,7.26,3.69,15.31,7.78,23.86,12.1-6.21,7.28-12.41,14.82-18.25,22.07-9.45-5.13-17.66-9.78-24.27-13.6Zm7.73,38.75c5.25-6.79,11.08-14.23,17.19-21.82,6.4,3.46,13.34,7.12,20.67,10.88-5.94,7.2-11.71,14.37-17.03,21.12-7.63-3.71-14.67-7.15-20.83-10.17Zm7,32.15c4.16-5.41,9.12-11.82,14.57-18.72,5.37,2.62,11.04,5.34,16.87,8.16-4.84,6.14-9.7,12.5-14.25,18.6-5.84-2.72-11.58-5.41-17.19-8.04Zm17.16,39.18c-5.3-2.75-10.08-5.24-14.17-7.38,4.07-5.64,9.29-12.82,15.02-20.51,4.91,2.29,10.12,4.71,15.54,7.24-5.63,6.83-11.29,14.03-16.39,20.66Zm2.36,1.22c5.14-6.68,10.85-13.92,16.47-20.74,6.95,3.22,14.2,6.59,21.51,9.96-5.84,7.29-11.63,14.58-17.1,21.52-7.37-3.77-14.45-7.41-20.88-10.75Zm29.7,48.48c-6.99-3.9-13.77-7.76-19.6-11.06-1.65-.94-3.21-1.82-4.72-2.67,4.77-6.13,10.29-13.18,16.21-20.7,7.35,3.77,14.97,7.65,22.53,11.44-5.59,8.81-10.5,16.67-14.43,22.99Zm15.84-25.2c-7.46-3.76-15.01-7.58-22.3-11.31,5.5-6.98,11.32-14.3,17.19-21.61,1.58.73,3.14,1.45,4.72,2.19,5.54,2.55,10.72,4.94,15.57,7.15-5.39,8.26-10.5,16.23-15.17,23.59Zm19.73,9.82c-5.62-2.76-11.47-5.68-17.42-8.65,4.71-7.38,9.84-15.38,15.24-23.66,7.13,3.26,13.53,6.18,19.25,8.77-6.64,8.72-12.34,16.57-17.07,23.54Zm31.69-42.27c-4.66,5.84-8.99,11.36-12.99,16.6-6.13-2.78-12.66-5.75-19.44-8.85,4.07-6.23,8.27-12.61,12.56-19,8.05,3.65,15.12,6.78,21.32,9.45-.47.6-.95,1.19-1.44,1.79Zm23.38-28.47c-6.12,7.28-13.11,15.71-20.25,24.57-6.23-2.68-13.36-5.85-21.53-9.54.13-.2.27-.41.4-.6,5.68-8.44,10.94-16.13,15.84-23.12,8.48,3.13,17.03,6.07,25.55,8.69Z"/><g><ellipse class="cls-7" cx="209.74" cy="248.69" rx="21.72" ry="6.33"/><path class="cls-1" d="m222.8,188.13v58.47c0,1.81-1.42,3.26-3.19,3.26h-19.47c-1.19,0-2.22-.65-2.77-1.64-.22-.38-.36-.81-.41-1.27-.01-.12-.01-.24-.01-.35v-58.47c0-1.81,1.42-3.26,3.19-3.26h19.47c.47,0,.92.1,1.32.3.44.18.81.48,1.1.85.49.56.77,1.3.77,2.11Z"/><g><path class="cls-8" d="m196.94,205.06v1.34c13.25-2.02,21.48-6.98,25.86-10.5v-1.73c-3.98,3.36-12.22,8.77-25.86,10.89Z"/><path class="cls-8" d="m220.93,185.17c-4.45,3.3-12.21,7.58-23.98,9.41v1.34c12.5-1.9,20.55-6.44,25.09-9.9-.3-.37-.67-.67-1.1-.85Z"/><path class="cls-8" d="m196.94,216.87c13.25-2.02,21.48-6.98,25.86-10.5v-1.73c-3.98,3.36-12.22,8.77-25.86,10.89v1.34Z"/><path class="cls-8" d="m196.94,227.34c13.25-2.02,21.48-6.98,25.86-10.5v-1.73c-3.98,3.36-12.22,8.77-25.86,10.89v1.34Z"/><path class="cls-8" d="m196.94,237.81c13.25-2.02,21.48-6.98,25.86-10.5v-1.73c-3.98,3.36-12.22,8.77-25.86,10.89v1.34Z"/><path class="cls-8" d="m197.37,248.22c12.99-2.06,21.11-6.95,25.43-10.43v-1.73c-3.98,3.36-12.21,8.76-25.84,10.89.05.46.19.89.41,1.27Z"/></g><g><ellipse class="cls-7" cx="209.13" cy="183.31" rx="20.9" ry="7.1"/><ellipse class="cls-5" cx="209.03" cy="183" rx="12.36" ry="2.82"/></g></g><path class="cls-6" d="m164.81,260.59c-1.98.52-3.63.69-4.54.75.17.31.3.73.35,1.24.05.5.01.94-.09,1.35.83-.07,2.15-.21,3.74-.58.55-1.07.67-1.99.54-2.76Z"/><path class="cls-9" d="m160.52,263.93c.83-.07,2.15-.21,3.74-.58-.73,1.47-2.27,3.23-4.99,5.33l-79.11,25.06s-1.68-.62-.12-2.24c1.22-1.26,48.75-21.47,69.99-30.48.92-.39,1.8-.76,2.6-1.1,4.63-1.96,7.49-3.17,7.49-3.17,0,0,4.13.97,4.67,3.84-1.98.52-3.63.69-4.54.75-.85-1.57-2.85-1.1-3.54-.88-.14.05-.27.1-.4.16l-1.03.47-3.26,1.52-9.94,4.63c-.74.34-1.44.93-1.85,1.66-.54.99-.4,1.73-.06,2.24.47.72,1.44.94,2.45.62l14.16-4.46s3.09-.85,3.72-3.36Z"/><g><path class="cls-1" d="m152.65,259.92c-.81.34-1.68.71-2.6,1.1-.13-.16-.26-.33-.38-.5-1.98-2.72-1.87-6.72.31-11.87,2.57-6.09,5.45-9.3,8.58-9.54,3.17-.24,5.26,2.62,5.67,3.23.24.26,1.59,1.6,3.08,1.34,1.55-.26,3.05-2.16,4.33-5.47.27-.67,1.01-.99,1.67-.73.67.27.99,1.03.72,1.7-1.67,4.28-3.78,6.66-6.31,7.1-3.09.51-5.39-2.16-5.48-2.28l-.12-.14s-1.44-2.3-3.37-2.12c-2.04.17-4.32,3-6.43,7.96-1.78,4.24-1.99,7.36-.6,9.28.27.37.58.68.94.96Z"/><path class="cls-1" d="m205.72,242.13c-.19.69-.91,1.09-1.59.89-.19-.07-19.83-5.68-23.79,6.55-3.03,9.37-10.93,12.65-16.07,13.79-1.59.37-2.91.51-3.74.58-.45.04-.76.05-.9.05-.18.03-.65.07-1.32.07-1.55,0-4.1-.21-6.26-1.44l3.26-1.52c2.06.5,4.08.29,4.1.29h.14c.08-.01.32-.01.72-.04.91-.05,2.57-.22,4.54-.75,4.49-1.17,10.61-4.16,13.09-11.83,1.99-6.14,7.35-9.49,15.52-9.7,5.93-.16,11.2,1.39,11.43,1.45.68.2,1.06.93.87,1.62Z"/></g></svg>