<?xml version="1.0" encoding="UTF-8"?><svg id="Layer_1" xmlns="http://www.w3.org/2000/svg" width="380" height="425" viewBox="0 0 380 425"><defs><style>.cls-1{fill:#fac158;}.cls-2{fill:#0071bb;}.cls-3{fill:#b4bfc5;}.cls-4{fill:#cf7042;}.cls-5{fill:#a47d50;}.cls-6{fill:#c0272d;}.cls-7{fill:#c49d6a;}.cls-8{fill:#e1a55d;}.cls-9{fill:#95aa99;}.cls-10{fill:#5d718a;}</style></defs><path class="cls-3" d="m290.37,127.6c-.14.72-.3,1.59-.48,2.62-.18,1.01-.37,2.15-.6,3.43-1.19,6.87-2.96,17.53-5.1,30.06-.18,1.16-.39,2.33-.58,3.52-.64,3.76-1.31,7.66-2,11.66-.41,2.28-.81,4.59-1.2,6.92-.74,4.21-1.51,8.5-2.28,12.82-.21,1.19-.42,2.39-.64,3.58-2.74,15.06-5.63,30.26-8.45,43.42-.25,1.19-.5,2.37-.76,3.52-2.23,10.25-4.39,19.05-6.34,25.36-.58,1.86-.76,4.1-1.26,6.62v.02c-.21,1.12-.5,2.3-.9,3.52-2.59,7.77-10.22,17.44-39.1,26.79-1.59.51-3.26,1.03-4.99,1.54-9.72,2.89-21.57,5.75-36.05,8.48-.92.18-1.82.34-2.73.51-1.52.29-3.01.56-4.48.81-6.46,1.14-12.43,2.06-17.92,2.8-2.09.29-4.09.54-6.04.78-3.82.45-7.38.8-10.71,1.07-1.51.13-2.96.23-4.37.31-17.41,1.08-27.8-.4-34-2.66-3.54-1.28-5.72-2.84-7.03-4.34-.6-.67-1.03-1.34-1.33-1.97-.05-.11-.11-.22-.14-.33l-.44-3.31-.02-.05c-.04-.13-.19-.69-.46-1.59-.97-3.42-3.45-12.02-6.85-23.91-.44-1.55-.9-3.18-1.38-4.86-.76-2.69-1.58-5.53-2.41-8.48-.41-1.43-.81-2.87-1.24-4.36-2.27-8.04-4.75-16.83-7.33-26.03-.41-1.46-.81-2.95-1.24-4.45-.23-.85-.48-1.68-.71-2.55-.44-1.55-.87-3.11-1.31-4.7-2.27-8.12-4.57-16.45-6.85-24.78-.41-1.46-.8-2.91-1.2-4.37-1.27-4.66-2.55-9.33-3.79-13.92-.41-1.52-.81-3.04-1.22-4.54-1.79-6.63-3.52-13.12-5.17-19.39-.39-1.48-.78-2.95-1.15-4.39-1.61-6.16-3.13-12.07-4.53-17.61-.39-1.55-.76-3.07-1.13-4.57-2.69-10.83-4.8-19.97-6.07-26.48-.32-1.72-.6-3.24-.8-4.56-.25-1.54-.41-2.82-.46-3.8-.25-4.05-.3-8.93.14-14.33.09-1.28.23-2.6.39-3.96,1.31-10.68,4.62-22.88,11.93-34.25.64-1.01,1.31-2.01,2.04-3,6-8.39,14.36-16.2,25.87-22.4,1.27-.69,2.59-1.36,3.93-2.01,6.99-3.34,15.05-6.13,24.31-8.17,8.48-1.86,16.36-2.44,23.62-2.01,1.81.09,3.56.25,5.28.49,13.17,1.68,24.21,6.63,33.22,12.78,1.01.69,1.98,1.37,2.94,2.1,10.61,7.9,18.15,17.28,22.83,24.2.69,1.03,1.31,2.01,1.88,2.91,2.64,4.21,3.93,6.98,3.93,6.98,0,0,2.76,8.08,6.48,19.38.44,1.36.9,2.77,1.38,4.21.18.56.37,1.14.57,1.72.51,1.57,1.03,3.18,1.56,4.81,2.83,8.77,5.86,18.38,8.52,27.26.43,1.43.85,2.84,1.26,4.21.83,2.89,1.63,5.66,2.34,8.26.44,1.61.87,3.16,1.24,4.63.69,2.64,1.26,5.01,1.68,7.05.5,2.35.81,4.27.9,5.6.04.67.02,1.19-.07,1.57.16-.47.39-1.21.73-2.19.05-.16.11-.34.18-.54.69-2.06,1.72-5.01,2.99-8.48.39-1.08.83-2.24,1.27-3.43,3.12-8.19,7.37-18.47,12.17-27.64.57-1.07,1.13-2.13,1.7-3.16,6.76-12.18,14.45-21.56,21.51-19.9,11.33,2.68,19.83,9,24.14,17.79.55,1.12,1.03,2.28,1.42,3.49,1.82,5.31,2.23,11.33,1.01,17.88Z"/><path class="cls-2" d="m90.88,318.45c-.04-.05-.07-.11-.09-.16-.64-1.68-.41-2.96-.35-3.15l.44,3.31Z"/><path class="cls-4" d="m259.77,284.67c-2.59,7.77-10.22,17.44-39.1,26.79-1.59.51-3.26,1.03-4.99,1.54-9.72,2.89-21.57,5.75-36.05,8.48-.92.18-1.82.34-2.73.51-1.52.29-3.01.56-4.48.81-6.46,1.14-12.43,2.06-17.92,2.8-2.09.29-4.09.54-6.04.78-3.82.45-7.38.8-10.71,1.07-1.51.13-2.96.23-4.37.31-17.41,1.08-27.8-.4-34-2.66-3.54-1.28-5.72-2.84-7.03-4.34-.6-.67-1.03-1.34-1.33-1.97-.05-.11-.11-.22-.14-.33l.07.61c-6.66,2.89-26.53,12.27-34.95,24.17-2.53,3.56-5.01,6.56-7.19,9.22-6,7.28-11.17,13.57-5.91,20.9,5.4,7.52,11.7,11.32,18.77,11.32.87,0,1.74-.07,2.62-.18,9.1-1.16,20.42-12.33,25.18-34.67,2.9-13.67,9.44-16.38,12.36-16.92,11,3.07,34.12,4.27,82.61-5.55,67.09-13.57,75.19-29.52,75.86-31.22.67-1.7-.51-11.46-.51-11.46Zm-177.23,63.61c-4.27,20.05-13.78,28.36-19.14,29.03-5.54.7-10.23-1.9-14.79-8.24-1.68-2.33-.83-4.12,5.61-11.97,2.27-2.75,4.83-5.86,7.51-9.63,6.71-9.44,22.84-17.57,30.21-20.95l.02.14s.21.92,1.52,2.15c-4.23,2.98-8.64,8.68-10.94,19.47Z"/><path class="cls-10" d="m289.29,133.65c.23-1.28.42-2.42.6-3.43-3.84-1.59-8.36-3.54-13.56-5.87,4.91-5.84,9.23-10.66,13.03-14.62-.39-1.21-.87-2.37-1.42-3.49-4.5,4.57-9.47,10.12-14.93,16.61-8.59-3.9-18.82-8.75-30.72-14.5-.57,1.03-1.13,2.1-1.7,3.16,11.63,5.6,21.64,10.3,30.1,14.13-5.83,7.05-12.17,15.13-19,24.24-6.87-3.09-14.61-6.67-23.27-10.74-.44,1.19-.89,2.35-1.27,3.43,7.88,3.71,15.37,7.16,22.29,10.3-6.59,8.84-13.63,18.58-21.13,29.26-7.17-2.66-14.27-5.44-21.28-8.28,8.43-9.6,11.88-17.3,16.29-21.65.21-.22.42-.42.66-.61.07-.07.14-.14.21-.2l-.04-.34-.57-5.57c-.39.33-.78.7-1.17,1.12-4.82,5.06-10.15,15.83-18.91,25.83-7.22-2.96-14.34-5.98-21.32-9.04,9.7-9.27,19.6-19.61,28-28.88,3.58,1.72,7.1,3.4,10.55,5.04-.37-1.46-.8-3.02-1.24-4.63-2.2-1.05-4.46-2.13-6.78-3.24,1.54-1.74,3.03-3.42,4.44-5.02-.41-1.37-.83-2.78-1.26-4.21-2.05,2.37-4.3,4.9-6.69,7.57-8.36-4.01-17.39-8.39-27.13-13.14,7.24-7.75,14.27-16.45,20.19-24.24,1.74.87,3.44,1.72,5.12,2.55-.53-1.63-1.04-3.24-1.56-4.81-.44-.22-.9-.45-1.35-.67.27-.36.53-.7.78-1.05-.48-1.45-.94-2.86-1.38-4.21-.85,1.17-1.75,2.37-2.67,3.62-8.61-4.32-17.74-8.91-27.39-13.81,8.92-8.53,15.21-13.45,19.66-16.16-.57-.9-1.19-1.88-1.88-2.91-5.86,3.6-13.05,9.69-21.07,17.41-9.69-4.9-19.87-10.1-30.56-15.58,11.47-12.11,21.57-21.51,28.81-26.03-.96-.72-1.93-1.41-2.94-2.1-7.84,5.24-17.97,14.73-29.11,26.46-9.97-5.1-20.35-10.45-31.17-16.03,10.43-10.1,19.9-18.42,27.06-23.21-1.72-.23-3.47-.4-5.28-.49-7.28,5.3-15.97,13.03-25.2,21.94-7.35-3.8-14.89-7.7-22.63-11.71-.04-.02-.07-.04-.11-.05-1.35.65-2.66,1.32-3.93,2.01.8.42,1.59.83,2.43,1.27,7.38,3.81,14.54,7.54,21.53,11.13-7.56,7.43-15.41,15.54-23.06,23.71-8.64-4.41-17.57-8.97-26.77-13.72-.73.99-1.4,1.99-2.04,3,7.1,3.65,16.04,8.22,26.26,13.45-9.15,9.85-17.96,19.67-25.55,28.27-5.06-2.95-9.31-5.46-12.64-7.47-.16,1.36-.3,2.68-.39,3.96,2.94,1.77,6.5,3.87,10.61,6.27-3.82,4.37-7.3,8.39-10.29,11.86.19,1.32.48,2.84.8,4.56,3.82-4.45,8.09-9.36,12.68-14.57,9.1,5.28,20.51,11.75,33.63,18.89-8.82,11.01-16.98,21.44-23.78,30.26-6.3-3.09-11.85-5.84-16.45-8.1.37,1.5.74,3.02,1.13,4.57,3.84,1.9,8.22,4.05,13.07,6.43-3.22,4.19-6.09,7.95-8.54,11.17.37,1.45.76,2.91,1.15,4.39,3.24-4.28,6.82-8.98,10.64-13.95,8.46,4.16,18.17,8.91,28.72,14.03-7.56,9.58-14.41,18.44-20.13,25.9-4.78-2.24-9.47-4.43-14.06-6.58.41,1.5.81,3.02,1.22,4.54,2.97,1.39,6.53,3.07,10.61,4.97-2.55,3.33-4.83,6.34-6.82,8.95.41,1.46.8,2.91,1.2,4.37,2.41-3.2,5.44-7.18,8.94-11.77,6.85,3.2,14.89,6.96,23.76,11.1-7.9,10.61-15.05,20.46-20.61,28.2-1.89-.99-3.65-1.92-5.24-2.75.44,1.59.87,3.15,1.31,4.7.6.33,1.2.65,1.84.98-.39.54-.76,1.07-1.13,1.57.42,1.5.83,2.98,1.24,4.45.96-1.34,1.98-2.78,3.1-4.34,5.52,2.89,12.13,6.33,19.46,10.14-5.91,7.72-11.17,14.75-15.23,20.23.42,1.48.83,2.93,1.24,4.36,4.3-5.84,10.34-13.9,17.23-22.9,8.8,4.57,18.56,9.62,28.77,14.86-8.15,10.34-15.74,20.05-22.28,28.45-8.89-5.03-15.85-8.93-21.32-11.93.48,1.68.94,3.31,1.38,4.86,5.4,2.98,11.46,6.4,17.71,9.94-4.13,5.3-7.79,10.03-10.85,13.97.27.9.43,1.46.46,1.59l.02.05c-.05.18-.28,1.46.35,3.15,3.47-4.48,7.95-10.27,13.17-16.97,2.34,1.32,4.67,2.64,7.03,3.98,9.47,5.39,18.47,10.47,26.88,15.17-1.66,2.68-3.17,5.1-4.5,7.28,1.42-.07,2.87-.18,4.37-.31.99-1.63,2.07-3.36,3.22-5.22,2.55,1.43,5.05,2.82,7.49,4.16,1.95-.23,3.95-.49,6.04-.78-3.84-2.11-7.74-4.28-11.62-6.43,5.45-8.78,12.27-19.68,20.01-31.89,8.15,4.09,16.2,8.1,23.94,11.89-6.04,9.02-10.85,16.9-14.41,23.62,1.47-.25,2.96-.52,4.48-.81,3.56-6.4,8.04-13.57,13.19-21.22,9.15,4.48,17.81,8.62,25.59,12.24,1.74-.51,3.4-1.03,4.99-1.54-8.39-3.9-18.11-8.59-28.56-13.7,7.05-10.3,15.16-21.37,23.67-32.57,20.52,9.27,34.48,15.44,43.99,19.49.41-1.23.69-2.4.9-3.52v-.02c-10.78-4.61-25.5-11.15-42.62-18.89,6.55-8.55,13.32-17.12,19.99-25.43,12.63,5.4,22.49,9.4,30.23,12.35.27-1.16.51-2.33.76-3.52-7.37-2.82-16.75-6.63-28.65-11.73,10.04-12.45,19.8-24.2,28.26-34.27,2.96.89,5.9,1.75,8.84,2.58.21-1.19.42-2.39.64-3.58-2.32-.65-4.62-1.32-6.94-2.01,3.31-3.92,6.41-7.56,9.23-10.81.39-2.33.8-4.65,1.2-6.92-3.98,4.63-8.8,10.25-14.17,16.59-11.88-3.62-23.83-7.7-35.68-12.06,7.67-10.9,14.64-20.55,20.98-29.07,12.68,5.68,23.3,10.16,30.86,12.87.19-1.19.41-2.37.58-3.52-6.52-2.44-16.13-6.49-29.2-12.35,7.12-9.47,13.42-17.48,19-24.24,5.91,2.64,11.01,4.83,15.3,6.53Zm-84.77,43.09c7.14,2.89,14.38,5.73,21.66,8.46-6.76,9.67-13.87,20.05-21.34,31.16-.32.47-.62.92-.92,1.39-7.53-3.42-15.67-7.16-24.47-11.24,8.96-10.9,17.51-21.08,25.07-29.77Zm-60.47-30.87c-8.46-4.07-16.5-8.04-24.03-11.88,9.88-11.93,18.61-22.11,26.3-30.76,9.88,4.92,19.87,9.87,29.77,14.73-5.65,5.75-11.3,10.7-16.5,13.92-4,2.48-9.37,7.43-15.53,13.99Zm31.73,18.65c-7.58,7.09-14.95,13.32-21.23,17.59-2.73,1.86-6,4.68-9.63,8.19-8.15-3.87-16.22-7.72-24.1-11.5,8.48-10.68,16.79-20.66,24.03-28.54,9.83,4.7,20.2,9.49,30.94,14.26Zm-59.04-32.19c-10.15-5.17-19.73-10.23-28.58-15.02,8.27-10.25,16.84-20.66,25.29-30.55,9.54,4.81,19.48,9.8,29.59,14.82-8.68,9.76-17.58,20.24-26.3,30.75Zm.92,4.52c7.45,3.78,15.42,7.74,23.82,11.79-7.33,8.03-15.6,17.99-23.99,28.56-8.04-3.87-15.85-7.63-23.29-11.24,7.37-9.33,15.33-19.21,23.46-29.1Zm.87,44.85c7.72,3.71,15.65,7.5,23.67,11.32-6.55,6.63-14.06,15.18-21.73,24.4-7.24-3.36-14.47-6.72-21.62-10.07,6.32-8.42,13.01-17.21,19.67-25.65Zm27.09,12.92c3.42,1.63,6.85,3.25,10.29,4.86,6.2,2.93,12.11,5.69,17.78,8.33-6.6,8.06-13.4,16.47-20.19,24.89-9.77-4.52-19.71-9.11-29.64-13.72,7.77-9.33,15.32-17.89,21.76-24.37Zm31.45,14.77c8.92,4.14,17.18,7.94,24.81,11.41-5.9,8.82-11.7,17.61-17.32,26.21-8.96-4.1-18.24-8.37-27.68-12.73,6.78-8.46,13.58-16.85,20.19-24.89Zm23.94-34.09c-7.58,8.73-16.08,18.85-24.95,29.64-6.11-2.84-12.5-5.82-19.23-9-2.82-1.34-5.65-2.66-8.45-3.99,3.05-2.91,5.79-5.24,8.13-6.81,6.59-4.46,14.57-11.28,22.84-19.03,7.08,3.11,14.31,6.18,21.66,9.2Zm5.68-42.46c-8.41,9.27-18.35,19.72-28.08,28.99-10.82-4.77-21.28-9.6-31.2-14.33,5.58-5.87,10.39-10.3,14.01-12.53,5.74-3.54,11.93-9.04,18.06-15.35,9.24,4.52,18.36,8.97,27.22,13.21Zm-35.63-55.89c9.88,5.01,19.18,9.71,27.92,14.06-6,7.86-13.09,16.58-20.31,24.24-9.33-4.57-19.3-9.49-29.91-14.77,8.73-9.74,16.1-17.46,22.29-23.53Zm-33.68-17.17c10.68,5.46,20.81,10.63,30.39,15.51-6.98,6.89-14.52,14.89-22.28,23.55-9.4-4.68-19.28-9.63-29.66-14.88,7.42-8.64,14.7-16.85,21.55-24.18Zm-34.57-17.79c10.91,5.64,21.36,11.01,31.31,16.11-6.96,7.45-14.27,15.67-21.6,24.2-10.41-5.24-21.32-10.79-32.76-16.63,7.79-8.3,15.64-16.39,23.06-23.68Zm-51.37,54.8c8-9.04,16.82-18.82,25.76-28.4,10.02,5.1,21.14,10.74,32.94,16.7-8.57,10.05-17.14,20.46-25.2,30.48-13.05-7.09-24.38-13.5-33.5-18.78Zm10.68,53.5c7.24-9.38,15.3-19.65,23.73-30.13,8.84,4.77,18.42,9.83,28.54,15.02-8.2,9.94-16.17,19.85-23.52,29.16-10.54-5.12-20.26-9.87-28.76-14.04Zm9.67,44.39c5.74-7.47,12.59-16.32,20.12-25.85,7.42,3.62,15.25,7.37,23.29,11.26-6.68,8.48-13.39,17.26-19.67,25.69-8.06-3.76-15.99-7.47-23.73-11.1Zm23.69,54.1c-7.31-3.8-13.92-7.23-19.57-10.19,5.61-7.79,12.82-17.7,20.74-28.32,6.78,3.16,13.97,6.51,21.46,10-7.77,9.44-15.58,19.38-22.63,28.52Zm3.26,1.68c7.1-9.22,14.98-19.21,22.74-28.63,9.6,4.45,19.6,9.09,29.7,13.76-8.06,10.07-16.06,20.14-23.6,29.72-10.18-5.21-19.96-10.23-28.83-14.84Zm41.01,66.93c-9.65-5.39-19.02-10.72-27.06-15.27-2.28-1.3-4.43-2.51-6.52-3.69,6.59-8.46,14.2-18.2,22.38-28.58,10.15,5.21,20.66,10.56,31.11,15.8-7.72,12.16-14.5,23.01-19.92,31.74Zm21.87-34.8c-10.31-5.19-20.72-10.47-30.79-15.62,7.6-9.63,15.64-19.74,23.73-29.84,2.18,1.01,4.34,2.01,6.52,3.02,7.65,3.52,14.8,6.81,21.5,9.87-7.44,11.41-14.5,22.41-20.95,32.57Zm27.23,13.56c-7.76-3.81-15.83-7.84-24.05-11.95,6.5-10.19,13.58-21.24,21.04-32.66,9.85,4.5,18.68,8.53,26.58,12.11-9.17,12.04-17.03,22.88-23.57,32.5Zm43.76-58.37c-6.43,8.06-12.41,15.69-17.94,22.92-8.46-3.83-17.48-7.94-26.84-12.22,5.61-8.6,11.42-17.41,17.34-26.23,11.12,5.04,20.88,9.36,29.43,13.05-.66.83-1.31,1.64-1.98,2.48Zm32.28-39.31c-8.45,10.05-18.1,21.69-27.96,33.93-8.61-3.71-18.45-8.08-29.73-13.18.18-.27.37-.56.55-.83,7.84-11.66,15.1-22.27,21.87-31.92,11.7,4.32,23.52,8.39,35.27,12Z"/><g><ellipse class="cls-7" cx="315.1" cy="347.31" rx="29.99" ry="8.75"/><path class="cls-1" d="m333.13,263.7v80.72c0,2.49-1.97,4.5-4.41,4.5h-26.88c-1.65,0-3.06-.9-3.83-2.26-.3-.52-.5-1.12-.57-1.75-.02-.16-.02-.33-.02-.49v-80.72c0-2.49,1.97-4.5,4.41-4.5h26.88c.66,0,1.27.14,1.82.42.6.25,1.12.67,1.52,1.17.67.78,1.06,1.79,1.06,2.91Z"/><g><path class="cls-8" d="m297.43,287.07v1.84c18.29-2.78,29.66-9.63,35.7-14.5v-2.39c-5.49,4.65-16.88,12.11-35.7,15.04Z"/><path class="cls-8" d="m330.54,259.61c-6.14,4.55-16.86,10.47-33.11,13v1.84c17.26-2.62,28.37-8.89,34.64-13.67-.41-.51-.92-.92-1.52-1.17Z"/><path class="cls-8" d="m297.43,303.37c18.29-2.78,29.66-9.63,35.7-14.5v-2.39c-5.49,4.65-16.88,12.11-35.7,15.04v1.84Z"/><path class="cls-8" d="m297.43,317.83c18.29-2.78,29.66-9.63,35.7-14.5v-2.39c-5.49,4.65-16.88,12.11-35.7,15.04v1.84Z"/><path class="cls-8" d="m297.43,332.29c18.29-2.78,29.66-9.63,35.7-14.5v-2.39c-5.49,4.65-16.88,12.11-35.7,15.04v1.84Z"/><path class="cls-8" d="m298.01,346.66c17.94-2.84,29.15-9.6,35.11-14.41v-2.39c-5.49,4.65-16.86,12.09-35.68,15.04.07.63.27,1.23.57,1.75Z"/></g><g><ellipse class="cls-7" cx="314.26" cy="257.04" rx="28.85" ry="9.8"/><ellipse class="cls-5" cx="314.12" cy="256.62" rx="17.07" ry="3.9"/></g></g><path class="cls-6" d="m253.06,363.73c-2.73.72-5.01.96-6.27,1.03.23.43.41,1.01.48,1.72.07.69.02,1.3-.12,1.86,1.15-.09,2.97-.29,5.17-.8.76-1.48.92-2.75.74-3.81Z"/><path class="cls-9" d="m247.15,368.34c1.15-.09,2.97-.29,5.17-.8-1.01,2.02-3.13,4.46-6.89,7.36l-109.22,34.6s-2.32-.85-.16-3.09c1.68-1.74,67.31-29.64,96.63-42.08,1.27-.54,2.48-1.05,3.59-1.52,6.39-2.71,10.34-4.37,10.34-4.37,0,0,5.7,1.34,6.45,5.3-2.73.72-5.01.96-6.27,1.03-1.17-2.17-3.93-1.52-4.89-1.21-.19.07-.37.14-.55.22l-1.42.65-4.5,2.1-13.72,6.4c-1.03.47-1.98,1.28-2.55,2.3-.74,1.37-.55,2.39-.09,3.09.66.99,1.98,1.3,3.38.85l19.55-6.16s4.27-1.17,5.14-4.65Z"/><g><path class="cls-1" d="m236.27,362.81c-1.12.47-2.32.98-3.59,1.52-.18-.22-.35-.45-.53-.69-2.73-3.76-2.59-9.27.42-16.39,3.54-8.4,7.53-12.83,11.85-13.18,4.37-.33,7.26,3.62,7.83,4.46.34.36,2.2,2.21,4.25,1.84,2.14-.36,4.21-2.98,5.99-7.56.37-.92,1.4-1.37,2.3-1.01.92.38,1.36,1.43.99,2.35-2.3,5.91-5.22,9.2-8.71,9.8-4.27.7-7.44-2.98-7.56-3.15l-.16-.2s-1.98-3.18-4.66-2.93c-2.82.23-5.97,4.14-8.87,10.99-2.46,5.86-2.74,10.16-.83,12.82.37.51.8.94,1.29,1.32Z"/><path class="cls-1" d="m309.55,338.25c-.27.96-1.26,1.5-2.2,1.23-.27-.09-27.38-7.84-32.85,9.04-4.18,12.94-15.09,17.46-22.19,19.03-2.2.51-4.02.7-5.17.8-.62.05-1.04.07-1.24.07-.25.04-.9.09-1.82.09-2.14,0-5.67-.29-8.64-1.99l4.5-2.1c2.85.69,5.63.4,5.67.4l.19-.02c.11,0,.44,0,.99-.04,1.26-.07,3.54-.31,6.27-1.03,6.2-1.61,14.64-5.75,18.08-16.34,2.74-8.48,10.15-13.1,21.43-13.39,8.18-.22,15.46,1.92,15.78,2.01.94.27,1.47,1.28,1.2,2.24Z"/></g></svg>