<svg xmlns="http://www.w3.org/2000/svg" width="610.716" height="351.082" viewBox="0 0 610.716 351.082">
  <g id="Group_85" data-name="Group 85" transform="translate(-312.205 -13.195)">
    <path id="Path_428" data-name="Path 428" d="M615.284,84.283c49.272,81.885-48.935,259.006-156.362,254.461-72.233-3.058-158.323-88.657-140.87-182.2,15.931-85.381,108.6-126.322,178.841-124.759C511.914,32.119,586.071,35.737,615.284,84.283Z" transform="translate(4.179 25.447)" fill="#dfb7b0"/>
    <path id="Path_429" data-name="Path 429" d="M600.138,76.03c51.392,79.183-36.667,258.942-141.368,258.883-70.4-.04-157.771-81.382-144.743-174.892,11.893-85.353,100.32-129.8,168.717-131.159C497.37,28.571,569.667,29.086,600.138,76.03Z" transform="translate(0 21.45)" fill="none" stroke="#859986" stroke-miterlimit="10" stroke-width="1"/>
    <path id="Path_430" data-name="Path 430" d="M433.133,82.615C383.862,164.5,482.066,341.621,589.492,337.076c72.233-3.058,158.326-88.657,140.872-182.2C714.434,69.495,621.759,28.554,551.521,30.117,536.5,30.451,462.345,34.069,433.133,82.615Z" transform="translate(147.256 23.158)" fill="#859986"/>
    <path id="Path_431" data-name="Path 431" d="M442.44,74.362C391.046,153.545,479.1,333.3,583.808,333.245c70.4-.04,157.771-81.382,144.741-174.892C716.658,73,628.229,28.552,559.832,27.195,545.206,26.9,472.909,27.418,442.44,74.362Z" transform="translate(157.273 19.161)" fill="none" stroke="#dfb7b0" stroke-miterlimit="10" stroke-width="1"/>
    <text id="Omhyggeligt" transform="translate(468.303 161.598)" fill="#fff" font-size="75" font-family="BebasNeue-Regular, Bebas Neue"><tspan x="0.451" y="67">Omhyggeligt</tspan></text>
    <g id="Group_84" data-name="Group 84" transform="translate(732.207 13.195)">
      <g id="Group_83" data-name="Group 83">
        <path id="Path_432" data-name="Path 432" d="M502,14.018a10.154,10.154,0,0,1,4.464,1.392,9.164,9.164,0,0,1,3.027,3.012,12.325,12.325,0,0,1,1.6,4.165,17.1,17.1,0,0,1,.221,4.791,16.151,16.151,0,0,1-1.743,6.11,10.4,10.4,0,0,1-3.885,4.18,9.625,9.625,0,0,1-5.966,1.148L490.862,38a1.345,1.345,0,0,1-.973-.517,1.435,1.435,0,0,1-.311-1.065l2.016-21.932a1.4,1.4,0,0,1,1.549-1.286Zm-2.384,22a7.153,7.153,0,0,0,4.568-.9,7.565,7.565,0,0,0,2.839-3.276,14.145,14.145,0,0,0,1.241-4.744,15.046,15.046,0,0,0-.1-3.707,9.466,9.466,0,0,0-1.1-3.228,6.764,6.764,0,0,0-2.213-2.348,7.469,7.469,0,0,0-3.454-1.1l-7.263-.669.308-.256-1.836,19.946-.178-.372Z" transform="translate(-489.571 -13.195)" fill="#859986"/>
        <path id="Path_433" data-name="Path 433" d="M503.629,37.842a1.418,1.418,0,0,1-.6.935,1.348,1.348,0,0,1-1.075.23,1.332,1.332,0,0,1-.932-.614,1.476,1.476,0,0,1-.192-1.086l2.97-15.515a1.422,1.422,0,1,1,2.794.534Zm2.289-19.524a2.024,2.024,0,0,1-1.226-.6,1.348,1.348,0,0,1-.211-1.162l.093-.491a1.3,1.3,0,0,1,.662-.994,2.116,2.116,0,0,1,1.359-.1,1.943,1.943,0,0,1,1.191.588A1.362,1.362,0,0,1,508,16.724l-.095.489a1.332,1.332,0,0,1-.643,1A2.056,2.056,0,0,1,505.918,18.318Z" transform="translate(-474.157 -10.841)" fill="#859986"/>
        <path id="Path_434" data-name="Path 434" d="M518.438,20.081a6.422,6.422,0,0,1,3.406,1.974,5.41,5.41,0,0,1,1.193,3.1,11.242,11.242,0,0,1-.429,3.757l-2.659,9.638a1.447,1.447,0,0,1-.669.885,1.417,1.417,0,0,1-1.955-.538,1.429,1.429,0,0,1-.121-1.1l2.64-9.571a6.8,6.8,0,0,0,.254-2.457,3.641,3.641,0,0,0-.837-2.04,4.44,4.44,0,0,0-2.313-1.321,5.768,5.768,0,0,0-2.816-.095,5.463,5.463,0,0,0-2.384,1.153,4.173,4.173,0,0,0-1.369,2.149l-2.64,9.569a1.435,1.435,0,0,1-.671.885,1.411,1.411,0,0,1-1.955-.538,1.438,1.438,0,0,1-.121-1.1l4.13-14.953a1.446,1.446,0,0,1,2.635-.325,1.406,1.406,0,0,1,.107,1.082l-.671,2.436-.894.565a5.043,5.043,0,0,1,1.286-1.585,7.484,7.484,0,0,1,1.993-1.2,8.252,8.252,0,0,1,2.374-.581A6.9,6.9,0,0,1,518.438,20.081Z" transform="translate(-468.49 -6.033)" fill="#859986"/>
        <path id="Path_435" data-name="Path 435" d="M519.694,44.458a1.326,1.326,0,0,1-.755-.821,1.459,1.459,0,0,1,.078-1.1l9.853-21.275a1.421,1.421,0,0,1,.783-.757,1.431,1.431,0,0,1,1.8,1.952L521.6,43.735a1.454,1.454,0,0,1-.806.764A1.351,1.351,0,0,1,519.694,44.458Zm18.5-11.822a1.284,1.284,0,0,1,.7.816,1.25,1.25,0,0,1-.975,1.724l-14.692,4.291,1.293-3.048,12.591-3.814A1.374,1.374,0,0,1,538.191,32.636Zm-7.408,16.922a1.47,1.47,0,0,1-.773-.871l-3.482-10.513,2.759-.878,3.432,10.451a1.535,1.535,0,0,1-.059,1.148,1.208,1.208,0,0,1-.88.712A1.6,1.6,0,0,1,530.783,49.558Z" transform="translate(-449.377 -3.287)" fill="#859986"/>
        <path id="Path_436" data-name="Path 436" d="M527.546,43.8a1.354,1.354,0,0,1-.659-.88,1.437,1.437,0,0,1,.168-1.1l7.837-13.388a1.393,1.393,0,0,1,1.947-.51,1.361,1.361,0,0,1,.683.873,1.4,1.4,0,0,1-.173,1.072l-2.372,4.054.007-.859a7.761,7.761,0,0,1,1.748-1.473,7.539,7.539,0,0,1,2.166-.918,6.485,6.485,0,0,1,2.353-.147,6,6,0,0,1,2.332.809,2.875,2.875,0,0,1,1.056,1.051,1.16,1.16,0,0,1,.038,1.238,1.434,1.434,0,0,1-.9.754,1.283,1.283,0,0,1-.949-.142,2.1,2.1,0,0,1-.667-.619,2.556,2.556,0,0,0-.823-.707,3.583,3.583,0,0,0-1.762-.477,5.515,5.515,0,0,0-2.073.375,7.457,7.457,0,0,0-2.028,1.141,6.426,6.426,0,0,0-1.6,1.848l-4.367,7.462a1.448,1.448,0,0,1-.875.683A1.352,1.352,0,0,1,527.546,43.8Z" transform="translate(-438.431 6.732)" fill="#859986"/>
        <path id="Path_437" data-name="Path 437" d="M537.337,49.934a9.924,9.924,0,0,1-3.309-3.914,8.628,8.628,0,0,1-.728-4.647,9.825,9.825,0,0,1,1.921-4.656,10.619,10.619,0,0,1,4.106-3.544,8.71,8.71,0,0,1,4.559-.816,8.163,8.163,0,0,1,4.059,1.53,8.551,8.551,0,0,1,2.2,2.358,8,8,0,0,1,1.146,3.015,8.823,8.823,0,0,1-.111,3.354,9.322,9.322,0,0,1-1.525,3.359,1.248,1.248,0,0,1-.911.522,1.423,1.423,0,0,1-1.037-.27l-11.353-8.283.93-2.36,11.066,8.074-.754.066.463-.633a4.678,4.678,0,0,0,.688-2.6,5.786,5.786,0,0,0-2.374-4.443,6.254,6.254,0,0,0-1.931-.944,5.016,5.016,0,0,0-2.237-.135,6.189,6.189,0,0,0-2.36.942,8.661,8.661,0,0,0-2.284,2.253,7.579,7.579,0,0,0-1.464,3.425,6.316,6.316,0,0,0,.425,3.373,6.6,6.6,0,0,0,2.282,2.787,6.7,6.7,0,0,0,1.943,1.02,6.276,6.276,0,0,0,1.765.3,7.467,7.467,0,0,0,1.5-.119,1.574,1.574,0,0,1,.908.266,1.159,1.159,0,0,1,.5.8,1.192,1.192,0,0,1-.233.887,1.353,1.353,0,0,1-1.089.529,8.825,8.825,0,0,1-3.325-.028A8.134,8.134,0,0,1,537.337,49.934Z" transform="translate(-429.659 13.041)" fill="#859986"/>
        <path id="Path_438" data-name="Path 438" d="M561.842,46.48a1.4,1.4,0,0,1,.036,2.014l-10.9,11.284a1.424,1.424,0,0,1-1.01.458,1.34,1.34,0,0,1-1.025-.4,1.324,1.324,0,0,1-.446-1.025,1.462,1.462,0,0,1,.437-1.013l2.346-2.431.538.417a3.474,3.474,0,0,1-1.57.859,6.832,6.832,0,0,1-2.251.228,7.884,7.884,0,0,1-2.488-.574,7.142,7.142,0,0,1-2.315-1.518,7.72,7.72,0,0,1-2.244-3.926,8.881,8.881,0,0,1,.2-4.583,11.5,11.5,0,0,1,6.884-7.128,8.67,8.67,0,0,1,4.535-.318,7.758,7.758,0,0,1,3.923,2.083,7.962,7.962,0,0,1,1.7,2.336,7.531,7.531,0,0,1,.712,2.567,6.7,6.7,0,0,1-.211,2.419,4.331,4.331,0,0,1-1.034,1.867l-.519-.795,2.7-2.789a1.4,1.4,0,0,1,.984-.458A1.36,1.36,0,0,1,561.842,46.48Zm-16.592,6.63a5.51,5.51,0,0,0,2.908,1.523,6.216,6.216,0,0,0,3.276-.323,8.118,8.118,0,0,0,3.036-2.04,8.032,8.032,0,0,0,1.91-3.077,6.084,6.084,0,0,0,.194-3.276,5.9,5.9,0,0,0-4.49-4.365,6.126,6.126,0,0,0-3.254.27,7.964,7.964,0,0,0-3.06,2.04,8.169,8.169,0,0,0-1.936,3.1,6.242,6.242,0,0,0-.206,3.288A5.511,5.511,0,0,0,545.249,53.11Z" transform="translate(-419.373 21.745)" fill="#859986"/>
        <path id="Path_439" data-name="Path 439" d="M568,49.888a7.772,7.772,0,0,1,1.3,2.586,8.151,8.151,0,0,1,.313,2.635,7.253,7.253,0,0,1-.444,2.251,3.216,3.216,0,0,1-1.006,1.445l-.064-.8,2.474-1.86a1.388,1.388,0,0,1,1.046-.3,1.34,1.34,0,0,1,.944.579,1.368,1.368,0,0,1,.285,1.056,1.389,1.389,0,0,1-.565.937l-12.455,9.365a8.824,8.824,0,0,1-4.6,1.928,7.7,7.7,0,0,1-4.284-.9,10.965,10.965,0,0,1-4.73-5.166,14.378,14.378,0,0,1-.816-2.237,2.879,2.879,0,0,1-.1-1.528,1.5,1.5,0,0,1,.247-1.008.936.936,0,0,1,.764-.375.966.966,0,0,1,.9.37,3.6,3.6,0,0,1,.524,1.231c.071.213.18.553.323,1.022a13.185,13.185,0,0,0,.588,1.52,7.859,7.859,0,0,0,.88,1.5,6.373,6.373,0,0,0,4.056,2.759,5.584,5.584,0,0,0,4.315-1.219l2.645-1.99.093.422a4.578,4.578,0,0,1-2,.415,7.3,7.3,0,0,1-2.173-.37,7.9,7.9,0,0,1-2.076-1.046,7.361,7.361,0,0,1-1.687-1.622,8.265,8.265,0,0,1-1.7-4.331,8.812,8.812,0,0,1,.835-4.569,11.241,11.241,0,0,1,7.934-5.968,8.756,8.756,0,0,1,4.6.46A8.228,8.228,0,0,1,568,49.888Zm-1.891,1.867a5.979,5.979,0,0,0-2.683-2.057,6.167,6.167,0,0,0-3.323-.306,8.346,8.346,0,0,0-5.7,4.289,6.263,6.263,0,0,0-.657,3.3,5.86,5.86,0,0,0,1.217,3.157,5.938,5.938,0,0,0,2.692,2.071,6.342,6.342,0,0,0,3.323.306,7.649,7.649,0,0,0,3.366-1.5,7.745,7.745,0,0,0,2.408-2.837,6.254,6.254,0,0,0,.614-3.266A6.063,6.063,0,0,0,566.108,51.755Z" transform="translate(-413.216 32.509)" fill="#859986"/>
        <path id="Path_440" data-name="Path 440" d="M573.7,66.551a1.369,1.369,0,0,1,.114,1.105,1.413,1.413,0,0,1-.721.816l-8.618,4.476a7.455,7.455,0,0,1-5.868.785,7.665,7.665,0,0,1-4.336-4.063,7.6,7.6,0,0,1-.813-5.852,7.451,7.451,0,0,1,4.016-4.35l8.618-4.478a1.448,1.448,0,0,1,2.033,1.71,1.422,1.422,0,0,1-.721.816l-8.62,4.476a4.977,4.977,0,0,0-2.678,2.8,5.58,5.58,0,0,0,3.243,6.236,5.024,5.024,0,0,0,3.817-.6l8.62-4.481a1.394,1.394,0,0,1,1.917.607Z" transform="translate(-402.291 43.912)" fill="#859986"/>
        <path id="Path_441" data-name="Path 441" d="M558.394,73.633a1.419,1.419,0,0,1-1.11-.021,1.438,1.438,0,0,1-.716-1.914,1.468,1.468,0,0,1,.828-.728l14.8-5.539a1.424,1.424,0,1,1,1,2.666Zm17.864-8.2a2.023,2.023,0,0,1-.128-1.359,1.345,1.345,0,0,1,.882-.785l.465-.173a1.292,1.292,0,0,1,1.2.045,2.1,2.1,0,0,1,.795,1.108,1.958,1.958,0,0,1,.116,1.324,1.35,1.35,0,0,1-.882.785l-.467.178a1.33,1.33,0,0,1-1.188-.031A2.017,2.017,0,0,1,576.258,65.43Z" transform="translate(-397.843 55.126)" fill="#859986"/>
        <path id="Path_442" data-name="Path 442" d="M586.123,81.059a1.369,1.369,0,0,1-.164,1.079,1.382,1.382,0,0,1-.892.631l-22.821,5.392a1.444,1.444,0,0,1-1.1-.164,1.442,1.442,0,0,1-.47-1.992,1.476,1.476,0,0,1,.916-.614l3.288-.778.4.6a3.693,3.693,0,0,1-1.872-.107,6.945,6.945,0,0,1-2.049-1.018,7.925,7.925,0,0,1-1.819-1.819,6.922,6.922,0,0,1-1.143-2.524,7.824,7.824,0,0,1,.218-4.495,8.753,8.753,0,0,1,2.619-3.764,11.58,11.58,0,0,1,9.663-2.282,8.66,8.66,0,0,1,4.006,2.18,7.763,7.763,0,0,1,2.175,3.874,7.875,7.875,0,0,1,.161,2.851,7.465,7.465,0,0,1-.79,2.545,6.987,6.987,0,0,1-1.478,1.938,4.236,4.236,0,0,1-1.879,1.029l0-.951L584.413,80a1.407,1.407,0,0,1,1.077.149A1.352,1.352,0,0,1,586.123,81.059Zm-25.091-1.606a5.6,5.6,0,0,0,1.606,2.856,6.136,6.136,0,0,0,2.917,1.506,8.139,8.139,0,0,0,3.655-.081,8.047,8.047,0,0,0,3.321-1.57,6.139,6.139,0,0,0,1.917-2.645,5.6,5.6,0,0,0,.159-3.273,5.523,5.523,0,0,0-1.6-2.82,6.244,6.244,0,0,0-2.9-1.528,8.529,8.529,0,0,0-6.943,1.641,6.343,6.343,0,0,0-1.947,2.671A5.418,5.418,0,0,0,561.032,79.453Z" transform="translate(-395.454 63.267)" fill="#859986"/>
        <path id="Path_443" data-name="Path 443" d="M559.777,89.4a9.912,9.912,0,0,1,.882-5.048,8.637,8.637,0,0,1,3.1-3.539,9.774,9.774,0,0,1,4.8-1.506,10.612,10.612,0,0,1,5.351.878,8.7,8.7,0,0,1,3.549,2.977,8.172,8.172,0,0,1,1.428,4.1,8.633,8.633,0,0,1-.4,3.2,8.069,8.069,0,0,1-1.582,2.811,8.794,8.794,0,0,1-2.647,2.064,9.286,9.286,0,0,1-3.553.984,1.255,1.255,0,0,1-.987-.365,1.429,1.429,0,0,1-.456-.968l-.92-14.023,2.408-.8.9,13.67-.534-.538.78-.05a4.667,4.667,0,0,0,2.441-1.141,5.775,5.775,0,0,0,1.886-4.671,6.278,6.278,0,0,0-.51-2.085,5.061,5.061,0,0,0-1.333-1.805,6.18,6.18,0,0,0-2.234-1.207,8.667,8.667,0,0,0-3.2-.308,7.6,7.6,0,0,0-3.567,1.072,6.3,6.3,0,0,0-2.313,2.486,7.28,7.28,0,0,0-.216,5.686,6.217,6.217,0,0,0,.9,1.544,7.411,7.411,0,0,0,1.048,1.072,1.565,1.565,0,0,1,.38.866,1.145,1.145,0,0,1-.3.894,1.182,1.182,0,0,1-.828.391,1.34,1.34,0,0,1-1.1-.5,8.755,8.755,0,0,1-2.114-2.571A8.153,8.153,0,0,1,559.777,89.4Z" transform="translate(-393.284 77.466)" fill="#859986"/>
      </g>
    </g>
  </g>
</svg>
