<?xml version="1.0" encoding="UTF-8"?><svg id="Layer_1" xmlns="http://www.w3.org/2000/svg" width="380" height="425" viewBox="0 0 380 425"><defs><style>.cls-1{fill:#fac158;}.cls-2{fill:#b4bfc5;}.cls-3{fill:#cf7042;}.cls-4{fill:#a47d50;}.cls-5{fill:#c49d6a;}.cls-6{fill:#95aa99;}.cls-7{fill:#5d718a;}</style></defs><g id="Olie_maling"><path class="cls-3" d="m243.58,376.76c-11.54-8.99-24.38-3.86-24.38-3.86,0,0-13.69,6.42-21.82,1.72-8.13-4.7.43-15.83,0-22.25-.43-6.41-18.83-11.82-12.21-25.61,6.33-13.18,24.65-17.54,26.22-17.88l2.94,8.3c-6.1,3.43-4.51,9.9-2.4,13.8,3.51,6.51,17.12,3.86,22.68.86,5.56-3,29.09.43,33.37,6.84,4.27,6.42-5.13,9.85-11.13,15.83-5.99,5.99,29.09,5.13,30.38,15.83,1.28,10.7-32.09,15.4-43.64,6.42Z"/><g><path class="cls-7" d="m160.92,274.13l3.2-.51c.08-.01.15-.04.22-.06l.55,3.46c.38,2.37,3,3.94,5.82,3.49s4.83-2.75,4.46-5.12l-3.86-24.31c-.38-2.37-3-3.94-5.82-3.49-2.83.45-4.83,2.75-4.46,5.12l.55,3.46c-.08,0-.15,0-.23.02l-3.2.51c-2.51.4-4.29,2.45-3.96,4.55l1.55,9.76c.33,2.11,2.66,3.5,5.18,3.1Z"/><path class="cls-2" d="m151.25,284.9l-113.71,49.58c-2.27.99-4.86-.41-5.27-2.85l-12.36-72.62c-.39-2.28,1.34-4.38,3.65-4.44l121.32-3.14c6.13-.16,11.37,4.36,12.11,10.45l1.31,10.68c.64,5.22-2.23,10.24-7.05,12.35Z"/><polygon class="cls-6" points="61.87 323.87 49.53 253.89 130.01 251.81 137.37 290.95 61.87 323.87"/></g><g><path class="cls-7" d="m293.53,159.23l2.57,1.97c.06.05.13.08.19.12l-2.13,2.78c-1.46,1.9-.8,4.89,1.48,6.63,2.27,1.74,5.32,1.61,6.78-.29l14.98-19.53c1.46-1.9.8-4.89-1.48-6.63-2.27-1.74-5.32-1.61-6.78.29l-2.13,2.78c-.06-.05-.11-.11-.17-.16l-2.57-1.97c-2.02-1.55-4.73-1.43-6.03.26l-6.01,7.84c-1.3,1.69-.71,4.34,1.31,5.89Z"/><path class="cls-2" d="m279.06,159.64l-114.24-48.34c-2.28-.96-3.05-3.81-1.56-5.79l44.17-58.96c1.39-1.85,4.1-2.05,5.74-.41l85.79,85.83c4.33,4.33,4.66,11.25.76,15.98l-6.85,8.3c-3.35,4.06-8.96,5.43-13.81,3.38Z"/><polygon class="cls-1" points="189.27 121.64 231.53 64.51 288.44 121.45 265.12 153.74 189.27 121.64"/></g><g><path class="cls-2" d="m227.22,315.54l-9.39,3.33c-1.42.5-3.01-.25-3.51-1.68l-2.94-8.3-.48-1.35c-.5-1.42.25-3,1.68-3.5l8.86-3.14c.07.27.16.55.25.82l3.5,10.18c.47,1.36,1.16,2.58,2.03,3.63Z"/><path class="cls-2" d="m253.69,316.12l-14.47,3.47c-4.56,1.1-9.19-.6-12-4.06-.87-1.05-1.56-2.27-2.03-3.63l-3.5-10.18c-.1-.27-.18-.55-.25-.82-1.27-4.74.54-9.82,4.57-12.71l12.31-8.81,15.36,36.74Z"/><path class="cls-2" d="m357.23,291.25l-25.26,6.06-78.28,18.8-15.36-36.74,66.99-47.93,21.58-15.44c2.01-1.44,4.83-.61,5.75,1.68l27.22,68.45c.85,2.16-.39,4.57-2.65,5.11Z"/><polygon class="cls-3" points="331.97 297.32 253.69 316.12 238.33 279.38 305.32 231.45 331.97 297.32"/></g><g><path class="cls-5" d="m175.5,177.76l-13.74,7.86c-26.34-40.39-79.63-125.25-79.28-129.84.92-11.42,7.95-14.27,17.17-11.04,4.35,1.39,53.32,90.05,75.86,133.02Z"/><path class="cls-4" d="m196.03,217.2s26.98,8.35,24.51,27.04c-1.29,9.76,3.93,10.27,4.1,13.09.09,1.43-1.29,2.48-2.65,2.04-5.16-1.68-17.04-1.72-24.23-6.89-9.91-7.12-11.32-29.25-11.32-29.25l9.59-6.02Z"/><path class="cls-2" d="m196.04,217.2l-9.6,6.03s-10.71-16.17-24.68-37.61l13.74-7.86c11.78,22.43,20.54,39.44,20.54,39.44Z"/></g></g></svg>