<?xml version="1.0" encoding="UTF-8"?><svg id="Layer_1" xmlns="http://www.w3.org/2000/svg" width="357.02" height="203.07" viewBox="0 0 357.02 203.07"><defs><style>.cls-1{fill:#fac158;}.cls-2{fill:#b4bfc5;}.cls-3{fill:#cf7042;}.cls-4{fill:#a47d50;}.cls-5{fill:#c49d6a;}.cls-6{fill:#95aa99;}.cls-7{fill:#5d718a;}</style></defs><g id="Olie_maling"><path class="cls-3" d="m259.38,199.1c-9.67-7.53-20.42-3.23-20.42-3.23,0,0-11.47,5.38-18.28,1.44-6.81-3.94.36-13.26,0-18.64-.36-5.37-15.77-9.9-10.23-21.45,5.3-11.04,20.65-14.69,21.96-14.98l2.46,6.95c-5.11,2.87-3.78,8.29-2.01,11.56,2.94,5.45,14.34,3.23,19,.72s24.37.36,27.95,5.73c3.58,5.38-4.3,8.25-9.32,13.26-5.02,5.02,24.37,4.3,25.45,13.26,1.07,8.96-26.88,12.9-36.56,5.38Z"/><g><path class="cls-7" d="m337.98,22.29l2.68-.43c.06-.01.12-.03.19-.05l.46,2.9c.31,1.98,2.51,3.3,4.88,2.92s4.05-2.31,3.73-4.29l-3.23-20.36c-.31-1.98-2.51-3.3-4.88-2.92s-4.05,2.31-3.73,4.29l.46,2.9c-.06,0-.13,0-.19.01l-2.68.43c-2.1.33-3.6,2.05-3.32,3.81l1.3,8.18c.28,1.76,2.23,2.93,4.34,2.6Z"/><path class="cls-2" d="m329.89,31.31l-95.25,41.53c-1.9.83-4.07-.35-4.42-2.39l-10.35-60.83c-.33-1.91,1.12-3.67,3.06-3.72l101.62-2.63c5.13-.13,9.52,3.66,10.15,8.75l1.09,8.95c.53,4.37-1.87,8.58-5.91,10.34Z"/><polygon class="cls-6" points="255.02 63.96 244.68 5.34 312.09 3.59 318.26 36.38 255.02 63.96"/></g><g><path class="cls-7" d="m201.59,110.75l2.15,1.65c.05.04.11.07.16.1l-1.79,2.33c-1.22,1.59-.67,4.09,1.24,5.55s4.46,1.35,5.68-.25l12.55-16.36c1.22-1.59.67-4.09-1.24-5.55s-4.46-1.35-5.68.25l-1.79,2.33s-.09-.09-.14-.13l-2.15-1.65c-1.69-1.3-3.96-1.2-5.05.22l-5.04,6.57c-1.09,1.42-.59,3.64,1.1,4.93Z"/><path class="cls-2" d="m189.47,111.09l-95.7-40.49c-1.91-.81-2.55-3.19-1.31-4.85l37-49.39c1.16-1.55,3.43-1.72,4.81-.34l71.87,71.9c3.63,3.63,3.91,9.42.64,13.38l-5.74,6.95c-2.8,3.4-7.51,4.55-11.57,2.84Z"/><polygon class="cls-1" points="114.25 79.26 149.65 31.4 197.33 79.1 177.8 106.14 114.25 79.26"/></g><g><path class="cls-2" d="m245.68,147.81l-7.87,2.79c-1.19.42-2.52-.21-2.94-1.41l-2.46-6.95-.4-1.13c-.42-1.19.21-2.51,1.41-2.93l7.42-2.63c.06.23.13.46.21.69l2.93,8.53c.39,1.14.97,2.16,1.7,3.04Z"/><path class="cls-2" d="m267.85,148.3l-12.12,2.91c-3.82.92-7.7-.5-10.05-3.4-.73-.88-1.31-1.9-1.7-3.04l-2.93-8.53c-.08-.23-.15-.46-.21-.69-1.06-3.97.45-8.23,3.83-10.65l10.31-7.38,12.87,30.78Z"/><path class="cls-2" d="m354.58,127.47l-21.16,5.08-65.57,15.75-12.87-30.78,56.12-40.15,18.08-12.93c1.68-1.21,4.05-.51,4.82,1.41l22.8,57.34c.71,1.81-.33,3.83-2.22,4.28Z"/><polygon class="cls-3" points="333.42 132.55 267.85 148.3 254.98 117.52 311.1 77.37 333.42 132.55"/></g><g><path class="cls-5" d="m107.01,108.73l-8.81,9.91C66.5,93.61,1.53,40.46.58,36.72c-2.32-9.31,2.5-13.45,10.68-13.35,3.82-.06,66.38,57.26,95.75,85.36Z"/><path class="cls-4" d="m133.85,134.56s23.65-.57,26.68,14.92c1.58,8.1,5.86,7.1,6.75,9.3.45,1.11-.36,2.32-1.56,2.33-4.54.04-13.99,3.18-21.08,1-9.77-3-16.8-20.2-16.8-20.2l6.01-7.34Z"/><path class="cls-2" d="m133.85,134.56l-6.01,7.35s-12.82-9.98-29.64-23.27l8.81-9.91c15.34,14.66,26.84,25.83,26.84,25.83Z"/></g></g></svg>