<?xml version="1.0" encoding="UTF-8"?><svg id="Layer_1" xmlns="http://www.w3.org/2000/svg" width="380" height="425" viewBox="0 0 380 425"><defs><style>.cls-1{fill:none;}.cls-2{fill:#faaf3b;}.cls-3{fill:#0071bb;}.cls-4{fill:#f6921e;}.cls-5{fill:#b4bfc5;}.cls-6{fill:#cf7042;}.cls-7{fill:#e1a55d;}.cls-8{fill:#29aae1;}.cls-9{fill:#5d718a;}</style></defs><g id="origami"><g><line class="cls-1" x1="171.85" y1="135.34" x2="165.73" y2="128.45"/><path class="cls-5" d="m213.41,182.18l.23.31-39.98-45.11c9.01,5.44,28.26,10.92,69.28,8.44l7,9.51-36.53,26.85Z"/><g><path class="cls-5" d="m233.56,233.01c5.45-9.03,10.91-28.3,8.44-69.37l9.13-6.71,26.84,36.44.83-.62.07.09-45.31,40.17Z"/><polygon class="cls-8" points="278.91 192.81 278.87 192.84 278.8 192.75 278.84 192.72 278.91 192.81"/></g><polygon class="cls-3" points="278.91 192.81 278.87 192.84 278.8 192.75 278.84 192.72 278.91 192.81"/><g><g><path class="cls-5" d="m329.27,173.66c-.47-.28-.96-.56-1.49-.84-.26-.15-.53-.29-.81-.43-.41-.21-.85-.41-1.3-.62-.22-.11-.45-.21-.69-.31-.46-.21-.95-.41-1.46-.61-.25-.11-.5-.21-.77-.31-.17-.06-.35-.13-.53-.2-.35-.13-.72-.26-1.09-.39-.38-.13-.76-.26-1.15-.39-1.38-.45-2.86-.88-4.46-1.28-.23-.06-.46-.12-.69-.17-.47-.12-.94-.23-1.43-.34-.49-.11-.98-.22-1.49-.33-.51-.1-1.02-.21-1.55-.31-1.45-.28-2.97-.54-4.59-.78-.36-.06-.73-.11-1.11-.16-.37-.06-.75-.11-1.13-.16-.61-.08-1.24-.15-1.87-.23-1.28-.15-2.6-.29-3.98-.41-.33-.03-.67-.06-1-.09-.34-.03-.7-.06-1.05-.09-.7-.05-1.42-.1-2.15-.15s-1.47-.1-2.23-.13c-.62-.04-1.24-.07-1.88-.1-.93-.04-1.88-.07-2.85-.1-.76-.03-1.53-.05-2.32-.07-3.04-.06-6.27-.07-9.67-.01-.39,0-.77.01-1.16.02-1.16.02-2.34.05-3.55.09-.37.01-.74.02-1.11.04-.72.02-1.45.05-2.19.08-.69.03-1.39.06-2.09.09-.42.02-.84.04-1.26.07-1.13.06-2.28.12-3.45.19l-6.98-9.48,36.49-26.82-.35-.48.2-.14,40.19,45.35Z"/><path class="cls-9" d="m353.22,79.76l-64.55,48.41.21.28.35.48-36.49,26.82,6.98,9.48c1.17-.07,2.32-.13,3.45-.19.42-.03.84-.05,1.26-.07.7-.03,1.4-.06,2.09-.09.74-.03,1.47-.06,2.19-.08.37-.02.74-.03,1.11-.04,1.21-.04,2.39-.07,3.55-.09.39,0,.77-.02,1.16-.02,3.4-.06,6.63-.05,9.67.01.79.02,1.56.04,2.32.07.97.03,1.92.06,2.85.1.64.03,1.26.06,1.88.1.76.03,1.5.08,2.23.13s1.45.1,2.15.15c.35.03.71.06,1.05.09.33.03.67.06,1,.09,1.38.12,2.7.26,3.98.41.63.08,1.26.15,1.87.23.38.05.76.1,1.13.16.38.05.75.1,1.11.16,1.62.24,3.14.5,4.59.78.53.1,1.04.21,1.55.31.51.11,1,.22,1.49.33.49.11.96.22,1.43.34.23.05.46.11.69.17,1.6.4,3.08.83,4.46,1.28.39.13.77.26,1.15.39.37.13.74.26,1.09.39.18.07.36.14.53.2.27.1.52.2.77.31.51.2,1,.4,1.46.61.24.1.47.2.69.31.45.21.89.41,1.3.62.28.14.55.28.81.43.53.28,1.02.56,1.49.84l1.8,2.04c3.91,4.4,5.83,10.21,5.33,16.07l-5.56,64.69c-.16,1.78-2.43,2.43-3.5,1l-48.47-64.62.04-.03-.07-.09-.04.03-.83.62-26.84-36.44-9.13,6.71c2.47,41.07-2.99,60.34-8.44,69.37l-2.04,1.8c-4.4,3.91-10.21,5.83-16.07,5.33l-64.69-5.56c-1.78-.16-2.43-2.43-1-3.5l64.2-48.15-.31-.42v-.02s-.24-.31-.24-.31l36.53-26.85-7-9.51c-41.02,2.48-60.27-3-69.28-8.44l-1.81-2.04c-3.91-4.4-5.83-10.21-5.33-16.07l5.57-64.69c.15-1.78,2.42-2.43,3.5-1l48.37,64.5.1-.06.08-.07.49-.36,26.92,36.55,9.43-6.92c-2.48-41.09,2.99-60.37,8.44-69.39l2.04-1.81c4.4-3.9,10.21-5.83,16.07-5.32l64.69,5.56c1.78.15,2.43,2.43,1,3.5Z"/></g><path class="cls-5" d="m260.98,147.22l-9.43,6.92-26.92-36.55-.49.36,45.28-40.12c-5.45,9.02-10.92,28.3-8.44,69.39Z"/></g></g><g><path class="cls-6" d="m241.94,298.64l-30.12,34.33-28.34-39.67,56.22.36c2.58,0,3.94,3.05,2.24,4.98Z"/><path class="cls-6" d="m73,367.86l124.69-31.34-19.31,28.62c-1.64,2.44-4.4,3.88-7.34,3.85l-98.04-1.13Z"/><path class="cls-6" d="m60.61,220.17l13-13.29,16.08,15.05-27.17,2.3c-2.21.19-3.46-2.48-1.91-4.06Z"/><path class="cls-6" d="m80.51,286.27l-35.98,71.92-17.7-40.55c-1.48-3.39-.95-7.33,1.37-10.22l65.63-81.6,12.16,11.13-24.99,49.3-.49.02Z"/><polygon class="cls-4" points="81 286.25 44.53 358.19 80.51 286.27 81 286.25"/><polygon class="cls-4" points="198.19 335.78 197.69 336.52 73 367.86 71.55 367.84 198.19 335.78"/><polygon class="cls-4" points="211.82 332.97 183.36 293.3 183.48 293.3 211.82 332.97"/><path class="cls-7" d="m197.69,336.52l.5-.74-126.64,32.06,1.45.02-16.57,4.16c-2.74.69-5.58-.65-6.8-3.19l-5.1-10.64,36.47-71.94,90.27-3.05c3.05-.1,5.95,1.33,7.72,3.81l4.49,6.29h-.12l28.46,39.67-14.13,3.55Z"/><path class="cls-7" d="m105.99,236.95l-32.38-30.07,13.12-13.94c1-1.06,2.58-1.36,3.9-.73l29.56,14c1.81.86,2.48,3.08,1.45,4.79l-15.65,25.95Z"/><polygon class="cls-2" points="81 286.25 44.53 358.19 80.51 286.27 81 286.25"/><polygon class="cls-2" points="198.19 335.78 197.69 336.52 73 367.86 71.55 367.84 198.19 335.78"/><polygon class="cls-2" points="211.82 332.97 183.36 293.3 183.48 293.3 211.82 332.97"/></g></g></svg>