<?xml version="1.0" encoding="UTF-8"?><svg id="Layer_1" xmlns="http://www.w3.org/2000/svg" width="253.04" height="351.25" viewBox="0 0 253.04 351.25"><defs><style>.cls-1{fill:#ec1c24;}.cls-2{fill:#f05a24;}.cls-3{fill:#e6c5be;}.cls-4{fill:#b4bfc5;}.cls-5{fill:#cf7042;}.cls-6{fill:#e1a55d;}.cls-7{fill:#95aa99;}.cls-8{fill:#5d718a;}</style></defs><g id="papirblomst"><g><path class="cls-6" d="m183.34,141.61c-.02-.13-.09-.27-.21-.41,10.08-11.86,31.46-33.82,31.74-34.11.18-.19.18-.5-.03-.69-.2-.18-.52-.18-.7.02-1.12,1.15-21.77,22.36-31.77,34.15-.51-.32-1.18-.65-1.95-.97,31.59-41.96,38.34-46.21,38.62-46.37.24-.14.33-.45.2-.69-.15-.24-.45-.33-.68-.18-.29.15-7,4.21-39.1,46.85-.99-.37-2.07-.73-3.11-1.06,5.1-10.3,21.25-43.19,21.64-48.29.02-.27-.18-.51-.46-.54-.27-.02-.52.2-.54.46-.37,4.89-16.65,38.07-21.61,48.08-.86-.26-1.67-.48-2.35-.67,3.81-11.65,16.13-49.91,15.77-55.44-.01-.28-.25-.48-.52-.47-.28.02-.49.26-.47.54.34,5.29-12.01,43.67-15.74,55.12-.61-.17-.97-.26-.97-.26-1.44-67.4,16.32-71.93,29.22-70.88,11.93.96,2.83,22.84,1.4,26.1,15.09-30.32,26.48-11.93,26.48-11.93,27.56,27.22-44.86,61.64-44.86,61.64Z"/><g><path class="cls-5" d="m188.8,81.75c.36,5.53-11.96,43.79-15.77,55.44-.36-.1-.68-.19-.96-.25,3.73-11.45,16.08-49.83,15.74-55.12-.02-.28.19-.52.47-.54.27-.01.51.19.52.47Z"/><path class="cls-5" d="m214.84,106.4c.21.19.21.5.03.69-.28.29-21.66,22.25-31.74,34.11-.16-.2-.42-.41-.76-.63,10-11.79,30.65-33,31.77-34.15.18-.2.5-.2.7-.02Z"/><path class="cls-5" d="m197.99,89.86c-.39,5.1-16.54,37.99-21.64,48.29-.33-.1-.66-.2-.97-.29,4.96-10.01,21.24-43.19,21.61-48.08.02-.26.27-.48.54-.46.28.03.48.27.46.54Z"/><path class="cls-5" d="m219.04,93.23c-.28.16-7.03,4.41-38.62,46.37-.31-.13-.63-.26-.96-.39,32.1-42.64,38.81-46.7,39.1-46.85.23-.15.53-.06.68.18.13.24.04.55-.2.69Z"/></g></g><g><path class="cls-6" d="m176.7,199.59c.17-.36-.03-1.01-.47-1.83,13.37-4.4,47.77-12.29,48.18-12.38.26-.06.42-.33.35-.59-.07-.26-.34-.43-.61-.37-1.67.39-35.17,8.06-48.45,12.47-.34-.52-.74-1.09-1.18-1.67,52.26-19.33,60.58-19.23,60.92-19.22.28.02.51-.19.52-.47.02-.28-.19-.52-.46-.53-.33-.01-8.52-.26-61.63,19.39-.54-.69-1.11-1.38-1.69-2.05.04-.02.08-.03.13-.05,1.78-1.06,43.68-25.81,47.27-30.54.16-.22.12-.53-.1-.7-.22-.16-.53-.12-.69.09-3.48,4.58-46.55,30.03-46.99,30.28-.09.06-.16.14-.2.23-.47-.53-.93-1.04-1.35-1.5.01-.01.02-.01.02-.01,1.75-1.42,42.87-34.6,46-40.19.13-.24.05-.54-.19-.68-.25-.13-.56-.04-.69.19-2.72,4.89-37.33,33.07-44.47,38.85-.79.64-1.23,1.01-1.28,1.04l-.06.06c-.95-1.03-1.59-1.7-1.59-1.7,38.93-59.71,58.54-52.65,70.19-43.74,10.54,8.06-16,23.2-21.19,26.04,32.11-16.75,35.24,2.51,35.24,2.51,9.95,40.84-75.53,27.07-75.53,27.07Z"/><g><path class="cls-5" d="m235.96,175.53c-.01.28-.24.49-.52.47-.34-.01-8.66-.11-60.92,19.22-.2-.27-.42-.56-.65-.83,53.11-19.65,61.3-19.4,61.63-19.39.27.01.48.25.46.53Z"/><path class="cls-5" d="m224.76,184.79c.07.26-.09.53-.35.59-.41.09-34.81,7.98-48.18,12.38-.15-.27-.33-.56-.53-.87,13.28-4.41,46.78-12.08,48.45-12.47.27-.06.54.11.61.37Z"/><path class="cls-5" d="m170.27,190.14s-.01,0-.02.01c-.24-.27-.46-.51-.67-.74l.06-.06s.49-.4,1.28-1.04c7.14-5.78,41.75-33.96,44.47-38.85.13-.23.44-.32.69-.19.24.14.32.44.19.68-3.13,5.59-44.25,38.77-46,40.19Z"/><path class="cls-5" d="m172.31,192.29c-.05.02-.09.03-.13.05-.2-.24-.39-.46-.58-.69.04-.09.11-.17.2-.23.44-.25,43.51-25.7,46.99-30.28.16-.21.47-.25.69-.09.22.17.26.48.1.7-3.59,4.73-45.49,29.48-47.27,30.54Z"/></g></g><path class="cls-6" d="m52.13,229.07S4.34,234.63.19,195.73c-2.65-24.76,22.49-29.71,41.11-30.03-.13.91-.19,1.83-.19,2.77,0,2.75.53,5.36,1.48,7.74-10.64,7.4-20.9,14.23-21.11,14.37-.22.15-.28.45-.12.67.16.22.47.28.7.13.83-.55,10.67-7.1,20.94-14.23.55,1.19,1.21,2.31,1.98,3.34-24.96,20.75-30.24,22.68-30.5,22.76-.26.09-.41.36-.33.63.09.26.37.41.63.33s5.49-1.88,30.81-22.92c1.66,2.06,3.73,3.75,6.06,4.93-8.12,10.57-16.43,21.84-17.29,24.74-.08.27.07.55.34.63.26.08.54-.08.62-.34.82-2.77,9.14-14.03,17.25-24.59,1.79.78,3.72,1.28,5.74,1.42-7.65,13.55-16.15,29.23-16.68,32.75-.04.27.15.53.42.57.28.04.53-.15.57-.42.51-3.4,9.15-19.27,16.81-32.85.07.01.13.01.2.01,1.76,0,3.47-.26,5.08-.76,3.77,32.95-12.58,41.69-12.58,41.69Z"/><g><path class="cls-3" d="m155.74,99.82c-.87,6.49-6.5,42.27-31.7,112.65l-16.31-5.57,35.21-79.11,12.48-28.04h.01c.08-.18.34-.12.31.07Z"/><polygon class="cls-2" points="142.94 127.79 107.73 206.9 107.72 206.9 107.74 206.85 142.94 127.79"/><polygon class="cls-1" points="107.72 206.9 107.73 206.9 107.66 207.07 107.72 206.9"/><path class="cls-5" d="m155.42,99.75l-12.48,28.04-35.21,79.11v-.05s36.29-97.01,36.29-97.01c.81-2.14,2.22-3.99,4.07-5.34l7.33-4.75Z"/><polygon class="cls-8" points="124.05 212.46 111.64 248.33 99.2 253.6 94.89 242.81 107.66 207.06 124.05 212.46"/><circle class="cls-4" cx="110.69" cy="224.11" r="7.08" transform="translate(-137.15 256.53) rotate(-71.17)"/><path class="cls-8" d="m50.25,315.33c15.89-12.72,15.91-31.1,15.91-31.1,11.45-24.6,33.04-30.64,33.04-30.64l-4.31-10.79c-9.99-.09-30.39,26.54-33.71,26.45-4.96-.13-18.94-6.57-33.98,4.51-17.59,12.97-13.61,34-10.23,38.57,3.41,4.61,17.39,15.71,33.28,2.99Zm-27.18-9.15c-2.71-3.22-3.59-17.77,8.02-27.65,10.86-9.23,21.17-7.26,26.48-1.6,4.9,5.22,3.17,17.73-7.8,28.59-9.85,9.75-19.94,8.7-26.7.66Z"/><path class="cls-8" d="m62.66,351.2c1.45.5,24.27-2.26,36.7-31.57,12.43-29.31-2.96-49.31-2.96-49.31l8.96-5.37,6.27-16.62-10.69,4.41c-4.48,2.2-29.31,21.77-33.83,36.93-4.52,15.15-11.15,20.35-12.93,24.6-1.78,4.26-13.14,12.86-7.6,25.13s14.62,11.31,16.07,11.8Zm-3.79-7.5c-4.99-2.69-7.59-5.18-6.07-12.17,1.52-6.99,9.51-15.97,10.33-17.66.82-1.69,9.41-17.85,10.85-23.14,1.44-5.3,9.17-14.61,17.7-11.82,0,0,14.66,6.48,4.04,34.01-10.62,27.53-31.86,33.47-36.85,30.78Z"/></g><path class="cls-6" d="m30.91,124.39c-.17.16-.2.46-.05.66.71.93,11.41,14.96,20.37,25.89-.78.41-1.52.89-2.23,1.42-26.34-27.36-28.93-33.06-29.02-33.32-.1-.23-.35-.35-.58-.25-.21.1-.31.37-.22.61.09.25,2.53,5.88,29.12,33.52-1.3,1.05-2.46,2.3-3.45,3.7-11.22-7.68-26.52-17.87-29.7-18.56-.24-.05-.47.11-.51.37-.05.24.11.49.34.54,3.03.65,18.19,10.76,29.35,18.41-.72,1.11-1.33,2.3-1.82,3.56-13.21-6.43-31.64-15.11-35.19-15.33-.24-.02-.44.18-.45.43-.01.27.17.48.41.5,3.39.21,21.78,8.88,34.92,15.27-.16.46-.3.94-.42,1.42-30.83,8.38-40.59-7.23-40.59-7.23,0,0-9.1-43.69,23.96-50.8,24.89-5.36,29.47,27.56,30.21,44.13-1.16.29-2.28.69-3.34,1.2-9.16-11.19-20.34-25.86-20.52-26.09-.15-.19-.41-.22-.59-.05Z"/><g><path class="cls-7" d="m69.92,161c-.37,0-.75-.14-1.04-.42-.6-.57-.62-1.52-.05-2.12,1.24-1.3,124.9-130.56,167.65-158.22.69-.45,1.62-.25,2.07.45.45.7.25,1.62-.45,2.07-42.46,27.47-165.87,156.48-167.11,157.78-.29.31-.69.46-1.08.46Z"/><path class="cls-5" d="m78.14,168.47c0,8.99-5.68,16.57-13.43,18.91-1.61.5-3.32.76-5.08.76-.07,0-.13,0-.2-.01-7.66,13.58-16.3,29.45-16.81,32.85-.04.27-.29.46-.57.42-.27-.04-.46-.3-.42-.57.53-3.52,9.03-19.2,16.68-32.75-2.02-.14-3.95-.64-5.74-1.42-8.11,10.56-16.43,21.82-17.25,24.59-.08.26-.36.42-.62.34-.27-.08-.42-.36-.34-.63.86-2.9,9.17-14.17,17.29-24.74-2.33-1.18-4.4-2.87-6.06-4.93-25.32,21.04-30.55,22.84-30.81,22.92s-.54-.07-.63-.33c-.08-.27.07-.54.33-.63.26-.08,5.54-2.01,30.5-22.76-.77-1.03-1.43-2.15-1.98-3.34-10.27,7.13-20.11,13.68-20.94,14.23-.23.15-.54.09-.7-.13-.16-.22-.1-.52.12-.67.21-.14,10.47-6.97,21.11-14.37-.95-2.38-1.48-4.99-1.48-7.74,0-.94.06-1.86.19-2.77.1-.84.27-1.67.48-2.47.12-.48.26-.96.42-1.42-13.14-6.39-31.53-15.06-34.92-15.27-.24-.02-.42-.23-.41-.5.01-.25.21-.45.45-.43,3.55.22,21.98,8.9,35.19,15.33.49-1.26,1.1-2.45,1.82-3.56-11.16-7.65-26.32-17.76-29.35-18.41-.23-.05-.39-.3-.34-.54.04-.26.27-.42.51-.37,3.18.69,18.48,10.88,29.7,18.56.99-1.4,2.15-2.65,3.45-3.7-26.59-27.64-29.03-33.27-29.12-33.52-.09-.24,0-.51.22-.61.23-.1.48.02.58.25.09.26,2.68,5.96,29.02,33.32.71-.53,1.45-1.01,2.23-1.42-8.96-10.93-19.66-24.96-20.37-25.89-.15-.2-.12-.5.05-.66.18-.17.44-.14.59.05.18.23,11.36,14.9,20.52,26.09,1.06-.51,2.18-.91,3.34-1.2,1.37-.35,2.8-.53,4.27-.53,5.6,0,10.62,2.64,14.01,6.83,2.81,3.44,4.5,7.93,4.5,12.84Z"/></g></g></svg>