<?xml version="1.0" encoding="UTF-8"?><svg id="Layer_1" xmlns="http://www.w3.org/2000/svg" width="380" height="425" viewBox="0 0 380 425"><defs><style>.cls-1{fill:#ec1c24;}.cls-2{fill:#f05a24;}.cls-3{fill:#e6c5be;}.cls-4{fill:#b4bfc5;}.cls-5{fill:#cf7042;}.cls-6{fill:#e1a55d;}.cls-7{fill:#95aa99;}.cls-8{fill:#5d718a;}</style></defs><g id="papirblomst"><g><path class="cls-6" d="m256.25,172.84c-.02-.15-.11-.31-.24-.48,11.75-13.83,36.68-39.43,37-39.77.21-.22.21-.58-.04-.8-.23-.21-.61-.21-.82.02-1.31,1.34-25.38,26.07-37.04,39.81-.59-.37-1.38-.76-2.27-1.13,36.83-48.92,44.7-53.87,45.02-54.06.28-.16.38-.52.23-.8-.17-.28-.52-.38-.79-.21-.34.18-8.16,4.91-45.58,54.62-1.15-.43-2.41-.85-3.63-1.24,5.95-12.01,24.77-50.35,25.23-56.3.02-.31-.21-.59-.54-.63-.31-.02-.61.23-.63.54-.43,5.7-19.41,44.38-25.19,56.05-1-.3-1.95-.56-2.74-.78,4.44-13.58,18.8-58.19,18.39-64.63-.01-.33-.29-.56-.61-.55-.33.02-.57.3-.55.63.4,6.17-14,50.91-18.35,64.26-.71-.2-1.13-.3-1.13-.3-1.68-78.58,19.03-83.86,34.07-82.63,13.91,1.12,3.3,26.63,1.63,30.43,17.59-35.35,30.87-13.91,30.87-13.91,32.13,31.73-52.3,71.86-52.3,71.86Z"/><g><path class="cls-5" d="m262.61,103.05c.42,6.45-13.94,51.05-18.39,64.63-.42-.12-.79-.22-1.12-.29,4.35-13.35,18.75-58.09,18.35-64.26-.02-.33.22-.61.55-.63.31-.01.59.22.61.55Z"/><path class="cls-5" d="m292.97,131.79c.24.22.24.58.04.8-.33.34-25.25,25.94-37,39.77-.19-.23-.49-.48-.89-.73,11.66-13.74,35.73-38.47,37.04-39.81.21-.23.58-.23.82-.02Z"/><path class="cls-5" d="m273.33,112.51c-.45,5.95-19.28,44.29-25.23,56.3-.38-.12-.77-.23-1.13-.34,5.78-11.67,24.76-50.35,25.19-56.05.02-.3.31-.56.63-.54.33.04.56.31.54.63Z"/><path class="cls-5" d="m297.87,116.43c-.33.19-8.2,5.14-45.02,54.06-.36-.15-.73-.3-1.12-.45,37.42-49.71,45.25-54.44,45.58-54.62.27-.17.62-.07.79.21.15.28.05.64-.23.8Z"/></g></g><g><path class="cls-6" d="m248.51,240.43c.2-.42-.03-1.18-.55-2.13,15.59-5.13,55.69-14.33,56.17-14.43.3-.07.49-.38.41-.69-.08-.3-.4-.5-.71-.43-1.95.45-41,9.4-56.48,14.54-.4-.61-.86-1.27-1.38-1.95,60.93-22.54,70.63-22.42,71.02-22.41.33.02.59-.22.61-.55.02-.33-.22-.61-.54-.62-.38-.01-9.93-.3-71.85,22.61-.63-.8-1.29-1.61-1.97-2.39.05-.02.09-.03.15-.06,2.08-1.24,50.92-30.09,55.11-35.6.19-.26.14-.62-.12-.82-.26-.19-.62-.14-.8.11-4.06,5.34-54.27,35.01-54.78,35.3-.1.07-.19.16-.23.27-.55-.62-1.08-1.21-1.57-1.75.01-.01.02-.01.02-.01,2.04-1.66,49.98-40.34,53.63-46.85.15-.28.06-.63-.22-.79-.29-.15-.65-.05-.8.22-3.17,5.7-43.52,38.55-51.84,45.29-.92.75-1.43,1.18-1.49,1.21l-.07.07c-1.11-1.2-1.85-1.98-1.85-1.98,45.39-69.61,68.25-61.38,81.83-50.99,12.29,9.4-18.65,27.05-24.7,30.36,37.43-19.53,41.08,2.93,41.08,2.93,11.6,47.61-88.05,31.56-88.05,31.56Z"/><g><path class="cls-5" d="m317.59,212.38c-.01.33-.28.57-.61.55-.4-.01-10.1-.13-71.02,22.41-.23-.31-.49-.65-.76-.97,61.92-22.91,71.47-22.62,71.85-22.61.31.01.56.29.54.62Z"/><path class="cls-5" d="m304.54,223.18c.08.3-.1.62-.41.69-.48.11-40.58,9.3-56.17,14.43-.17-.31-.38-.65-.62-1.01,15.48-5.14,54.54-14.08,56.48-14.54.31-.07.63.13.71.43Z"/><path class="cls-5" d="m241.01,229.42s-.01,0-.02.01c-.28-.31-.54-.59-.78-.86l.07-.07c.06-.04.57-.47,1.49-1.21,8.32-6.74,48.67-39.59,51.84-45.29.15-.27.51-.37.8-.22.28.16.37.51.22.79-3.65,6.52-51.59,45.2-53.63,46.85Z"/><path class="cls-5" d="m243.39,231.92c-.06.02-.1.03-.15.06-.23-.28-.45-.54-.68-.8.05-.1.13-.2.23-.27.51-.29,50.73-29.96,54.78-35.3.19-.24.55-.29.8-.11.26.2.3.56.12.82-4.19,5.51-53.03,34.37-55.11,35.6Z"/></g></g><path class="cls-6" d="m103.28,274.8s-55.71,6.48-60.55-38.87c-3.09-28.87,26.22-34.64,47.93-35.01-.15,1.06-.22,2.13-.22,3.23,0,3.21.62,6.25,1.73,9.02-12.4,8.63-24.37,16.59-24.61,16.75-.26.17-.33.52-.14.78.19.26.55.33.82.15.97-.64,12.44-8.28,24.41-16.59.64,1.39,1.41,2.69,2.31,3.89-29.1,24.19-35.25,26.44-35.56,26.53-.3.1-.48.42-.38.73.1.3.43.48.73.38s6.4-2.19,35.92-26.72c1.94,2.4,4.35,4.37,7.06,5.75-9.47,12.32-19.15,25.46-20.16,28.84-.09.31.08.64.4.73.3.09.63-.09.72-.4.96-3.23,10.66-16.36,20.11-28.67,2.09.91,4.34,1.49,6.69,1.66-8.92,15.8-18.83,34.08-19.45,38.18-.05.31.17.62.49.66.33.05.62-.17.66-.49.59-3.96,10.67-22.47,19.6-38.3.08.01.15.01.23.01,2.05,0,4.05-.3,5.92-.89,4.4,38.41-14.67,48.6-14.67,48.6Z"/><g><path class="cls-3" d="m224.07,124.12c-1.01,7.57-7.58,49.28-36.96,131.33l-19.01-6.49,41.05-92.23,14.55-32.69h.01c.09-.21.4-.14.36.08Z"/><polygon class="cls-2" points="209.15 156.73 168.1 248.95 168.09 248.95 168.11 248.9 209.15 156.73"/><polygon class="cls-1" points="168.09 248.95 168.1 248.95 168.02 249.15 168.09 248.95"/><path class="cls-5" d="m223.7,124.04l-14.55,32.69-41.05,92.23v-.06s42.31-113.1,42.31-113.1c.94-2.49,2.59-4.65,4.74-6.23l8.55-5.54Z"/><polygon class="cls-8" points="187.12 255.45 172.66 297.26 158.15 303.4 153.12 290.82 168.02 249.15 187.12 255.45"/><circle class="cls-4" cx="171.55" cy="269.02" r="8.26" transform="translate(-138.45 344.54) rotate(-71.17)"/><path class="cls-8" d="m101.08,375.37c18.52-14.83,18.55-36.25,18.55-36.25,13.35-28.68,38.52-35.72,38.52-35.72l-5.02-12.58c-11.65-.11-35.43,30.94-39.3,30.84-5.78-.15-22.08-7.66-39.62,5.26-20.51,15.12-15.86,39.64-11.92,44.97,3.97,5.38,20.28,18.32,38.8,3.48Zm-31.69-10.67c-3.16-3.75-4.18-20.72,9.35-32.23,12.66-10.77,24.68-8.47,30.87-1.87,5.71,6.09,3.7,20.67-9.09,33.33-11.48,11.37-23.24,10.14-31.13.77Z"/><path class="cls-8" d="m115.56,417.19c1.69.58,28.3-2.63,42.79-36.8,14.49-34.17-3.45-57.49-3.45-57.49l10.45-6.26,7.3-19.38-12.47,5.15c-5.22,2.57-34.17,25.38-39.44,43.05-5.27,17.67-13,23.72-15.08,28.68-2.07,4.96-15.32,14.99-8.86,29.29,6.46,14.3,17.05,13.18,18.74,13.76Zm-4.42-8.75c-5.82-3.13-8.85-6.03-7.08-14.19,1.78-8.15,11.09-18.61,12.05-20.58.96-1.97,10.97-20.81,12.65-26.98,1.68-6.18,10.69-17.03,20.64-13.78,0,0,17.09,7.55,4.71,39.65-12.38,32.1-37.14,39.02-42.96,35.88Z"/></g><path class="cls-6" d="m78.54,152.76c-.2.19-.23.54-.06.77.83,1.08,13.3,17.44,23.75,30.18-.91.48-1.77,1.04-2.6,1.66-30.71-31.9-33.73-38.54-33.83-38.85-.12-.27-.41-.41-.68-.29-.24.12-.36.43-.26.71.1.29,2.95,6.86,33.95,39.08-1.52,1.22-2.87,2.68-4.02,4.31-13.08-8.95-30.92-20.83-34.63-21.64-.28-.06-.55.13-.59.43-.06.28.13.57.4.63,3.53.76,21.21,12.54,34.22,21.46-.84,1.29-1.55,2.68-2.12,4.15-15.4-7.5-36.89-17.62-41.03-17.87-.28-.02-.51.21-.52.5-.01.31.2.56.48.58,3.95.24,25.39,10.35,40.71,17.8-.19.54-.35,1.1-.49,1.66-35.94,9.77-47.32-8.43-47.32-8.43,0,0-10.61-50.93,27.93-59.22,29.02-6.25,34.36,32.13,35.22,51.45-1.35.34-2.66.8-3.89,1.4-10.68-13.05-23.71-30.15-23.92-30.42-.17-.22-.48-.26-.69-.06Z"/><g><path class="cls-7" d="m124.02,195.45c-.43,0-.87-.16-1.21-.48-.7-.67-.72-1.77-.06-2.47,1.45-1.52,145.61-152.21,195.45-184.46.81-.52,1.89-.29,2.42.52.52.81.29,1.89-.52,2.42-49.5,32.03-193.37,182.43-194.82,183.94-.34.36-.8.54-1.26.54Z"/><path class="cls-5" d="m133.6,204.15c0,10.48-6.62,19.32-15.66,22.05-1.88.58-3.87.89-5.92.89-.08,0-.15,0-.23-.01-8.93,15.83-19,34.33-19.6,38.3-.05.31-.34.54-.66.49-.31-.05-.54-.35-.49-.66.62-4.1,10.53-22.38,19.45-38.18-2.35-.16-4.6-.75-6.69-1.66-9.45,12.31-19.15,25.44-20.11,28.67-.09.3-.42.49-.72.4-.31-.09-.49-.42-.4-.73,1-3.38,10.69-16.52,20.16-28.84-2.72-1.38-5.13-3.35-7.06-5.75-29.52,24.53-35.62,26.63-35.92,26.72s-.63-.08-.73-.38c-.09-.31.08-.63.38-.73.3-.09,6.46-2.34,35.56-26.53-.9-1.2-1.67-2.51-2.31-3.89-11.97,8.31-23.44,15.95-24.41,16.59-.27.18-.63.11-.82-.15-.19-.26-.12-.61.14-.78.24-.16,12.21-8.13,24.61-16.75-1.11-2.77-1.73-5.82-1.73-9.02,0-1.1.07-2.17.22-3.23.12-.98.31-1.95.56-2.88.14-.56.3-1.12.49-1.66-15.32-7.45-36.76-17.56-40.71-17.8-.28-.02-.49-.27-.48-.58.01-.29.24-.52.52-.5,4.14.26,25.62,10.38,41.03,17.87.57-1.47,1.28-2.86,2.12-4.15-13.01-8.92-30.68-20.71-34.22-21.46-.27-.06-.45-.35-.4-.63.05-.3.31-.49.59-.43,3.71.8,21.54,12.68,34.63,21.64,1.15-1.63,2.51-3.09,4.02-4.31-31-32.22-33.84-38.79-33.95-39.08-.11-.28.01-.59.26-.71.27-.12.56.02.68.29.1.3,3.12,6.95,33.83,38.85.83-.62,1.69-1.18,2.6-1.66-10.45-12.74-22.92-29.1-23.75-30.18-.17-.23-.14-.58.06-.77.21-.2.51-.16.69.06.21.27,13.24,17.37,23.92,30.42,1.24-.59,2.54-1.06,3.89-1.4,1.6-.41,3.26-.62,4.98-.62,6.53,0,12.38,3.08,16.33,7.96,3.28,4.01,5.25,9.25,5.25,14.97Z"/></g></g></svg>