<?xml version="1.0" encoding="UTF-8"?><svg id="Layer_1" xmlns="http://www.w3.org/2000/svg" width="343.12" height="373.74" viewBox="0 0 343.12 373.74"><defs><style>.cls-1{fill:none;}.cls-2{fill:#fac158;}.cls-3{fill:#006837;}.cls-4{fill:#e6c5be;}.cls-5{fill:#b4bfc5;}.cls-6{fill:#cf7042;}.cls-7{fill:#a47d50;}.cls-8{fill:#c0272d;}.cls-9{fill:#c49d6a;}.cls-10{fill:#e1a55d;}.cls-11{fill:#22b473;}.cls-12{fill:#95aa99;}.cls-13{fill:#5d718a;}</style></defs><g id="patchwork"><g><path class="cls-9" d="m284.72,299.19c-.2-.49-.53-.91-.95-1.25.27.16.52.34.73.55l-4.91-7.3s-13.97-.38-13.49,8.31l4.19,5.02c.03.13.07.26.12.38l.67,1h.01c1.55,1.55,4.89,1.81,8.21.48,3.95-1.58,6.38-4.8,5.42-7.19Z"/><path class="cls-10" d="m242.46,259.04c-7.99,3.36-16.03,2.7-19.75-1.19l-.03-.02-1.61-2.53c-2.31-6.07,3.54-14.22,13.04-18.21,9.53-3.97,19.08-2.3,21.39,3.77,2.31,6.04-3.54,14.18-13.04,18.18Z"/><path class="cls-7" d="m235.3,244.38c-3.32,1.33-6.66,1.07-8.21-.47h-.01s-.67-1.01-.67-1.01c-.96-2.4,1.47-5.62,5.42-7.2,3.96-1.57,7.93-.91,8.89,1.49.96,2.39-1.47,5.61-5.42,7.19Z"/><path class="cls-11" d="m227.08,243.9c-.29-.29-.52-.62-.67-1l.67,1Z"/><path class="cls-2" d="m278.4,300.38c-1.1.74-2.28,1.43-3.54,2.03h-.01c-.45.22-.92.43-1.39.63-4.87,2.05-9.76,2.6-13.68,1.84-.77-.15-1.5-.35-2.19-.6-1.55-.56-2.87-1.38-3.88-2.43l-.03-.03-4.47-6.35-1.16-1.64-7.55-10.72-1.13-1.61-4.68-6.63h0s-1.27-1.82-1.27-1.82l-10.71-15.2c3.32,3.48,10.09,4.37,17.2,2.13.84-.27,1.68-.58,2.53-.93.01,0,.01-.01.02-.01,9.5-4,15.35-12.14,13.04-18.18l3.43,4.84,1.45,2.04,6.89,9.72,1.48,2.09,7.67,10.81,1.41,1.99,7.1,10.01h-.02s.03.04.04.06c.55.6,1.02,1.26,1.35,1.99.08.15.14.3.2.45,1.88,4.9-1.63,11.19-8.1,15.52Z"/><path class="cls-3" d="m282.01,225.21s-.01.05-.01.08v-.08h.01Z"/><path class="cls-3" d="m297,225.21v.08s0-.05-.01-.08h.01Z"/><path class="cls-9" d="m239.3,251.38c-3.32,1.33-6.66,1.07-8.21-.47h-.01s-.67-1.01-.67-1.01c-.05-.12-.08-.25-.11-.37l-3.21-5.62c1.55,1.54,4.89,1.8,8.21.47,3.95-1.58,6.38-4.8,5.42-7.19l3.64,6.37c.14.19.27.4.36.63.96,2.39-1.47,5.61-5.42,7.19Z"/><path class="cls-10" d="m260.38,247.74c-4.04,12.51-13.42,28.65-18.69,34.24-.43.46-.82.84-1.19,1.13l-1.13-1.61c2.17-1.94,6.6-7.92,11.52-17.12,3.74-6.98,6.51-13.46,8.04-18.68l1.45,2.04Z"/><path class="cls-10" d="m268.75,259.55c-3.8,12.65-13.62,29.66-19.06,35.43-.17.18-.33.34-.48.49l-1.16-1.64c2.34-2.45,6.39-8.13,10.84-16.45,4.04-7.55,6.94-14.49,8.38-19.92l1.48,2.09Z"/><path class="cls-10" d="m277.83,272.35c-4.25,12.17-12.99,27.09-18.05,32.53-.77-.15-1.5-.35-2.19-.6,2.24-2.12,6.54-8.01,11.3-16.9,3.35-6.26,5.92-12.11,7.53-17.02l1.41,1.99Z"/><path class="cls-10" d="m286.3,284.41c-2.19,5.38-5.04,11.02-7.9,15.97-1.1.74-2.28,1.43-3.54,2.03,1.27-2.07,2.63-4.42,4.03-7.03,2.47-4.61,4.52-9.01,6.06-12.96.55.6,1.02,1.26,1.35,1.99Z"/><path class="cls-10" d="m242.44,259.05c-2.13,5.31-4.92,10.88-7.75,15.81l-1.27-1.81c.48-.86.97-1.75,1.47-2.67,1.95-3.64,3.63-7.14,5.02-10.4.84-.27,1.68-.58,2.53-.93Z"/><path class="cls-4" d="m342.77,216.74c-.19.53-.45,1.04-.79,1.51l-.2.28-5.83,8.11-1.22,1.7-6.41,8.92-1.23,1.7-5.83,8.11-1.22,1.71-5.83,8.11-1.23,1.7-4.2,5.85c-1.95,2.71-5.74,3.33-8.46,1.38l-3.62-2.6-11.04-7.94-3.62-2.6c-1.73-1.25-2.61-3.25-2.51-5.24.03-.66.18-1.33.44-1.96.17-.44.4-.86.69-1.26l4.97-6.91,1.22-1.71,5.83-8.11,1.23-1.7,6.41-8.92,1.23-1.7,5.83-8.11,1.22-1.71,5.26-7.31c1.95-2.72,5.74-3.34,8.46-1.39l3.62,2.6,11.03,7.94,3.62,2.6c2.25,1.62,3.06,4.48,2.18,6.95Z"/><path class="cls-9" d="m285.66,255.28l11.04,7.94-3.33,4.63c-.71.99-2.09,1.22-3.09.51l-7.44-5.36c-.99-.71-1.22-2.09-.51-3.09l3.33-4.63Z"/><path class="cls-9" d="m340.3,202.56l-3.33,4.63-11.03-7.94,3.32-4.62c.72-1,2.1-1.22,3.09-.51l7.45,5.35c.99.72,1.22,2.1.5,3.09Z"/><polygon class="cls-6" points="308.6 205.35 342.77 216.74 341.78 218.53 307.38 207.06 308.6 205.35"/><polygon class="cls-6" points="335.95 226.64 334.73 228.34 300.32 216.87 301.55 215.17 335.95 226.64"/><polygon class="cls-6" points="293.91 225.79 328.32 237.26 327.09 238.96 292.68 227.49 293.91 225.79"/><polygon class="cls-6" points="321.26 247.07 320.04 248.78 285.63 237.31 286.85 235.6 321.26 247.07"/><path class="cls-6" d="m314.21,256.89l-1.23,1.7-33.45-11.15c.03-.66.18-1.33.44-1.96l34.24,11.41Z"/></g><g><g><path class="cls-13" d="m125,233.21s5-10.22,5.17-22.39c.12-7.79-1.75-16.39-8.17-23.61-16-18-36-10-46.02-3.04-10.02,6.96-24.98,23.04-13.74,46.86,4.16,8.8,11.52,13.07,19.15,14.96,13.02,3.2,26.82-.52,26.82-.52,0,0,14.79,19.74,23.78,11.15,9-8.59-6.99-23.41-6.99-23.41Zm-7.34,4.62c-6.71,4.88-21.42,9.17-34.13,6.49-7.81-1.65-14.86-5.94-18.83-14.35-10.43-22.09,3.45-37,12.74-43.46,9.29-6.45,27.84-13.87,42.68,2.82,5.96,6.7,8.01,14.76,7.86,22.4-.24,11.93-5.84,22.84-10.32,26.1Z"/><path class="cls-12" d="m120.12,189.33c-14.84-16.69-33.39-9.27-42.68-2.82-9.29,6.46-23.17,21.37-12.74,43.46,3.97,8.41,11.02,12.7,18.83,14.35,12.71,2.68,27.42-1.61,34.13-6.49,4.48-3.26,10.08-14.17,10.32-26.1.15-7.64-1.9-15.7-7.86-22.4Zm-15.89,33.08c-4.37,3.18-17.14,5.73-21.34-3.17-4.2-8.9,1.39-14.91,5.14-17.51,3.74-2.6,11.22-5.59,17.2,1.14,6.14,6.91,1.96,17.39-1,19.54Z"/><path class="cls-8" d="m104.23,222.41c-4.37,3.18-17.14,5.73-21.34-3.17-4.2-8.9,1.39-14.91,5.14-17.51,3.74-2.6,11.22-5.59,17.2,1.14,6.14,6.91,1.96,17.39-1,19.54Z"/><path class="cls-13" d="m104.23,222.41c-4.37,3.18-17.14,5.73-21.34-3.17-4.2-8.9,1.39-14.91,5.14-17.51,3.74-2.6,11.22-5.59,17.2,1.14,6.14,6.91,1.96,17.39-1,19.54Z"/><line class="cls-1" x1="87" y1="190.21" x2="86" y2="185.21"/></g><path class="cls-5" d="m181,297.11c-5.59-8.3-28.56-49.69-29.22-59.32-.05-.71.02-1.24.22-1.58.71-1.18,1.53-2.53,2.34-3.94v-.02c2.64-4.56,5.18-9.75,3.66-12.04-2-3-4-5-5-5s-21.67-2.78-22.83-4.39c-.17,12.17-5.17,22.39-5.17,22.39,0,0,15.99,14.82,6.99,23.41-8.99,8.59-23.78-11.15-23.78-11.15,0,0-13.8,3.72-26.82.52.22.8,5.59,21.28,4.61,24.22-1,3,6,4,6,4,0,0,3.74-.37,8.15-.72,5.78-.45,12.71-.85,13.85-.28,2,1,31,26,42,39s19,14,25,10,6-16.2,0-25.1Zm-11,7.1c-2.55,2.55-7,2-12-3-7.07-7.07-17-19.84-17-23,0-2,0-5,2.27-6.8,3.85-3.06,6.89-.8,7.81,0,3.92,2.8,17.72,22.2,18.92,23.8,3,4,3,6,0,9Z"/><path class="cls-13" d="m170,304.21c-2.55,2.55-7,2-12-3-7.07-7.07-17-19.84-17-23,0-2,0-5,2.27-6.8,3.85-3.06,6.89-.8,7.81,0,3.92,2.8,17.72,22.2,18.92,23.8,3,4,3,6,0,9Z"/><path class="cls-6" d="m223,370.21c-19,14-50-17-61-35s-61.85-61.72-61.85-61.72c5.78-.45,12.71-.85,13.85-.28,2,1,31,26,42,39s19,14,25,10,6-16.2,0-25.1c-5.59-8.3-28.56-49.69-29.22-59.32l2.56-5.52v-.02s22.66,50.96,46.77,73.45c24.12,22.49,40.89,50.51,21.89,64.51Z"/></g><g><path class="cls-12" d="m61,58.21s87.5,12.36,99.25-5.32,7.75,91.32,7.75,91.32c0,0-79.03,3-85.51,0-6.49-3-42.33-13.75-51.91-15.88-9.58-2.12-30.58-3.12-30.58-3.12,0,0,64-51,61-67Z"/><path class="cls-4" d="m325.14,141.89s-5.43,2.26-14.07,5.93c-6.36,2.69-14.47,6.16-23.44,10.04-4.18,1.81-8.56,3.72-13.03,5.68-7.65,3.36-15.6,6.89-23.39,10.41-6.93,3.15-13.74,6.28-20.09,9.29-8.44,4-16.08,7.77-22.17,11.03-8.94,4.77-14.54,8.43-14.44,10.07,0,0-65.7-76.68-90.1-73.9,0,0,10.46-4.06,25.11-10.04,7.24-2.95,15.5-6.37,24.03-10.01,5.24-2.23,10.59-4.55,15.86-6.88,9.02-4,17.82-8.05,25.53-11.87,4.93-2.44,9.42-4.78,13.22-6.95,7.88-4.48,12.84-8.21,12.84-10.48,0-3.54,7.04-1.68,16.92,2.94,0,0,.01,0,.02.01,20.82,9.71,54.23,31.64,61.06,41.05,10.69,14.73,26.14,23.68,26.14,23.68Z"/><path class="cls-6" d="m231.12,183.24c-8.44,4-16.08,7.77-22.17,11.03-14.52-23.71-77.61-72.46-79.43-73.87,7.24-2.95,15.5-6.37,24.03-10.01,17.55,10.63,67.28,62.11,77.57,72.85Z"/><path class="cls-6" d="m274.6,163.54l-23.39,10.41c-10.97-10.24-63.03-58.56-81.8-70.44,9.02-4,17.82-8.05,25.53-11.87,16.81,14.29,69.03,59.02,79.66,71.9Z"/><path class="cls-6" d="m311.07,147.82c-6.36,2.69-14.47,6.16-23.44,10.04-10.97-10.96-61.39-60.99-79.47-73.17,7.88-4.48,12.84-8.21,12.84-10.48,0-3.54,7.04-1.68,16.92,2.94,0,0,.01,0,.02.01,18.87,17.23,62.73,57.66,73.13,70.66Z"/><path class="cls-10" d="m92,91.21s135.13,26.48,135.57,36.24c.43,9.76,32.43-64.24,35.43-79.24,1.67-8.35,28.93-22.82,28.93-22.82,0,0-19.18-7.75-35.05-8.46S187,7.21,187,.21c0,0-20.48-5.8-40,43-10,25-55,48-55,48Z"/></g></g></svg>