<?xml version="1.0" encoding="UTF-8"?><svg id="Layer_1" xmlns="http://www.w3.org/2000/svg" width="377.63" height="304.27" viewBox="0 0 377.63 304.27"><defs><style>.cls-1{fill:#fac158;}.cls-2{fill:#f1f1f1;}.cls-3{fill:#e6c5be;}.cls-4{fill:#cf7042;}.cls-5{fill:#cbcbcb;}.cls-6{fill:#e1a55d;}.cls-7{fill:#95aa99;}.cls-8{fill:#5d718a;}</style></defs><g id="perleplade"><g><path class="cls-8" d="m128.35,192c-.15-.74-.53-1.49-1.13-2.22-.49-.59-1.09-1.11-1.76-1.53-.14-.09-.28-.17-.42-.25-1.55-.87-3.38-1.28-5.04-1.09-.53.05-1.04.17-1.51.35-.56.22-1.03.5-1.41.85-1.5,1.36-1.55,3.58.08,5.54,2.05,2.46,5.96,3.58,8.74,2.52.86-.33,1.51-.83,1.93-1.44.55-.78.74-1.73.52-2.73Zm-4.32,1.75c-1.34.47-3.26-.08-4.27-1.23-1.01-1.16-.74-2.47.6-2.93.32-.11.67-.17,1.03-.17,1.17-.01,2.47.52,3.25,1.4.25.29.42.58.51.87.3.88-.11,1.71-1.12,2.06Z"/><path class="cls-7" d="m132.53,188.12s-.04.08-.07.11l-.78.9-3.84,5.6c.55-.78.74-1.73.52-2.73-.15-.74-.53-1.49-1.13-2.22-.49-.59-1.09-1.11-1.76-1.53-.14-.09-.28-.17-.42-.25-1.55-.87-3.38-1.28-5.04-1.09-.53.05-1.04.17-1.51.35-.56.22-1.03.5-1.41.85l3.98-5.72.04-.05c.42-.58,1.05-1.06,1.88-1.37,2.78-1.07,6.69.06,8.74,2.52,1.3,1.57,1.53,3.31.8,4.63Z"/></g><g><rect class="cls-2" x="158.31" y="120.85" width="170" height="170" rx="12.2" ry="12.2" transform="translate(47.54 -45.64) rotate(11.87)"/><g><circle class="cls-5" cx="190.12" cy="124.39" r="2.42"/><ellipse class="cls-5" cx="203.59" cy="127.22" rx="2.48" ry="2.42" transform="translate(37.22 300.29) rotate(-78.13)"/><circle class="cls-5" cx="217.06" cy="130.05" r="2.42"/><ellipse class="cls-5" cx="230.52" cy="132.88" rx="2.48" ry="2.42" transform="translate(53.07 331.15) rotate(-78.13)"/><circle class="cls-5" cx="243.99" cy="135.71" r="2.42"/><circle class="cls-5" cx="257.46" cy="138.54" r="2.42"/><circle class="cls-5" cx="270.92" cy="141.37" r="2.42"/><ellipse class="cls-5" cx="284.39" cy="144.2" rx="2.48" ry="2.42" transform="translate(84.78 392.86) rotate(-78.13)"/><circle class="cls-5" cx="297.86" cy="147.03" r="2.42"/><circle class="cls-5" cx="311.33" cy="149.86" r="2.42"/><circle class="cls-5" cx="324.79" cy="152.69" r="2.42"/><circle class="cls-5" cx="296.49" cy="287.36" r="2.42"/><ellipse class="cls-5" cx="299.32" cy="273.9" rx="2.42" ry="2.48" transform="translate(-30.28 510.49) rotate(-78.13)"/><circle class="cls-5" cx="302.15" cy="260.43" r="2.42"/><ellipse class="cls-5" cx="304.98" cy="246.96" rx="2.42" ry="2.48" transform="translate(.57 494.63) rotate(-78.13)"/><circle class="cls-5" cx="307.81" cy="233.5" r="2.42"/><circle class="cls-5" cx="310.64" cy="220.03" r="2.42"/><circle class="cls-5" cx="313.47" cy="206.56" r="2.42"/><ellipse class="cls-5" cx="316.3" cy="193.1" rx="2.42" ry="2.48" transform="translate(62.28 462.92) rotate(-78.13)"/><circle class="cls-5" cx="319.13" cy="179.63" r="2.42"/><circle class="cls-5" cx="321.96" cy="166.16" r="2.42"/><circle class="cls-5" cx="161.82" cy="259.06" r="2.42"/><ellipse class="cls-5" cx="164.65" cy="245.59" rx="2.42" ry="2.48" transform="translate(-109.56 356.21) rotate(-78.13)"/><circle class="cls-5" cx="167.48" cy="232.13" r="2.42"/><ellipse class="cls-5" cx="170.31" cy="218.66" rx="2.42" ry="2.48" transform="translate(-78.7 340.36) rotate(-78.13)"/><circle class="cls-5" cx="173.14" cy="205.19" r="2.42"/><circle class="cls-5" cx="175.97" cy="191.73" r="2.42"/><circle class="cls-5" cx="178.8" cy="178.26" r="2.42"/><ellipse class="cls-5" cx="181.63" cy="164.79" rx="2.42" ry="2.48" transform="translate(-16.99 308.65) rotate(-78.13)"/><circle class="cls-5" cx="184.46" cy="151.33" r="2.42"/><circle class="cls-5" cx="187.29" cy="137.86" r="2.42"/><circle class="cls-5" cx="175.29" cy="261.89" r="2.42"/><ellipse class="cls-5" cx="178.12" cy="248.42" rx="2.42" ry="2.48" transform="translate(-101.63 371.64) rotate(-78.13)"/><circle class="cls-5" cx="180.95" cy="234.96" r="2.42"/><ellipse class="cls-5" cx="183.78" cy="221.49" rx="2.42" ry="2.48" transform="translate(-70.77 355.79) rotate(-78.13)"/><circle class="cls-5" cx="186.61" cy="208.02" r="2.42"/><circle class="cls-5" cx="189.44" cy="194.56" r="2.42"/><circle class="cls-5" cx="192.27" cy="181.09" r="2.42"/><ellipse class="cls-5" cx="195.1" cy="167.62" rx="2.42" ry="2.48" transform="translate(-9.07 324.08) rotate(-78.13)"/><circle class="cls-5" cx="197.93" cy="154.16" r="2.42"/><circle class="cls-5" cx="200.76" cy="140.69" r="2.42"/><circle class="cls-5" cx="188.75" cy="264.72" r="2.42"/><ellipse class="cls-5" cx="191.58" cy="251.25" rx="2.42" ry="2.48" transform="translate(-93.7 387.07) rotate(-78.13)"/><circle class="cls-5" cx="194.42" cy="237.79" r="2.42"/><ellipse class="cls-5" cx="197.25" cy="224.32" rx="2.42" ry="2.48" transform="translate(-62.85 371.21) rotate(-78.13)"/><circle class="cls-5" cx="200.08" cy="210.85" r="2.42"/><circle class="cls-5" cx="202.91" cy="197.39" r="2.42"/><circle class="cls-5" cx="205.74" cy="183.92" r="2.42"/><ellipse class="cls-5" cx="208.57" cy="170.45" rx="2.42" ry="2.48" transform="translate(-1.14 339.5) rotate(-78.13)"/><circle class="cls-5" cx="211.4" cy="156.99" r="2.42"/><circle class="cls-5" cx="214.23" cy="143.52" r="2.42"/><circle class="cls-5" cx="202.22" cy="267.55" r="2.42"/><ellipse class="cls-5" cx="205.05" cy="254.09" rx="2.42" ry="2.48" transform="translate(-85.77 402.5) rotate(-78.13)"/><circle class="cls-5" cx="207.88" cy="240.62" r="2.42"/><ellipse class="cls-5" cx="210.71" cy="227.15" rx="2.42" ry="2.48" transform="translate(-54.92 386.64) rotate(-78.13)"/><circle class="cls-5" cx="213.54" cy="213.68" r="2.42"/><circle class="cls-5" cx="216.37" cy="200.22" r="2.42"/><circle class="cls-5" cx="219.2" cy="186.75" r="2.42"/><ellipse class="cls-5" cx="222.03" cy="173.28" rx="2.42" ry="2.48" transform="translate(6.79 354.93) rotate(-78.13)"/><circle class="cls-5" cx="224.86" cy="159.82" r="2.42"/><circle class="cls-5" cx="227.69" cy="146.35" r="2.42"/><circle class="cls-5" cx="215.69" cy="270.38" r="2.42"/><ellipse class="cls-5" cx="218.52" cy="256.92" rx="2.42" ry="2.48" transform="translate(-77.85 417.92) rotate(-78.13)"/><circle class="cls-5" cx="221.35" cy="243.45" r="2.42"/><ellipse class="cls-5" cx="224.18" cy="229.98" rx="2.42" ry="2.48" transform="translate(-46.99 402.07) rotate(-78.13)"/><circle class="cls-5" cx="227.01" cy="216.51" r="2.42"/><circle class="cls-5" cx="229.84" cy="203.05" r="2.42"/><circle class="cls-5" cx="232.67" cy="189.58" r="2.42"/><ellipse class="cls-5" cx="235.5" cy="176.11" rx="2.42" ry="2.48" transform="translate(14.72 370.36) rotate(-78.13)"/><circle class="cls-5" cx="238.33" cy="162.65" r="2.42"/><circle class="cls-5" cx="241.16" cy="149.18" r="2.42"/><circle class="cls-5" cx="229.16" cy="273.21" r="2.42"/><ellipse class="cls-5" cx="231.99" cy="259.75" rx="2.42" ry="2.48" transform="translate(-69.92 433.35) rotate(-78.13)"/><circle class="cls-5" cx="234.82" cy="246.28" r="2.42"/><ellipse class="cls-5" cx="237.65" cy="232.81" rx="2.42" ry="2.48" transform="translate(-39.07 417.5) rotate(-78.13)"/><circle class="cls-5" cx="240.48" cy="219.34" r="2.42"/><circle class="cls-5" cx="243.31" cy="205.88" r="2.42"/><circle class="cls-5" cx="246.14" cy="192.41" r="2.42"/><ellipse class="cls-5" cx="248.97" cy="178.94" rx="2.42" ry="2.48" transform="translate(22.64 385.79) rotate(-78.13)"/><circle class="cls-5" cx="251.8" cy="165.48" r="2.42"/><circle class="cls-5" cx="254.63" cy="152.01" r="2.42"/><circle class="cls-5" cx="242.62" cy="276.04" r="2.42"/><ellipse class="cls-5" cx="245.45" cy="262.58" rx="2.42" ry="2.48" transform="translate(-61.99 448.78) rotate(-78.13)"/><circle class="cls-5" cx="248.28" cy="249.11" r="2.42"/><ellipse class="cls-5" cx="251.11" cy="235.64" rx="2.42" ry="2.48" transform="translate(-31.14 432.92) rotate(-78.13)"/><circle class="cls-5" cx="253.94" cy="222.18" r="2.42"/><circle class="cls-5" cx="256.77" cy="208.71" r="2.42"/><circle class="cls-5" cx="259.6" cy="195.24" r="2.42"/><ellipse class="cls-5" cx="262.43" cy="181.77" rx="2.42" ry="2.48" transform="translate(30.57 401.21) rotate(-78.13)"/><circle class="cls-5" cx="265.26" cy="168.31" r="2.42"/><circle class="cls-5" cx="268.09" cy="154.84" r="2.42"/><circle class="cls-5" cx="256.09" cy="278.87" r="2.42"/><ellipse class="cls-5" cx="258.92" cy="265.41" rx="2.42" ry="2.48" transform="translate(-54.06 464.2) rotate(-78.13)"/><circle class="cls-5" cx="261.75" cy="251.94" r="2.42"/><ellipse class="cls-5" cx="264.58" cy="238.47" rx="2.42" ry="2.48" transform="translate(-23.21 448.35) rotate(-78.13)"/><circle class="cls-5" cx="267.41" cy="225.01" r="2.42"/><circle class="cls-5" cx="270.24" cy="211.54" r="2.42"/><circle class="cls-5" cx="273.07" cy="198.07" r="2.42"/><ellipse class="cls-5" cx="275.9" cy="184.6" rx="2.42" ry="2.48" transform="translate(38.5 416.64) rotate(-78.13)"/><circle class="cls-5" cx="278.73" cy="171.14" r="2.42"/><circle class="cls-5" cx="281.56" cy="157.67" r="2.42"/><circle class="cls-5" cx="269.56" cy="281.7" r="2.42"/><ellipse class="cls-5" cx="272.39" cy="268.24" rx="2.42" ry="2.48" transform="translate(-46.14 479.63) rotate(-78.13)"/><circle class="cls-5" cx="275.22" cy="254.77" r="2.42"/><ellipse class="cls-5" cx="278.05" cy="241.3" rx="2.42" ry="2.48" transform="translate(-15.28 463.78) rotate(-78.13)"/><circle class="cls-5" cx="280.88" cy="227.84" r="2.42"/><circle class="cls-5" cx="283.71" cy="214.37" r="2.42"/><circle class="cls-5" cx="286.54" cy="200.9" r="2.42"/><ellipse class="cls-5" cx="289.37" cy="187.43" rx="2.42" ry="2.48" transform="translate(46.43 432.07) rotate(-78.13)"/><circle class="cls-5" cx="292.2" cy="173.97" r="2.42"/><circle class="cls-5" cx="295.03" cy="160.5" r="2.42"/><circle class="cls-5" cx="283.02" cy="284.53" r="2.42"/><ellipse class="cls-5" cx="285.85" cy="271.07" rx="2.42" ry="2.48" transform="translate(-38.21 495.06) rotate(-78.13)"/><circle class="cls-5" cx="288.68" cy="257.6" r="2.42"/><ellipse class="cls-5" cx="291.51" cy="244.13" rx="2.42" ry="2.48" transform="translate(-7.36 479.2) rotate(-78.13)"/><circle class="cls-5" cx="294.34" cy="230.67" r="2.42"/><circle class="cls-5" cx="297.17" cy="217.2" r="2.42"/><circle class="cls-5" cx="300" cy="203.73" r="2.42"/><ellipse class="cls-5" cx="302.83" cy="190.26" rx="2.42" ry="2.48" transform="translate(54.35 447.49) rotate(-78.13)"/><circle class="cls-5" cx="305.67" cy="176.8" r="2.42"/><circle class="cls-5" cx="308.5" cy="163.33" r="2.42"/></g></g><g><path id="ic_favorite_24px" class="cls-2" d="m126.01,167.57c-3.16,4.36-9.05,5.72-13.8,3.16l-7.87-4.24C47.02,135.77,9.18,115.52,1.37,81.72-5.13,54.89,12.13,27.7,39.91,21c.33-.08.66-.16.99-.23,14.57-3.26,31.14,6,43.91,14.72,2.02,1.38,4.79.74,6-1.38,7.71-13.46,18.86-29.14,33.39-32.61,27.78-6.7,55.57,9.61,62.06,36.45.08.32.15.63.22.95,7.82,33.8-17.28,68.61-55.27,121.48l-5.2,7.19Z"/><g><path class="cls-5" d="m94.88,54.21c-1.43-.81-3.25-.38-4.06.97-.81,1.34-.3,3.09,1.14,3.9,1.44.81,3.26.38,4.07-.97.81-1.35.29-3.09-1.15-3.9Z"/><path class="cls-5" d="m116.39,150.07c-1.43-.82-3.25-.39-4.06.96-.81,1.35-.3,3.1,1.14,3.9,1.44.81,3.26.38,4.07-.97.81-1.34.29-3.09-1.15-3.89Z"/><path class="cls-5" d="m124.37,140.2c-1.44-.81-3.26-.38-4.07.96-.81,1.35-.3,3.1,1.14,3.9,1.44.82,3.26.39,4.07-.96.81-1.35.29-3.09-1.14-3.9Z"/><path class="cls-5" d="m132.47,130.57c-1.44-.82-3.26-.39-4.07.96-.8,1.34-.29,3.09,1.15,3.9,1.44.82,3.26.38,4.07-.96.8-1.34.29-3.09-1.15-3.9Z"/><path class="cls-5" d="m139.34,120.34c-1.44-.81-3.26-.38-4.07.97-.81,1.34-.29,3.09,1.15,3.89,1.43.82,3.25.39,4.06-.96.81-1.35.3-3.1-1.14-3.9Z"/><path class="cls-5" d="m146.71,109.85c-1.44-.81-3.26-.38-4.07.97-.8,1.34-.29,3.09,1.15,3.9,1.44.81,3.26.38,4.06-.97.81-1.35.3-3.09-1.14-3.9Z"/><path class="cls-5" d="m153.86,99.24c-1.43-.81-3.25-.38-4.06.97-.81,1.35-.3,3.09,1.14,3.9,1.44.81,3.26.38,4.07-.97.81-1.34.29-3.09-1.15-3.9Z"/><path class="cls-5" d="m160.62,88.47c-1.44-.81-3.26-.38-4.07.96-.81,1.35-.29,3.1,1.14,3.9,1.44.82,3.26.39,4.07-.96.81-1.35.3-3.1-1.14-3.9Z"/><path class="cls-5" d="m166.32,77.1c-1.44-.81-3.26-.38-4.07.96-.8,1.34-.29,3.09,1.15,3.9,1.44.82,3.26.39,4.06-.96.81-1.35.3-3.1-1.14-3.9Z"/><path class="cls-5" d="m172.69,52.44c-1.43-.82-3.25-.39-4.06.96-.81,1.35-.3,3.1,1.14,3.9s3.26.38,4.07-.96c.81-1.35.29-3.09-1.15-3.9Z"/><path class="cls-5" d="m170.63,39.7c-1.44-.81-3.26-.38-4.07.97-.81,1.35-.3,3.09,1.14,3.9,1.44.81,3.26.38,4.07-.97.81-1.34.29-3.09-1.14-3.9Z"/><path class="cls-5" d="m163.52,28.5c-1.44-.82-3.26-.39-4.07.96-.81,1.35-.29,3.09,1.14,3.9,1.44.81,3.26.38,4.07-.97.81-1.34.3-3.09-1.14-3.89Z"/><path class="cls-5" d="m152.88,20.89c-1.44-.82-3.26-.38-4.07.96-.81,1.35-.29,3.09,1.14,3.9,1.44.82,3.26.39,4.07-.96.81-1.35.3-3.1-1.14-3.9Z"/><path class="cls-5" d="m140.56,17.32c-1.44-.81-3.26-.38-4.06.96-.81,1.35-.3,3.1,1.14,3.9,1.44.82,3.26.39,4.07-.96.8-1.34.29-3.09-1.15-3.9Z"/><path class="cls-5" d="m128.01,18.33c-1.44-.81-3.26-.38-4.06.97-.81,1.34-.3,3.09,1.14,3.9,1.44.81,3.26.38,4.07-.97.8-1.34.29-3.09-1.15-3.9Z"/><path class="cls-5" d="m117.31,24.53c-1.44-.81-3.26-.38-4.07.97-.81,1.34-.29,3.09,1.14,3.89,1.44.82,3.26.39,4.07-.96s.3-3.09-1.14-3.9Z"/><path class="cls-5" d="m109.3,33.86c-1.44-.82-3.26-.39-4.07.96-.81,1.35-.29,3.09,1.15,3.9,1.43.81,3.25.38,4.06-.96.81-1.35.3-3.1-1.14-3.9Z"/><path class="cls-5" d="m102.15,44.13c-1.43-.81-3.25-.38-4.06.97-.81,1.35-.3,3.09,1.14,3.9,1.44.81,3.26.38,4.07-.97.81-1.34.29-3.09-1.15-3.9Z"/><path class="cls-5" d="m104.8,144.03c-1.32-.86-3.14-.44-4.08.91-.93,1.36-.63,3.15.69,4.01s3.14.44,4.08-.92c.94-1.36.63-3.15-.69-4Z"/><path class="cls-5" d="m93.3,138.94c-1.31-.85-3.14-.43-4.08.92-.94,1.36-.63,3.15.69,4.01,1.32.86,3.14.44,4.07-.92.94-1.36.64-3.15-.68-4.01Z"/><path class="cls-5" d="m60.32,120.19c-1.32-.86-3.14-.44-4.08.92-.94,1.36-.63,3.15.68,4.01,1.31.85,3.14.43,4.08-.92.94-1.36.63-3.15-.68-4.01Z"/><path class="cls-5" d="m49.51,113.48c-1.32-.86-3.14-.44-4.08.91-.93,1.36-.63,3.15.69,4.01,1.32.86,3.14.44,4.08-.91.94-1.37.62-3.16-.69-4.01Z"/><path class="cls-5" d="m39.4,105.77c-1.32-.86-3.14-.44-4.08.91-.94,1.36-.63,3.15.69,4.01,1.32.86,3.14.44,4.07-.92.94-1.36.64-3.15-.68-4Z"/><path class="cls-5" d="m30.14,97c-1.32-.86-3.14-.44-4.08.91-.94,1.37-.62,3.16.69,4.01,1.32.86,3.14.44,4.08-.91.93-1.36.63-3.15-.69-4.01Z"/><path class="cls-5" d="m22.84,86.4c-1.31-.85-3.14-.44-4.07.92-.94,1.36-.64,3.15.68,4.01,1.32.86,3.14.44,4.08-.92.94-1.36.63-3.15-.69-4.01Z"/><path class="cls-5" d="m19.11,74.06c-1.32-.86-3.14-.44-4.07.92-.94,1.36-.64,3.15.68,4,1.32.86,3.14.44,4.08-.91.94-1.37.63-3.15-.69-4.01Z"/><path class="cls-5" d="m20.57,60.87c-1.32-.86-3.14-.44-4.08.92-.94,1.36-.63,3.15.69,4.01,1.31.85,3.14.44,4.08-.92.93-1.35.63-3.15-.69-4.01Z"/><path class="cls-5" d="m26.8,49.36c-1.31-.85-3.14-.43-4.08.92-.93,1.35-.63,3.15.69,4.01,1.32.86,3.14.44,4.08-.92.94-1.36.63-3.15-.69-4.01Z"/><path class="cls-5" d="m48.02,36.15c-1.32-.86-3.14-.44-4.08.91-.94,1.37-.63,3.15.69,4.01,1.32.86,3.14.44,4.07-.91.94-1.37.64-3.15-.68-4.01Z"/><path class="cls-5" d="m60.35,37.02c-1.32-.86-3.14-.44-4.08.91-.93,1.36-.63,3.15.69,4.01,1.32.86,3.14.44,4.08-.91.94-1.37.62-3.16-.69-4.01Z"/><path class="cls-5" d="m71.64,41.87c-1.31-.85-3.14-.44-4.08.92-.94,1.36-.63,3.15.69,4.01s3.14.44,4.08-.92c.93-1.35.63-3.15-.69-4.01Z"/><path class="cls-5" d="m82.58,47.97c-1.32-.86-3.14-.44-4.08.92-.94,1.36-.63,3.15.68,4,1.32.86,3.14.44,4.08-.91.94-1.36.63-3.15-.68-4.01Z"/><path class="cls-5" d="m112.04,132.68c-1.44-.81-3.26-.38-4.07.97-.81,1.34-.3,3.09,1.14,3.9,1.44.81,3.26.38,4.07-.97s.29-3.09-1.14-3.9Z"/><path class="cls-5" d="m82.47,132.79c-1.44-.81-3.26-.38-4.07.97-.81,1.34-.3,3.09,1.14,3.9,1.44.81,3.26.38,4.07-.97s.29-3.09-1.14-3.9Z"/><path class="cls-5" d="m71.09,126.64c-1.44-.81-3.26-.38-4.07.97-.81,1.34-.3,3.09,1.14,3.9,1.44.81,3.26.38,4.07-.97s.29-3.09-1.14-3.9Z"/><path class="cls-5" d="m36.02,40.79c-1.44-.81-3.26-.38-4.07.97-.81,1.34-.3,3.09,1.14,3.9,1.44.81,3.26.38,4.07-.97s.29-3.09-1.14-3.9Z"/><path class="cls-5" d="m81.32,78.15c-1.44-.81-3.26-.38-4.07.97-.81,1.34-.3,3.09,1.14,3.9,1.44.81,3.26.38,4.07-.97s.29-3.09-1.14-3.9Z"/><path class="cls-5" d="m123.96,59.54c-1.44-.81-3.26-.38-4.07.97-.81,1.34-.3,3.09,1.14,3.9,1.44.81,3.26.38,4.07-.97s.29-3.09-1.14-3.9Z"/><path class="cls-5" d="m134.3,102.37c-1.44-.81-3.26-.38-4.07.97-.81,1.34-.3,3.09,1.14,3.9,1.44.81,3.26.38,4.07-.97s.29-3.09-1.14-3.9Z"/><path class="cls-5" d="m148.2,80.92c-1.44-.81-3.26-.38-4.07.97-.81,1.34-.3,3.09,1.14,3.9,1.44.81,3.26.38,4.07-.97s.29-3.09-1.14-3.9Z"/><path class="cls-5" d="m141.27,91.74c-1.44-.81-3.26-.38-4.07.97-.81,1.34-.3,3.09,1.14,3.9,1.44.81,3.26.38,4.07-.97s.29-3.09-1.14-3.9Z"/><path class="cls-5" d="m153.92,69.61c-1.44-.81-3.26-.38-4.07.97-.81,1.34-.3,3.09,1.14,3.9,1.44.81,3.26.38,4.07-.97s.29-3.09-1.14-3.9Z"/><path class="cls-5" d="m170.72,65.19c-1.44-.81-3.26-.38-4.07.97-.81,1.34-.3,3.09,1.14,3.9,1.44.81,3.26.38,4.07-.97s.29-3.09-1.14-3.9Z"/><path class="cls-5" d="m107.95,115.57c-1.43-.82-3.25-.39-4.06.96-.81,1.35-.3,3.1,1.14,3.9,1.44.81,3.26.38,4.07-.97.81-1.34.29-3.09-1.15-3.89Z"/><path class="cls-5" d="m115.54,103.24c-1.43-.82-3.25-.38-4.06.96-.81,1.35-.3,3.1,1.14,3.9,1.44.82,3.26.39,4.07-.96.81-1.35.29-3.09-1.15-3.9Z"/><path class="cls-5" d="m95.85,107.96c-1.44-.81-3.26-.38-4.07.97-.81,1.34-.29,3.09,1.15,3.9,1.43.81,3.25.38,4.06-.97s.3-3.09-1.14-3.9Z"/><path class="cls-5" d="m103.27,94.86c-1.44-.81-3.26-.38-4.07.97-.81,1.34-.29,3.09,1.15,3.89,1.43.82,3.25.39,4.06-.96.81-1.35.3-3.09-1.14-3.9Z"/><path class="cls-5" d="m86.26,98.5c-1.32-.86-3.14-.44-4.08.91-.94,1.37-.63,3.15.69,4.01s3.14.44,4.08-.91c.93-1.36.62-3.16-.69-4.01Z"/><path class="cls-5" d="m74.43,92.51c-1.31-.85-3.14-.44-4.08.92-.94,1.36-.63,3.15.69,4.01,1.32.86,3.14.44,4.08-.92.93-1.35.63-3.15-.69-4.01Z"/><path class="cls-5" d="m62.94,85.97c-1.32-.86-3.14-.44-4.08.91-.94,1.37-.62,3.16.69,4.01,1.32.86,3.14.44,4.08-.91.93-1.36.63-3.15-.69-4.01Z"/><path class="cls-5" d="m52.29,78.54c-1.31-.85-3.14-.43-4.08.92-.93,1.35-.63,3.15.69,4.01,1.32.86,3.14.44,4.08-.92.94-1.36.63-3.15-.69-4.01Z"/><path class="cls-5" d="m45.61,67.07c-1.31-.85-3.14-.43-4.08.92s-.63,3.15.69,4.01c1.32.86,3.14.44,4.07-.92.94-1.36.64-3.15-.68-4.01Z"/><path class="cls-5" d="m93.35,84.09c-1.31-.85-3.14-.43-4.08.92-.94,1.36-.63,3.15.69,4.01,1.32.86,3.14.44,4.08-.92.93-1.35.63-3.15-.69-4.01Z"/><path class="cls-5" d="m70.02,71.57c-1.32-.86-3.14-.44-4.08.91-.94,1.37-.63,3.15.69,4.01s3.14.44,4.07-.91c.94-1.37.63-3.16-.68-4.01Z"/><path class="cls-5" d="m58.76,65.53c-1.32-.86-3.14-.44-4.08.91-.93,1.36-.62,3.16.69,4.01,1.32.86,3.14.44,4.08-.91.94-1.37.63-3.15-.69-4.01Z"/><path class="cls-5" d="m121.28,90.84c-1.44-.82-3.26-.39-4.07.96-.81,1.35-.29,3.09,1.14,3.9,1.44.81,3.26.38,4.07-.96.81-1.35.3-3.1-1.14-3.9Z"/><path class="cls-5" d="m129.28,80.27c-1.44-.81-3.26-.38-4.07.97s-.29,3.09,1.14,3.9c1.44.81,3.26.38,4.07-.97.81-1.35.3-3.09-1.14-3.9Z"/><path class="cls-5" d="m136.73,69.34c-1.44-.82-3.26-.38-4.07.96-.81,1.35-.29,3.09,1.15,3.9,1.43.82,3.25.39,4.06-.96.81-1.35.3-3.1-1.14-3.9Z"/><path class="cls-5" d="m143.03,58c-1.44-.81-3.26-.38-4.07.97-.81,1.35-.29,3.09,1.14,3.9,1.44.81,3.26.38,4.07-.97.81-1.34.3-3.09-1.14-3.9Z"/><path class="cls-5" d="m144,44.76c-1.44-.81-3.26-.38-4.07.97-.81,1.35-.29,3.09,1.15,3.9,1.43.81,3.25.38,4.06-.97.81-1.34.3-3.09-1.14-3.9Z"/><path class="cls-5" d="m108.59,81.01c-1.44-.81-3.26-.38-4.07.97-.81,1.35-.29,3.09,1.14,3.9,1.44.81,3.26.38,4.07-.97s.3-3.09-1.14-3.9Z"/><path class="cls-5" d="m116.59,70.44c-1.44-.81-3.26-.38-4.07.97-.81,1.34-.29,3.09,1.15,3.89,1.43.82,3.25.39,4.06-.96.81-1.35.3-3.1-1.14-3.9Z"/><path class="cls-5" d="m131.5,49.15c-1.44-.82-3.26-.38-4.07.96-.81,1.35-.29,3.09,1.14,3.9,1.44.82,3.26.39,4.07-.96.81-1.35.29-3.09-1.14-3.9Z"/><path class="cls-5" d="m120.14,123.06c-1.44-.81-3.26-.38-4.07.96-.81,1.35-.29,3.09,1.15,3.9,1.43.82,3.25.39,4.06-.96.81-1.35.3-3.1-1.14-3.9Z"/><path class="cls-5" d="m127.01,112.83c-1.44-.81-3.26-.38-4.07.97-.81,1.34-.29,3.09,1.15,3.9,1.43.81,3.25.38,4.06-.97.81-1.35.3-3.09-1.14-3.9Z"/><path class="cls-5" d="m158.46,57.65c-1.44-.82-3.26-.39-4.07.96-.81,1.35-.29,3.09,1.15,3.9,1.43.81,3.25.38,4.06-.97.81-1.34.3-3.09-1.14-3.89Z"/><path class="cls-5" d="m158,44.06c-1.44-.81-3.26-.38-4.07.97-.81,1.34-.29,3.09,1.14,3.9,1.44.81,3.26.38,4.07-.97s.3-3.09-1.14-3.9Z"/><path class="cls-5" d="m150.46,33.27c-1.44-.82-3.26-.38-4.07.96-.81,1.35-.29,3.09,1.15,3.9,1.43.82,3.25.39,4.06-.96.81-1.35.3-3.1-1.14-3.9Z"/><path class="cls-5" d="m137.67,29.43c-1.44-.81-3.26-.38-4.06.97-.81,1.35-.3,3.09,1.14,3.9,1.44.81,3.26.38,4.07-.97.8-1.34.29-3.09-1.15-3.9Z"/><path class="cls-5" d="m126.07,34.38c-1.44-.82-3.26-.39-4.07.96-.81,1.35-.29,3.09,1.15,3.9,1.43.81,3.25.38,4.06-.97.81-1.34.3-3.09-1.14-3.89Z"/><path class="cls-5" d="m118.07,44.09c-1.44-.81-3.26-.38-4.07.96-.81,1.35-.29,3.09,1.14,3.9,1.44.82,3.26.39,4.07-.96.81-1.35.3-3.1-1.14-3.9Z"/><path class="cls-5" d="m111.28,54.75c-1.43-.82-3.25-.38-4.06.96-.81,1.35-.3,3.1,1.14,3.9,1.44.82,3.26.39,4.07-.96.81-1.35.29-3.09-1.15-3.9Z"/><path class="cls-5" d="m104.05,64.88c-1.43-.82-3.25-.39-4.06.96-.81,1.35-.3,3.1,1.14,3.9,1.44.82,3.26.38,4.07-.96.8-1.34.29-3.09-1.15-3.9Z"/><path class="cls-5" d="m100.33,126.75c-1.32-.86-3.14-.44-4.07.91-.94,1.37-.64,3.15.68,4.01,1.32.86,3.14.44,4.08-.91.94-1.37.62-3.16-.69-4.01Z"/><path class="cls-5" d="m89.66,120.57c-1.31-.86-3.13-.45-4.07.92-.94,1.36-.63,3.15.68,4,1.32.86,3.14.44,4.08-.91.94-1.37.63-3.15-.69-4.01Z"/><path class="cls-5" d="m78.44,114.38c-1.32-.86-3.14-.44-4.07.92-.94,1.36-.64,3.15.68,4.01,1.31.85,3.14.44,4.08-.92.94-1.36.63-3.15-.69-4.01Z"/><path class="cls-5" d="m67.35,107.99c-1.31-.85-3.14-.43-4.07.92-.94,1.36-.64,3.15.68,4.01,1.32.86,3.14.44,4.08-.92.94-1.36.63-3.15-.69-4.01Z"/><path class="cls-5" d="m56.55,101.28c-1.32-.86-3.14-.44-4.08.91-.94,1.37-.62,3.16.69,4.01,1.32.86,3.14.44,4.07-.91.94-1.37.64-3.15-.68-4.01Z"/><path class="cls-5" d="m46.44,93.57c-1.32-.86-3.14-.44-4.07.91-.94,1.37-.63,3.16.68,4.01,1.32.86,3.14.44,4.08-.91.94-1.37.63-3.15-.69-4.01Z"/><path class="cls-5" d="m37.18,84.8c-1.32-.86-3.14-.44-4.08.92-.94,1.36-.63,3.15.69,4.01,1.3.85,3.13.45,4.07-.92.94-1.36.63-3.15-.68-4.01Z"/><path class="cls-5" d="m31.64,72.4c-1.32-.86-3.14-.44-4.08.92-.94,1.36-.63,3.15.69,4,1.32.86,3.14.44,4.07-.91.94-1.37.64-3.15-.68-4.01Z"/><path class="cls-5" d="m35.33,58.63c-1.32-.86-3.14-.44-4.07.92-.94,1.36-.64,3.15.68,4,1.32.86,3.14.44,4.08-.91.94-1.37.63-3.15-.69-4.01Z"/><path class="cls-5" d="m45.9,50.91c-1.32-.86-3.14-.44-4.08.91-.93,1.36-.63,3.15.69,4.01,1.32.86,3.14.44,4.08-.91.94-1.37.62-3.16-.69-4.01Z"/><path class="cls-5" d="m58.5,50.26c-1.32-.86-3.14-.44-4.07.91-.94,1.37-.63,3.16.68,4.01,1.32.86,3.14.44,4.08-.91.94-1.37.63-3.15-.69-4.01Z"/><path class="cls-5" d="m69.95,55.47c-1.31-.85-3.14-.43-4.07.92-.94,1.36-.63,3.15.68,4.01,1.32.86,3.14.44,4.08-.92.94-1.36.63-3.15-.69-4.01Z"/><path class="cls-5" d="m80.73,62.06c-1.32-.86-3.14-.44-4.08.92-.94,1.36-.63,3.15.69,4.01,1.31.85,3.14.44,4.08-.92.93-1.35.63-3.15-.69-4.01Z"/><path class="cls-5" d="m91.67,67.99c-1.32-.86-3.14-.44-4.08.92-.94,1.36-.63,3.15.69,4.01,1.31.85,3.14.43,4.08-.92.93-1.35.63-3.15-.69-4.01Z"/></g></g><g><path class="cls-4" d="m148.49,190.69c-.71.26-1.38.73-2.01,1.38-.5.53-.92,1.15-1.23,1.82-.07.14-.12.28-.18.41-.61,1.52-.73,3.2-.28,4.62.13.46.33.89.58,1.27.3.45.65.82,1.06,1.09,1.57,1.08,3.77.74,5.44-1.04,2.1-2.23,2.59-5.87,1.11-8.13-.46-.7-1.05-1.18-1.72-1.45-.85-.35-1.82-.35-2.77.02Zm2.4,3.49c.67,1.1.43,2.88-.54,3.97-.98,1.09-2.32,1.08-2.98-.01-.16-.26-.27-.56-.33-.88-.19-1.03.12-2.26.87-3.1.25-.27.51-.47.78-.6.82-.42,1.7-.2,2.2.62Z"/><path class="cls-3" d="m144.02,187.7s.09.02.12.04l1.01.53,6.11,2.4c-.85-.35-1.82-.35-2.77.02-.71.26-1.38.73-2.01,1.38-.5.53-.92,1.15-1.23,1.82-.07.14-.12.28-.18.41-.61,1.52-.73,3.2-.28,4.62.13.46.33.89.58,1.27.3.45.65.82,1.06,1.09l-6.25-2.5-.06-.03c-.64-.27-1.21-.74-1.64-1.41-1.49-2.26-.99-5.9,1.11-8.13,1.34-1.42,3.02-1.93,4.43-1.52Z"/></g><g><path class="cls-4" d="m137.61,174.51c.51.55,1.2,1.01,2.04,1.34.69.26,1.42.42,2.15.45.15,0,.3.01.45.01,1.64,0,3.24-.53,4.39-1.49.37-.3.69-.64.95-1.02.31-.45.51-.91.61-1.39.41-1.87-.74-3.77-3.02-4.64-2.86-1.1-6.41-.18-7.95,2.05-.47.69-.7,1.42-.69,2.14,0,.92.37,1.82,1.07,2.56Zm2.33-3.54c.76-1.04,2.5-1.49,3.88-1,1.38.5,1.88,1.73,1.11,2.76-.18.25-.41.46-.69.64-.88.57-2.14.74-3.2.37-.34-.13-.63-.29-.85-.49-.7-.6-.83-1.5-.26-2.28Z"/><path class="cls-3" d="m136.53,179.78s-.01-.09,0-.13l.11-1.13-.09-6.56c0,.92.37,1.82,1.07,2.56.51.55,1.2,1.01,2.04,1.34.69.26,1.42.42,2.15.45.15,0,.3.01.45.01,1.64,0,3.24-.53,4.39-1.49.37-.3.69-.64.95-1.02.31-.45.51-.91.61-1.39l.05,6.73v.06c-.01.69-.23,1.4-.69,2.06-1.53,2.23-5.08,3.15-7.95,2.05-1.82-.71-2.93-2.07-3.08-3.53Z"/></g><g><path class="cls-8" d="m105.31,189c.31-.69.44-1.52.38-2.46-.05-.77-.24-1.54-.53-2.27-.06-.15-.13-.3-.19-.45-.75-1.61-2-3.01-3.45-3.83-.46-.27-.94-.47-1.43-.6-.58-.15-1.13-.2-1.64-.13-2.01.23-3.35,2-3.17,4.54.23,3.19,2.75,6.39,5.62,7.15.89.23,1.71.21,2.41-.04.9-.31,1.61-.97,2.02-1.91Zm-4.53-1.1c-1.36-.4-2.6-1.97-2.75-3.49-.14-1.53.84-2.44,2.2-2.03.32.1.64.25.94.46.96.68,1.7,1.86,1.82,3.03.03.38,0,.72-.09,1-.27.89-1.09,1.32-2.11,1.02Z"/><path class="cls-7" d="m110.96,188.29s-.08.04-.12.05l-1.16.27-6.39,2.3c.9-.31,1.61-.97,2.02-1.91.31-.69.44-1.52.38-2.46-.05-.77-.24-1.54-.53-2.27-.06-.15-.13-.3-.19-.45-.75-1.61-2-3.01-3.45-3.83-.46-.27-.94-.47-1.43-.6-.58-.15-1.13-.2-1.64-.13l6.57-2.31.06-.02c.68-.23,1.47-.25,2.33-.01,2.88.76,5.4,3.96,5.62,7.15.14,2.03-.69,3.58-2.06,4.23Z"/></g><g><path class="cls-4" d="m77.95,189.5c.57.49,1.31.86,2.18,1.09.71.18,1.46.25,2.19.2.15,0,.3-.03.45-.04,1.62-.2,3.15-.91,4.18-1.99.34-.34.61-.72.83-1.12.25-.49.4-.97.44-1.45.18-1.9-1.18-3.65-3.55-4.25-2.97-.75-6.39.58-7.65,2.97-.39.74-.52,1.5-.43,2.21.11.92.58,1.76,1.36,2.41Zm1.89-3.79c.63-1.12,2.31-1.78,3.74-1.45,1.43.33,2.07,1.5,1.43,2.61-.15.27-.36.51-.61.71-.8.67-2.04.99-3.14.75-.36-.08-.66-.21-.9-.39-.76-.51-1-1.39-.52-2.23Z"/><path class="cls-3" d="m77.5,194.86s-.02-.08-.02-.12l-.03-1.14-.86-6.51c.11.92.58,1.76,1.36,2.41.57.49,1.31.86,2.18,1.09.71.18,1.46.25,2.19.2.15,0,.3-.03.45-.04,1.62-.2,3.15-.91,4.18-1.99.34-.34.61-.72.83-1.12.25-.49.4-.97.44-1.45l.84,6.68v.06c.08.69-.06,1.41-.44,2.12-1.25,2.4-4.68,3.72-7.65,2.97-1.89-.49-3.15-1.71-3.48-3.14Z"/></g><g><path class="cls-8" d="m119.73,203.94c-.72-.2-1.55-.22-2.44-.05-.72.14-1.42.4-2.06.75-.14.07-.26.15-.39.23-1.39.87-2.46,2.16-2.94,3.58-.16.45-.25.91-.27,1.37-.02.55.05,1.05.22,1.5.64,1.8,2.62,2.8,5.02,2.34,3.01-.58,5.54-3.24,5.66-5.94.04-.84-.16-1.58-.55-2.18-.49-.78-1.27-1.35-2.26-1.6Zm-.1,4.24c-.1,1.28-1.34,2.59-2.77,2.9-1.44.31-2.51-.48-2.41-1.76.03-.31.11-.61.25-.9.45-.95,1.43-1.76,2.52-2.01.36-.08.69-.09.98-.03.91.14,1.5.83,1.42,1.8Z"/><path class="cls-7" d="m117.86,198.9s.06.07.07.1l.51,1.02,3.55,5.52c-.49-.78-1.27-1.35-2.26-1.6-.72-.2-1.55-.22-2.44-.05-.72.14-1.42.4-2.06.75-.14.07-.26.15-.39.23-1.39.87-2.46,2.16-2.94,3.58-.16.45-.25.91-.27,1.37-.02.55.05,1.05.22,1.5l-3.6-5.69-.03-.05c-.36-.59-.55-1.31-.5-2.11.12-2.7,2.65-5.36,5.66-5.94,1.92-.36,3.58.21,4.48,1.37Z"/></g><g><path class="cls-6" d="m344.53,137.84c.15-.74.53-1.49,1.13-2.22.49-.59,1.09-1.11,1.76-1.53.14-.09.28-.17.42-.25,1.55-.87,3.38-1.28,5.04-1.09.53.05,1.04.17,1.51.35.56.22,1.03.5,1.41.85,1.5,1.36,1.55,3.58-.08,5.54-2.05,2.46-5.96,3.58-8.74,2.52-.86-.33-1.51-.83-1.93-1.44-.55-.78-.74-1.73-.52-2.73Zm4.32,1.75c1.34.47,3.26-.08,4.27-1.23,1.01-1.16.74-2.47-.6-2.93-.32-.11-.67-.17-1.03-.17-1.17-.01-2.47.52-3.25,1.4-.25.29-.42.58-.51.87-.3.88.11,1.71,1.12,2.06Z"/><path class="cls-1" d="m340.35,133.96s.04.08.07.11l.78.9,3.84,5.6c-.55-.78-.74-1.73-.52-2.73.15-.74.53-1.49,1.13-2.22.49-.59,1.09-1.11,1.76-1.53.14-.09.28-.17.42-.25,1.55-.87,3.38-1.28,5.04-1.09.53.05,1.04.17,1.51.35.56.22,1.03.5,1.41.85l-3.98-5.72-.04-.05c-.42-.58-1.05-1.06-1.88-1.37-2.78-1.07-6.69.06-8.74,2.52-1.3,1.57-1.53,3.31-.8,4.63Z"/></g><g><path class="cls-6" d="m367.57,134.83c-.31-.69-.44-1.52-.38-2.46.05-.77.24-1.54.53-2.27.06-.15.13-.3.19-.45.75-1.61,2-3.01,3.45-3.83.46-.27.94-.47,1.43-.6.58-.15,1.13-.2,1.64-.13,2.01.23,3.35,2,3.17,4.54-.23,3.19-2.75,6.39-5.62,7.15-.89.23-1.71.21-2.41-.04-.9-.31-1.61-.97-2.02-1.91Zm4.53-1.1c1.36-.4,2.6-1.97,2.75-3.49.14-1.53-.84-2.44-2.2-2.03-.32.1-.64.25-.94.46-.96.68-1.7,1.86-1.82,3.03-.03.38,0,.72.09,1,.27.89,1.09,1.32,2.11,1.02Z"/><path class="cls-1" d="m361.92,134.12s.08.04.12.05l1.16.27,6.39,2.3c-.9-.31-1.61-.97-2.02-1.91-.31-.69-.44-1.52-.38-2.46.05-.77.24-1.54.53-2.27.06-.15.13-.3.19-.45.75-1.61,2-3.01,3.45-3.83.46-.27.94-.47,1.43-.6.58-.15,1.13-.2,1.64-.13l-6.57-2.31-.06-.02c-.68-.23-1.47-.25-2.33-.01-2.88.76-5.4,3.96-5.62,7.15-.14,2.03.69,3.58,2.06,4.23Z"/></g><g><path class="cls-6" d="m353.15,149.78c.72-.2,1.55-.22,2.44-.05.72.14,1.42.4,2.06.75.14.07.26.15.39.23,1.39.87,2.46,2.16,2.94,3.58.16.45.25.91.27,1.37.02.55-.05,1.05-.22,1.5-.64,1.8-2.62,2.8-5.02,2.34-3.01-.58-5.54-3.24-5.66-5.94-.04-.84.16-1.58.55-2.18.49-.78,1.27-1.35,2.26-1.6Zm.1,4.24c.1,1.28,1.34,2.59,2.77,2.9,1.44.31,2.51-.48,2.41-1.76-.03-.31-.11-.61-.25-.9-.45-.95-1.43-1.76-2.52-2.01-.36-.08-.69-.09-.98-.03-.91.14-1.5.83-1.42,1.8Z"/><path class="cls-1" d="m355.02,144.74s-.06.07-.07.1l-.51,1.02-3.55,5.52c.49-.78,1.27-1.35,2.26-1.6.72-.2,1.55-.22,2.44-.05.72.14,1.42.4,2.06.75.14.07.26.15.39.23,1.39.87,2.46,2.16,2.94,3.58.16.45.25.91.27,1.37.02.55-.05,1.05-.22,1.5l3.6-5.69.03-.05c.36-.59.55-1.31.5-2.11-.12-2.7-2.65-5.36-5.66-5.94-1.92-.36-3.58.21-4.48,1.37Z"/></g></g></svg>