<?xml version="1.0" encoding="UTF-8"?><svg id="Layer_1" xmlns="http://www.w3.org/2000/svg" width="380" height="425" viewBox="0 0 380 425"><defs><style>.cls-1{fill:#fac158;}.cls-2{fill:#f1f1f1;}.cls-3{fill:#e6c5be;}.cls-4{fill:#cf7042;}.cls-5{fill:#cbcbcb;}.cls-6{fill:#e1a55d;}.cls-7{fill:#95aa99;}.cls-8{fill:#5d718a;}</style></defs><g id="perleplade"><g><path class="cls-8" d="m129.54,252.37c-.15-.74-.53-1.49-1.13-2.22-.49-.59-1.09-1.11-1.76-1.53-.14-.09-.28-.17-.42-.25-1.55-.87-3.38-1.28-5.04-1.09-.53.05-1.04.17-1.51.35-.56.22-1.03.5-1.41.85-1.5,1.36-1.55,3.58.08,5.54,2.05,2.46,5.96,3.58,8.74,2.52.86-.33,1.51-.83,1.93-1.44.55-.78.74-1.73.52-2.73Zm-4.32,1.75c-1.34.47-3.26-.08-4.27-1.23-1.01-1.16-.74-2.47.6-2.93.32-.11.67-.17,1.03-.17,1.17-.01,2.47.52,3.25,1.4.25.29.42.58.51.87.3.88-.11,1.71-1.12,2.06Z"/><path class="cls-7" d="m133.71,248.49s-.04.08-.07.11l-.78.9-3.84,5.6c.55-.78.74-1.73.52-2.73-.15-.74-.53-1.49-1.13-2.22-.49-.59-1.09-1.11-1.76-1.53-.14-.09-.28-.17-.42-.25-1.55-.87-3.38-1.28-5.04-1.09-.53.05-1.04.17-1.51.35-.56.22-1.03.5-1.41.85l3.98-5.72.04-.05c.42-.58,1.05-1.06,1.88-1.37,2.78-1.07,6.69.06,8.74,2.52,1.3,1.57,1.53,3.31.8,4.63Z"/></g><g><rect class="cls-2" x="159.5" y="181.22" width="170" height="170" rx="12.2" ry="12.2" transform="translate(59.98 -44.59) rotate(11.87)"/><g><circle class="cls-5" cx="191.31" cy="184.76" r="2.42"/><ellipse class="cls-5" cx="204.77" cy="187.59" rx="2.48" ry="2.42" transform="translate(-20.92 349.4) rotate(-78.13)"/><circle class="cls-5" cx="218.24" cy="190.42" r="2.42"/><ellipse class="cls-5" cx="231.71" cy="193.25" rx="2.48" ry="2.42" transform="translate(-5.07 380.26) rotate(-78.13)"/><circle class="cls-5" cx="245.18" cy="196.08" r="2.42"/><circle class="cls-5" cx="258.64" cy="198.91" r="2.42"/><circle class="cls-5" cx="272.11" cy="201.74" r="2.42"/><ellipse class="cls-5" cx="285.58" cy="204.57" rx="2.48" ry="2.42" transform="translate(26.64 441.97) rotate(-78.13)"/><circle class="cls-5" cx="299.04" cy="207.4" r="2.42"/><circle class="cls-5" cx="312.51" cy="210.23" r="2.42"/><circle class="cls-5" cx="325.98" cy="213.06" r="2.42"/><circle class="cls-5" cx="297.67" cy="347.73" r="2.42"/><ellipse class="cls-5" cx="300.5" cy="334.26" rx="2.42" ry="2.48" transform="translate(-88.42 559.6) rotate(-78.13)"/><circle class="cls-5" cx="303.33" cy="320.8" r="2.42"/><ellipse class="cls-5" cx="306.16" cy="307.33" rx="2.42" ry="2.48" transform="translate(-57.56 543.74) rotate(-78.13)"/><circle class="cls-5" cx="309" cy="293.86" r="2.42"/><circle class="cls-5" cx="311.83" cy="280.4" r="2.42"/><circle class="cls-5" cx="314.66" cy="266.93" r="2.42"/><ellipse class="cls-5" cx="317.49" cy="253.46" rx="2.42" ry="2.48" transform="translate(4.15 512.03) rotate(-78.13)"/><circle class="cls-5" cx="320.32" cy="239.99" r="2.42"/><circle class="cls-5" cx="323.15" cy="226.53" r="2.42"/><circle class="cls-5" cx="163" cy="319.43" r="2.42"/><ellipse class="cls-5" cx="165.83" cy="305.96" rx="2.42" ry="2.48" transform="translate(-167.69 405.32) rotate(-78.13)"/><circle class="cls-5" cx="168.67" cy="292.49" r="2.42"/><ellipse class="cls-5" cx="171.5" cy="279.03" rx="2.42" ry="2.48" transform="translate(-136.84 389.47) rotate(-78.13)"/><circle class="cls-5" cx="174.33" cy="265.56" r="2.42"/><circle class="cls-5" cx="177.16" cy="252.09" r="2.42"/><circle class="cls-5" cx="179.99" cy="238.63" r="2.42"/><ellipse class="cls-5" cx="182.82" cy="225.16" rx="2.42" ry="2.48" transform="translate(-75.13 357.76) rotate(-78.13)"/><circle class="cls-5" cx="185.65" cy="211.69" r="2.42"/><circle class="cls-5" cx="188.48" cy="198.23" r="2.42"/><circle class="cls-5" cx="176.47" cy="322.26" r="2.42"/><ellipse class="cls-5" cx="179.3" cy="308.79" rx="2.42" ry="2.48" transform="translate(-159.76 420.75) rotate(-78.13)"/><circle class="cls-5" cx="182.13" cy="295.32" r="2.42"/><ellipse class="cls-5" cx="184.96" cy="281.86" rx="2.42" ry="2.48" transform="translate(-128.91 404.9) rotate(-78.13)"/><circle class="cls-5" cx="187.79" cy="268.39" r="2.42"/><circle class="cls-5" cx="190.62" cy="254.92" r="2.42"/><circle class="cls-5" cx="193.45" cy="241.46" r="2.42"/><ellipse class="cls-5" cx="196.28" cy="227.99" rx="2.42" ry="2.48" transform="translate(-67.2 373.19) rotate(-78.13)"/><circle class="cls-5" cx="199.11" cy="214.52" r="2.42"/><circle class="cls-5" cx="201.94" cy="201.06" r="2.42"/><circle class="cls-5" cx="189.94" cy="325.09" r="2.42"/><ellipse class="cls-5" cx="192.77" cy="311.62" rx="2.42" ry="2.48" transform="translate(-151.84 436.18) rotate(-78.13)"/><circle class="cls-5" cx="195.6" cy="298.15" r="2.42"/><ellipse class="cls-5" cx="198.43" cy="284.69" rx="2.42" ry="2.48" transform="translate(-120.98 420.32) rotate(-78.13)"/><circle class="cls-5" cx="201.26" cy="271.22" r="2.42"/><circle class="cls-5" cx="204.09" cy="257.75" r="2.42"/><circle class="cls-5" cx="206.92" cy="244.29" r="2.42"/><ellipse class="cls-5" cx="209.75" cy="230.82" rx="2.42" ry="2.48" transform="translate(-59.27 388.61) rotate(-78.13)"/><circle class="cls-5" cx="212.58" cy="217.35" r="2.42"/><circle class="cls-5" cx="215.41" cy="203.89" r="2.42"/><circle class="cls-5" cx="203.41" cy="327.92" r="2.42"/><ellipse class="cls-5" cx="206.24" cy="314.45" rx="2.42" ry="2.48" transform="translate(-143.91 451.61) rotate(-78.13)"/><circle class="cls-5" cx="209.07" cy="300.98" r="2.42"/><ellipse class="cls-5" cx="211.9" cy="287.52" rx="2.42" ry="2.48" transform="translate(-113.06 435.75) rotate(-78.13)"/><circle class="cls-5" cx="214.73" cy="274.05" r="2.42"/><circle class="cls-5" cx="217.56" cy="260.58" r="2.42"/><circle class="cls-5" cx="220.39" cy="247.12" r="2.42"/><ellipse class="cls-5" cx="223.22" cy="233.65" rx="2.42" ry="2.48" transform="translate(-51.35 404.04) rotate(-78.13)"/><circle class="cls-5" cx="226.05" cy="220.18" r="2.42"/><circle class="cls-5" cx="228.88" cy="206.72" r="2.42"/><circle class="cls-5" cx="216.87" cy="330.75" r="2.42"/><ellipse class="cls-5" cx="219.7" cy="317.28" rx="2.42" ry="2.48" transform="translate(-135.98 467.03) rotate(-78.13)"/><circle class="cls-5" cx="222.53" cy="303.81" r="2.42"/><ellipse class="cls-5" cx="225.36" cy="290.35" rx="2.42" ry="2.48" transform="translate(-105.13 451.18) rotate(-78.13)"/><circle class="cls-5" cx="228.19" cy="276.88" r="2.42"/><circle class="cls-5" cx="231.02" cy="263.41" r="2.42"/><circle class="cls-5" cx="233.85" cy="249.95" r="2.42"/><ellipse class="cls-5" cx="236.68" cy="236.48" rx="2.42" ry="2.48" transform="translate(-43.42 419.47) rotate(-78.13)"/><circle class="cls-5" cx="239.51" cy="223.01" r="2.42"/><circle class="cls-5" cx="242.34" cy="209.55" r="2.42"/><circle class="cls-5" cx="230.34" cy="333.58" r="2.42"/><ellipse class="cls-5" cx="233.17" cy="320.11" rx="2.42" ry="2.48" transform="translate(-128.05 482.46) rotate(-78.13)"/><circle class="cls-5" cx="236" cy="306.65" r="2.42"/><ellipse class="cls-5" cx="238.83" cy="293.18" rx="2.42" ry="2.48" transform="translate(-97.2 466.6) rotate(-78.13)"/><circle class="cls-5" cx="241.66" cy="279.71" r="2.42"/><circle class="cls-5" cx="244.49" cy="266.24" r="2.42"/><circle class="cls-5" cx="247.32" cy="252.78" r="2.42"/><ellipse class="cls-5" cx="250.15" cy="239.31" rx="2.42" ry="2.48" transform="translate(-35.49 434.89) rotate(-78.13)"/><circle class="cls-5" cx="252.98" cy="225.84" r="2.42"/><circle class="cls-5" cx="255.81" cy="212.38" r="2.42"/><circle class="cls-5" cx="243.81" cy="336.41" r="2.42"/><ellipse class="cls-5" cx="246.64" cy="322.94" rx="2.42" ry="2.48" transform="translate(-120.13 497.89) rotate(-78.13)"/><circle class="cls-5" cx="249.47" cy="309.48" r="2.42"/><ellipse class="cls-5" cx="252.3" cy="296.01" rx="2.42" ry="2.48" transform="translate(-89.27 482.03) rotate(-78.13)"/><circle class="cls-5" cx="255.13" cy="282.54" r="2.42"/><circle class="cls-5" cx="257.96" cy="269.07" r="2.42"/><circle class="cls-5" cx="260.79" cy="255.61" r="2.42"/><ellipse class="cls-5" cx="263.62" cy="242.14" rx="2.42" ry="2.48" transform="translate(-27.56 450.32) rotate(-78.13)"/><circle class="cls-5" cx="266.45" cy="228.67" r="2.42"/><circle class="cls-5" cx="269.28" cy="215.21" r="2.42"/><circle class="cls-5" cx="257.27" cy="339.24" r="2.42"/><ellipse class="cls-5" cx="260.1" cy="325.77" rx="2.42" ry="2.48" transform="translate(-112.2 513.31) rotate(-78.13)"/><circle class="cls-5" cx="262.93" cy="312.31" r="2.42"/><ellipse class="cls-5" cx="265.76" cy="298.84" rx="2.42" ry="2.48" transform="translate(-81.35 497.46) rotate(-78.13)"/><circle class="cls-5" cx="268.59" cy="285.37" r="2.42"/><circle class="cls-5" cx="271.42" cy="271.9" r="2.42"/><circle class="cls-5" cx="274.25" cy="258.44" r="2.42"/><ellipse class="cls-5" cx="277.09" cy="244.97" rx="2.42" ry="2.48" transform="translate(-19.64 465.75) rotate(-78.13)"/><circle class="cls-5" cx="279.92" cy="231.5" r="2.42"/><circle class="cls-5" cx="282.75" cy="218.04" r="2.42"/><circle class="cls-5" cx="270.74" cy="342.07" r="2.42"/><ellipse class="cls-5" cx="273.57" cy="328.6" rx="2.42" ry="2.48" transform="translate(-104.27 528.74) rotate(-78.13)"/><circle class="cls-5" cx="276.4" cy="315.14" r="2.42"/><ellipse class="cls-5" cx="279.23" cy="301.67" rx="2.42" ry="2.48" transform="translate(-73.42 512.89) rotate(-78.13)"/><circle class="cls-5" cx="282.06" cy="288.2" r="2.42"/><circle class="cls-5" cx="284.89" cy="274.74" r="2.42"/><circle class="cls-5" cx="287.72" cy="261.27" r="2.42"/><ellipse class="cls-5" cx="290.55" cy="247.8" rx="2.42" ry="2.48" transform="translate(-11.71 481.18) rotate(-78.13)"/><circle class="cls-5" cx="293.38" cy="234.33" r="2.42"/><circle class="cls-5" cx="296.21" cy="220.87" r="2.42"/><circle class="cls-5" cx="284.21" cy="344.9" r="2.42"/><ellipse class="cls-5" cx="287.04" cy="331.43" rx="2.42" ry="2.48" transform="translate(-96.34 544.17) rotate(-78.13)"/><circle class="cls-5" cx="289.87" cy="317.97" r="2.42"/><ellipse class="cls-5" cx="292.7" cy="304.5" rx="2.42" ry="2.48" transform="translate(-65.49 528.31) rotate(-78.13)"/><circle class="cls-5" cx="295.53" cy="291.03" r="2.42"/><circle class="cls-5" cx="298.36" cy="277.57" r="2.42"/><circle class="cls-5" cx="301.19" cy="264.1" r="2.42"/><ellipse class="cls-5" cx="304.02" cy="250.63" rx="2.42" ry="2.48" transform="translate(-3.78 496.6) rotate(-78.13)"/><circle class="cls-5" cx="306.85" cy="237.16" r="2.42"/><circle class="cls-5" cx="309.68" cy="223.7" r="2.42"/></g></g><g><path id="ic_favorite_24px" class="cls-2" d="m127.19,227.94c-3.16,4.36-9.05,5.72-13.8,3.16l-7.87-4.24C48.21,196.14,10.37,175.88,2.55,142.09c-6.49-26.83,10.76-54.02,38.54-60.72.33-.08.66-.16.99-.23,14.57-3.26,31.14,6,43.91,14.72,2.02,1.38,4.79.74,6-1.38,7.71-13.46,18.86-29.14,33.39-32.61,27.78-6.7,55.57,9.61,62.06,36.45.08.32.15.63.22.95,7.82,33.8-17.28,68.61-55.27,121.48l-5.2,7.19Z"/><g><path class="cls-5" d="m96.07,114.58c-1.43-.81-3.25-.38-4.06.97-.81,1.34-.3,3.09,1.14,3.9,1.44.81,3.26.38,4.07-.97.81-1.35.29-3.09-1.15-3.9Z"/><path class="cls-5" d="m117.57,210.44c-1.43-.82-3.25-.39-4.06.96-.81,1.35-.3,3.1,1.14,3.9,1.44.81,3.26.38,4.07-.97.81-1.34.29-3.09-1.15-3.89Z"/><path class="cls-5" d="m125.55,200.56c-1.44-.81-3.26-.38-4.07.96-.81,1.35-.3,3.1,1.14,3.9,1.44.82,3.26.39,4.07-.96.81-1.35.29-3.09-1.14-3.9Z"/><path class="cls-5" d="m133.65,190.94c-1.44-.82-3.26-.39-4.07.96-.8,1.34-.29,3.09,1.15,3.9,1.44.82,3.26.38,4.07-.96.8-1.34.29-3.09-1.15-3.9Z"/><path class="cls-5" d="m140.52,180.71c-1.44-.81-3.26-.38-4.07.97-.81,1.34-.29,3.09,1.15,3.89,1.43.82,3.25.39,4.06-.96.81-1.35.3-3.1-1.14-3.9Z"/><path class="cls-5" d="m147.89,170.22c-1.44-.81-3.26-.38-4.07.97-.8,1.34-.29,3.09,1.15,3.9,1.44.81,3.26.38,4.06-.97.81-1.35.3-3.09-1.14-3.9Z"/><path class="cls-5" d="m155.04,159.6c-1.43-.81-3.25-.38-4.06.97-.81,1.35-.3,3.09,1.14,3.9,1.44.81,3.26.38,4.07-.97.81-1.34.29-3.09-1.15-3.9Z"/><path class="cls-5" d="m161.81,148.83c-1.44-.81-3.26-.38-4.07.96-.81,1.35-.29,3.1,1.14,3.9,1.44.82,3.26.39,4.07-.96.81-1.35.3-3.1-1.14-3.9Z"/><path class="cls-5" d="m167.5,137.47c-1.44-.81-3.26-.38-4.07.96-.8,1.34-.29,3.09,1.15,3.9,1.44.82,3.26.39,4.06-.96.81-1.35.3-3.1-1.14-3.9Z"/><path class="cls-5" d="m173.87,112.81c-1.43-.82-3.25-.39-4.06.96-.81,1.35-.3,3.1,1.14,3.9s3.26.38,4.07-.96c.81-1.35.29-3.09-1.15-3.9Z"/><path class="cls-5" d="m171.81,100.06c-1.44-.81-3.26-.38-4.07.97-.81,1.35-.3,3.09,1.14,3.9,1.44.81,3.26.38,4.07-.97.81-1.34.29-3.09-1.14-3.9Z"/><path class="cls-5" d="m164.71,88.87c-1.44-.82-3.26-.39-4.07.96-.81,1.35-.29,3.09,1.14,3.9,1.44.81,3.26.38,4.07-.97.81-1.34.3-3.09-1.14-3.89Z"/><path class="cls-5" d="m154.06,81.26c-1.44-.82-3.26-.38-4.07.96-.81,1.35-.29,3.09,1.14,3.9,1.44.82,3.26.39,4.07-.96.81-1.35.3-3.1-1.14-3.9Z"/><path class="cls-5" d="m141.75,77.68c-1.44-.81-3.26-.38-4.06.96-.81,1.35-.3,3.1,1.14,3.9,1.44.82,3.26.39,4.07-.96.8-1.34.29-3.09-1.15-3.9Z"/><path class="cls-5" d="m129.19,78.7c-1.44-.81-3.26-.38-4.06.97-.81,1.34-.3,3.09,1.14,3.9,1.44.81,3.26.38,4.07-.97.8-1.34.29-3.09-1.15-3.9Z"/><path class="cls-5" d="m118.5,84.9c-1.44-.81-3.26-.38-4.07.97-.81,1.34-.29,3.09,1.14,3.89,1.44.82,3.26.39,4.07-.96s.3-3.09-1.14-3.9Z"/><path class="cls-5" d="m110.48,94.22c-1.44-.82-3.26-.39-4.07.96-.81,1.35-.29,3.09,1.15,3.9,1.43.81,3.25.38,4.06-.96.81-1.35.3-3.1-1.14-3.9Z"/><path class="cls-5" d="m103.33,104.5c-1.43-.81-3.25-.38-4.06.97-.81,1.35-.3,3.09,1.14,3.9,1.44.81,3.26.38,4.07-.97.81-1.34.29-3.09-1.15-3.9Z"/><path class="cls-5" d="m105.98,204.4c-1.32-.86-3.14-.44-4.08.91-.93,1.36-.63,3.15.69,4.01s3.14.44,4.08-.92c.94-1.36.63-3.15-.69-4Z"/><path class="cls-5" d="m94.48,199.3c-1.31-.85-3.14-.43-4.08.92-.94,1.36-.63,3.15.69,4.01,1.32.86,3.14.44,4.07-.92.94-1.36.64-3.15-.68-4.01Z"/><path class="cls-5" d="m61.51,180.55c-1.32-.86-3.14-.44-4.08.92-.94,1.36-.63,3.15.68,4.01,1.31.85,3.14.43,4.08-.92.94-1.36.63-3.15-.68-4.01Z"/><path class="cls-5" d="m50.7,173.85c-1.32-.86-3.14-.44-4.08.91-.93,1.36-.63,3.15.69,4.01,1.32.86,3.14.44,4.08-.91.94-1.37.62-3.16-.69-4.01Z"/><path class="cls-5" d="m40.59,166.13c-1.32-.86-3.14-.44-4.08.91-.94,1.36-.63,3.15.69,4.01,1.32.86,3.14.44,4.07-.92.94-1.36.64-3.15-.68-4Z"/><path class="cls-5" d="m31.32,157.37c-1.32-.86-3.14-.44-4.08.91-.94,1.37-.62,3.16.69,4.01,1.32.86,3.14.44,4.08-.91.93-1.36.63-3.15-.69-4.01Z"/><path class="cls-5" d="m24.03,146.77c-1.31-.85-3.14-.44-4.07.92-.94,1.36-.64,3.15.68,4.01,1.32.86,3.14.44,4.08-.92.94-1.36.63-3.15-.69-4.01Z"/><path class="cls-5" d="m20.29,134.42c-1.32-.86-3.14-.44-4.07.92-.94,1.36-.64,3.15.68,4,1.32.86,3.14.44,4.08-.91.94-1.37.63-3.15-.69-4.01Z"/><path class="cls-5" d="m21.76,121.23c-1.32-.86-3.14-.44-4.08.92-.94,1.36-.63,3.15.69,4.01,1.31.85,3.14.44,4.08-.92.93-1.35.63-3.15-.69-4.01Z"/><path class="cls-5" d="m27.98,109.72c-1.31-.85-3.14-.43-4.08.92-.93,1.35-.63,3.15.69,4.01,1.32.86,3.14.44,4.08-.92.94-1.36.63-3.15-.69-4.01Z"/><path class="cls-5" d="m49.2,96.51c-1.32-.86-3.14-.44-4.08.91-.94,1.37-.63,3.15.69,4.01,1.32.86,3.14.44,4.07-.91.94-1.37.64-3.15-.68-4.01Z"/><path class="cls-5" d="m61.53,97.39c-1.32-.86-3.14-.44-4.08.91-.93,1.36-.63,3.15.69,4.01,1.32.86,3.14.44,4.08-.91.94-1.37.62-3.16-.69-4.01Z"/><path class="cls-5" d="m72.83,102.24c-1.31-.85-3.14-.44-4.08.92-.94,1.36-.63,3.15.69,4.01s3.14.44,4.08-.92c.93-1.35.63-3.15-.69-4.01Z"/><path class="cls-5" d="m83.76,108.34c-1.32-.86-3.14-.44-4.08.92-.94,1.36-.63,3.15.68,4,1.32.86,3.14.44,4.08-.91.94-1.36.63-3.15-.68-4.01Z"/><path class="cls-5" d="m113.22,193.05c-1.44-.81-3.26-.38-4.07.97-.81,1.34-.3,3.09,1.14,3.9,1.44.81,3.26.38,4.07-.97s.29-3.09-1.14-3.9Z"/><path class="cls-5" d="m83.65,193.16c-1.44-.81-3.26-.38-4.07.97-.81,1.34-.3,3.09,1.14,3.9,1.44.81,3.26.38,4.07-.97s.29-3.09-1.14-3.9Z"/><path class="cls-5" d="m72.27,187.01c-1.44-.81-3.26-.38-4.07.97-.81,1.34-.3,3.09,1.14,3.9,1.44.81,3.26.38,4.07-.97s.29-3.09-1.14-3.9Z"/><path class="cls-5" d="m37.2,101.16c-1.44-.81-3.26-.38-4.07.97-.81,1.34-.3,3.09,1.14,3.9,1.44.81,3.26.38,4.07-.97s.29-3.09-1.14-3.9Z"/><path class="cls-5" d="m82.5,138.52c-1.44-.81-3.26-.38-4.07.97-.81,1.34-.3,3.09,1.14,3.9,1.44.81,3.26.38,4.07-.97s.29-3.09-1.14-3.9Z"/><path class="cls-5" d="m125.14,119.91c-1.44-.81-3.26-.38-4.07.97-.81,1.34-.3,3.09,1.14,3.9,1.44.81,3.26.38,4.07-.97s.29-3.09-1.14-3.9Z"/><path class="cls-5" d="m135.48,162.74c-1.44-.81-3.26-.38-4.07.97-.81,1.34-.3,3.09,1.14,3.9,1.44.81,3.26.38,4.07-.97s.29-3.09-1.14-3.9Z"/><path class="cls-5" d="m149.38,141.29c-1.44-.81-3.26-.38-4.07.97-.81,1.34-.3,3.09,1.14,3.9,1.44.81,3.26.38,4.07-.97s.29-3.09-1.14-3.9Z"/><path class="cls-5" d="m142.45,152.1c-1.44-.81-3.26-.38-4.07.97-.81,1.34-.3,3.09,1.14,3.9,1.44.81,3.26.38,4.07-.97s.29-3.09-1.14-3.9Z"/><path class="cls-5" d="m155.1,129.98c-1.44-.81-3.26-.38-4.07.97-.81,1.34-.3,3.09,1.14,3.9,1.44.81,3.26.38,4.07-.97s.29-3.09-1.14-3.9Z"/><path class="cls-5" d="m171.9,125.55c-1.44-.81-3.26-.38-4.07.97-.81,1.34-.3,3.09,1.14,3.9,1.44.81,3.26.38,4.07-.97s.29-3.09-1.14-3.9Z"/><path class="cls-5" d="m109.13,175.94c-1.43-.82-3.25-.39-4.06.96-.81,1.35-.3,3.1,1.14,3.9,1.44.81,3.26.38,4.07-.97.81-1.34.29-3.09-1.15-3.89Z"/><path class="cls-5" d="m116.73,163.61c-1.43-.82-3.25-.38-4.06.96-.81,1.35-.3,3.1,1.14,3.9,1.44.82,3.26.39,4.07-.96.81-1.35.29-3.09-1.15-3.9Z"/><path class="cls-5" d="m97.04,168.33c-1.44-.81-3.26-.38-4.07.97-.81,1.34-.29,3.09,1.15,3.9,1.43.81,3.25.38,4.06-.97s.3-3.09-1.14-3.9Z"/><path class="cls-5" d="m104.45,155.22c-1.44-.81-3.26-.38-4.07.97-.81,1.34-.29,3.09,1.15,3.89,1.43.82,3.25.39,4.06-.96.81-1.35.3-3.09-1.14-3.9Z"/><path class="cls-5" d="m87.45,158.87c-1.32-.86-3.14-.44-4.08.91-.94,1.37-.63,3.15.69,4.01s3.14.44,4.08-.91c.93-1.36.62-3.16-.69-4.01Z"/><path class="cls-5" d="m75.61,152.88c-1.31-.85-3.14-.44-4.08.92-.94,1.36-.63,3.15.69,4.01,1.32.86,3.14.44,4.08-.92.93-1.35.63-3.15-.69-4.01Z"/><path class="cls-5" d="m64.12,146.33c-1.32-.86-3.14-.44-4.08.91-.94,1.37-.62,3.16.69,4.01,1.32.86,3.14.44,4.08-.91.93-1.36.63-3.15-.69-4.01Z"/><path class="cls-5" d="m53.48,138.91c-1.31-.85-3.14-.43-4.08.92-.93,1.35-.63,3.15.69,4.01,1.32.86,3.14.44,4.08-.92.94-1.36.63-3.15-.69-4.01Z"/><path class="cls-5" d="m46.8,127.44c-1.31-.85-3.14-.43-4.08.92s-.63,3.15.69,4.01c1.32.86,3.14.44,4.07-.92.94-1.36.64-3.15-.68-4.01Z"/><path class="cls-5" d="m94.53,144.46c-1.31-.85-3.14-.43-4.08.92-.94,1.36-.63,3.15.69,4.01,1.32.86,3.14.44,4.08-.92.93-1.35.63-3.15-.69-4.01Z"/><path class="cls-5" d="m71.21,131.93c-1.32-.86-3.14-.44-4.08.91-.94,1.37-.63,3.15.69,4.01s3.14.44,4.07-.91c.94-1.37.63-3.16-.68-4.01Z"/><path class="cls-5" d="m59.95,125.9c-1.32-.86-3.14-.44-4.08.91-.93,1.36-.62,3.16.69,4.01,1.32.86,3.14.44,4.08-.91.94-1.37.63-3.15-.69-4.01Z"/><path class="cls-5" d="m122.46,151.21c-1.44-.82-3.26-.39-4.07.96-.81,1.35-.29,3.09,1.14,3.9,1.44.81,3.26.38,4.07-.96.81-1.35.3-3.1-1.14-3.9Z"/><path class="cls-5" d="m130.46,140.63c-1.44-.81-3.26-.38-4.07.97s-.29,3.09,1.14,3.9c1.44.81,3.26.38,4.07-.97.81-1.35.3-3.09-1.14-3.9Z"/><path class="cls-5" d="m137.91,129.7c-1.44-.82-3.26-.38-4.07.96-.81,1.35-.29,3.09,1.15,3.9,1.43.82,3.25.39,4.06-.96.81-1.35.3-3.1-1.14-3.9Z"/><path class="cls-5" d="m144.22,118.36c-1.44-.81-3.26-.38-4.07.97-.81,1.35-.29,3.09,1.14,3.9,1.44.81,3.26.38,4.07-.97.81-1.34.3-3.09-1.14-3.9Z"/><path class="cls-5" d="m145.18,105.12c-1.44-.81-3.26-.38-4.07.97-.81,1.35-.29,3.09,1.15,3.9,1.43.81,3.25.38,4.06-.97.81-1.34.3-3.09-1.14-3.9Z"/><path class="cls-5" d="m109.77,141.38c-1.44-.81-3.26-.38-4.07.97-.81,1.35-.29,3.09,1.14,3.9,1.44.81,3.26.38,4.07-.97s.3-3.09-1.14-3.9Z"/><path class="cls-5" d="m117.77,130.81c-1.44-.81-3.26-.38-4.07.97-.81,1.34-.29,3.09,1.15,3.89,1.43.82,3.25.39,4.06-.96.81-1.35.3-3.1-1.14-3.9Z"/><path class="cls-5" d="m132.69,109.51c-1.44-.82-3.26-.38-4.07.96-.81,1.35-.29,3.09,1.14,3.9,1.44.82,3.26.39,4.07-.96.81-1.35.29-3.09-1.14-3.9Z"/><path class="cls-5" d="m121.32,183.43c-1.44-.81-3.26-.38-4.07.96-.81,1.35-.29,3.09,1.15,3.9,1.43.82,3.25.39,4.06-.96.81-1.35.3-3.1-1.14-3.9Z"/><path class="cls-5" d="m128.19,173.19c-1.44-.81-3.26-.38-4.07.97-.81,1.34-.29,3.09,1.15,3.9,1.43.81,3.25.38,4.06-.97.81-1.35.3-3.09-1.14-3.9Z"/><path class="cls-5" d="m159.65,118.02c-1.44-.82-3.26-.39-4.07.96-.81,1.35-.29,3.09,1.15,3.9,1.43.81,3.25.38,4.06-.97.81-1.34.3-3.09-1.14-3.89Z"/><path class="cls-5" d="m159.18,104.43c-1.44-.81-3.26-.38-4.07.97-.81,1.34-.29,3.09,1.14,3.9,1.44.81,3.26.38,4.07-.97s.3-3.09-1.14-3.9Z"/><path class="cls-5" d="m151.65,93.63c-1.44-.82-3.26-.38-4.07.96-.81,1.35-.29,3.09,1.15,3.9,1.43.82,3.25.39,4.06-.96.81-1.35.3-3.1-1.14-3.9Z"/><path class="cls-5" d="m138.85,89.8c-1.44-.81-3.26-.38-4.06.97-.81,1.35-.3,3.09,1.14,3.9,1.44.81,3.26.38,4.07-.97.8-1.34.29-3.09-1.15-3.9Z"/><path class="cls-5" d="m127.25,94.75c-1.44-.82-3.26-.39-4.07.96-.81,1.35-.29,3.09,1.15,3.9,1.43.81,3.25.38,4.06-.97.81-1.34.3-3.09-1.14-3.89Z"/><path class="cls-5" d="m119.25,104.46c-1.44-.81-3.26-.38-4.07.96-.81,1.35-.29,3.09,1.14,3.9,1.44.82,3.26.39,4.07-.96.81-1.35.3-3.1-1.14-3.9Z"/><path class="cls-5" d="m112.46,115.12c-1.43-.82-3.25-.38-4.06.96-.81,1.35-.3,3.1,1.14,3.9,1.44.82,3.26.39,4.07-.96.81-1.35.29-3.09-1.15-3.9Z"/><path class="cls-5" d="m105.24,125.24c-1.43-.82-3.25-.39-4.06.96-.81,1.35-.3,3.1,1.14,3.9,1.44.82,3.26.38,4.07-.96.8-1.34.29-3.09-1.15-3.9Z"/><path class="cls-5" d="m101.51,187.11c-1.32-.86-3.14-.44-4.07.91-.94,1.37-.64,3.15.68,4.01,1.32.86,3.14.44,4.08-.91.94-1.37.62-3.16-.69-4.01Z"/><path class="cls-5" d="m90.85,180.94c-1.31-.86-3.13-.45-4.07.92-.94,1.36-.63,3.15.68,4,1.32.86,3.14.44,4.08-.91.94-1.37.63-3.15-.69-4.01Z"/><path class="cls-5" d="m79.62,174.75c-1.32-.86-3.14-.44-4.07.92-.94,1.36-.64,3.15.68,4.01,1.31.85,3.14.44,4.08-.92.94-1.36.63-3.15-.69-4.01Z"/><path class="cls-5" d="m68.54,168.35c-1.31-.85-3.14-.43-4.07.92-.94,1.36-.64,3.15.68,4.01,1.32.86,3.14.44,4.08-.92.94-1.36.63-3.15-.69-4.01Z"/><path class="cls-5" d="m57.74,161.64c-1.32-.86-3.14-.44-4.08.91-.94,1.37-.62,3.16.69,4.01,1.32.86,3.14.44,4.07-.91.94-1.37.64-3.15-.68-4.01Z"/><path class="cls-5" d="m47.62,153.94c-1.32-.86-3.14-.44-4.07.91-.94,1.37-.63,3.16.68,4.01,1.32.86,3.14.44,4.08-.91.94-1.37.63-3.15-.69-4.01Z"/><path class="cls-5" d="m38.37,145.17c-1.32-.86-3.14-.44-4.08.92-.94,1.36-.63,3.15.69,4.01,1.3.85,3.13.45,4.07-.92.94-1.36.63-3.15-.68-4.01Z"/><path class="cls-5" d="m32.82,132.77c-1.32-.86-3.14-.44-4.08.92-.94,1.36-.63,3.15.69,4,1.32.86,3.14.44,4.07-.91.94-1.37.64-3.15-.68-4.01Z"/><path class="cls-5" d="m36.51,119c-1.32-.86-3.14-.44-4.07.92-.94,1.36-.64,3.15.68,4,1.32.86,3.14.44,4.08-.91.94-1.37.63-3.15-.69-4.01Z"/><path class="cls-5" d="m47.08,111.28c-1.32-.86-3.14-.44-4.08.91-.93,1.36-.63,3.15.69,4.01,1.32.86,3.14.44,4.08-.91.94-1.37.62-3.16-.69-4.01Z"/><path class="cls-5" d="m59.68,110.62c-1.32-.86-3.14-.44-4.07.91-.94,1.37-.63,3.16.68,4.01,1.32.86,3.14.44,4.08-.91.94-1.37.63-3.15-.69-4.01Z"/><path class="cls-5" d="m71.13,115.84c-1.31-.85-3.14-.43-4.07.92-.94,1.36-.63,3.15.68,4.01,1.32.86,3.14.44,4.08-.92.94-1.36.63-3.15-.69-4.01Z"/><path class="cls-5" d="m81.91,122.43c-1.32-.86-3.14-.44-4.08.92-.94,1.36-.63,3.15.69,4.01,1.31.85,3.14.44,4.08-.92.93-1.35.63-3.15-.69-4.01Z"/><path class="cls-5" d="m92.85,128.36c-1.32-.86-3.14-.44-4.08.92-.94,1.36-.63,3.15.69,4.01,1.31.85,3.14.43,4.08-.92.93-1.35.63-3.15-.69-4.01Z"/></g></g><g><path class="cls-4" d="m149.67,251.06c-.71.26-1.38.73-2.01,1.38-.5.53-.92,1.15-1.23,1.82-.07.14-.12.28-.18.41-.61,1.52-.73,3.2-.28,4.62.13.46.33.89.58,1.27.3.45.65.82,1.06,1.09,1.57,1.08,3.77.74,5.44-1.04,2.1-2.23,2.59-5.87,1.11-8.13-.46-.7-1.05-1.18-1.72-1.45-.85-.35-1.82-.35-2.77.02Zm2.4,3.49c.67,1.1.43,2.88-.54,3.97-.98,1.09-2.32,1.08-2.98-.01-.16-.26-.27-.56-.33-.88-.19-1.03.12-2.26.87-3.1.25-.27.51-.47.78-.6.82-.42,1.7-.2,2.2.62Z"/><path class="cls-3" d="m145.2,248.06s.09.02.12.04l1.01.53,6.11,2.4c-.85-.35-1.82-.35-2.77.02-.71.26-1.38.73-2.01,1.38-.5.53-.92,1.15-1.23,1.82-.07.14-.12.28-.18.41-.61,1.52-.73,3.2-.28,4.62.13.46.33.89.58,1.27.3.45.65.82,1.06,1.09l-6.25-2.5-.06-.03c-.64-.27-1.21-.74-1.64-1.41-1.49-2.26-.99-5.9,1.11-8.13,1.34-1.42,3.02-1.93,4.43-1.52Z"/></g><g><path class="cls-4" d="m138.79,234.88c.51.55,1.2,1.01,2.04,1.34.69.26,1.42.42,2.15.45.15,0,.3.01.45.01,1.64,0,3.24-.53,4.39-1.49.37-.3.69-.64.95-1.02.31-.45.51-.91.61-1.39.41-1.87-.74-3.77-3.02-4.64-2.86-1.1-6.41-.18-7.95,2.05-.47.69-.7,1.42-.69,2.14,0,.92.37,1.82,1.07,2.56Zm2.33-3.54c.76-1.04,2.5-1.49,3.88-1,1.38.5,1.88,1.73,1.11,2.76-.18.25-.41.46-.69.64-.88.57-2.14.74-3.2.37-.34-.13-.63-.29-.85-.49-.7-.6-.83-1.5-.26-2.28Z"/><path class="cls-3" d="m137.71,240.15s-.01-.09,0-.13l.11-1.13-.09-6.56c0,.92.37,1.82,1.07,2.56.51.55,1.2,1.01,2.04,1.34.69.26,1.42.42,2.15.45.15,0,.3.01.45.01,1.64,0,3.24-.53,4.39-1.49.37-.3.69-.64.95-1.02.31-.45.51-.91.61-1.39l.05,6.73v.06c-.01.69-.23,1.4-.69,2.06-1.53,2.23-5.08,3.15-7.95,2.05-1.82-.71-2.93-2.07-3.08-3.53Z"/></g><g><path class="cls-8" d="m106.5,249.36c.31-.69.44-1.52.38-2.46-.05-.77-.24-1.54-.53-2.27-.06-.15-.13-.3-.19-.45-.75-1.61-2-3.01-3.45-3.83-.46-.27-.94-.47-1.43-.6-.58-.15-1.13-.2-1.64-.13-2.01.23-3.35,2-3.17,4.54.23,3.19,2.75,6.39,5.62,7.15.89.23,1.71.21,2.41-.04.9-.31,1.61-.97,2.02-1.91Zm-4.53-1.1c-1.36-.4-2.6-1.97-2.75-3.49-.14-1.53.84-2.44,2.2-2.03.32.1.64.25.94.46.96.68,1.7,1.86,1.82,3.03.03.38,0,.72-.09,1-.27.89-1.09,1.32-2.11,1.02Z"/><path class="cls-7" d="m112.15,248.65s-.08.04-.12.05l-1.16.27-6.39,2.3c.9-.31,1.61-.97,2.02-1.91.31-.69.44-1.52.38-2.46-.05-.77-.24-1.54-.53-2.27-.06-.15-.13-.3-.19-.45-.75-1.61-2-3.01-3.45-3.83-.46-.27-.94-.47-1.43-.6-.58-.15-1.13-.2-1.64-.13l6.57-2.31.06-.02c.68-.23,1.47-.25,2.33-.01,2.88.76,5.4,3.96,5.62,7.15.14,2.03-.69,3.58-2.06,4.23Z"/></g><g><path class="cls-4" d="m79.13,249.87c.57.49,1.31.86,2.18,1.09.71.18,1.46.25,2.19.2.15,0,.3-.03.45-.04,1.62-.2,3.15-.91,4.18-1.99.34-.34.61-.72.83-1.12.25-.49.4-.97.44-1.45.18-1.9-1.18-3.65-3.55-4.25-2.97-.75-6.39.58-7.65,2.97-.39.74-.52,1.5-.43,2.21.11.92.58,1.76,1.36,2.41Zm1.89-3.79c.63-1.12,2.31-1.78,3.74-1.45,1.43.33,2.07,1.5,1.43,2.61-.15.27-.36.51-.61.71-.8.67-2.04.99-3.14.75-.36-.08-.66-.21-.9-.39-.76-.51-1-1.39-.52-2.23Z"/><path class="cls-3" d="m78.69,255.22s-.02-.08-.02-.12l-.03-1.14-.86-6.51c.11.92.58,1.76,1.36,2.41.57.49,1.31.86,2.18,1.09.71.18,1.46.25,2.19.2.15,0,.3-.03.45-.04,1.62-.2,3.15-.91,4.18-1.99.34-.34.61-.72.83-1.12.25-.49.4-.97.44-1.45l.84,6.68v.06c.08.69-.06,1.41-.44,2.12-1.25,2.4-4.68,3.72-7.65,2.97-1.89-.49-3.15-1.71-3.48-3.14Z"/></g><g><path class="cls-8" d="m120.92,264.31c-.72-.2-1.55-.22-2.44-.05-.72.14-1.42.4-2.06.75-.14.07-.26.15-.39.23-1.39.87-2.46,2.16-2.94,3.58-.16.45-.25.91-.27,1.37-.02.55.05,1.05.22,1.5.64,1.8,2.62,2.8,5.02,2.34,3.01-.58,5.54-3.24,5.66-5.94.04-.84-.16-1.58-.55-2.18-.49-.78-1.27-1.35-2.26-1.6Zm-.1,4.24c-.1,1.28-1.34,2.59-2.77,2.9-1.44.31-2.51-.48-2.41-1.76.03-.31.11-.61.25-.9.45-.95,1.43-1.76,2.52-2.01.36-.08.69-.09.98-.03.91.14,1.5.83,1.42,1.8Z"/><path class="cls-7" d="m119.04,259.27s.06.07.07.1l.51,1.02,3.55,5.52c-.49-.78-1.27-1.35-2.26-1.6-.72-.2-1.55-.22-2.44-.05-.72.14-1.42.4-2.06.75-.14.07-.26.15-.39.23-1.39.87-2.46,2.16-2.94,3.58-.16.45-.25.91-.27,1.37-.02.55.05,1.05.22,1.5l-3.6-5.69-.03-.05c-.36-.59-.55-1.31-.5-2.11.12-2.7,2.65-5.36,5.66-5.94,1.92-.36,3.58.21,4.48,1.37Z"/></g><g><path class="cls-6" d="m345.71,198.2c.15-.74.53-1.49,1.13-2.22.49-.59,1.09-1.11,1.76-1.53.14-.09.28-.17.42-.25,1.55-.87,3.38-1.28,5.04-1.09.53.05,1.04.17,1.51.35.56.22,1.03.5,1.41.85,1.5,1.36,1.55,3.58-.08,5.54-2.05,2.46-5.96,3.58-8.74,2.52-.86-.33-1.51-.83-1.93-1.44-.55-.78-.74-1.73-.52-2.73Zm4.32,1.75c1.34.47,3.26-.08,4.27-1.23,1.01-1.16.74-2.47-.6-2.93-.32-.11-.67-.17-1.03-.17-1.17-.01-2.47.52-3.25,1.4-.25.29-.42.58-.51.87-.3.88.11,1.71,1.12,2.06Z"/><path class="cls-1" d="m341.54,194.33s.04.08.07.11l.78.9,3.84,5.6c-.55-.78-.74-1.73-.52-2.73.15-.74.53-1.49,1.13-2.22.49-.59,1.09-1.11,1.76-1.53.14-.09.28-.17.42-.25,1.55-.87,3.38-1.28,5.04-1.09.53.05,1.04.17,1.51.35.56.22,1.03.5,1.41.85l-3.98-5.72-.04-.05c-.42-.58-1.05-1.06-1.88-1.37-2.78-1.07-6.69.06-8.74,2.52-1.3,1.57-1.53,3.31-.8,4.63Z"/></g><g><path class="cls-6" d="m368.75,195.2c-.31-.69-.44-1.52-.38-2.46.05-.77.24-1.54.53-2.27.06-.15.13-.3.19-.45.75-1.61,2-3.01,3.45-3.83.46-.27.94-.47,1.43-.6.58-.15,1.13-.2,1.64-.13,2.01.23,3.35,2,3.17,4.54-.23,3.19-2.75,6.39-5.62,7.15-.89.23-1.71.21-2.41-.04-.9-.31-1.61-.97-2.02-1.91Zm4.53-1.1c1.36-.4,2.6-1.97,2.75-3.49.14-1.53-.84-2.44-2.2-2.03-.32.1-.64.25-.94.46-.96.68-1.7,1.86-1.82,3.03-.03.38,0,.72.09,1,.27.89,1.09,1.32,2.11,1.02Z"/><path class="cls-1" d="m363.1,194.49s.08.04.12.05l1.16.27,6.39,2.3c-.9-.31-1.61-.97-2.02-1.91-.31-.69-.44-1.52-.38-2.46.05-.77.24-1.54.53-2.27.06-.15.13-.3.19-.45.75-1.61,2-3.01,3.45-3.83.46-.27.94-.47,1.43-.6.58-.15,1.13-.2,1.64-.13l-6.57-2.31-.06-.02c-.68-.23-1.47-.25-2.33-.01-2.88.76-5.4,3.96-5.62,7.15-.14,2.03.69,3.58,2.06,4.23Z"/></g><g><path class="cls-6" d="m354.33,210.14c.72-.2,1.55-.22,2.44-.05.72.14,1.42.4,2.06.75.14.07.26.15.39.23,1.39.87,2.46,2.16,2.94,3.58.16.45.25.91.27,1.37.02.55-.05,1.05-.22,1.5-.64,1.8-2.62,2.8-5.02,2.34-3.01-.58-5.54-3.24-5.66-5.94-.04-.84.16-1.58.55-2.18.49-.78,1.27-1.35,2.26-1.6Zm.1,4.24c.1,1.28,1.34,2.59,2.77,2.9,1.44.31,2.51-.48,2.41-1.76-.03-.31-.11-.61-.25-.9-.45-.95-1.43-1.76-2.52-2.01-.36-.08-.69-.09-.98-.03-.91.14-1.5.83-1.42,1.8Z"/><path class="cls-1" d="m356.21,205.1s-.06.07-.07.1l-.51,1.02-3.55,5.52c.49-.78,1.27-1.35,2.26-1.6.72-.2,1.55-.22,2.44-.05.72.14,1.42.4,2.06.75.14.07.26.15.39.23,1.39.87,2.46,2.16,2.94,3.58.16.45.25.91.27,1.37.02.55-.05,1.05-.22,1.5l3.6-5.69.03-.05c.36-.59.55-1.31.5-2.11-.12-2.7-2.65-5.36-5.66-5.94-1.92-.36-3.58.21-4.48,1.37Z"/></g></g></svg>