<?xml version="1.0" encoding="UTF-8"?><svg id="Layer_1" xmlns="http://www.w3.org/2000/svg" width="307.96" height="367.24" viewBox="0 0 307.96 367.24"><defs><style>.cls-1{fill:#fac158;}.cls-2{fill:#e6c5be;}.cls-3{fill:#b4bfc5;}.cls-4{fill:#cf7042;}.cls-5{fill:#5d718a;}</style></defs><g id="smykker"><g><path class="cls-3" d="m86.26,113.3c-1.26,2.27-2.84,4.78-5.13,6.37-2.71,1.87-6.6,3.1-10.25,3.51-3.42.39-6.85-.56-9.24-2.74-1.57-1.44-2.71-2.31-3.27-4.23-1.14-3.87-2.14-7.92-1.19-11.83,3.85-15.87,27.57-13.32,29.44,2.18.26,2.18.73,4.77-.36,6.74Z"/><path class="cls-5" d="m86.26,113.3c-1.26,2.27-2.84,4.78-5.13,6.37-2.71,1.87-6.6,3.1-10.25,3.51-3.42.39-6.85-.56-9.24-2.74-1.57-1.44-2.71-2.31-3.27-4.23-1.14-3.87-2.14-7.92-1.19-11.83,3.85-15.87,27.57-13.32,29.44,2.18.26,2.18.73,4.77-.36,6.74Z"/><ellipse class="cls-3" cx="71.61" cy="107.81" rx="7.41" ry="7.56"/><g><path class="cls-3" d="m94.5,145.56c-1.82-3.11-2.85-6.62-3.68-9.94-2.44-9.66-3.44-18.32-3.02-26.43.2-3.67.68-7.38,1.16-10.99.36-2.69.72-5.46.97-8.22,1.05-12.05-.21-24.25-1.43-36.04-.68-6.59-1.46-14.07-5.19-20.44l-1.29-2.21-9.01,57.92c-2.83-8.37-3.48-17.37-4.11-26.09-.78-10.61-1.6-21.58-6.23-31.56l-.91-1.93-.76,1.99c-3.49,9.16-4.63,19.04-3.29,28.66-1.03-.04-2.08.23-2.92.79l-.38.26v.43c-1.21,16.6-.47,33.38,2.18,49.84l.16,1.07c.89,5.47,1.81,11.13.04,16.29-1.56,4.51-5.07,8.33-8.48,12.04l-.99,1.09c-.63.69-1.85,1.98-2.47,2.68.09-.08.17-.15.26-.22.11-.12.22-.25.33-.37,3.59-3.25,9.46,1.08,12.72,4.06,4.92-7.69,9.26-15.74,12.87-23.99,7.64,1.47,10.56,10.14,11.28,12.82.16.6.31,1.2.44,1.81.09.31.16.62.21.94.08.31.15.6.2.91.07.32.15.65.22.98.83,3.9,1.69,7.93,3.81,11.45,1.91-2.08,5.36-3.48,11.54-1.92.05.01.1.02.14.04-1.65-1.8-3.18-3.68-4.37-5.72Zm-8.24-32.26c-1.26,2.27-2.84,4.78-5.13,6.37-2.71,1.87-6.6,3.1-10.25,3.51-3.42.39-6.85-.56-9.24-2.74-1.57-1.44-2.71-2.31-3.27-4.23-1.14-3.87-2.14-7.92-1.19-11.83,3.85-15.87,27.57-13.32,29.44,2.18.26,2.18.73,4.77-.36,6.74Z"/><path class="cls-3" d="m84.76,159.64v.02c-.81-1.17-1.63-2.33-2.45-3.49l-.52-.76-8.69-9.4-9.6,5.04-2.03,1.07c-.12-.28-.28-.55-.45-.78-.16-.27-.34-.53-.54-.75l1.6-.84,20.67-10.87c.09.31.16.62.21.94.08.31.15.6.2.91l-8.4,4.42,8.78,9.5,2.82-.44c-1.65,2.52-1.6,5.43-1.6,5.43Z"/></g></g><path class="cls-4" d="m203.35,367.24c-.88,0-1.69-.59-1.93-1.48-11.91-43.79-16.04-81.25-12.29-111.34,3.03-24.27,11.28-44.35,24.53-59.69,12.29-14.23,26.94-22.45,41.11-30.39,19.02-10.66,36.98-20.74,44.96-44.31,7.92-23.4,5.69-55.67-14.03-69.39-16.04-11.16-42.16-9.86-55.87,2.78-10.48,9.66-11.33,23.56-12.14,37-.82,13.54-1.6,26.34-12.59,32.71-9.86,5.72-26.68,4.8-35.07-5.65-7.36-9.17-6.79-23.82,1.39-35.64.63-.91,1.87-1.14,2.78-.51.91.63,1.13,1.87.51,2.78-7.18,10.37-7.82,23.06-1.56,30.86,6.92,8.62,21.52,9.59,29.95,4.69,9.13-5.3,9.82-16.51,10.61-29.49.83-13.57,1.76-28.95,13.43-39.7,14.98-13.81,43.42-15.27,60.87-3.13,21.32,14.83,23.92,49.17,15.53,73.95-8.47,25.03-27.09,35.47-46.79,46.52-13.86,7.77-28.2,15.81-40.04,29.51-28.72,33.25-32.56,89.56-11.41,167.37.29,1.07-.34,2.17-1.41,2.46-.18.05-.35.07-.53.07Z"/><ellipse class="cls-1" cx="191.59" cy="124.22" rx="5.17" ry="8.85"/><ellipse class="cls-1" cx="206.17" cy="119.21" rx="5.17" ry="8.85" transform="translate(-29.57 85.38) rotate(-21.87)"/><ellipse class="cls-2" cx="214.66" cy="104.13" rx="5.17" ry="8.85" transform="translate(41.53 268.29) rotate(-69.35)"/><ellipse class="cls-1" cx="216.33" cy="88.37" rx="5.17" ry="8.85" transform="translate(98.17 289.98) rotate(-81.85)"/><path class="cls-2" d="m145.89,3.5c-5.45,0-9.86,4.41-9.86,9.86s4.41,9.87,9.86,9.87,9.87-4.42,9.87-9.87-4.41-9.86-9.87-9.86Zm0,13.36c-1.93,0-3.5-1.56-3.5-3.5s1.57-3.5,3.5-3.5,3.5,1.57,3.5,3.5-1.56,3.5-3.5,3.5Z"/><path class="cls-1" d="m171.85,0c-5.45,0-9.87,4.41-9.87,9.86s4.42,9.87,9.87,9.87,9.87-4.42,9.87-9.87S177.3,0,171.85,0Zm0,13.36c-1.93,0-3.5-1.56-3.5-3.5s1.57-3.5,3.5-3.5,3.5,1.57,3.5,3.5-1.57,3.5-3.5,3.5Z"/><path class="cls-2" d="m145.89,26.36c-5.45,0-9.86,4.42-9.86,9.87s4.41,9.87,9.86,9.87,9.87-4.42,9.87-9.87-4.41-9.87-9.87-9.87Zm0,13.37c-1.93,0-3.5-1.56-3.5-3.5s1.57-3.5,3.5-3.5,3.5,1.57,3.5,3.5-1.56,3.5-3.5,3.5Z"/><path class="cls-2" d="m122.65,40.13c-5.45,0-9.87,4.42-9.87,9.87s4.42,9.86,9.87,9.86,9.87-4.41,9.87-9.86-4.42-9.87-9.87-9.87Zm0,13.37c-1.93,0-3.5-1.57-3.5-3.5s1.57-3.5,3.5-3.5,3.5,1.56,3.5,3.5-1.57,3.5-3.5,3.5Z"/><path class="cls-1" d="m145.89,54.99c-5.45,0-9.86,4.42-9.86,9.87s4.41,9.87,9.86,9.87,9.87-4.42,9.87-9.87-4.41-9.87-9.87-9.87Zm0,13.37c-1.93,0-3.5-1.56-3.5-3.5s1.57-3.5,3.5-3.5,3.5,1.57,3.5,3.5-1.56,3.5-3.5,3.5Z"/><path class="cls-1" d="m122.65,109.33c-5.45,0-9.87,4.42-9.87,9.87s4.42,9.87,9.87,9.87,9.87-4.42,9.87-9.87-4.42-9.87-9.87-9.87Zm0,13.37c-1.93,0-3.5-1.57-3.5-3.5s1.57-3.5,3.5-3.5,3.5,1.57,3.5,3.5-1.57,3.5-3.5,3.5Z"/></g><path class="cls-5" d="m61.24,160.37c-1.59,2.86-4.22,5-6.74,7.06-.59.48-1.19.98-1.77,1.48-.5.42-.98.84-1.45,1.27-5.14,4.87-7.95,11.01-10.9,17.53-1.43,3.11-2.89,6.33-4.63,9.36-1.96,3.44-4.35,6.73-6.64,9.9-2.18,2.99-4.4,6.06-6.29,9.25-5.34,9.12-7.85,19.48-7.27,29.98.09,1.63.59,3.51,1.12,5.52.81,3.02,1.65,6.16,1.12,8.76-.43,2.12-2.03,3.91-4.27,4.82-2.37.94-5.02.65-7.06-.78-1.87-1.32-2.99-3.15-3.71-5.16-.71-2.01-1.02-4.22-1.22-6.28-1.43-13.98-3.06-29.82,1.22-44.48,4.07-13.96,13.03-26.05,21.72-37.77,5.92-8,12.01-16.22,18.69-24.02.64-.76,1.3-1.51,1.95-2.26.11-.12.22-.25.33-.37,3.59-3.25,9.46,1.08,12.72,4.06,1.26,1.16,2.12,2.11,2.32,2.35.2.22.38.48.54.75.17.23.33.5.45.78,0,.01.02.01.02.03,1.22,2.54,1.11,5.76-.25,8.22Z"/><path class="cls-4" d="m45.44,144.18c-.77.87-1.53,1.74-2.28,2.63.55-.82,1.27-1.68,2.19-2.55.03-.03.06-.05.09-.08Z"/><path class="cls-5" d="m142.96,252.37c-.07,3.17-.31,6.5-2.08,9.42-1.51,2.44-4.57,4.59-7.9,4.59-.5,0-1.03-.05-1.55-.16-4.42-.94-7.05-5.5-6.99-12.22,0-3.08.18-6.23.36-9.29.45-8.03.92-16.36-1.61-24.09-1.58-4.87-4.2-9.23-7.48-14.43-7.66-12.2-15.66-24.38-23.91-36.39-2.32-3.39-4.67-6.78-7.04-10.14v-.02s-.05-2.91,1.6-5.43c.23-.36.51-.72.83-1.05,1.91-2.08,5.36-3.48,11.54-1.92.05.01.1.02.14.04,1.15,1.27,2.37,2.49,3.57,3.7l1.56,1.55c.91.93,1.81,1.88,2.7,2.83,23.94,25.8,37.13,59.48,36.26,93.01Z"/></svg>