<?xml version="1.0" encoding="UTF-8"?><svg id="Layer_1" xmlns="http://www.w3.org/2000/svg" width="532.54" height="337.84" viewBox="0 0 532.54 337.84"><defs><style>.cls-1{fill:#e6c5be;}.cls-2{fill:#cf7042;}.cls-3{fill:#a47d50;}</style></defs><g id="Strikning"><g><path class="cls-3" d="m39.71,19.17s3-10-4-16-18.82-2-18.91,0-6.09,5-3.09,18c3,13,19,8,19,8,0,0,90.53,81.19,99.38,86.71.34.21.77.15,1.05-.13h0c.32-.32.34-.84.03-1.18-7.16-7.92-82.98-91.59-93.46-95.4Z"/><path class="cls-3" d="m284.15,137.08s3.59,9.81,12.79,10.42,16.27-9.67,15.14-11.32,1.88-7.65-8.31-16.27c-10.19-8.61-20.01,4.97-20.01,4.97,0,0-121.12-10.81-131.51-9.93-.39.03-.7.34-.76.73h0c-.07.45.23.87.68.96,10.48,2.05,121.3,23.66,131.98,20.43Z"/><g><path class="cls-1" d="m531.47,187.74c-.29-1.25-.64-2.53-1.07-3.83-1.09-3.36-2.64-6.9-4.7-10.63-.41-.74-.81-1.46-1.23-2.16-.69-1.2-1.39-2.35-2.09-3.46-2.52-3.98-5.08-7.45-7.7-10.49t-.01-.02c-1.4-1.64-2.8-3.15-4.21-4.54-2.24-2.23-4.47-4.15-6.69-5.82-1.38-1.04-2.76-1.99-4.11-2.84-3.28-2.06-6.46-3.58-9.44-4.69-1.43-.54-2.82-.99-4.15-1.35-4.91-1.35-9.06-1.63-11.96-1.58-1.98.02-3.37.21-4.01.31-.26.04-.4.07-.4.07-3.63,1.25-6.97,2.63-10.06,4.13-1.43.68-2.81,1.39-4.13,2.13-3.12,1.74-5.94,3.61-8.46,5.58-1.42,1.09-2.75,2.22-3.98,3.38-4.33,4.06-7.6,8.45-9.95,13-.63,1.21-1.19,2.44-1.69,3.67-1.68,4.16-2.66,8.42-3.04,12.66-.12,1.35-.18,2.7-.19,4.04-.01,3.37.34,6.7.99,9.93.28,1.39.62,2.77,1.01,4.12,1.28,4.45,3.13,8.62,5.38,12.35.01.02.02.04.03.07,2.33,3.86,5.09,7.24,8.09,9.94,1.26,1.13,2.5,2.19,3.74,3.17,2.97,2.36,5.89,4.32,8.74,5.93h.01c2.3,1.3,4.54,2.38,6.74,3.27,4.97,2,9.67,3.03,13.98,3.44,1.72.17,3.37.24,4.96.24,1.74,0,3.4-.09,4.97-.24,8.89,40.27-12.13,70.09-35.14,84.71-22.59,14.35-48.2,15.52-63.74,2.93-8.29-6.73-14.04-13.26-17.88-19.47,17.46-6.41,33.05-19.37,38.41-30.09l.49-.97c2.89-5.67,9.66-18.93-1.04-27.38l-.12-.09c-12.6-8.51-27.79-4.85-38.7,9.33-3.83,4.97-10.17,15.34-9.62,28.88.24,6.1,1.83,12.1,4.75,17.99-7.43,2.18-15,2.99-21.93,1.7-15.85-2.94-25.4-16.61-27.63-39.54-3.23-33.2-12.04-78.53-35.69-105.9-12.26-14.2-23.54-17.85-26.96-18.68-.76-.95-1.87-1.61-3.18-1.76l-8.98-.96c3.62-10.01,3.34-20.51,3.34-20.51,0,0-.15-4.39-5.3-4.88-5.15-.49-5.29,5.75-5.29,5.75,0,0-.11,9.87-3.28,18.51l-15.28-1.64c3.18-9.78,2.71-18.06,2.71-18.06,0,0-.26-4.54-5.61-5.16-5.35-.62-5.35,5.81-5.35,5.81,0,0,.89,7.94-1.82,16.33l-14.97-1.61c3.35-9.24,2.96-17.28,2.96-17.28,0,0-.2-4.03-4.94-4.55s-4.79,5.2-4.79,5.2c0,0,.81,7.79-2.14,15.67l-42.36-4.55c-3.28-.35-6.36-1.75-8.79-3.98l-23.04-21.17c3.16-7.85,9.08-13.08,9.08-13.08,0,0,3.83-4.23,0-7.06-3.83-2.83-6.71,0-6.71,0,0,0-5.38,5.31-9.17,13.89l-16.45-15.11c3.08-8.21,9.33-13.71,9.33-13.71,0,0,3.83-4.23,0-7.06-3.83-2.83-6.71,0-6.71,0,0,0-5.65,5.57-9.44,14.51l-16.95-15.57c3.19-8.8,9.81-14.71,9.81-14.71,0,0,4-4.49,0-7.49s-7,0-7,0c0,0-6,6-9.96,15.63-2.44-2.24-6.36-1.34-7.57,1.74C34.29,79.2-1.12,171.56.03,201.6c1.33,34.89,37.67,19.11,37.67,19.11,7,28,40,19,40,19,10,25,42,15,42,15,9,14,36,8,36,8,16,15,37.5,4.82,37.5,4.82,9.5,11.82,30.5,10.18,36.5,5.18,5.24-4.37,19.63-102.54,23.19-127.34,10.13,3.41,48.3,22.67,57.82,120.53,3.06,31.45,18.48,40.8,30.88,43.1,7.93,1.47,16.42.5,24.64-2.01,4.33,7.3,10.75,14.41,19.21,21.27,7.9,6.41,18.12,9.58,29.22,9.58,12.62,0,26.39-4.11,39.18-12.23,23.96-15.22,45.87-46.13,37.13-87.85h0c-.05-.25-.1-.49-.15-.73.65-.1,1.28-.21,1.88-.32.58-.11,1.25-.26,2.01-.45,2.36-.61,5.5-1.66,8.97-3.19,1.17-.51,2.39-1.09,3.62-1.72,2.57-1.31,5.22-2.87,7.8-4.7,1.1-.77,2.19-1.59,3.25-2.46,1.91-1.58,3.73-3.31,5.4-5.2,1.01-1.14,1.96-2.35,2.84-3.62,2.52-3.65,4.44-7.81,5.35-12.52.27-1.38.46-2.82.54-4.3.2-3.35-.1-6.95-1.01-10.81Zm-159.19,71.19c6.24-8.11,13.77-12.33,21.25-12.33,4.08,0,8.15,1.26,11.99,3.83,8.04,6.42,2.75,16.8-.1,22.38l-.51,1.01c-5.09,10.18-20.29,22.39-36.85,28.3-10.23-19.88-1.36-35.93,4.22-43.19Z"/><g><path class="cls-2" d="m474.11,136.33c-1.98.02-3.37.21-4.01.31-.21,16.8,1.06,65.12,20.87,101.11-.05-.24-.1-.48-.15-.72.65-.1,1.28-.21,1.88-.32.58-.11,1.25-.26,2.01-.45-19.75-35.47-20.85-83.78-20.6-99.93Z"/><path class="cls-2" d="m459.64,140.84c-1.43.68-2.81,1.39-4.13,2.13-.4,6.95-.55,16.33.31,27.03-2.05-.19-4.69-.52-7.55-1.01-.54-4.82-1.26-13.19-1.22-20.44l-3.98,3.38c.14,6.39.73,12.76,1.1,16.28-3.81-.81-7.74-1.89-11.05-3.28-.63,1.21-1.19,2.44-1.69,3.67,9.03,3.9,21.05,5.15,24.76,5.45.35,3.42.8,6.95,1.39,10.56-9.33-.44-19.98-1.58-29.19-3.35-.12,1.35-.18,2.7-.19,4.04,1.17.22,2.39.43,3.64.63,11.21,1.82,22.46,2.51,26.44,2.71.53,2.87,1.15,5.78,1.86,8.71-5.27-.17-18-.72-30.95-2.12.28,1.39.62,2.77,1.01,4.12,1.05.11,2.09.21,3.12.31-.51,3.1.25,7.13,2.26,12.04.01.02.02.04.03.07l11.83,13.11c-1.3-1.92-3.53-5.35-5.58-9.23-3.65-6.91-5.25-12.42-4.54-15.64,2.66.23,5.24.42,7.67.59-.56,8.45,5.69,20.98,11.19,30.21h.01l6.74,3.27c-6.31-9.76-14.64-24.85-13.96-33.24,5.62.32,10.06.48,12.21.55,3.3,12.14,8.29,24.56,15.73,36.13,1.72.17,3.37.24,4.96.24-23.5-34.47-23.59-77.82-22.23-96.92Z"/><path class="cls-2" d="m532.48,198.55c-3.88,1.32-9.73,1.85-17.18,1.49-7.17-.35-13.92-1.42-16.7-1.91-.63-3.17-1.22-6.38-1.78-9.57,3.35.33,9.72.84,16.67.84,6.11,0,12.65-.4,17.98-1.66-.29-1.25-.64-2.53-1.07-3.83-10.06,2.29-26.41,1.39-34.27.57-.61-3.65-1.17-7.27-1.68-10.79,2.27.19,5.81.42,9.84.42,1.83,0,3.76-.04,5.72-.16,5.96-.37,10.79-1.31,14.46-2.83-.69-1.2-1.39-2.35-2.09-3.46-1.81.69-3.86,1.19-5.97,1.54-.6-2.89-1.37-7.42-1.73-12.03t-.01-.02c-1.4-1.64-2.8-3.15-4.21-4.54.02,6.83,1.33,13.99,1.98,17.13-.89.09-1.76.16-2.62.21-1,.06-1.99.11-2.96.12-1.51-8.05-2.69-16.86-3.09-23.28-1.38-1.04-2.76-1.99-4.11-2.84,0,5.29.78,13.49,3.13,26.14-3.85-.05-7.12-.3-8.93-.47-1.81-12.83-3.01-23.97-3.64-30.36-1.43-.54-2.82-.99-4.15-1.35,1.4,14.91,6.85,66.61,17.61,95.16,1.17-.51,2.39-1.09,3.62-1.72-3.03-8.15-5.64-18.33-7.85-29,1.91.32,4.52.72,7.52,1.07,1.14,4.06,4.48,15.56,8.13,23.23,1.1-.77,2.19-1.59,3.25-2.46-2.52-5.64-5.26-13.96-7.1-20.36,2.52.2,5.17.34,7.83.35.72,3.33,2.29,9.68,4.67,14.81,1.01-1.14,1.96-2.35,2.84-3.62-1.38-3.47-2.59-7.64-3.43-11.29,3.11-.15,6.12-.53,8.78-1.23.27-1.38.46-2.82.54-4.3Z"/></g></g></g><g><path class="cls-2" d="m60.2,89.71h-10.78c-.65,0-1.22-.41-1.42-1.03l-3-9c-.26-.79.16-1.64.95-1.9.79-.26,1.64.16,1.9.95l2.66,7.97h9.7c.83,0,1.5.67,1.5,1.5s-.67,1.5-1.5,1.5Z"/><path class="cls-2" d="m53.34,114.05l-10.52,2.36c-.63.14-1.28-.14-1.61-.69l-4.9-8.12c-.43-.71-.2-1.63.51-2.06.71-.43,1.63-.2,2.06.51l4.34,7.2,9.47-2.13c.81-.18,1.61.33,1.79,1.13s-.33,1.61-1.13,1.79Z"/><path class="cls-2" d="m46.66,142.41l-10.31,3.18c-.62.19-1.29-.04-1.66-.56l-5.52-7.72c-.48-.67-.33-1.61.35-2.09.67-.48,1.61-.33,2.09.35l4.89,6.84,9.27-2.86c.79-.24,1.63.2,1.88.99s-.2,1.63-.99,1.88Z"/><path class="cls-2" d="m37.17,170.51l-10.52,2.37c-.63.14-1.28-.14-1.61-.69l-4.91-8.12c-.43-.71-.2-1.63.51-2.06.71-.43,1.63-.2,2.06.51l4.35,7.2,9.47-2.13c.81-.18,1.61.33,1.79,1.13s-.33,1.61-1.13,1.79Z"/><path class="cls-2" d="m30.52,198.58l-10.52,2.37c-.63.14-1.28-.14-1.61-.69l-4.91-8.12c-.43-.71-.2-1.63.51-2.06.71-.43,1.63-.2,2.06.51l4.35,7.2,9.47-2.13c.81-.18,1.61.33,1.79,1.13s-.33,1.61-1.13,1.79Z"/><path class="cls-2" d="m89.99,109.54l-9.93,4.21c-.59.25-1.28.1-1.71-.39l-6.28-7.11c-.55-.62-.49-1.57.13-2.12.62-.55,1.57-.49,2.12.13l5.56,6.3,8.93-3.79c.76-.32,1.64.03,1.97.8s-.03,1.64-.8,1.97Z"/><path class="cls-2" d="m84.87,135.9l-10.09,3.79c-.6.23-1.29.04-1.69-.46l-5.97-7.37c-.52-.64-.42-1.59.22-2.11.64-.52,1.59-.42,2.11.22l5.29,6.53,9.08-3.41c.78-.29,1.64.1,1.93.88s-.1,1.64-.88,1.93Z"/><path class="cls-2" d="m77.97,162.62l-9.97,4.12c-.6.25-1.28.08-1.71-.4l-6.21-7.17c-.54-.63-.47-1.57.15-2.12.63-.54,1.57-.47,2.12.15l5.5,6.36,8.97-3.71c.77-.32,1.64.05,1.96.81s-.05,1.64-.81,1.96Z"/><path class="cls-2" d="m72.47,192.82l-10.45,2.67c-.63.16-1.28-.1-1.63-.64l-5.13-7.98c-.45-.7-.25-1.63.45-2.07.7-.45,1.63-.25,2.07.45l4.55,7.07,9.4-2.4c.8-.2,1.62.28,1.82,1.08s-.28,1.62-1.08,1.82Z"/><path class="cls-2" d="m70.04,220.37l-9.85,4.4c-.59.26-1.28.12-1.72-.36l-6.41-6.99c-.56-.61-.52-1.56.09-2.12.61-.56,1.56-.52,2.12.09l5.68,6.2,8.86-3.96c.76-.34,1.64,0,1.98.76s0,1.64-.76,1.98Z"/><path class="cls-2" d="m121.59,136.55l-10.36,3c-.62.18-1.29-.06-1.65-.59l-5.39-7.81c-.47-.68-.3-1.62.38-2.09.68-.47,1.62-.3,2.09.38l4.77,6.92,9.32-2.7c.8-.23,1.63.23,1.86,1.02s-.23,1.63-1.02,1.86Z"/><path class="cls-2" d="m117.17,160.9l-9.6,4.92c-.57.29-1.27.19-1.73-.26l-6.77-6.64c-.59-.58-.6-1.53-.02-2.12.58-.59,1.53-.6,2.12-.02l6,5.89,8.64-4.42c.74-.38,1.64-.09,2.02.65s.09,1.64-.65,2.02Z"/><path class="cls-2" d="m110.59,190.55l-10.36,3c-.62.18-1.29-.06-1.65-.59l-5.39-7.81c-.47-.68-.3-1.62.38-2.09.68-.47,1.62-.3,2.09.38l4.77,6.92,9.32-2.7c.8-.23,1.63.23,1.86,1.02s-.23,1.63-1.02,1.86Z"/><path class="cls-2" d="m111.05,215.34l-9.83,4.43c-.59.27-1.28.12-1.72-.35l-6.44-6.97c-.56-.61-.52-1.56.08-2.12.61-.56,1.56-.52,2.12.08l5.7,6.18,8.85-3.99c.75-.34,1.64,0,1.98.75s0,1.64-.75,1.98Z"/><path class="cls-2" d="m110.93,241.71l-10.01,4.01c-.6.24-1.28.07-1.7-.42l-6.13-7.24c-.54-.63-.46-1.58.17-2.11.63-.54,1.58-.46,2.11.17l5.43,6.41,9.01-3.61c.77-.31,1.64.07,1.95.83s-.07,1.64-.83,1.95Z"/><path class="cls-2" d="m167.13,144.28l-9.76,4.58c-.58.27-1.28.14-1.73-.33l-6.57-6.93c-.57-.61-.55-1.56.05-2.13.6-.57,1.55-.55,2.12.06l5.82,6.14,8.78-4.12c.75-.35,1.65-.03,2,.73s.03,1.65-.72,2Z"/><path class="cls-2" d="m162.27,165.49l-9.36,5.36c-.56.32-1.26.25-1.74-.18l-7.07-6.32c-.62-.55-.67-1.5-.12-2.12.55-.62,1.5-.67,2.12-.12l6.27,5.6,8.42-4.82c.72-.41,1.64-.16,2.05.56s.16,1.64-.56,2.05Z"/><path class="cls-2" d="m157.39,183.64l-8.82,6.21c-.53.37-1.23.36-1.75-.02l-7.64-5.63c-.67-.49-.81-1.43-.32-2.1.49-.67,1.43-.81,2.1-.32l6.77,4.99,7.93-5.59c.68-.48,1.61-.31,2.09.36s.31,1.61-.36,2.09Z"/><path class="cls-2" d="m156.3,210.32l-9.26,5.53c-.55.33-1.26.27-1.75-.15l-7.19-6.19c-.63-.54-.7-1.49-.16-2.12.54-.63,1.49-.7,2.12-.16l6.37,5.48,8.33-4.98c.71-.42,1.63-.19,2.06.52s.19,1.63-.52,2.06Z"/><path class="cls-2" d="m152.08,232.25l-9.78,4.54c-.59.27-1.28.14-1.72-.33l-6.51-6.9c-.57-.6-.54-1.55.06-2.12.6-.57,1.55-.54,2.12.06l5.77,6.11,8.8-4.09c.75-.35,1.64-.02,1.99.73s.02,1.64-.73,1.99Z"/><path class="cls-2" d="m149.31,252.26l-9.22,5.59c-.55.33-1.26.28-1.75-.14l-7.23-6.14c-.63-.54-.71-1.48-.17-2.11.54-.63,1.48-.71,2.11-.17l6.41,5.44,8.3-5.03c.71-.43,1.63-.2,2.06.5s.2,1.63-.5,2.06Z"/><path class="cls-2" d="m210.95,149.67l-9.99,4.06c-.6.24-1.28.08-1.7-.41l-6.17-7.21c-.54-.63-.47-1.58.16-2.11.63-.54,1.58-.47,2.11.16l5.47,6.39,8.99-3.66c.77-.31,1.64.06,1.95.82s-.06,1.64-.82,1.95Z"/><path class="cls-2" d="m209.2,172.8l-9.54,5.03c-.57.3-1.27.2-1.74-.24l-6.85-6.57c-.6-.57-.62-1.52-.05-2.12.57-.6,1.52-.62,2.12-.05l6.07,5.82,8.59-4.52c.73-.39,1.64-.1,2.03.63s.1,1.64-.63,2.03Z"/><path class="cls-2" d="m203.36,191.93l-9.01,5.93c-.54.35-1.25.33-1.75-.07l-7.45-5.87c-.65-.51-.76-1.46-.25-2.11.51-.65,1.46-.76,2.11-.25l6.61,5.2,8.1-5.34c.69-.46,1.62-.26,2.08.43s.26,1.62-.43,2.08Z"/><path class="cls-2" d="m197.16,217.95l-9.62,4.86c-.58.29-1.27.18-1.73-.27l-6.74-6.68c-.59-.58-.59-1.53,0-2.12.58-.59,1.53-.59,2.12,0l5.97,5.92,8.66-4.38c.74-.37,1.64-.08,2.02.66s.08,1.64-.66,2.02Z"/><path class="cls-2" d="m191.02,239.44l-9.88,4.32c-.59.26-1.28.11-1.71-.37l-6.36-7.04c-.55-.62-.51-1.56.11-2.12.61-.56,1.56-.51,2.12.11l5.63,6.24,8.89-3.89c.76-.33,1.64.01,1.98.77s-.01,1.64-.77,1.98Z"/><path class="cls-2" d="m188.33,258.15l-9.15,5.7c-.55.34-1.25.29-1.75-.12l-7.31-6.05c-.64-.53-.73-1.47-.2-2.11.53-.64,1.47-.73,2.11-.2l6.47,5.36,8.24-5.13c.7-.44,1.63-.22,2.07.48s.22,1.63-.48,2.07Z"/><path class="cls-2" d="m246.41,149.43l-8.67,6.42c-.52.38-1.23.39-1.75.02l-7.77-5.45c-.68-.48-.84-1.41-.37-2.09.47-.68,1.41-.84,2.09-.37l6.88,4.83,7.8-5.77c.67-.49,1.61-.35,2.1.31s.35,1.61-.31,2.1Z"/><path class="cls-2" d="m244,172.52l-9.92,4.23c-.59.25-1.28.1-1.71-.39l-6.29-7.1c-.55-.62-.49-1.57.13-2.12.62-.55,1.57-.49,2.12.13l5.57,6.29,8.93-3.8c.76-.32,1.64.03,1.97.79s-.03,1.64-.79,1.97Z"/><path class="cls-2" d="m239.37,191.88l-8.98,5.98c-.54.36-1.24.33-1.75-.07l-7.48-5.83c-.65-.51-.77-1.45-.26-2.1.51-.66,1.45-.77,2.1-.26l6.63,5.17,8.08-5.38c.69-.46,1.62-.27,2.08.42s.27,1.62-.42,2.08Z"/><path class="cls-2" d="m234.33,217.12l-9.13,5.73c-.55.34-1.25.3-1.75-.11l-7.33-6.03c-.64-.53-.73-1.47-.21-2.11.53-.64,1.47-.73,2.11-.21l6.49,5.34,8.22-5.16c.7-.44,1.63-.23,2.07.47s.23,1.63-.47,2.07Z"/><path class="cls-2" d="m229.11,240.13l-9.72,4.67c-.58.28-1.28.15-1.73-.31l-6.6-6.82c-.58-.6-.56-1.54.03-2.12.59-.58,1.55-.56,2.12.03l5.85,6.04,8.75-4.2c.75-.36,1.64-.04,2,.7s.04,1.64-.7,2Z"/><path class="cls-2" d="m223.83,264l-10.14,3.68c-.61.22-1.29.03-1.69-.48l-5.89-7.44c-.51-.65-.41-1.59.24-2.11.65-.52,1.59-.4,2.11.24l5.22,6.59,9.12-3.31c.78-.28,1.64.12,1.92.9s-.12,1.64-.9,1.92Z"/></g></g></svg>