<?xml version="1.0" encoding="UTF-8"?><svg id="Layer_1" xmlns="http://www.w3.org/2000/svg" width="380" height="425" viewBox="0 0 380 425"><defs><style>.cls-1{fill:none;stroke:#e6c5be;stroke-miterlimit:10;stroke-width:6px;}.cls-2{fill:#e6c5be;}.cls-3{fill:#cf7042;}.cls-4{fill:#a47d50;}</style></defs><path class="cls-2" d="m159.29,143.5c.86-.13,1.68-.28,2.47-.43.76-.15,1.64-.35,2.64-.6,3.1-.81,7.24-2.21,11.8-4.25,1.54-.68,3.14-1.45,4.76-2.29,3.38-1.74,6.87-3.82,10.26-6.26,1.45-1.02,2.88-2.12,4.28-3.27,2.51-2.1,4.91-4.41,7.1-6.92,1.33-1.52,2.58-3.13,3.74-4.82,3.32-4.86,5.84-10.39,7.04-16.66.36-1.84.61-3.75.71-5.72.26-4.46-.13-9.25-1.33-14.39-.38-1.66-.84-3.37-1.41-5.1-1.43-4.47-3.47-9.18-6.18-14.15-.54-.98-1.07-1.94-1.62-2.87-.91-1.6-1.83-3.13-2.75-4.6-3.32-5.3-6.68-9.92-10.13-13.96t-.01-.03c-1.84-2.18-3.68-4.19-5.54-6.04-2.95-2.97-5.88-5.52-8.8-7.75-1.82-1.38-3.63-2.65-5.41-3.78-4.32-2.74-8.5-4.76-12.42-6.24-1.88-.72-3.71-1.32-5.46-1.8-6.46-1.8-11.92-2.17-15.73-2.1-2.6.03-4.43.28-5.28.41-.34.05-.53.09-.53.09-4.78,1.66-9.17,3.5-13.23,5.5-1.88.9-3.7,1.85-5.43,2.83-4.1,2.32-7.81,4.8-11.13,7.43-1.87,1.45-3.62,2.95-5.24,4.5-5.7,5.4-10,11.25-13.09,17.3-.83,1.61-1.57,3.25-2.22,4.88-2.21,5.54-3.5,11.21-4,16.85-.16,1.8-.24,3.59-.25,5.38-.01,4.49.45,8.92,1.3,13.22.37,1.85.82,3.69,1.33,5.48,1.68,5.92,4.12,11.47,7.08,16.44.01.03.03.05.04.09,3.07,5.14,6.7,9.64,10.64,13.23,1.66,1.5,3.29,2.91,4.92,4.22,3.91,3.14,7.75,5.75,11.5,7.89h.01c3.03,1.73,5.97,3.17,8.87,4.35,6.54,2.66,12.72,4.03,18.39,4.58,2.26.23,4.43.32,6.53.32,2.29,0,4.47-.12,6.54-.32"/><g id="Strikning"><path class="cls-4" d="m56.61,158.24s3-10-4-16-16.59-2.19-18.91,0c-1.45,1.38-6.09,5-3.09,18s19,8,19,8c0,0,90.53,81.19,99.38,86.71.34.21.77.15,1.05-.13h0c.32-.32.34-.84.03-1.18-7.16-7.92-82.98-91.59-93.46-95.4Z"/><path class="cls-4" d="m328.98,275.25c.3-1.98,1.88-7.65-8.3-16.27s-20.01,4.97-20.01,4.97c0,0-121.12-10.81-131.51-9.93-.39.03-.7.34-.76.73-.06.45.23.87.68.96,10.48,2.05,121.3,23.66,131.98,20.43,0,0,3.59,9.81,12.78,10.42,9.2.61,14.71-8.48,15.14-11.32Z"/><path class="cls-2" d="m268.97,280.15c-.76-.95-1.91-1.75-3.22-1.89l-8.98-.96c3.62-10.01,3.34-20.51,3.34-20.51,0,0-.15-4.39-5.3-4.88-5.15-.49-5.29,5.75-5.29,5.75,0,0-.11,9.87-3.28,18.51l-15.28-1.64c3.18-9.78,2.71-18.06,2.71-18.06,0,0-.26-4.54-5.61-5.16-5.35-.62-5.35,5.81-5.35,5.81,0,0,.89,7.94-1.82,16.33l-14.97-1.61c3.35-9.24,2.96-17.28,2.96-17.28,0,0-.2-4.03-4.94-4.55s-4.79,5.2-4.79,5.2c0,0,.81,7.79-2.14,15.67l-42.36-4.55c-3.28-.35-6.36-1.75-8.79-3.98l-23.04-21.17c3.16-7.85,9.08-13.08,9.08-13.08,0,0,3.83-4.23,0-7.06s-6.71,0-6.71,0c0,0-5.38,5.31-9.17,13.89l-16.45-15.11c3.08-8.21,9.33-13.71,9.33-13.71,0,0,3.83-4.23,0-7.06s-6.71,0-6.71,0c0,0-5.65,5.57-9.44,14.51l-16.95-15.57c3.19-8.8,9.81-14.71,9.81-14.71,0,0,4-4.49,0-7.49s-7,0-7,0c0,0-6,6-9.96,15.63-2.44-2.24-6.36-1.34-7.57,1.74-9.88,25.13-45.29,117.49-44.14,147.52,1.33,34.89,37.67,19.11,37.67,19.11,7,28,40,19,40,19,10,25,42,15,42,15,9,14,36,8,36,8,16,15,37.5,4.82,37.5,4.82,9.5,11.82,30.5,10.18,36.5,5.18,5.24-4.37,19.63-102.54,23.19-127.34.24-2.07.18-2.78-.82-4.29Z"/><g><path class="cls-3" d="m137.31,9.44c-2.6.03-4.43.28-5.27.41-.28,22.36.91,85.75,26.95,133.66,0,0,1.96-.32,2.75-.47.76-.15,1.64-.35,2.64-.6-25.96-47.21-27.4-111.51-27.07-133Z"/><path class="cls-3" d="m118.29,15.44c-1.88.91-3.69,1.85-5.43,2.83-.53,9.25-.72,21.73.41,35.98-2.69-.25-6.16-.69-9.92-1.34-.71-6.42-1.66-17.56-1.6-27.2l-5.23,4.5c.18,8.5.96,16.98,1.45,21.67-5.01-1.08-10.17-2.52-14.52-4.37-.83,1.61-1.56,3.25-2.22,4.88,11.87,5.19,27.67,6.85,32.54,7.25.46,4.55,1.05,9.25,1.83,14.06-12.26-.59-26.26-2.1-38.36-4.46-.16,1.8-.24,3.59-.25,5.38,1.54.29,3.14.57,4.78.84,14.73,2.42,29.52,3.34,34.75,3.61.7,3.82,1.51,7.69,2.44,11.59-6.93-.23-23.66-.96-40.68-2.82.37,1.85.81,3.69,1.33,5.48,1.38.15,2.75.28,4.1.41-.67,4.13.33,9.49,2.97,16.02.01.03.03.05.04.09l15.55,17.45c-1.71-2.56-4.64-7.12-7.33-12.28-4.8-9.2-6.9-16.53-5.97-20.82,3.5.31,6.89.56,10.08.79-.74,11.25,7.48,27.92,14.71,40.21h.01l8.86,4.35c-8.29-12.99-19.24-33.07-18.35-44.24,7.39.43,13.22.64,16.05.73,4.34,16.16,10.9,32.69,20.67,48.09,2.26.23,4.43.32,6.52.32-30.88-45.88-31-103.58-29.22-129Z"/><path class="cls-3" d="m214.02,92.25c-5.1,1.76-12.79,2.46-22.58,1.98-9.42-.47-18.29-1.89-21.95-2.54-.83-4.22-1.6-8.49-2.34-12.74,4.4.44,12.77,1.12,21.91,1.12,8.03,0,16.63-.53,23.63-2.21-.38-1.66-.84-3.37-1.41-5.1-13.22,3.05-34.71,1.85-45.04.76-.8-4.86-1.54-9.68-2.21-14.36,2.98.25,7.64.56,12.93.56,2.4,0,4.94-.05,7.52-.21,7.83-.49,14.18-1.74,19-3.77-.91-1.6-1.83-3.13-2.75-4.61-2.38.92-5.07,1.58-7.85,2.05-.79-3.85-1.8-9.88-2.27-16.01t-.01-.03c-1.84-2.18-3.68-4.19-5.53-6.04.03,9.09,1.75,18.62,2.6,22.8-1.17.12-2.31.21-3.44.28-1.31.08-2.62.15-3.89.16-1.98-10.71-3.54-22.44-4.06-30.98-1.81-1.38-3.63-2.65-5.4-3.78,0,7.04,1.03,17.95,4.11,34.79-5.06-.07-9.36-.4-11.74-.63-2.38-17.08-3.96-31.9-4.78-40.41-1.88-.72-3.71-1.32-5.45-1.8,1.84,19.84,9,88.66,23.14,126.65,1.54-.68,3.14-1.45,4.76-2.29-3.98-10.85-7.41-24.4-10.32-38.6,2.51.43,5.94.96,9.88,1.42,1.5,5.4,5.89,20.71,10.68,30.92,1.45-1.02,2.88-2.12,4.27-3.27-3.31-7.51-6.91-18.58-9.33-27.1,3.31.27,6.79.45,10.29.47.95,4.43,3.01,12.88,6.14,19.71,1.33-1.52,2.58-3.13,3.73-4.82-1.81-4.62-3.4-10.17-4.51-15.03,4.09-.2,8.04-.71,11.54-1.64.35-1.84.6-3.75.71-5.72Z"/></g><g><path class="cls-3" d="m77.1,228.78h-10.78c-.65,0-1.22-.41-1.42-1.03l-3-9c-.26-.79.16-1.64.95-1.9.79-.26,1.64.16,1.9.95l2.66,7.97h9.7c.83,0,1.5.67,1.5,1.5s-.67,1.5-1.5,1.5Z"/><path class="cls-3" d="m70.25,253.12l-10.52,2.36c-.63.14-1.28-.14-1.61-.69l-4.9-8.12c-.43-.71-.2-1.63.51-2.06.71-.43,1.63-.2,2.06.51l4.34,7.2,9.47-2.13c.81-.18,1.61.33,1.79,1.13s-.33,1.61-1.13,1.79Z"/><path class="cls-3" d="m63.56,281.48l-10.31,3.18c-.62.19-1.29-.04-1.66-.56l-5.52-7.72c-.48-.67-.33-1.61.35-2.09.67-.48,1.61-.33,2.09.35l4.89,6.84,9.27-2.86c.79-.24,1.63.2,1.88.99s-.2,1.63-.99,1.88Z"/><path class="cls-3" d="m54.07,309.58l-10.52,2.37c-.63.14-1.28-.14-1.61-.69l-4.91-8.12c-.43-.71-.2-1.63.51-2.06.71-.43,1.63-.2,2.06.51l4.35,7.2,9.47-2.13c.81-.18,1.61.33,1.79,1.13s-.33,1.61-1.13,1.79Z"/><path class="cls-3" d="m47.42,337.65l-10.52,2.37c-.63.14-1.28-.14-1.61-.69l-4.91-8.12c-.43-.71-.2-1.63.51-2.06.71-.43,1.63-.2,2.06.51l4.35,7.2,9.47-2.13c.81-.18,1.61.33,1.79,1.13s-.33,1.61-1.13,1.79Z"/><path class="cls-3" d="m106.89,248.61l-9.93,4.21c-.59.25-1.28.1-1.71-.39l-6.28-7.11c-.55-.62-.49-1.57.13-2.12.62-.55,1.57-.49,2.12.13l5.56,6.3,8.93-3.79c.76-.32,1.64.03,1.97.8s-.03,1.64-.8,1.97Z"/><path class="cls-3" d="m101.77,274.97l-10.09,3.79c-.6.23-1.29.04-1.69-.46l-5.97-7.37c-.52-.64-.42-1.59.22-2.11.64-.52,1.59-.42,2.11.22l5.29,6.53,9.08-3.41c.78-.29,1.64.1,1.93.88s-.1,1.64-.88,1.93Z"/><path class="cls-3" d="m94.87,301.69l-9.97,4.12c-.6.25-1.28.08-1.71-.4l-6.21-7.17c-.54-.63-.47-1.57.15-2.12.63-.54,1.57-.47,2.12.15l5.5,6.36,8.97-3.71c.77-.32,1.64.05,1.96.81s-.05,1.64-.81,1.96Z"/><path class="cls-3" d="m89.37,331.89l-10.45,2.67c-.63.16-1.28-.1-1.63-.64l-5.13-7.98c-.45-.7-.25-1.63.45-2.07.7-.45,1.63-.25,2.07.45l4.55,7.07,9.4-2.4c.8-.2,1.62.28,1.82,1.08s-.28,1.62-1.08,1.82Z"/><path class="cls-3" d="m86.95,359.45l-9.85,4.4c-.59.26-1.28.12-1.72-.36l-6.41-6.99c-.56-.61-.52-1.56.09-2.12.61-.56,1.56-.52,2.12.09l5.68,6.2,8.86-3.96c.76-.34,1.64,0,1.98.76s0,1.64-.76,1.98Z"/><path class="cls-3" d="m138.5,275.62l-10.36,3c-.62.18-1.29-.06-1.65-.59l-5.39-7.81c-.47-.68-.3-1.62.38-2.09.68-.47,1.62-.3,2.09.38l4.77,6.92,9.32-2.7c.8-.23,1.63.23,1.86,1.02s-.23,1.63-1.02,1.86Z"/><path class="cls-3" d="m134.08,299.98l-9.6,4.92c-.57.29-1.27.19-1.73-.26l-6.77-6.64c-.59-.58-.6-1.53-.02-2.12.58-.59,1.53-.6,2.12-.02l6,5.89,8.64-4.42c.74-.38,1.64-.09,2.02.65s.09,1.64-.65,2.02Z"/><path class="cls-3" d="m127.5,329.62l-10.36,3c-.62.18-1.29-.06-1.65-.59l-5.39-7.81c-.47-.68-.3-1.62.38-2.09.68-.47,1.62-.3,2.09.38l4.77,6.92,9.32-2.7c.8-.23,1.63.23,1.86,1.02s-.23,1.63-1.02,1.86Z"/><path class="cls-3" d="m127.96,354.41l-9.83,4.43c-.59.27-1.28.12-1.72-.35l-6.44-6.97c-.56-.61-.52-1.56.08-2.12.61-.56,1.56-.52,2.12.08l5.7,6.18,8.85-3.99c.75-.34,1.64,0,1.98.75s0,1.64-.75,1.98Z"/><path class="cls-3" d="m127.84,380.78l-10.01,4.01c-.6.24-1.28.07-1.7-.42l-6.13-7.24c-.54-.63-.46-1.58.17-2.11.63-.54,1.58-.46,2.11.17l5.43,6.41,9.01-3.61c.77-.31,1.64.07,1.95.83s-.07,1.64-.83,1.95Z"/><path class="cls-3" d="m184.03,283.35l-9.76,4.58c-.58.27-1.28.14-1.73-.33l-6.57-6.93c-.57-.61-.55-1.56.05-2.13.6-.57,1.55-.55,2.12.06l5.82,6.14,8.78-4.12c.75-.35,1.65-.03,2,.73s.03,1.65-.72,2Z"/><path class="cls-3" d="m179.17,304.56l-9.36,5.36c-.56.32-1.26.25-1.74-.18l-7.07-6.32c-.62-.55-.67-1.5-.12-2.12.55-.62,1.5-.67,2.12-.12l6.27,5.6,8.42-4.82c.72-.41,1.64-.16,2.05.56s.16,1.64-.56,2.05Z"/><path class="cls-3" d="m174.3,322.71l-8.82,6.21c-.53.37-1.23.36-1.75-.02l-7.64-5.63c-.67-.49-.81-1.43-.32-2.1.49-.67,1.43-.81,2.1-.32l6.77,4.99,7.93-5.59c.68-.48,1.61-.31,2.09.36s.31,1.61-.36,2.09Z"/><path class="cls-3" d="m173.2,349.39l-9.26,5.53c-.55.33-1.26.27-1.75-.15l-7.19-6.19c-.63-.54-.7-1.49-.16-2.12.54-.63,1.49-.7,2.12-.16l6.37,5.48,8.33-4.98c.71-.42,1.63-.19,2.06.52s.19,1.63-.52,2.06Z"/><path class="cls-3" d="m168.98,371.32l-9.78,4.54c-.59.27-1.28.14-1.72-.33l-6.51-6.9c-.57-.6-.54-1.55.06-2.12.6-.57,1.55-.54,2.12.06l5.77,6.11,8.8-4.09c.75-.35,1.64-.02,1.99.73s.02,1.64-.73,1.99Z"/><path class="cls-3" d="m166.21,391.33l-9.22,5.59c-.55.33-1.26.28-1.75-.14l-7.23-6.14c-.63-.54-.71-1.48-.17-2.11.54-.63,1.48-.71,2.11-.17l6.41,5.44,8.3-5.03c.71-.43,1.63-.2,2.06.5s.2,1.63-.5,2.06Z"/><path class="cls-3" d="m227.85,288.74l-9.99,4.06c-.6.24-1.28.08-1.7-.41l-6.17-7.21c-.54-.63-.47-1.58.16-2.11.63-.54,1.58-.47,2.11.16l5.47,6.39,8.99-3.66c.77-.31,1.64.06,1.95.82s-.06,1.64-.82,1.95Z"/><path class="cls-3" d="m226.1,311.88l-9.54,5.03c-.57.3-1.27.2-1.74-.24l-6.85-6.57c-.6-.57-.62-1.52-.05-2.12.57-.6,1.52-.62,2.12-.05l6.07,5.82,8.59-4.52c.73-.39,1.64-.1,2.03.63s.1,1.64-.63,2.03Z"/><path class="cls-3" d="m220.26,331l-9.01,5.93c-.54.35-1.25.33-1.75-.07l-7.45-5.87c-.65-.51-.76-1.46-.25-2.11.51-.65,1.46-.76,2.11-.25l6.61,5.2,8.1-5.34c.69-.46,1.62-.26,2.08.43s.26,1.62-.43,2.08Z"/><path class="cls-3" d="m214.06,357.02l-9.62,4.86c-.58.29-1.27.18-1.73-.27l-6.74-6.68c-.59-.58-.59-1.53,0-2.12.58-.59,1.53-.59,2.12,0l5.97,5.92,8.66-4.38c.74-.37,1.64-.08,2.02.66s.08,1.64-.66,2.02Z"/><path class="cls-3" d="m207.93,378.51l-9.88,4.32c-.59.26-1.28.11-1.71-.37l-6.36-7.04c-.55-.62-.51-1.56.11-2.12.61-.56,1.56-.51,2.12.11l5.63,6.24,8.89-3.89c.76-.33,1.64.01,1.98.77s-.01,1.64-.77,1.98Z"/><path class="cls-3" d="m205.23,397.23l-9.15,5.7c-.55.34-1.25.29-1.75-.12l-7.31-6.05c-.64-.53-.73-1.47-.2-2.11.53-.64,1.47-.73,2.11-.2l6.47,5.36,8.24-5.13c.7-.44,1.63-.22,2.07.48s.22,1.63-.48,2.07Z"/><path class="cls-3" d="m263.32,288.5l-8.67,6.42c-.52.38-1.23.39-1.75.02l-7.77-5.45c-.68-.48-.84-1.41-.37-2.09.47-.68,1.41-.84,2.09-.37l6.88,4.83,7.8-5.77c.67-.49,1.61-.35,2.1.31s.35,1.61-.31,2.1Z"/><path class="cls-3" d="m260.9,311.6l-9.92,4.23c-.59.25-1.28.1-1.71-.39l-6.29-7.1c-.55-.62-.49-1.57.13-2.12.62-.55,1.57-.49,2.12.13l5.57,6.29,8.93-3.8c.76-.32,1.64.03,1.97.79s-.03,1.64-.79,1.97Z"/><path class="cls-3" d="m256.27,330.95l-8.98,5.98c-.54.36-1.24.33-1.75-.07l-7.48-5.83c-.65-.51-.77-1.45-.26-2.1.51-.66,1.45-.77,2.1-.26l6.63,5.17,8.08-5.38c.69-.46,1.62-.27,2.08.42s.27,1.62-.42,2.08Z"/><path class="cls-3" d="m251.23,356.19l-9.13,5.73c-.55.34-1.25.3-1.75-.11l-7.33-6.03c-.64-.53-.73-1.47-.21-2.11.53-.64,1.47-.73,2.11-.21l6.49,5.34,8.22-5.16c.7-.44,1.63-.23,2.07.47s.23,1.63-.47,2.07Z"/><path class="cls-3" d="m246.02,379.2l-9.72,4.67c-.58.28-1.28.15-1.73-.31l-6.6-6.82c-.58-.6-.56-1.54.03-2.12.59-.58,1.55-.56,2.12.03l5.85,6.04,8.75-4.2c.75-.36,1.64-.04,2,.7s.04,1.64-.7,2Z"/><path class="cls-3" d="m240.73,403.07l-10.14,3.68c-.61.22-1.29.03-1.69-.48l-5.89-7.44c-.51-.65-.41-1.59.24-2.11.65-.52,1.59-.4,2.11.24l5.22,6.59,9.12-3.31c.78-.28,1.64.12,1.92.9s-.12,1.64-.9,1.92Z"/></g></g><path class="cls-1" d="m267.32,287.12s67.15,72.44,91.73-27.94c24.58-100.38-70.19-99.07-83.9-95.02-13.72,4.05-28.81,10.73-11.86,24.52,16.95,13.79,70.34-5.36,65.26-36.01-5.08-30.65-83.05-25.29-101.7-13.03-18.64,12.26-40.68-9.2-40.68-9.2"/></svg>