<?xml version="1.0" encoding="UTF-8"?><svg id="Layer_1" xmlns="http://www.w3.org/2000/svg" width="236.56" height="201" viewBox="0 0 236.56 201"><defs><style>.cls-1{fill:#fac158;}.cls-2{fill:#00a89c;}.cls-3{fill:#e6c5be;}.cls-4{fill:#b4bfc5;}.cls-5{fill:#cf7042;}.cls-6{fill:#a47d50;}.cls-7{fill:#c49d6a;}.cls-8{fill:#e1a55d;}.cls-9{fill:#5d718a;}</style></defs><g id="Syning"><path class="cls-2" d="m155.96,85.07l-.66.36c-1.03.56-2.07,1.09-3.09,1.6,1.47,1.42,2.98,2.81,4.53,4.17,1.29-.64,2.55-1.32,3.78-2.03-1.56-1.33-3.08-2.7-4.56-4.1Z"/><path class="cls-4" d="m178.48,72.79c-1.19,2.78-3.38,5.19-5.75,7.41-3.59,3.37-7.71,6.38-12.21,8.97-1.56-1.33-3.08-2.7-4.56-4.1,11.1-6.14,18.28-13.2,16.11-15.94-2.21-2.78-13.31.01-24.78,6.22-.15.08-.3.16-.45.25-1.23.67-2.41,1.35-3.53,2.05-9.17,5.62-14.74,11.55-12.8,13.99,2.01,2.53,11.38.46,21.7-4.61,1.47,1.42,2.98,2.81,4.53,4.17-8.25,4.15-17.59,6.97-27.32,8.16L2.31,195.08c-.57.44-1.38.38-1.89-.13-.6-.6-.55-1.58.1-2.12l121.8-102.03c4.3-6.9,10.14-13.03,17.02-18.01,1.08-.79,2.18-1.54,3.31-2.27,4.8-3.08,10.03-5.62,15.56-7.52,3.31-1.14,6.77-2.06,10.31-2.08,3.54-.02,7.2.97,9.7,3.19l-.11.04c1.67,2.68,1.56,5.87.37,8.64Z"/><g><path class="cls-3" d="m217.39,103.32c-.31.79-1.07,1.27-1.87,1.27-.24,0-.5,0-.72-.13-12.99-7.12-43.99.88-58.06-13.26-1.45-1.46-3.06-2.75-4.53-4.17-3.17-3.03-6.14-6.16-8.9-9.38,1.12-.7,2.3-1.38,3.53-2.05,2.82,3.25,5.87,6.42,9.12,9.47,1.48,1.4,3,2.77,4.56,4.1,14.3,12.39,35.96,3.87,55.73,11.56,1.03.4,1.54,1.56,1.14,2.59Z"/><path class="cls-3" d="m236.55,42.98c-.19,5.56-2.78,10.13-7.28,12.88-5.29,3.22-12.58,3.58-18.4,3.55-15.62-.1-31.28-2.75-45.27-7.68l-.85-.3c-8.17-2.88-17.43-6.14-24.4-2.94-2.5,1.15-3.99,2.76-4.57,4.94-.93,3.5.6,8.49,4.09,13.37.9,1.25,1.82,2.49,2.78,3.72-1.13.73-2.23,1.48-3.31,2.27-.94-1.21-1.85-2.43-2.73-3.66-2-2.8-6.47-10.04-4.69-16.73.89-3.35,3.16-5.89,6.76-7.54,8.44-3.88,18.95-.18,27.4,2.8l.85.3c13.58,4.78,28.78,7.36,43.96,7.45,5.29.04,11.87-.27,16.3-2.97,4.47-2.72,5.28-7.18,5.37-9.6.32-9.43-7.66-19.51-20.84-26.32-13.41-6.93-30.08-9.96-43.11-11.83-4.23-.6-8.69-1.12-12.52-.14-3.69.95-6.21,3.17-7.1,6.26-.88,3.07.06,6.54,2.45,9.06,5.6,5.9,16.19,8.85,24.71,11.23,1.06.29,1.68,1.4,1.39,2.46-.3,1.06-1.4,1.68-2.47,1.39-11.04-3.08-20.65-6.13-26.53-12.32-3.37-3.55-4.67-8.5-3.39-12.93,1.28-4.44,4.9-7.73,9.95-9.02,4.54-1.17,9.44-.61,14.08.05,13.34,1.92,30.43,5.04,44.37,12.23,14.79,7.64,23.39,18.86,23,30.02Z"/></g><path class="cls-9" d="m131.97,161c-12.06,0-21.84,8.95-21.84,20s9.78,20,21.84,20,21.84-8.95,21.84-20-9.78-20-21.84-20Zm-9.05,22.86c-1.9,0-3.43-1.41-3.43-3.14s1.54-3.14,3.43-3.14,3.43,1.41,3.43,3.14-1.54,3.14-3.43,3.14Zm9.36-13.14c1.9,0,3.43,1.41,3.43,3.14s-1.54,3.14-3.43,3.14-3.43-1.41-3.43-3.14,1.54-3.14,3.43-3.14Zm.62,20.57c-1.9,0-3.43-1.41-3.43-3.14s1.54-3.14,3.43-3.14,3.43,1.41,3.43,3.14-1.54,3.14-3.43,3.14Zm9.36-7.43c-1.9,0-3.43-1.41-3.43-3.14s1.54-3.14,3.43-3.14,3.43,1.41,3.43,3.14-1.54,3.14-3.43,3.14Z"/><path class="cls-1" d="m171.47,160c-7.37,0-13.34,6.12-13.34,13.67s5.97,13.67,13.34,13.67,13.34-6.12,13.34-13.67-5.97-13.67-13.34-13.67Zm-5.53,15.62c-1.16,0-2.1-.96-2.1-2.15s.94-2.15,2.1-2.15,2.1.96,2.1,2.15-.94,2.15-2.1,2.15Zm5.72-8.98c1.16,0,2.1.96,2.1,2.15s-.94,2.15-2.1,2.15-2.1-.96-2.1-2.15.94-2.15,2.1-2.15Zm.38,14.06c-1.16,0-2.1-.96-2.1-2.15s.94-2.15,2.1-2.15,2.1.96,2.1,2.15-.94,2.15-2.1,2.15Zm5.72-5.08c-1.16,0-2.1-.96-2.1-2.15s.94-2.15,2.1-2.15,2.1.96,2.1,2.15-.94,2.15-2.1,2.15Z"/><path class="cls-9" d="m160.9,129.84c-7.68,0-13.91,5.93-13.91,13.25s6.23,13.25,13.91,13.25,13.91-5.93,13.91-13.25-6.23-13.25-13.91-13.25Zm-5.76,15.14c-1.21,0-2.19-.93-2.19-2.08s.98-2.08,2.19-2.08,2.19.93,2.19,2.08-.98,2.08-2.19,2.08Zm5.96-8.71c1.21,0,2.19.93,2.19,2.08s-.98,2.08-2.19,2.08-2.19-.93-2.19-2.08.98-2.08,2.19-2.08Zm.4,13.63c-1.21,0-2.19-.93-2.19-2.08s.98-2.08,2.19-2.08,2.19.93,2.19,2.08-.98,2.08-2.19,2.08Zm5.96-4.92c-1.21,0-2.19-.93-2.19-2.08s.98-2.08,2.19-2.08,2.19.93,2.19,2.08-.98,2.08-2.19,2.08Z"/><g><ellipse class="cls-7" cx="56.07" cy="90.36" rx="16.94" ry="4.84"/><path class="cls-1" d="m66.25,44.1v44.66c0,1.38-1.11,2.49-2.49,2.49h-15.18c-.93,0-1.73-.5-2.16-1.25-.17-.29-.28-.62-.32-.97-.01-.09-.01-.18-.01-.27v-44.66c0-1.38,1.11-2.49,2.49-2.49h15.18c.37,0,.72.08,1.03.23.34.14.63.37.86.65.38.43.6.99.6,1.61Z"/><g><path class="cls-8" d="m46.09,57.03v1.02c10.33-1.54,16.75-5.33,20.16-8.02v-1.32c-3.1,2.57-9.53,6.7-20.16,8.32Z"/><path class="cls-8" d="m64.79,41.84c-3.47,2.52-9.52,5.79-18.7,7.19v1.02c9.75-1.45,16.02-4.92,19.56-7.56-.23-.28-.52-.51-.86-.65Z"/><path class="cls-8" d="m46.09,66.05c10.33-1.54,16.75-5.33,20.16-8.02v-1.32c-3.1,2.57-9.53,6.7-20.16,8.32v1.02Z"/><path class="cls-8" d="m46.09,74.05c10.33-1.54,16.75-5.33,20.16-8.02v-1.32c-3.1,2.57-9.53,6.7-20.16,8.32v1.02Z"/><path class="cls-8" d="m46.09,82.05c10.33-1.54,16.75-5.33,20.16-8.02v-1.32c-3.1,2.57-9.53,6.7-20.16,8.32v1.02Z"/><path class="cls-8" d="m46.42,90c10.13-1.57,16.46-5.31,19.83-7.97v-1.32c-3.1,2.57-9.52,6.69-20.15,8.32.04.35.15.68.32.97Z"/></g><g><ellipse class="cls-7" cx="55.6" cy="40.42" rx="16.29" ry="5.42"/><ellipse class="cls-6" cx="55.52" cy="40.18" rx="9.64" ry="2.16"/></g></g><g><ellipse class="cls-7" cx="92.07" cy="80.36" rx="16.94" ry="4.84"/><path class="cls-3" d="m102.25,34.1v44.66c0,1.38-1.11,2.49-2.49,2.49h-15.18c-.93,0-1.73-.5-2.16-1.25-.17-.29-.28-.62-.32-.97-.01-.09-.01-.18-.01-.27v-44.66c0-1.38,1.11-2.49,2.49-2.49h15.18c.37,0,.72.08,1.03.23.34.14.63.37.86.65.38.43.6.99.6,1.61Z"/><g><path class="cls-5" d="m82.09,47.03v1.02c10.33-1.54,16.75-5.33,20.16-8.02v-1.32c-3.1,2.57-9.53,6.7-20.16,8.32Z"/><path class="cls-5" d="m100.79,31.84c-3.47,2.52-9.52,5.79-18.7,7.19v1.02c9.75-1.45,16.02-4.92,19.56-7.56-.23-.28-.52-.51-.86-.65Z"/><path class="cls-5" d="m82.09,56.05c10.33-1.54,16.75-5.33,20.16-8.02v-1.32c-3.1,2.57-9.53,6.7-20.16,8.32v1.02Z"/><path class="cls-5" d="m82.09,64.05c10.33-1.54,16.75-5.33,20.16-8.02v-1.32c-3.1,2.57-9.53,6.7-20.16,8.32v1.02Z"/><path class="cls-5" d="m82.09,72.05c10.33-1.54,16.75-5.33,20.16-8.02v-1.32c-3.1,2.57-9.53,6.7-20.16,8.32v1.02Z"/><path class="cls-5" d="m82.42,80c10.13-1.57,16.46-5.31,19.83-7.97v-1.32c-3.1,2.57-9.52,6.69-20.15,8.32.04.35.15.68.32.97Z"/></g><g><ellipse class="cls-7" cx="91.6" cy="30.42" rx="16.29" ry="5.42"/><ellipse class="cls-6" cx="91.52" cy="30.18" rx="9.64" ry="2.16"/></g></g></g></svg>