<?xml version="1.0" encoding="UTF-8"?><svg id="Layer_1" xmlns="http://www.w3.org/2000/svg" width="380" height="425" viewBox="0 0 380 425"><defs><style>.cls-1{fill:#fac158;}.cls-2{fill:#e6c5be;}.cls-3{fill:#b4bfc5;}.cls-4{fill:#cf7042;}.cls-5{fill:#a47d50;}.cls-6{fill:#c49d6a;}.cls-7{fill:#e1a55d;}.cls-8{fill:#5d718a;}</style></defs><path class="cls-3" d="m282.37,161.02c-1.83,4.27-5.19,7.96-8.82,11.37-5.51,5.17-11.83,9.79-18.74,13.76-2.39-2.04-4.73-4.14-7-6.29,17.03-9.42,28.05-20.26,24.72-24.46-3.39-4.27-20.42.02-38.02,9.54-.23.12-.46.25-.69.38-1.89,1.03-3.7,2.07-5.42,3.15-14.07,8.62-22.62,17.72-19.64,21.47,3.08,3.88,17.46.71,33.3-7.07,2.26,2.18,4.57,4.31,6.95,6.4-12.66,6.37-26.99,10.7-41.92,12.52L12.05,348.67c-.87.68-2.12.58-2.9-.2-.92-.92-.84-2.42.15-3.25l186.9-156.56c6.6-10.59,15.56-19.99,26.12-27.64,1.66-1.21,3.35-2.36,5.08-3.48,7.37-4.73,15.39-8.62,23.88-11.54,5.08-1.75,10.39-3.16,15.82-3.19,5.43-.03,11.05,1.49,14.88,4.89l-.17.06c2.56,4.11,2.39,9.01.57,13.26Z"/><g><path class="cls-2" d="m342.08,207.87c-.48,1.21-1.64,1.95-2.87,1.95-.37,0-.76-.01-1.1-.2-19.93-10.93-67.5,1.35-89.09-20.35-2.23-2.24-4.7-4.22-6.95-6.4-4.86-4.65-9.42-9.45-13.66-14.39,1.72-1.07,3.53-2.12,5.42-3.15,4.33,4.99,9.01,9.85,13.99,14.53,2.27,2.15,4.6,4.25,7,6.29,21.94,19.01,55.18,5.94,85.52,17.74,1.58.61,2.36,2.39,1.75,3.97Z"/><path class="cls-2" d="m371.48,115.28c-.29,8.53-4.27,15.54-11.17,19.76-8.12,4.94-19.3,5.49-28.23,5.45-23.97-.15-48-4.22-69.47-11.78l-1.3-.46c-12.54-4.42-26.75-9.42-37.44-4.51-3.84,1.76-6.12,4.24-7.01,7.58-1.43,5.37.92,13.03,6.28,20.52,1.38,1.92,2.79,3.82,4.27,5.71-1.73,1.12-3.42,2.27-5.08,3.48-1.44-1.86-2.84-3.73-4.19-5.62-3.07-4.3-9.93-15.41-7.2-25.67,1.37-5.14,4.85-9.04,10.37-11.57,12.95-5.95,29.08-.28,42.04,4.3l1.3.46c20.84,7.33,44.16,11.29,67.46,11.43,8.12.06,18.21-.41,25.01-4.56,6.86-4.17,8.1-11.02,8.24-14.73.49-14.47-11.75-29.94-31.98-40.39-20.58-10.63-46.16-15.28-66.15-18.15-6.49-.92-13.33-1.72-19.21-.21-5.66,1.46-9.53,4.86-10.89,9.61-1.35,4.71.09,10.04,3.76,13.9,8.59,9.05,24.84,13.58,37.92,17.23,1.63.44,2.58,2.15,2.13,3.77-.46,1.63-2.15,2.58-3.79,2.13-16.94-4.73-31.69-9.41-40.71-18.9-5.17-5.45-7.17-13.04-5.2-19.84,1.96-6.81,7.52-11.86,15.27-13.84,6.97-1.8,14.49-.94,21.61.08,20.47,2.95,46.69,7.73,68.08,18.77,22.69,11.72,35.89,28.94,35.29,46.06Z"/></g><path class="cls-8" d="m282.21,314.3c-18.51,0-33.51,13.74-33.51,30.69s15,30.69,33.51,30.69,33.51-13.74,33.51-30.69-15-30.69-33.51-30.69Zm-13.88,35.07c-2.91,0-5.27-2.16-5.27-4.82s2.36-4.82,5.27-4.82,5.27,2.16,5.27,4.82-2.36,4.82-5.27,4.82Zm14.36-20.17c2.91,0,5.27,2.16,5.27,4.82s-2.36,4.82-5.27,4.82-5.27-2.16-5.27-4.82,2.36-4.82,5.27-4.82Zm.96,31.57c-2.91,0-5.27-2.16-5.27-4.82s2.36-4.82,5.27-4.82,5.27,2.16,5.27,4.82-2.36,4.82-5.27,4.82Zm14.36-11.4c-2.91,0-5.27-2.16-5.27-4.82s2.36-4.82,5.27-4.82,5.27,2.16,5.27,4.82-2.36,4.82-5.27,4.82Z"/><path class="cls-1" d="m214.84,321.35c-11.3,0-20.47,9.39-20.47,20.98s9.16,20.98,20.47,20.98,20.47-9.39,20.47-20.98-9.16-20.98-20.47-20.98Zm-8.48,23.97c-1.78,0-3.22-1.48-3.22-3.3s1.44-3.3,3.22-3.3,3.22,1.48,3.22,3.3-1.44,3.3-3.22,3.3Zm8.77-13.78c1.78,0,3.22,1.48,3.22,3.3s-1.44,3.3-3.22,3.3-3.22-1.48-3.22-3.3,1.44-3.3,3.22-3.3Zm.58,21.58c-1.78,0-3.22-1.48-3.22-3.3s1.44-3.3,3.22-3.3,3.22,1.48,3.22,3.3-1.44,3.3-3.22,3.3Zm8.77-7.79c-1.78,0-3.22-1.48-3.22-3.3s1.44-3.3,3.22-3.3,3.22,1.48,3.22,3.3-1.44,3.3-3.22,3.3Z"/><path class="cls-8" d="m237.63,272.44c-11.79,0-21.35,9.1-21.35,20.33s9.56,20.33,21.35,20.33,21.35-9.1,21.35-20.33-9.56-20.33-21.35-20.33Zm-8.84,23.24c-1.85,0-3.35-1.43-3.35-3.2s1.5-3.2,3.35-3.2,3.35,1.43,3.35,3.2-1.5,3.2-3.35,3.2Zm9.15-13.36c1.85,0,3.35,1.43,3.35,3.2s-1.5,3.2-3.35,3.2-3.35-1.43-3.35-3.2,1.5-3.2,3.35-3.2Zm.61,20.91c-1.85,0-3.35-1.43-3.35-3.2s1.5-3.2,3.35-3.2,3.35,1.43,3.35,3.2-1.5,3.2-3.35,3.2Zm9.15-7.55c-1.85,0-3.35-1.43-3.35-3.2s1.5-3.2,3.35-3.2,3.35,1.43,3.35,3.2-1.5,3.2-3.35,3.2Z"/><g><ellipse class="cls-6" cx="80.78" cy="196.52" rx="25.99" ry="7.43"/><path class="cls-1" d="m96.4,125.54v68.53c0,2.12-1.7,3.82-3.82,3.82h-23.29c-1.43,0-2.65-.77-3.31-1.92-.26-.44-.43-.95-.49-1.49-.02-.14-.02-.28-.02-.41v-68.53c0-2.12,1.7-3.82,3.82-3.82h23.29c.57,0,1.1.12,1.58.35.52.21.97.57,1.32,1,.58.66.92,1.52.92,2.47Z"/><g><path class="cls-7" d="m65.47,145.38v1.57c15.85-2.36,25.7-8.18,30.93-12.31v-2.03c-4.76,3.94-14.62,10.28-30.93,12.77Z"/><path class="cls-7" d="m94.16,122.07c-5.32,3.87-14.61,8.88-28.69,11.03v1.57c14.96-2.22,24.58-7.55,30.01-11.6-.35-.43-.8-.78-1.32-1Z"/><path class="cls-7" d="m65.47,159.22c15.85-2.36,25.7-8.18,30.93-12.31v-2.03c-4.76,3.94-14.62,10.28-30.93,12.77v1.57Z"/><path class="cls-7" d="m65.47,171.5c15.85-2.36,25.7-8.18,30.93-12.31v-2.03c-4.76,3.94-14.62,10.28-30.93,12.77v1.57Z"/><path class="cls-7" d="m65.47,183.77c15.85-2.36,25.7-8.18,30.93-12.31v-2.03c-4.76,3.94-14.62,10.28-30.93,12.77v1.57Z"/><path class="cls-7" d="m65.97,195.97c15.54-2.41,25.26-8.15,30.43-12.23v-2.03c-4.76,3.94-14.61,10.27-30.92,12.77.06.54.23,1.04.49,1.49Z"/></g><g><ellipse class="cls-6" cx="80.05" cy="119.89" rx="25" ry="8.32"/><ellipse class="cls-5" cx="79.93" cy="119.53" rx="14.79" ry="3.31"/></g></g><g><ellipse class="cls-6" cx="136.02" cy="181.18" rx="25.99" ry="7.43"/><path class="cls-2" d="m151.64,110.2v68.53c0,2.12-1.7,3.82-3.82,3.82h-23.29c-1.43,0-2.65-.77-3.31-1.92-.26-.44-.43-.95-.49-1.49-.02-.14-.02-.28-.02-.41v-68.53c0-2.12,1.7-3.82,3.82-3.82h23.29c.57,0,1.1.12,1.58.35.52.21.97.57,1.32,1,.58.66.92,1.52.92,2.47Z"/><g><path class="cls-4" d="m120.71,130.04v1.57c15.85-2.36,25.7-8.18,30.93-12.31v-2.03c-4.76,3.94-14.62,10.28-30.93,12.77Z"/><path class="cls-4" d="m149.4,106.73c-5.32,3.87-14.61,8.88-28.69,11.03v1.57c14.96-2.22,24.58-7.55,30.01-11.6-.35-.43-.8-.78-1.32-1Z"/><path class="cls-4" d="m120.71,143.88c15.85-2.36,25.7-8.18,30.93-12.31v-2.03c-4.76,3.94-14.62,10.28-30.93,12.77v1.57Z"/><path class="cls-4" d="m120.71,156.15c15.85-2.36,25.7-8.18,30.93-12.31v-2.03c-4.76,3.94-14.62,10.28-30.93,12.77v1.57Z"/><path class="cls-4" d="m120.71,168.43c15.85-2.36,25.7-8.18,30.93-12.31v-2.03c-4.76,3.94-14.62,10.28-30.93,12.77v1.57Z"/><path class="cls-4" d="m121.21,180.63c15.54-2.41,25.26-8.15,30.43-12.23v-2.03c-4.76,3.94-14.61,10.27-30.92,12.77.06.54.23,1.04.49,1.49Z"/></g><g><ellipse class="cls-6" cx="135.29" cy="104.55" rx="25" ry="8.32"/><ellipse class="cls-5" cx="135.18" cy="104.19" rx="14.79" ry="3.31"/></g></g></svg>