<?xml version="1.0" encoding="UTF-8"?><svg id="Layer_1" xmlns="http://www.w3.org/2000/svg" width="452.74" height="501.57" viewBox="0 0 452.74 501.57"><defs><style>.cls-1{fill:#fac158;}.cls-2{fill:#f1f1f1;}.cls-3{fill:#e6c5be;}.cls-4{fill:#cf7042;}.cls-5{fill:#cbcbcb;}.cls-6{fill:#c49d6a;}.cls-7{fill:#5d718a;}</style></defs><g id="Tegne"><path class="cls-5" d="m40.63,76.72s62.79-9.52,120.69-5.55c57.9,3.97,110.69,2.29,110.69,2.29,0,0,14.89,92.93,12.45,131.02-2.45,38.09,24.46,176.17,24.46,176.17,0,0-80.73,15.08-112.54,5.55-31.8-9.52-124.77,7.14-124.77,7.14,0,0-12.23-262.67-30.99-316.63Z"/><path class="cls-2" d="m48.79,66.4s62.79-9.52,120.69-5.55c57.9,3.97,110.69,2.29,110.69,2.29,0,0,14.89,92.93,12.45,131.02-2.45,38.09,24.46,176.17,24.46,176.17,0,0-80.73,15.08-112.54,5.55-31.8-9.52-124.77,7.14-124.77,7.14,0,0-12.23-262.67-30.99-316.63Z"/><g><rect class="cls-3" x="338.86" y="424.54" width="82.4" height="37" rx="12" ry="12" transform="translate(-202.51 479.71) rotate(-52.98)"/><rect class="cls-4" x="358.23" y="424.34" width="43.96" height="37" transform="translate(-202.29 479.75) rotate(-52.98)"/></g><g><path class="cls-1" d="m347.46,417.3c-5.92,1.49-13.21-1.03-16.88-2.58-1.39-.59-2.2-2.03-1.99-3.52l19.34-133.77c.24,1.55,1.23,2.75,2.56,2.94,1.73.25,3.38-1.32,3.7-3.51-.31,2.19.84,4.16,2.57,4.41s3.39-1.32,3.71-3.51c-.31,2.19.83,4.16,2.56,4.41s3.39-1.32,3.71-3.51l.15.02-16.99,135.83c-.17,1.34-1.13,2.46-2.43,2.79Z"/><path class="cls-6" d="m366.88,278.64v.04s-.15-.02-.15-.02c-.31,2.19-1.97,3.76-3.71,3.51s-2.87-2.22-2.56-4.41c-.31,2.19-1.97,3.76-3.71,3.51s-2.88-2.22-2.57-4.41c-.31,2.19-1.96,3.76-3.7,3.51-1.33-.19-2.32-1.39-2.56-2.94l.08-.54,8.32-17.64,2.6-5.51c.27-.63.8-.98,1.36-1.06.84-.11,1.74.37,1.97,1.36l1.16,6.15,3.46,18.45Z"/><path class="cls-7" d="m363.42,260.19c-.96.97-2.36,1.49-3.82,1.28s-2.61-1.06-3.27-2.23l2.6-5.51c.27-.63.8-.98,1.36-1.06.84-.11,1.74.37,1.97,1.36l1.16,6.15Z"/></g><g><path class="cls-1" d="m390.98,347.89c-6.08.57-12.9-3.03-16.29-5.12-1.28-.79-1.87-2.34-1.43-3.78l39.47-129.27c0,1.57.8,2.91,2.08,3.3,1.67.51,3.54-.79,4.19-2.91-.64,2.11.19,4.24,1.87,4.75s3.55-.79,4.2-2.9c-.64,2.11.18,4.24,1.86,4.75s3.55-.79,4.2-2.9l.14.04-37.46,131.66c-.37,1.3-1.49,2.26-2.83,2.39Z"/><path class="cls-6" d="m431.28,213.8v.04s-.16-.04-.16-.04c-.64,2.11-2.52,3.41-4.2,2.9s-2.5-2.63-1.86-4.75c-.64,2.11-2.52,3.41-4.2,2.9s-2.51-2.64-1.87-4.75c-.64,2.11-2.51,3.42-4.19,2.91-1.28-.39-2.08-1.73-2.08-3.3l.16-.53,10.91-16.16,3.41-5.05c.36-.58.94-.84,1.51-.84.85.02,1.67.63,1.74,1.65l.21,6.25.61,18.76Z"/><path class="cls-7" d="m430.67,195.04c-1.1.82-2.56,1.11-3.97.68s-2.41-1.45-2.89-2.7l3.41-5.05c.36-.58.94-.84,1.51-.84.85.02,1.67.63,1.74,1.65l.21,6.25Z"/></g></g></svg>