<?xml version="1.0" encoding="UTF-8"?><svg id="Layer_1" xmlns="http://www.w3.org/2000/svg" width="380" height="425" viewBox="0 0 380 425"><defs><style>.cls-1{fill:#fac158;}.cls-2{fill:#f1f1f1;}.cls-3{fill:#e6c5be;}.cls-4{fill:#cf7042;}.cls-5{fill:#cbcbcb;}.cls-6{fill:#c49d6a;}.cls-7{fill:#5d718a;}</style></defs><g id="Tegne"><path class="cls-5" d="m9.53,33.03s58.02-8.8,111.51-5.13c53.5,3.67,102.27,2.12,102.27,2.12,0,0,13.76,85.86,11.5,121.06-2.26,35.19,22.6,162.77,22.6,162.77,0,0-74.59,13.93-103.98,5.13-29.38-8.8-115.28,6.6-115.28,6.6,0,0-11.3-242.68-28.63-292.54Z"/><path class="cls-2" d="m17.07,23.5s58.02-8.8,111.51-5.13c53.5,3.67,102.27,2.12,102.27,2.12,0,0,13.76,85.86,11.5,121.06-2.26,35.19,22.6,162.77,22.6,162.77,0,0-74.59,13.93-103.98,5.13-29.38-8.8-115.28,6.6-115.28,6.6,0,0-11.3-242.68-28.63-292.54Z"/><g><rect class="cls-3" x="285.07" y="354.4" width="76.13" height="34.19" rx="12" ry="12" transform="translate(-168.03 405.8) rotate(-52.98)"/><rect class="cls-4" x="302.97" y="354.21" width="40.62" height="34.19" transform="translate(-167.83 405.83) rotate(-52.98)"/></g><g><path class="cls-1" d="m293.02,347.71c-5.47,1.38-12.21-.95-15.59-2.39-1.28-.54-2.03-1.88-1.83-3.25l17.87-123.6c.22,1.43,1.14,2.54,2.36,2.72,1.6.23,3.13-1.22,3.42-3.24-.29,2.02.77,3.84,2.37,4.07s3.13-1.22,3.42-3.24c-.29,2.02.76,3.84,2.36,4.07s3.13-1.22,3.42-3.24l.14.02-15.69,125.5c-.15,1.24-1.04,2.28-2.25,2.58Z"/><path class="cls-6" d="m310.97,219.59v.04s-.14-.02-.14-.02c-.29,2.02-1.82,3.47-3.42,3.24s-2.66-2.05-2.36-4.07c-.29,2.02-1.82,3.47-3.42,3.24s-2.66-2.05-2.37-4.07c-.29,2.02-1.81,3.47-3.42,3.24-1.23-.18-2.14-1.29-2.36-2.72l.07-.5,7.69-16.29,2.4-5.09c.25-.58.74-.9,1.26-.98.78-.1,1.61.34,1.82,1.26l1.07,5.68,3.2,17.05Z"/><path class="cls-7" d="m307.77,202.55c-.89.9-2.18,1.38-3.53,1.18s-2.41-.98-3.02-2.06l2.4-5.09c.25-.58.74-.9,1.26-.98.78-.1,1.61.34,1.82,1.26l1.07,5.68Z"/></g><g><path class="cls-1" d="m333.23,283.58c-5.61.53-11.92-2.8-15.05-4.73-1.18-.73-1.72-2.16-1.32-3.49l36.47-119.44c0,1.45.74,2.69,1.92,3.05,1.55.47,3.27-.73,3.87-2.69-.59,1.95.18,3.92,1.73,4.39s3.28-.73,3.88-2.68c-.59,1.95.17,3.91,1.72,4.39s3.28-.73,3.88-2.68l.13.04-34.61,121.65c-.34,1.2-1.37,2.09-2.62,2.21Z"/><path class="cls-6" d="m370.47,159.69v.04s-.14-.04-.14-.04c-.59,1.95-2.33,3.15-3.88,2.68s-2.31-2.43-1.72-4.39c-.59,1.95-2.33,3.15-3.88,2.68s-2.32-2.43-1.73-4.39c-.59,1.95-2.32,3.16-3.87,2.69-1.18-.36-1.92-1.6-1.92-3.05l.15-.49,10.08-14.93,3.15-4.66c.34-.54.87-.78,1.39-.77.79.02,1.54.58,1.6,1.52l.19,5.78.57,17.33Z"/><path class="cls-7" d="m369.9,142.35c-1.01.75-2.36,1.03-3.67.63s-2.23-1.34-2.67-2.49l3.15-4.66c.34-.54.87-.78,1.39-.77.79.02,1.54.58,1.6,1.52l.19,5.78Z"/></g></g></svg>