<?xml version="1.0" encoding="UTF-8"?><svg id="Layer_1" xmlns="http://www.w3.org/2000/svg" width="368.05" height="272.94" viewBox="0 0 368.05 272.94"><defs><style>.cls-1{fill:#e6c5be;}.cls-2{fill:#b4bfc5;}.cls-3{fill:#cf7042;}.cls-4{fill:#e1a55d;}</style></defs><g id="tufting"><path class="cls-3" d="m113.59,101.06c-.43,7.06-2.94,15.47-4.89,20.49-.84,2.18-1.58,3.72-2,4.24-1.14,1.43-2.09,8.72-2.63,14.02-.22,2.1.57,4.02,1.79,5.72.21.28.42.55.64.82.23.28.29.65.04,1.15-1,2-5-1-7,2s-2,7-10.91,29.04c-8.91,22.04-3.09,32.96-1.09,35.96s1,4-1,5c-1.67.84-34.19-.43-44.73-.86-2.11-.09-4.09-.99-5.55-2.51-3.64-3.77-7.82-11.15,4.28-42.63,15-39,14-44,14-49s-9-6-10-16c-.38-3.89-.02-7.18.58-9.74.85-3.68,4.15-6.26,7.92-6.26h52.41c4.66,0,8.42,3.91,8.14,8.56Z"/><path class="cls-4" d="m118.24,122.34l-3.98,4.92c-.31.37-.47.83-.48,1.31l-.12,15.9c-.01.63-.52,1.14-1.15,1.13l-6.65-.07c-1.22-1.7-2.01-3.62-1.79-5.72.54-5.3,1.49-12.59,2.63-14.02.42-.52,1.16-2.06,2-4.24h9.16c.41,0,.63.47.38.79Z"/><path class="cls-3" d="m43.98,92.5h-1.72c-2.02,0-3.64-1.68-3.56-3.7l1.72-45.87c.07-1.92,1.65-3.43,3.56-3.43h0c1.97,0,3.57,1.6,3.57,3.57v45.87c0,1.97-1.6,3.57-3.57,3.57Z"/><path class="cls-1" d="m103.44,87.86l.55-12.71c.11-2.6,1.95-4.65,4.19-4.65h79.4c2.31,0,4.19-2.19,4.19-4.89v-21.22c0-2.7-1.88-4.89-4.19-4.89H51.74c-2.31,0-4.19,2.19-4.19,4.89v43.22c0,2.7,1.88,4.89,4.19,4.89h47.52c2.23,0,4.07-2.04,4.19-4.65Z"/><polygon class="cls-1" points="184.63 56.39 282.62 56.63 282.5 45.42 184.63 45.42 184.63 56.39"/><path class="cls-1" d="m187.7,74.9l96.92.95c1.72.02,3.13-1.37,3.13-3.09v-2.25c0-1.71-1.39-3.09-3.09-3.09h-96.92c-1.71,0-3.09,1.39-3.09,3.09v1.3c0,1.7,1.37,3.08,3.06,3.09Z"/><path class="cls-1" d="m284.69,55.14h50.86v.5s-10,1.5-13,4.5h-37.86v-5Z"/><path class="cls-4" d="m218.31,66.01v12c0,1.74,1.42,3.14,3.16,3.13l29.74-.24c1.72-.01,3.11-1.41,3.11-3.13v-11.76c0-1.73-1.4-3.13-3.13-3.13h-29.74c-1.73,0-3.13,1.4-3.13,3.13Z"/><path class="cls-1" d="m114.24,70.5v8.64c0,2.43,1.69,4.4,3.77,4.4h65.21c2.08,0,3.77-1.97,3.77-4.4v-8.64h-72.75Z"/><path class="cls-1" d="m282.11,37.85h-.19c-1.67,0-3.02,1.35-3.02,3.02v29.53c0,1.17.66,2.17,1.63,2.68l.08,38.1h-5.43l-.08-5.11c0-.4-.33-.73-.73-.73h-2.29c-.4,0-.73.33-.73.73l.08,5.11h-5.43c-.62,0-1.51.19-1.55,1.51-.04,1.44.85,1.65,1.47,1.65l16.51-.08c.67-.01,1.13-.53,1.12-1.12l.06-40.07c1.11-.04,1.54-1.62,1.51-2.66v-29.53c0-1.67-1.35-3.02-3.02-3.02Z"/><rect class="cls-1" x="267.62" y="108.54" width="12" height="3" rx=".99" ry=".99"/><path class="cls-3" d="m41.82,218.64l1.66,4.09c.19.48.66.79,1.18.79l14.74-.02,1.63-4.15-19.21-.71Z"/><path class="cls-4" d="m44.55,264.27v-40.76h14.85v40.76c0,1.79-1.45,3.24-3.24,3.24h-8.38c-1.79,0-3.24-1.45-3.24-3.24Z"/><path class="cls-4" d="m65.71,219.46v1.58s-2.93,8.31.18,15.05c.39.85,1.27,1.38,2.22,1.38h5.56c1.03,0,1.96-.64,2.32-1.61,2.76-7.57.41-14.75.41-14.75l.04-1.36-10.73-.29Z"/><path class="cls-3" d="m283.33,144.22c-1.4-5.03-1.57-8.01-1.48-9.61h0c.03-.46.07-.8.12-1.04.08-.41.12-.81.12-1.23v-18.08h-16.38v17.96c0,.49.05.97.16,1.45.08.37.14.77.17,1.22h0c.2,2.79-.58,6.91-1.34,10.16-.42,1.77-.83,3.27-1.08,4.16-.17.59-.25,1.19-.25,1.81v47.56c0,2.85,2.24,5.18,4.97,5.18h11.9c2.73,0,4.97-2.33,4.97-5.18v-47.38c0-.75-.13-1.49-.37-2.2-.61-1.76-1.11-3.35-1.5-4.78Z"/><path class="cls-2" d="m322.95,40.95c.03,5.8-1.57,33.89-10.21,42.17-.59.57-2.68,2.6-4.79,3.23s-13,.24-15.92-.51c-2.93-.75-6.54-1.55-7.74-4.83s-.85-5.21-.85-5.21c.61-.16,2.82-.68,3.26-1.16,0,0-.13,3.98,2.62,4.4,2.73.42,15.9,1.27,17.68,0s9.25-8.61,9.27-38.6c0,0,.06-2.62-1.72-2.98-1.74-.36-6.05-1.47-6.05-1.47v-2.53s7.95.95,7.95.95c0,0,6.46.53,6.5,6.54Z"/><path class="cls-4" d="m243.53,39.5h32.57c1.54,0,2.8,1.25,2.8,2.8v3.2h-38.16v-3.2c0-1.54,1.25-2.8,2.8-2.8Z"/><path class="cls-2" d="m283.96,11.5c-1-1-2,0-2,0-1-1-1.74.33-1.74.33-1.74-1.67-2.26,0-2.26,0,2,3.33-6,22.67-7,23.67s-18.1,2-18.1,2v2h9.68s5.42,0,8.42-1c2.85-.95,4-4,4-4l4-11s1.41,1,2.09,0c0,0,1.13,1,1.91,0,2-5,2-11,1-12Z"/><path class="cls-4" d="m165.07,32.5h19.97c1.39,0,2.52,1.13,2.52,2.52v4.48h-25v-4.48c0-1.39,1.13-2.52,2.52-2.52Z"/><rect class="cls-1" x="168.55" y="23.5" width="19" height="9" rx="4.5" ry="4.5"/><rect class="cls-1" x="184.55" y="25.5" width="89" height="6" rx="3" ry="3"/><rect class="cls-1" x="252.02" y="20.5" width="11.72" height="19" rx="2.93" ry="2.93"/><path class="cls-3" d="m135.15,39.5h-39.93s-.27-11.49,0-12.18c.26-.71.1-.39,1.04-2.22,1.11-2.19,2.63-3.79.93-6.82-1.53-2.73-1.88-9.47.03-10.91,7-1.46,13.16-1.93,18.3-1.93.5,0,.99,0,1.48.02,4.68.12,10.11.64,16.17,1.9,1.92,1.42,1.57,8.19.03,10.92-1.7,3.03-.17,4.63.93,6.82.93,1.83.77,1.52,1.03,2.22.27.7,0,11.84,0,12.18Z"/></g></svg>